<?xml version="1.0" encoding="UTF-8"?>
<svg id="Layer_1" data-name="Layer 1" xmlns="http://www.w3.org/2000/svg" viewBox="0 0 118.61 79.08">
  <defs>
    <style>
      .cls-1 {
        fill: #f4b31a;
      }

      .cls-1, .cls-2, .cls-3, .cls-4 {
        stroke-width: 0px;
      }

      .cls-2 {
        fill: #74a9dc;
      }

      .cls-3 {
        fill: #823312;
      }

      .cls-4 {
        fill: #fff;
      }
    </style>
  </defs>
  <g>
    <rect class="cls-4" y="26.36" width="118.61" height="26.36"/>
    <rect class="cls-2" width="118.61" height="26.36"/>
    <rect class="cls-2" y="52.72" width="118.61" height="26.35"/>
  </g>
  <g>
    <path class="cls-1" d="M62.32,32.26l-1.41,3.07c-.07-.02-.15-.05-.22-.07l2.71-5.77c.02-.07.07-.05.09-.04s.07.03.05.1l-2.17,5.99c-.07-.03-.14-.07-.21-.1l1.17-3.17Z"/>
    <path class="cls-1" d="M60.02,35.09c0-.74.07-1.66.38-2.46.05-.12.11-.25.18-.37.06-.12.12-.24.17-.37.12-.29.21-.61.25-.92.02-.17.02-.36.02-.53,0-.13,0-.27,0-.4.02-.22.08-.42.18-.6.12-.22.26-.37.36-.41h0c-.03.07-.08.15-.13.22-.07.13-.16.26-.19.42-.03.16,0,.44.05.73.03.22.07.46.07.62,0,.32-.17.96-.41,1.53-.17.39-.27.82-.32,1.32-.02.22-.03.44-.03.68s-.03.47-.09.63c-.05,0-.1-.02-.16-.04.02-.08.02-.18.04-.32.02-.15.02-.32.02-.51,0-.18,0-.38.02-.57,0-.19.03-.39.07-.57.04-.18.09-.34.14-.48.04-.14.09-.26.12-.34.02-.06.04-.1.05-.12,0,.02-.03.06-.05.12-.04.08-.09.19-.15.32-.05.14-.11.3-.17.48-.05.17-.09.37-.12.57s-.02.4-.04.57c-.02.18-.04.36-.06.5-.02.12-.04.22-.06.3-.05,0-.1-.02-.15-.02Z"/>
    <path class="cls-1" d="M58.94,35.05l.29-6.37c0-.07.06-.07.07-.07s.07,0,.07.07l.29,6.37c-.07,0-.16-.02-.23-.02l-.13-3.38-.13,3.38c-.07,0-.16,0-.23.02Z"/>
    <path class="cls-1" d="M57.41,30.47c-.06-.12-.12-.24-.16-.37-.07-.21-.08-.42-.06-.62.03-.26.1-.44.17-.52h0c0,.09-.02.17-.03.27-.02.14-.05.3-.02.45.03.17.17.41.32.66.12.2.24.4.3.55.13.31.21.96.21,1.58,0,.42.07.86.22,1.34.06.21.13.42.22.65.09.21.15.43.16.61h0s-.1.02-.16.03c-.02-.08-.05-.19-.08-.31-.04-.15-.1-.31-.17-.48-.07-.17-.15-.35-.22-.54-.06-.18-.11-.37-.14-.55-.03-.18-.04-.35-.06-.5,0-.15,0-.27-.02-.36v-.13.13c0,.08,0,.21,0,.36s0,.32.02.51c.02.18.06.38.12.57.05.19.12.37.17.55.06.17.1.34.13.48.03.12.05.22.07.29-.05.02-.1.02-.15.03-.27-.68-.57-1.55-.59-2.41,0-.13,0-.27.02-.42,0-.13.02-.27.02-.41,0-.32-.05-.65-.12-.96-.05-.17-.12-.33-.19-.5Z"/>
    <path class="cls-1" d="M56.29,32.26l1.17,3.17c-.07.03-.14.07-.22.11l-2.16-5.99c-.02-.07.02-.09.04-.1s.07-.02.1.04l2.7,5.77c-.07.02-.14.05-.22.07l-1.42-3.07Z"/>
    <path class="cls-1" d="M55.94,34.72c.12.16.26.3.37.44.12.13.22.27.32.39.07.09.12.18.17.25-.04.02-.08.06-.12.09-.52-.53-1.12-1.22-1.47-2.01-.06-.12-.1-.25-.14-.39-.04-.12-.07-.26-.13-.39-.12-.29-.28-.57-.48-.83-.1-.14-.23-.27-.37-.38-.09-.09-.2-.19-.28-.28-.14-.17-.24-.36-.29-.55-.07-.23-.07-.42-.03-.54.02.07.05.16.07.25.03.14.07.29.16.42s.32.31.56.48c.18.13.37.27.48.39.22.24.56.81.79,1.38.16.38.39.77.72,1.16.13.17.29.33.46.51.16.17.3.35.38.51h0s-.09.06-.13.08c-.05-.07-.12-.15-.2-.25-.1-.12-.21-.25-.34-.38-.13-.13-.27-.27-.4-.42-.13-.14-.25-.3-.34-.46-.1-.15-.18-.3-.25-.43-.07-.13-.12-.25-.15-.32-.02-.07-.05-.12-.05-.12,0,0,.02.06.04.12.03.08.07.2.13.33.06.14.13.29.22.46.09.17.2.33.32.49Z"/>
    <path class="cls-1" d="M53.74,33.96l2.3,2.49c-.06.05-.11.11-.16.17l-4.3-4.71s0-.09,0-.1c0-.02.06-.05.11,0l4.7,4.3-.17.15-2.48-2.3Z"/>
    <path class="cls-1" d="M53.07,35.59c-.08-.11-.18-.22-.28-.32-.22-.22-.48-.42-.76-.58-.16-.09-.32-.16-.48-.22-.12-.05-.26-.09-.37-.16-.19-.09-.36-.23-.48-.39-.15-.19-.23-.37-.23-.48.05.06.1.12.15.2.09.12.18.25.31.33.14.09.41.17.7.23.22.06.45.12.6.18.31.13.82.53,1.27.97.29.3.65.56,1.1.8.19.1.39.2.62.29.22.09.42.21.55.33h0l-.1.12c-.07-.04-.17-.1-.28-.16-.13-.07-.28-.15-.46-.22-.17-.07-.35-.14-.52-.22-.17-.09-.34-.19-.5-.29-.15-.11-.28-.22-.39-.32-.11-.1-.2-.18-.26-.24-.04-.03-.07-.06-.09-.07.02.02.04.04.08.08.06.06.14.15.25.26.1.1.23.22.37.33.15.12.31.23.48.33.17.1.36.17.52.26.16.08.31.17.43.25.1.06.19.12.26.17-.03.04-.06.08-.08.12-.68-.29-1.51-.69-2.12-1.28-.1-.1-.19-.2-.28-.31Z"/>
    <path class="cls-1" d="M55.02,38.16l-5.77-2.71c-.06-.02-.04-.08-.04-.1,0,0,.04-.07.1-.04l5.99,2.17c-.03.07-.07.14-.1.21l-3.17-1.17,3.07,1.41c-.03.07-.06.15-.08.22Z"/>
    <path class="cls-1" d="M49.21,37.64c-.22-.12-.37-.26-.42-.36h0c.07.03.15.08.22.13.12.07.26.16.41.19.17.02.44,0,.74-.06.22-.03.46-.07.62-.06.33,0,.97.17,1.54.41.38.16.82.27,1.32.32.22.02.45.03.69.03.22,0,.45.03.62.09h0s-.03.1-.04.15c-.08,0-.19-.02-.32-.03-.15-.02-.32-.02-.52-.03-.18,0-.37,0-.57,0-.19,0-.38-.04-.57-.07-.17-.04-.34-.09-.48-.14-.14-.05-.25-.09-.33-.12-.05-.02-.09-.03-.11-.04h-.02.02s.05.03.1.05c.08.04.19.09.33.14.13.06.3.12.47.17.18.05.37.09.57.12.2.02.4.02.58.04.18.02.35.03.49.06.12.02.22.04.3.06l-.02.15c-.74,0-1.66-.07-2.46-.37-.13-.05-.24-.12-.38-.18-.12-.06-.24-.12-.37-.17-.3-.12-.62-.21-.93-.26-.17-.02-.36-.02-.52,0-.13,0-.27,0-.41,0-.22-.02-.42-.08-.59-.18Z"/>
    <path class="cls-1" d="M48.45,39.46l6.37-.28c0,.07,0,.15,0,.23l-3.38.13,3.38.13c0,.07,0,.15,0,.23l-6.37-.29c-.07,0-.07-.06-.07-.07s0-.07.07-.08Z"/>
    <path class="cls-1" d="M48.73,41.48c.08,0,.17.02.26.03.15.02.3.05.46.02.16-.03.4-.17.66-.32.19-.12.4-.24.55-.3.31-.12.96-.21,1.57-.21.42,0,.86-.07,1.34-.22.21-.06.42-.14.65-.23.22-.08.43-.14.62-.15h0s.02.1.02.16c-.08.02-.18.04-.31.08-.14.04-.31.1-.48.17-.18.07-.35.15-.53.21-.18.07-.37.12-.56.14-.18.03-.35.05-.5.06-.15.02-.27.02-.36.02-.08,0-.13,0-.13,0h.13c.09,0,.21,0,.36,0s.32,0,.51-.02c.18-.02.38-.06.57-.12.19-.05.38-.12.55-.17.17-.06.34-.1.48-.14.12-.02.22-.05.3-.06,0,.05.02.1.03.15-.69.27-1.56.57-2.41.59-.14,0-.27,0-.42-.02-.14,0-.27-.02-.42-.02-.32,0-.64.05-.96.12-.17.04-.33.12-.49.19-.13.06-.25.12-.38.15-.2.07-.42.09-.62.07-.25-.03-.44-.1-.52-.17h0Z"/>
    <path class="cls-1" d="M49.31,43.76c-.07.02-.09-.02-.1-.04,0-.02-.02-.07.04-.1l5.77-2.71c.02.07.05.15.08.22l-3.07,1.42,3.17-1.17c.03.07.07.14.1.22l-5.99,2.16Z"/>
    <path class="cls-1" d="M51.84,44.11c.23-.22.8-.56,1.37-.79.39-.17.77-.4,1.16-.72.17-.14.34-.29.51-.46.17-.16.35-.3.51-.38h0s.05.09.08.13c-.07.05-.16.12-.26.2-.11.09-.24.21-.37.34-.14.12-.27.27-.42.4-.15.12-.31.24-.46.34-.16.1-.31.18-.44.25s-.24.11-.32.15c-.06.02-.1.04-.11.05,0,0,.05-.02.12-.04.07-.03.19-.07.33-.13.13-.06.29-.13.45-.22.17-.09.33-.2.49-.32.16-.12.3-.26.44-.38.14-.12.27-.22.39-.31.1-.07.18-.12.25-.17.03.04.06.09.09.13-.53.52-1.22,1.12-2,1.47-.12.06-.26.1-.4.14-.12.04-.26.07-.38.13-.3.12-.58.28-.84.48-.14.1-.27.23-.38.36-.09.1-.18.2-.28.29-.17.13-.36.24-.55.29-.24.07-.44.07-.55.03h0c.07-.03.16-.05.25-.07.15-.03.3-.07.42-.16.14-.09.31-.32.49-.56.13-.18.27-.37.39-.48Z"/>
    <path class="cls-1" d="M53.74,45.11l2.48-2.3c.06.05.12.11.17.16l-4.7,4.3s-.1,0-.11,0c0-.02-.05-.06,0-.11l4.3-4.7c.05.06.1.12.16.17l-2.3,2.48Z"/>
    <path class="cls-1" d="M56.95,43.37c-.29.68-.7,1.51-1.29,2.12-.09.1-.2.19-.31.28-.11.08-.21.17-.31.27-.22.23-.42.49-.59.77-.09.15-.15.32-.22.48-.04.12-.09.26-.15.37-.1.19-.23.36-.39.48-.2.15-.38.24-.49.24h0c.06-.06.13-.11.21-.17.12-.08.24-.17.33-.3.09-.14.16-.42.23-.7.06-.22.12-.45.18-.6.13-.31.53-.82.97-1.27.29-.29.56-.66.79-1.1.11-.19.2-.4.3-.62.08-.21.21-.41.32-.54h0s.08.06.12.09c-.04.07-.09.17-.16.28-.07.12-.14.28-.22.46-.07.17-.15.35-.23.52-.08.17-.18.34-.29.49s-.22.28-.31.4c-.1.11-.18.2-.24.26-.05.05-.07.08-.09.09.02,0,.05-.04.09-.08.07-.06.16-.14.26-.25.11-.1.22-.23.34-.37.12-.15.22-.32.32-.48.1-.17.18-.36.27-.52.08-.16.17-.31.24-.43.07-.11.12-.19.17-.26.04.03.08.06.13.08Z"/>
    <path class="cls-1" d="M56.29,46.82l1.42-3.07c.07.03.14.06.22.08l-2.7,5.77c-.03.06-.08.04-.1.03-.02,0-.07-.03-.04-.09l2.16-5.99c.07.03.14.07.22.1l-1.17,3.17Z"/>
    <path class="cls-1" d="M57.06,50.05c.03-.07.07-.15.12-.22.08-.12.16-.26.19-.41.03-.17,0-.44-.05-.74-.03-.22-.07-.46-.07-.62,0-.33.17-.97.42-1.54.16-.38.26-.82.31-1.32.02-.22.03-.45.04-.69,0-.22.03-.46.09-.63h0s.1.03.15.04c-.02.08-.02.19-.04.32,0,.15-.02.32-.02.51,0,.19,0,.38,0,.58-.02.19-.04.38-.08.57-.04.17-.09.34-.13.48-.05.13-.09.25-.12.33-.02.06-.04.1-.04.12,0-.02.02-.06.05-.12.03-.07.08-.19.14-.32s.12-.3.17-.48c.05-.17.09-.37.12-.57s.03-.4.04-.58c.02-.18.04-.35.06-.5.02-.12.04-.22.06-.29.05,0,.1.02.15.02,0,.74-.06,1.65-.37,2.45-.05.13-.11.25-.17.37s-.13.24-.18.37c-.12.3-.21.61-.25.93-.02.17-.02.35-.02.52,0,.13.02.27,0,.41-.02.22-.07.42-.17.59-.13.22-.27.37-.37.42h0Z"/>
    <path class="cls-1" d="M59.23,50.4l-.29-6.37c.07,0,.16,0,.23,0l.13,3.38.13-3.38c.07,0,.16,0,.23,0l-.29,6.36c0,.07-.06.07-.07.07s-.07,0-.07-.07Z"/>
    <path class="cls-1" d="M60.02,44.63c-.08-.22-.14-.44-.16-.62h0s.11-.02.16-.02c.02.08.05.18.08.31.05.14.1.31.17.48.07.17.15.35.22.53s.11.37.14.56c.03.17.05.35.06.5,0,.14.02.27.02.35v.14s0-.05,0-.14c0-.08,0-.21,0-.36,0-.14,0-.32-.02-.5-.02-.18-.06-.38-.11-.57s-.12-.38-.18-.56c-.06-.17-.1-.33-.13-.47-.03-.12-.05-.22-.07-.3.05,0,.1-.02.15-.03.28.69.57,1.55.6,2.41,0,.14-.02.27-.02.42-.02.13-.03.27-.02.42,0,.32.04.64.12.95.04.17.12.34.18.5.06.12.12.25.16.37.07.2.08.42.06.62-.03.25-.1.44-.17.52h0c0-.08.02-.17.03-.26.02-.15.05-.3.02-.46-.03-.16-.18-.4-.33-.66-.12-.2-.24-.4-.3-.55-.12-.31-.21-.96-.21-1.57,0-.42-.07-.86-.21-1.34-.07-.22-.14-.42-.23-.65Z"/>
    <path class="cls-1" d="M63.4,49.6l-2.71-5.77c.07-.02.15-.05.22-.08l1.41,3.07-1.17-3.17c.07-.03.14-.07.21-.1l2.17,5.99c.02.06-.03.09-.05.09,0,0-.07.02-.09-.03Z"/>
    <path class="cls-1" d="M61.91,43.96c-.16-.16-.3-.34-.37-.51h0s.09-.05.14-.08c.05.07.12.16.19.26.1.11.22.24.34.37.13.14.28.27.41.42.12.15.24.31.34.46.1.16.17.31.24.44s.12.24.15.32c.02.05.04.08.05.11,0,0,0,0,0,0h0s-.02-.07-.04-.12c-.03-.07-.07-.19-.13-.33-.05-.13-.12-.29-.22-.46-.09-.16-.2-.32-.32-.48-.12-.16-.26-.31-.37-.44-.12-.14-.22-.27-.31-.39-.07-.1-.13-.18-.17-.25.04-.03.08-.07.12-.09.52.52,1.12,1.22,1.47,2,.05.12.09.26.13.39s.08.27.13.39c.13.3.29.58.48.83.11.15.24.27.37.39.1.09.2.18.28.28.14.17.24.35.29.55.07.23.07.42.03.53-.03-.07-.04-.16-.07-.24-.03-.15-.07-.3-.15-.43-.09-.13-.32-.3-.56-.48-.18-.13-.37-.27-.48-.39-.23-.23-.56-.81-.8-1.37-.16-.39-.39-.77-.71-1.16-.14-.17-.29-.34-.47-.52Z"/>
    <path class="cls-1" d="M64.88,45.11l-2.3-2.48c.06-.06.11-.12.16-.17l4.3,4.7s0,.09,0,.11c0,0-.05.05-.1,0l-4.71-4.3c.06-.05.12-.11.18-.16l2.48,2.3Z"/>
    <path class="cls-1" d="M63.41,42.63c-.22-.09-.42-.21-.55-.32h0s.07-.08.09-.12c.07.04.17.09.28.16.13.07.29.14.46.22.17.07.36.14.53.23.17.08.34.18.49.29.15.1.28.22.39.31.11.1.2.18.27.24.03.04.07.07.08.08-.02-.02-.04-.05-.08-.08-.06-.07-.14-.16-.24-.26-.11-.11-.23-.22-.38-.34-.14-.12-.31-.23-.48-.32-.17-.1-.36-.18-.52-.27-.17-.08-.32-.17-.44-.24-.1-.07-.18-.12-.25-.17.02-.04.05-.08.08-.13.68.29,1.5.69,2.12,1.29.1.09.18.2.27.31.08.1.17.21.27.31.23.22.48.42.76.59.16.09.32.15.49.21.12.05.25.1.37.16.19.1.37.23.48.39.15.19.23.37.24.48-.06-.06-.11-.12-.16-.2-.08-.12-.17-.25-.31-.33-.13-.09-.41-.16-.7-.23-.22-.06-.45-.12-.6-.17-.3-.13-.83-.53-1.26-.97-.3-.29-.66-.56-1.11-.79-.19-.11-.39-.2-.62-.3Z"/>
    <path class="cls-1" d="M69.37,43.62c.07.03.05.08.04.1s-.03.07-.1.04l-5.99-2.16c.04-.07.07-.14.11-.22l3.16,1.17-3.06-1.42.07-.22,5.77,2.71Z"/>
    <path class="cls-1" d="M69.42,41.43c.22.12.37.26.41.36h0c-.07-.03-.14-.07-.22-.12-.12-.08-.25-.17-.41-.19-.16-.03-.44,0-.73.05-.22.03-.46.07-.62.07-.33,0-.96-.17-1.53-.42-.39-.16-.82-.26-1.32-.31-.22-.02-.44-.03-.69-.04-.22,0-.45-.03-.62-.09h0s.02-.1.03-.15c.08,0,.19.02.32.03.14.02.32.03.51.03s.38,0,.57,0c.19.02.39.04.57.08.18.04.34.09.48.13.14.05.26.09.33.12.07.02.1.04.12.04-.02,0-.05-.02-.11-.05-.08-.03-.19-.08-.33-.14-.13-.06-.3-.12-.47-.17-.18-.05-.37-.09-.57-.12s-.4-.03-.58-.05c-.17,0-.35-.03-.49-.06-.12-.02-.22-.03-.3-.05,0-.05.02-.1.02-.15.74,0,1.66.06,2.46.37.12.05.25.12.37.18.12.07.24.13.37.18.3.12.62.2.93.25.18.02.36.02.53.02.13,0,.27-.02.4,0,.22.02.42.07.6.17Z"/>
    <path class="cls-1" d="M70.16,39.46c.07,0,.07.07.07.08s0,.07-.07.07l-6.37.29c0-.08.02-.16.02-.23l3.37-.13-3.37-.13c0-.08,0-.16-.02-.23l6.37.28Z"/>
    <path class="cls-1" d="M69.88,37.59c-.08,0-.17-.02-.26-.02-.15-.02-.3-.05-.45-.02-.17.03-.41.17-.67.33-.19.12-.39.23-.54.3-.31.12-.96.2-1.58.2-.42,0-.86.07-1.34.22-.21.07-.42.14-.65.23-.21.08-.43.14-.62.16h0c0-.06-.02-.11-.02-.16.08-.02.19-.05.31-.08.14-.05.31-.1.48-.17.17-.07.35-.15.54-.21.18-.07.37-.11.55-.14.18-.03.35-.05.5-.06.15,0,.27-.02.36-.02h.13s-.05,0-.13,0-.21,0-.36,0-.32,0-.51.03c-.18.02-.38.06-.57.11-.19.05-.37.12-.55.18-.17.05-.34.1-.48.13-.12.02-.22.05-.29.07-.02-.05-.03-.1-.04-.16.69-.27,1.56-.57,2.41-.59.13,0,.27.02.42.02.13.02.27.02.41.02.32,0,.64-.04.96-.12.18-.04.33-.12.49-.19.12-.05.25-.11.37-.15.21-.07.42-.09.62-.07.25.03.44.1.53.17h0Z"/>
    <path class="cls-1" d="M69.31,35.31c.07-.02.09.03.1.04,0,.02.02.07-.04.1l-5.77,2.71-.07-.22,3.06-1.41-3.16,1.17c-.03-.07-.07-.14-.11-.21l5.99-2.17Z"/>
    <path class="cls-1" d="M63.23,37.31h0s-.05-.09-.07-.13c.07-.05.15-.12.25-.2.12-.09.25-.21.38-.33.13-.13.27-.27.41-.41.15-.12.31-.24.46-.34.16-.1.31-.18.44-.24.13-.07.25-.12.32-.15.06-.03.1-.05.12-.06-.02,0-.06.02-.12.05-.08.02-.2.07-.33.13-.14.05-.3.12-.46.22-.17.09-.33.2-.49.32-.16.12-.3.26-.44.37-.13.12-.27.22-.39.31-.1.07-.18.13-.25.17-.02-.04-.06-.08-.09-.12.53-.52,1.22-1.12,2.01-1.47.12-.06.25-.09.39-.13.13-.04.26-.08.39-.14.29-.12.57-.28.83-.47.14-.11.27-.24.38-.37.09-.1.18-.2.28-.28.17-.14.36-.24.55-.29.24-.07.44-.08.55-.04h0c-.07.03-.16.05-.25.07-.14.03-.29.07-.42.15-.14.09-.31.32-.48.56-.13.18-.28.37-.39.48-.24.23-.81.56-1.38.8-.38.16-.77.39-1.16.71-.17.14-.33.29-.51.47-.17.16-.35.3-.51.37Z"/>
    <path class="cls-1" d="M64.88,33.96l-2.48,2.3c-.06-.05-.12-.1-.18-.16l4.7-4.3c.06-.04.1,0,.11,0,.02,0,.05.05,0,.1l-4.3,4.71c-.05-.06-.1-.12-.16-.17l2.3-2.49Z"/>
    <path class="cls-1" d="M61.96,35.53c-.06.11-.12.19-.17.26-.04-.02-.08-.06-.12-.08.29-.68.69-1.5,1.28-2.12.09-.1.2-.18.31-.27.11-.08.22-.17.31-.27.23-.23.42-.48.59-.77.09-.15.15-.32.22-.48.04-.12.09-.25.15-.37.1-.19.23-.36.4-.47.2-.16.37-.24.49-.25h0c-.06.07-.12.12-.2.17-.12.08-.25.17-.34.31-.09.13-.16.41-.23.7-.05.22-.11.45-.17.6-.13.3-.53.82-.97,1.26-.3.3-.56.66-.8,1.1-.1.2-.2.4-.29.62-.09.21-.21.41-.32.55h0s-.08-.07-.12-.09c.04-.07.1-.17.16-.28.07-.13.15-.29.22-.46.07-.17.14-.36.22-.53s.19-.34.29-.49c.11-.15.22-.28.32-.39.09-.12.17-.2.24-.27.04-.05.08-.07.08-.09-.02.02-.04.04-.09.08-.07.07-.15.15-.26.25-.1.11-.22.23-.34.38-.11.14-.22.31-.32.48-.1.17-.18.36-.27.52-.08.17-.17.31-.24.43Z"/>
    <path class="cls-3" d="M63.4,45.75h0s0,0,0,0Z"/>
    <path class="cls-1" d="M60.95,38.68c.29.09.47.32.47.32-.19.15-.3.24-.54.24.13-.03.23-.15.23-.29,0-.12-.07-.21-.16-.27Z"/>
    <path class="cls-1" d="M60.27,38.97s.16-.27.42-.32c-.12.04-.2.16-.2.29,0,.11.06.21.15.27-.25-.07-.37-.24-.37-.24Z"/>
    <path class="cls-3" d="M60.87,39.24c.24,0,.35-.09.54-.24,0,0-.17-.22-.47-.32.09.06.16.15.16.27,0,.14-.1.26-.23.29ZM60.69,38.66c-.26.05-.42.32-.42.32,0,0,.12.17.37.24-.09-.06-.15-.16-.15-.27,0-.13.08-.25.2-.29ZM61.65,39.03c-1.01.7-1.62-.06-1.62-.06,0,0,.29-.42.77-.42s.85.47.85.47Z"/>
    <path class="cls-3" d="M59.86,39.16c0-.06.11-.07.16-.06.03.02.06.04.08.07.03.02.07.04.09.06,0,0,.72.52,1.4-.03,0,0-.19.37-.83.32-.27-.02-.55-.07-.77-.22-.03-.02-.13-.08-.13-.13Z"/>
    <path class="cls-3" d="M59.95,38.91s-.09.02-.13,0c-.03,0-.08-.02-.08-.06-.02-.08.15-.08.2-.1.09-.03.13-.13.2-.19.25-.23.62-.28.95-.18.21.07.4.18.56.32.06.05.11.1.15.15.02.02.06.05.06.07,0,0,0,.04-.07,0-.05-.03-.1-.08-.15-.12s-.09-.07-.14-.1c-.2-.12-.42-.21-.66-.23-.12,0-.23,0-.34.05-.12.05-.22.15-.32.22-.05.03-.1.06-.14.09-.02.02-.05.05-.08.07Z"/>
    <path class="cls-3" d="M59.51,39.07c0,.15,0,.31.04.46.02.11.07.21.12.3.02.03.06.07.08.1.02.02.08.06.08.09,0,.02-.02.02-.03.03-.09.05-.16.02-.21-.07-.22-.36-.19-.78-.16-1.18.02-.19.03-.38.13-.55.07-.12.16-.19.27-.26.24-.14.52-.22.79-.22.37,0,.71.17,1,.37.15.11.32.23.42.39-.05-.02-.1-.06-.15-.09s-.1-.06-.16-.09c-.08-.05-.17-.1-.27-.14-.57-.25-1.32-.27-1.77.19-.07.07-.12.12-.16.22-.03.14-.04.29-.04.44Z"/>
    <path class="cls-3" d="M59.31,42.24c-.31,0-.57.23-.6.53v-.07c0-.33.27-.61.6-.61s.61.27.61.61c0,.02,0,.05,0,.07-.03-.3-.29-.53-.6-.53Z"/>
    <path class="cls-1" d="M58.77,41.66c-.08-.08-.21-.12-.33-.14h0c.38-.05.62,0,.74.03.08.03.17.03.26,0,.13-.04.35-.08.74-.04h0c-.12.03-.24.07-.33.15-.05.04-.09.1-.15.14-.12.07-.26.13-.39.13s-.27-.06-.38-.13c-.06-.04-.1-.1-.16-.14Z"/>
    <path class="cls-3" d="M58.52,40.76c-.22-.02-.27-.4,0-.61,0,0-.13.3.07.38.2.09.27-.17.27-.17,0,0,.17.23.44.23s.44-.23.44-.23c0,0,.08.26.28.17.2-.08.07-.38.07-.38.27.21.22.58,0,.61-.29.03-.32-.1-.37-.23,0,0-.02.02-.02.03l-.02.02s-.03.03-.06.05c-.03.02-.07.05-.12.07-.06.02-.12.04-.18.04h-.02c-.07,0-.14-.03-.21-.07-.07-.03-.13-.08-.17-.15-.05.13-.08.27-.38.23Z"/>
    <path class="cls-3" d="M58.44,41.51s.39-.17.77-.07c.07.02.13.02.2,0,.38-.11.77.07.77.07-.39-.04-.62,0-.74.04-.08.03-.17.03-.26,0-.12-.04-.36-.08-.74-.04Z"/>
    <path class="cls-1" d="M58.43,41.52c-.07,0-.14,0-.21,0,.07,0,.22-.04.4-.22.07-.06.16-.1.25-.11.18-.02.32.08.43.08.12,0,.25-.1.43-.08.09,0,.18.05.25.11.18.17.33.21.4.22-.07,0-.14,0-.21,0h0s-.39-.18-.77-.07c-.07.02-.13.02-.2,0-.37-.11-.77.07-.77.07h0Z"/>
    <path class="cls-3" d="M58.18,41.51h.04c.07,0,.14,0,.21,0,.12.02.25.06.33.14.06.04.1.1.16.14.11.07.25.13.38.13s.27-.06.39-.13c.06-.04.1-.1.15-.14.09-.08.21-.12.33-.14.07,0,.14,0,.21,0h.05s-.42.06-.59.32c-.17.26-.54.24-.54.24,0,0-.37.02-.54-.24-.17-.27-.58-.32-.58-.32Z"/>
    <path class="cls-3" d="M58.18,41.51s.16,0,.28-.21c.12-.21.35-.32.5-.32.07,0,.16.04.22.07s.12.07.12.07c0,0,.2-.15.35-.15.14,0,.37.12.49.32.13.21.29.21.29.21h-.05c-.07,0-.22-.04-.4-.22-.07-.06-.16-.1-.25-.11-.18-.02-.32.08-.43.08-.11,0-.25-.1-.43-.08-.09,0-.17.05-.25.11-.18.17-.33.21-.4.22h-.04Z"/>
    <path class="cls-1" d="M58.13,38.95c0-.13-.08-.25-.21-.29.26.05.42.32.42.32,0,0-.12.17-.37.24.09-.06.16-.16.16-.27Z"/>
    <path class="cls-3" d="M57.86,39.52c-.64.04-.83-.32-.83-.32.67.56,1.4.03,1.4.03.03-.02.07-.04.09-.06.03-.02.05-.05.09-.07.05-.02.14,0,.15.06,0,.05-.08.11-.12.13-.22.16-.51.21-.77.22Z"/>
    <path class="cls-1" d="M57.21,39s.17-.22.46-.32c-.09.06-.15.15-.15.27,0,.14.09.26.22.29-.23,0-.35-.09-.53-.24Z"/>
    <path class="cls-3" d="M57.98,39.22c.25-.07.37-.24.37-.24,0,0-.17-.27-.42-.32.12.04.21.16.21.29,0,.11-.07.21-.16.27ZM57.21,39c.18.15.3.24.53.24-.13-.03-.22-.15-.22-.29,0-.12.06-.21.15-.27-.29.09-.46.32-.46.32ZM56.97,39.03s.38-.47.86-.47.77.42.77.42c0,0-.62.76-1.62.06Z"/>
    <path class="cls-3" d="M56.56,38.54c.1-.16.27-.28.43-.39.29-.21.62-.37.99-.37.27,0,.56.07.79.22.12.07.21.14.27.26.1.17.12.36.14.55.03.4.05.82-.17,1.18-.05.09-.12.12-.21.07,0,0-.02-.02-.02-.03,0-.03.06-.07.07-.09.03-.03.07-.07.09-.1.06-.09.1-.19.12-.3.03-.15.04-.31.04-.46,0-.15-.02-.3-.05-.44-.03-.1-.08-.14-.15-.22-.47-.46-1.22-.44-1.77-.19-.09.04-.18.09-.27.14-.06.03-.11.06-.16.09s-.1.07-.15.09Z"/>
    <path class="cls-1" d="M60.8,38.56c-.48,0-.77.42-.77.42,0,0,.62.76,1.62.06,0,0-.38-.47-.85-.47ZM60.02,39.1s-.15,0-.16.06c0,.05.09.11.13.13.22.16.51.21.77.22.64.04.83-.32.83-.32-.67.56-1.4.03-1.4.03-.02-.02-.06-.04-.09-.06-.02-.02-.05-.05-.08-.07ZM59.94,38.76s-.22.02-.2.1c0,.03.05.05.08.06.04.02.09.02.13,0,.03-.02.06-.05.08-.07.04-.03.09-.06.14-.09.1-.07.19-.17.32-.22.11-.04.22-.06.34-.05.23.02.46.12.66.23.05.03.09.07.14.1s.1.08.15.12c.07.04.07,0,.07,0,0-.02-.04-.05-.06-.07-.04-.05-.09-.1-.15-.15-.16-.14-.35-.26-.56-.32-.32-.1-.7-.05-.95.18-.07.06-.11.16-.2.19ZM59.55,39.52c-.04-.15-.05-.31-.04-.46,0-.15,0-.3.04-.44.03-.1.09-.14.16-.22.46-.46,1.21-.44,1.77-.19.09.04.18.09.27.14.06.03.11.06.16.09s.1.07.15.09c-.1-.16-.27-.28-.42-.39-.29-.21-.63-.37-1-.37-.27,0-.55.07-.79.22-.12.07-.21.14-.27.26-.1.17-.12.36-.13.55-.03.4-.06.82.16,1.18.05.09.12.12.21.07.02,0,.02-.02.03-.03,0-.03-.06-.07-.08-.09-.02-.03-.06-.07-.08-.1-.06-.09-.1-.19-.12-.3ZM55.06,39.54c0-2.35,1.9-4.25,4.25-4.25s4.26,1.91,4.26,4.25-1.91,4.25-4.26,4.25-4.25-1.91-4.25-4.25ZM59.31,42.1c-.33,0-.6.27-.6.61v.07c.03-.3.29-.53.6-.53s.57.23.6.53c0-.02,0-.04,0-.07,0-.33-.27-.61-.61-.61ZM58.77,41.84c.17.26.54.24.54.24,0,0,.37.02.54-.24.17-.27.59-.32.59-.32,0,0-.16,0-.29-.21-.13-.21-.35-.32-.49-.32-.15,0-.35.15-.35.15,0,0-.05-.04-.12-.07s-.16-.07-.22-.07c-.15,0-.37.12-.5.32-.12.21-.28.21-.28.21,0,0,.41.06.58.32ZM58.59,40.53c-.21-.08-.07-.38-.07-.38-.27.21-.22.58,0,.61.3.03.32-.1.38-.23.04.07.1.12.17.15.07.03.13.06.21.07h.02c.07,0,.12-.02.18-.04.05-.02.09-.04.12-.07.02-.02.04-.03.06-.05l.02-.02s.02-.03.02-.03c.06.13.08.27.37.23.23-.02.28-.4,0-.61,0,0,.13.3-.07.38-.2.09-.28-.17-.28-.17,0,0-.17.23-.44.23s-.44-.23-.44-.23c0,0-.07.26-.27.17ZM57.83,38.56c-.47,0-.86.47-.86.47,1.01.7,1.62-.06,1.62-.06,0,0-.29-.42-.77-.42ZM58.42,39.22s-.72.52-1.4-.03c0,0,.19.37.83.32.27-.02.55-.07.77-.22.04-.02.13-.08.12-.13,0-.06-.1-.07-.15-.06-.04.02-.06.04-.09.07-.02.02-.06.04-.09.06ZM56.71,38.45s.1-.06.16-.09c.09-.05.18-.1.27-.14.56-.25,1.31-.27,1.77.19.07.07.12.12.15.22.03.14.04.29.05.44,0,.15,0,.31-.04.46-.02.11-.07.21-.12.3-.02.03-.06.07-.09.1-.02.02-.08.06-.07.09,0,.02.02.02.02.03.09.05.16.02.21-.07.22-.36.2-.78.17-1.18-.02-.19-.04-.38-.14-.55-.07-.12-.16-.19-.27-.26-.23-.14-.52-.22-.79-.22-.37,0-.7.17-.99.37-.16.11-.33.23-.43.39.05-.02.1-.06.15-.09ZM56.83,38.92c.06-.03.1-.08.16-.12.04-.03.09-.07.14-.1.19-.12.42-.21.65-.23.12,0,.24,0,.35.05.12.05.21.15.32.22.04.03.09.06.13.09.03.02.06.05.09.07.04.02.08.02.12,0,.03,0,.07-.02.08-.06,0-.08-.16-.08-.21-.1-.08-.03-.13-.13-.2-.19-.25-.23-.62-.28-.95-.18-.21.07-.39.18-.56.32-.05.05-.1.1-.15.15,0,.02-.05.05-.05.07,0,0,0,.04.07,0Z"/>
    <path class="cls-3" d="M56.99,38.81c-.06.03-.1.08-.16.12-.07.04-.07,0-.07,0,0-.02.04-.05.05-.07.05-.05.1-.1.15-.15.17-.14.35-.26.56-.32.32-.1.7-.05.95.18.07.06.12.16.2.19.05.02.22.02.21.1,0,.03-.05.05-.08.06-.04.02-.08.02-.12,0-.03-.02-.06-.05-.09-.07-.04-.03-.09-.06-.13-.09-.11-.07-.2-.17-.32-.22-.11-.04-.23-.06-.35-.05-.22.02-.46.12-.65.23-.05.03-.1.07-.14.1Z"/>
    <path class="cls-3" d="M63.05,37.03c.07-.04.15-.1.25-.17.12-.08.26-.19.39-.31.14-.12.28-.26.44-.37.16-.12.32-.23.49-.32.16-.09.32-.17.46-.22.13-.06.25-.11.33-.13.06-.02.1-.04.12-.05-.02,0-.06.02-.12.06-.07.03-.19.08-.32.15-.13.06-.28.14-.44.24-.15.1-.31.22-.46.34-.14.13-.27.27-.41.41-.13.12-.27.24-.38.33-.1.08-.18.15-.25.2.02.04.05.09.07.14h0c.16-.08.34-.22.51-.38.17-.17.34-.32.51-.47.39-.32.77-.55,1.16-.71.58-.24,1.14-.57,1.38-.8.11-.11.26-.3.39-.48.17-.24.34-.47.48-.56.13-.08.28-.12.42-.15.09-.02.17-.04.25-.07h0c-.11-.04-.31-.02-.55.04-.19.05-.38.15-.55.29-.1.08-.19.18-.28.28-.12.12-.24.26-.38.37-.26.19-.54.35-.83.47-.13.06-.27.1-.39.14-.14.04-.27.07-.39.13-.79.35-1.47.95-2.01,1.47.03.04.07.08.09.12ZM63.15,41.9s-.06.09-.08.13c.07.04.15.1.25.17.12.07.27.16.44.24.16.08.34.17.52.27.17.09.34.21.48.32.15.12.27.23.38.34.1.1.18.19.24.26.04.03.07.07.08.08-.02-.02-.05-.04-.08-.08-.07-.06-.16-.14-.27-.24-.11-.09-.24-.21-.39-.31-.15-.11-.32-.21-.49-.29-.18-.09-.36-.16-.53-.23-.17-.07-.32-.15-.46-.22-.12-.07-.21-.12-.28-.16-.02.04-.06.08-.09.12h0c.13.12.33.23.55.32.22.1.42.19.62.3.45.23.81.5,1.11.79.43.44.96.84,1.26.97.15.06.37.12.6.17.29.07.57.14.7.23.13.08.22.22.31.33.05.07.1.14.16.2,0-.12-.09-.29-.24-.48-.12-.16-.29-.29-.48-.39-.12-.06-.24-.11-.37-.16-.17-.06-.33-.12-.49-.21-.27-.17-.52-.37-.76-.59-.1-.1-.19-.21-.27-.31-.09-.11-.17-.22-.27-.31-.62-.6-1.44-1-2.12-1.29ZM62.4,42.81c-.06.05-.12.11-.18.16l4.71,4.3s.09,0,.1,0c.02-.02.05-.06,0-.11l-4.3-4.7c-.05.06-.1.12-.16.17l2.3,2.48-2.48-2.3ZM62.4,36.26l2.48-2.3-2.3,2.49c.06.06.11.12.16.17l4.3-4.71s0-.09,0-.1c0-.02-.05-.05-.11,0l-4.7,4.3c.06.06.12.11.18.16ZM62.11,35.61c-.06.12-.12.21-.16.28.04.02.08.06.12.09h0c.12-.14.23-.34.32-.55.09-.22.19-.42.29-.62.24-.44.5-.8.8-1.1.43-.43.83-.96.97-1.26.07-.15.12-.38.17-.6.07-.29.14-.57.23-.7.09-.13.22-.22.34-.31.07-.05.14-.1.2-.16h0c-.12,0-.29.08-.49.24-.17.12-.3.28-.4.47-.06.12-.11.25-.15.37-.07.17-.12.33-.22.48-.17.28-.36.53-.59.77-.09.1-.2.19-.31.27-.11.09-.22.17-.31.27-.59.62-.99,1.44-1.28,2.12.04.02.08.06.12.08.05-.07.11-.15.17-.26.07-.12.16-.27.24-.43.08-.16.17-.34.27-.52.1-.17.22-.34.32-.48.12-.15.24-.27.34-.38.11-.1.19-.18.26-.25.05-.04.07-.07.09-.08,0,.02-.04.04-.08.09-.07.07-.15.15-.24.27-.1.11-.21.24-.32.39-.1.15-.21.32-.29.49s-.15.36-.22.53c-.07.17-.16.32-.22.46ZM61.54,43.45c.07.17.22.35.37.51.17.17.32.34.47.52.32.39.55.77.71,1.16.24.57.57,1.14.8,1.37.11.12.3.26.48.39.23.18.47.35.56.48.08.13.12.28.15.43.02.08.04.17.07.24.04-.11.03-.3-.03-.53-.05-.2-.15-.38-.29-.55-.08-.1-.18-.19-.28-.28-.12-.12-.26-.24-.37-.39-.19-.25-.36-.53-.48-.83-.05-.12-.09-.26-.13-.39s-.08-.27-.13-.39c-.35-.78-.96-1.47-1.47-2-.04.02-.08.06-.12.09.04.07.1.15.17.25.08.12.19.25.31.39.12.13.26.28.37.44.12.16.23.32.32.48.09.17.17.32.22.46.06.14.1.26.13.33.02.06.03.09.04.12,0-.02-.03-.06-.05-.11-.03-.08-.08-.19-.15-.32s-.14-.28-.24-.44c-.1-.15-.22-.31-.34-.46-.13-.15-.27-.27-.41-.42-.12-.13-.24-.27-.34-.37-.07-.1-.14-.19-.19-.26-.05.03-.09.06-.14.08h0ZM70.24,39.54s0-.07-.07-.08l-6.37-.28c0,.07.02.15.02.23l3.37.13-3.37.13c0,.07,0,.15-.02.23l6.37-.29c.07,0,.07-.06.07-.07ZM69.41,43.72s.02-.07-.04-.1l-5.77-2.71-.07.22,3.06,1.42-3.16-1.17c-.03.07-.07.14-.11.22l5.99,2.16c.07.02.09-.02.1-.04ZM69.37,35.45c.07-.02.05-.08.04-.1,0,0-.03-.07-.1-.04l-5.99,2.17c.04.07.07.14.11.21l3.16-1.17-3.06,1.41.07.22,5.77-2.71ZM69.89,37.59c-.08-.07-.28-.14-.53-.17-.2-.02-.41,0-.62.07-.12.04-.25.1-.37.15-.16.07-.32.15-.49.19-.32.08-.63.12-.96.12-.14,0-.27,0-.41-.02-.14,0-.28-.02-.42-.02-.86.02-1.72.32-2.41.59.02.06.02.11.04.16.07-.02.17-.04.29-.07.14-.03.31-.08.48-.13.17-.06.36-.13.55-.18.19-.05.39-.09.57-.11.18-.02.36-.03.51-.03s.27,0,.36,0,.13,0,.13,0h-.13c-.08,0-.21,0-.36.02-.15,0-.32.02-.5.06-.18.03-.37.07-.55.14-.19.06-.37.14-.54.21-.17.07-.34.12-.48.17-.12.03-.23.06-.31.08,0,.05.02.1.02.16h0c.18-.02.41-.07.62-.16.22-.09.44-.17.65-.23.48-.14.92-.22,1.34-.22.62,0,1.27-.08,1.58-.2.15-.07.35-.18.54-.3.26-.16.5-.3.67-.33.15-.02.3,0,.45.02.09,0,.17.02.26.02h0ZM69.82,41.79c-.04-.1-.19-.23-.41-.36-.17-.1-.38-.16-.6-.17-.13-.02-.27,0-.4,0-.17,0-.36,0-.53-.02-.32-.05-.63-.13-.93-.25-.12-.05-.25-.12-.37-.18-.12-.07-.25-.13-.37-.18-.8-.31-1.72-.37-2.46-.37,0,.05-.02.1-.02.15.07.02.18.03.3.05.14.02.32.05.49.06.18.02.38.02.58.05s.39.07.57.12c.17.05.34.11.47.17.14.06.25.11.33.14.06.02.09.04.11.05-.02,0-.05-.02-.12-.04-.08-.03-.19-.07-.33-.12-.14-.04-.3-.09-.48-.13-.17-.04-.37-.07-.57-.08-.19,0-.39,0-.57,0s-.37-.02-.51-.03c-.13,0-.24-.02-.32-.03,0,.05-.02.1-.03.15h0c.17.06.4.09.62.09.25,0,.47.02.69.04.5.05.93.15,1.32.31.57.24,1.2.41,1.53.42.17,0,.4-.03.62-.07.29-.04.57-.08.73-.05.16.02.28.11.41.19.08.05.15.09.22.12h0ZM52.88,43.92c.12-.06.26-.09.38-.13.14-.04.27-.08.4-.14.78-.35,1.47-.95,2-1.47-.03-.04-.06-.09-.09-.13-.07.05-.15.11-.25.17-.12.09-.25.19-.39.31-.14.12-.28.26-.44.38-.16.12-.33.23-.49.32-.16.08-.32.16-.45.22-.14.06-.26.1-.33.13-.07.02-.11.03-.12.04,0,0,.05-.02.11-.05.08-.04.19-.08.32-.15s.28-.15.44-.25c.15-.1.31-.22.46-.34.14-.12.27-.27.42-.4.13-.13.27-.25.37-.34.1-.08.19-.15.26-.2-.03-.04-.06-.09-.08-.13h0c-.16.08-.34.22-.51.38-.17.17-.33.32-.51.46-.39.32-.77.55-1.16.72-.57.23-1.14.57-1.37.79-.12.12-.26.3-.39.48-.18.24-.35.47-.49.56-.12.09-.27.12-.42.16-.09.02-.17.03-.25.07h0c.11.04.31.03.55-.03.19-.05.38-.16.55-.29.1-.09.19-.19.28-.29.12-.12.24-.26.38-.36.26-.2.54-.36.84-.48ZM60.69,43.83l2.71,5.77c.02.06.08.04.09.03.02,0,.07-.03.05-.09l-2.17-5.99c-.07.03-.14.07-.21.1l1.17,3.17-1.41-3.07c-.07.03-.15.06-.22.08ZM63.4,29.48l-2.71,5.77c.07.02.15.05.22.07l1.41-3.07-1.17,3.17c.07.03.14.07.21.1l2.17-5.99c.02-.07-.03-.09-.05-.1s-.07-.02-.09.04ZM60.4,32.64c-.31.8-.37,1.72-.38,2.46.05,0,.1.02.15.02.02-.08.04-.18.06-.3.02-.14.04-.32.06-.5.02-.17.02-.37.04-.57s.07-.4.12-.57c.06-.18.12-.34.17-.48.06-.13.11-.24.15-.32.02-.06.04-.1.05-.12,0,.02-.03.06-.05.12-.02.08-.07.2-.12.34-.05.14-.1.3-.14.48-.04.17-.07.37-.07.57-.02.19,0,.39-.02.57,0,.19,0,.36-.02.51-.02.13-.02.23-.04.32.06.02.11.03.16.04.06-.17.09-.4.09-.63s0-.47.03-.68c.05-.5.15-.93.32-1.32.23-.57.41-1.21.41-1.53,0-.17-.03-.4-.07-.62-.04-.29-.08-.57-.05-.73.03-.16.12-.28.19-.42.05-.07.1-.15.13-.22h0c-.1.04-.23.19-.36.41-.1.17-.17.38-.18.6,0,.12,0,.27,0,.4,0,.17,0,.36-.02.53-.04.32-.12.63-.25.92-.05.13-.12.26-.17.37-.07.12-.13.25-.18.37ZM59.87,44.01c.02.17.07.4.16.62.09.22.17.43.23.65.14.48.21.92.21,1.34,0,.62.09,1.27.21,1.57.06.15.18.35.3.55.15.26.3.5.33.66.02.16,0,.31-.02.46-.02.08-.02.17-.03.25h0c.07-.07.14-.26.17-.51.02-.2,0-.42-.06-.62-.04-.12-.1-.26-.16-.37-.07-.16-.14-.32-.18-.5-.08-.31-.12-.63-.12-.95,0-.14,0-.28.02-.42,0-.14.02-.27.02-.42-.02-.86-.32-1.72-.6-2.41-.05,0-.1.02-.15.03.02.08.03.18.07.3.03.14.07.3.13.47.06.17.13.37.18.56s.09.39.11.57c.02.18.02.36.02.5,0,.15,0,.27,0,.36,0,.09,0,.14,0,.14v-.14c0-.08,0-.21-.02-.35,0-.15-.02-.32-.06-.5-.03-.18-.07-.37-.14-.56s-.14-.36-.22-.53c-.07-.17-.12-.34-.17-.48-.03-.12-.07-.22-.08-.31-.05,0-.11.02-.16.02h0ZM59.17,44.04c-.07,0-.16,0-.23,0l.29,6.37c0,.07.06.07.07.07s.07,0,.07-.07l.29-6.36c-.07,0-.16,0-.23,0l-.13,3.38-.13-3.38ZM59.23,28.68l-.29,6.37c.07,0,.16-.02.23-.02l.13-3.38.13,3.38c.07,0,.16,0,.23.02l-.29-6.37c0-.07-.06-.07-.07-.07s-.07,0-.07.07ZM49.31,35.31c-.06-.02-.09.03-.1.04,0,.02-.02.07.04.1l5.77,2.71c.02-.07.05-.15.08-.22l-3.07-1.41,3.17,1.17c.03-.07.07-.14.1-.21l-5.99-2.17ZM49.21,43.72s.03.07.1.04l5.99-2.16c-.03-.07-.07-.14-.1-.22l-3.17,1.17,3.07-1.42c-.03-.07-.06-.15-.08-.22l-5.77,2.71c-.06.03-.04.08-.04.1ZM54.82,39.17l-6.37.28c-.07,0-.07.07-.07.08s0,.07.07.07l6.37.29c0-.08,0-.16,0-.23l-3.38-.13,3.38-.13c0-.08,0-.16,0-.23ZM48.73,41.48c.07.07.27.14.52.17.2.02.42,0,.62-.07.13-.03.25-.09.38-.15.16-.07.32-.15.49-.19.32-.07.63-.12.96-.12.14,0,.27.02.42.02.14.02.27.02.42.02.85-.02,1.72-.32,2.41-.59-.02-.05-.02-.1-.03-.15-.08,0-.18.03-.3.06-.14.04-.31.08-.48.14-.17.06-.36.12-.55.17-.19.06-.39.09-.57.12-.18.02-.36.02-.51.02s-.27,0-.36,0h-.13s.05,0,.13,0c.09,0,.21,0,.36-.02.15,0,.32-.02.5-.06.18-.02.37-.07.56-.14.18-.06.36-.14.53-.21.17-.07.34-.12.48-.17.12-.04.22-.07.31-.08,0-.06-.02-.11-.02-.16h0c-.18,0-.4.07-.62.15-.22.09-.44.17-.65.23-.48.15-.93.22-1.34.22-.62,0-1.27.08-1.57.21-.15.06-.36.18-.55.3-.26.15-.5.29-.66.32-.16.03-.31,0-.46-.02-.09-.02-.18-.03-.26-.03h0ZM48.79,37.28c.04.1.19.23.42.36.17.1.37.17.59.18.13,0,.28,0,.41,0,.17,0,.35-.02.52,0,.32.05.63.13.93.26.12.05.25.12.37.17.13.07.25.13.38.18.8.31,1.71.37,2.46.37l.02-.15c-.07-.02-.17-.04-.3-.06-.14-.02-.31-.04-.49-.06-.18-.02-.38-.02-.58-.04-.2-.02-.39-.07-.57-.12-.17-.06-.34-.12-.47-.17-.14-.05-.25-.1-.33-.14-.05-.02-.08-.03-.1-.05.02,0,.06.02.11.04.08.03.19.07.33.12.14.05.31.1.48.14.18.03.37.07.57.07.2.02.39,0,.57,0,.19,0,.37.02.52.03.13,0,.23.02.32.03,0-.05.02-.1.04-.15h0c-.17-.06-.4-.09-.62-.09-.24,0-.47-.02-.69-.03-.5-.05-.93-.16-1.32-.32-.57-.23-1.21-.41-1.54-.41-.16,0-.39.02-.62.06-.3.05-.57.08-.74.06-.15-.03-.28-.12-.41-.19-.07-.05-.15-.1-.22-.13h0ZM57.25,30.1c.04.12.1.25.16.37.07.17.14.32.19.5.07.31.12.63.12.96,0,.13-.02.27-.02.41-.02.14-.03.28-.02.42.02.86.32,1.72.59,2.41.05,0,.1-.02.15-.03-.02-.07-.03-.17-.07-.29-.03-.14-.07-.31-.13-.48-.06-.17-.12-.36-.17-.55-.06-.19-.09-.39-.12-.57-.02-.18-.02-.36-.02-.51s0-.27,0-.36v-.13.13c0,.08,0,.21.02.36.02.15.02.32.06.5.03.17.08.37.14.55.07.19.15.37.22.54.07.17.12.33.17.48.03.12.07.22.08.31.06,0,.11-.02.16-.02h0c0-.18-.07-.41-.16-.62-.09-.23-.17-.44-.22-.65-.15-.48-.22-.92-.22-1.34,0-.62-.08-1.27-.21-1.58-.06-.15-.18-.35-.3-.55-.15-.25-.29-.49-.32-.66-.03-.15,0-.31.02-.45.02-.09.03-.17.03-.26h0c-.07.07-.14.26-.17.52-.02.2,0,.41.06.62ZM57.18,49.82c-.05.07-.09.15-.12.22h0c.1-.04.23-.18.37-.41.1-.17.16-.37.17-.59.02-.13,0-.27,0-.41,0-.17,0-.35.02-.52.04-.32.13-.63.25-.93.05-.13.12-.25.18-.37s.12-.24.17-.37c.32-.8.37-1.71.37-2.45-.05,0-.1-.02-.15-.02-.02.07-.03.17-.06.29-.02.15-.04.32-.06.5,0,.18-.02.38-.04.58s-.07.39-.12.57c-.05.18-.11.35-.17.48s-.11.25-.14.32c-.02.06-.05.1-.05.12,0-.02.02-.06.04-.12.03-.08.07-.2.12-.33.04-.14.09-.31.13-.48.04-.18.07-.37.08-.57,0-.2,0-.39,0-.58,0-.18.02-.36.02-.51.02-.12.02-.23.04-.32-.05,0-.1-.02-.15-.04h0c-.06.17-.09.41-.09.63,0,.24-.02.47-.04.69-.05.5-.15.93-.31,1.32-.24.57-.41,1.21-.42,1.54,0,.16.03.39.07.62.04.3.08.57.05.74-.03.15-.11.28-.19.41ZM57.47,35.43l-1.17-3.17,1.42,3.07c.07-.02.14-.05.22-.07l-2.7-5.77c-.03-.07-.08-.05-.1-.04s-.07.03-.04.1l2.16,5.99c.07-.04.14-.07.22-.11ZM57.71,43.75l-1.42,3.07,1.17-3.17c-.07-.03-.14-.07-.22-.1l-2.16,5.99c-.02.06.02.09.04.09.02,0,.07.02.1-.03l2.7-5.77c-.07-.02-.14-.05-.22-.08ZM55.76,36.78h0c-.13-.12-.33-.24-.55-.33-.22-.09-.42-.19-.62-.29-.45-.24-.81-.5-1.1-.8-.44-.43-.96-.83-1.27-.97-.15-.07-.37-.12-.6-.18-.29-.07-.56-.14-.7-.23-.12-.08-.22-.21-.31-.33-.05-.07-.1-.14-.15-.2,0,.12.08.29.23.48.13.16.29.3.48.39.12.07.25.11.37.16.16.06.32.12.48.22.27.17.53.36.76.58.1.1.19.21.28.32.09.11.18.21.28.31.62.59,1.44.99,2.12,1.28.02-.04.05-.08.08-.12-.07-.05-.16-.11-.26-.17-.12-.08-.27-.17-.43-.25-.17-.08-.35-.16-.52-.26-.17-.1-.33-.22-.48-.33-.14-.12-.27-.23-.37-.33-.11-.11-.19-.2-.25-.26-.04-.04-.07-.07-.08-.08.02.02.05.04.09.07.06.06.15.14.26.24.11.1.24.21.39.32.16.1.32.2.5.29.18.08.35.15.52.22.17.07.32.16.46.22.12.06.21.12.28.16l.1-.12ZM55.88,36.63c.05-.07.1-.12.16-.17l-2.3-2.49,2.48,2.3.17-.15-4.7-4.3s-.1,0-.11,0c0,0-.05.05,0,.1l4.3,4.71ZM51.69,47.27l4.7-4.3c-.06-.05-.12-.11-.17-.16l-2.48,2.3,2.3-2.48c-.06-.06-.11-.12-.16-.17l-4.3,4.7s0,.09,0,.11c0,0,.06.05.11,0ZM59.31,35.29c-2.35,0-4.25,1.91-4.25,4.25s1.9,4.25,4.25,4.25,4.26-1.91,4.26-4.25-1.91-4.25-4.26-4.25ZM56.01,34.65c.12.15.27.28.4.42.13.13.24.27.34.38.08.1.15.18.2.25.04-.02.08-.05.13-.07h0c-.08-.17-.22-.35-.38-.52-.17-.17-.32-.34-.46-.51-.32-.39-.56-.77-.72-1.16-.23-.57-.57-1.14-.79-1.38-.12-.12-.3-.26-.48-.39-.24-.17-.47-.35-.56-.48s-.12-.28-.16-.42c-.02-.09-.04-.17-.07-.25-.04.12-.03.31.03.54.05.19.15.38.29.55.08.09.19.19.28.28.13.12.27.24.37.38.2.26.36.54.48.83.06.13.09.27.13.39.04.14.08.27.14.39.34.79.95,1.47,1.47,2.01.04-.03.08-.07.12-.09-.04-.07-.1-.16-.17-.25-.09-.12-.19-.26-.32-.39-.12-.14-.25-.28-.37-.44s-.23-.32-.32-.49c-.08-.17-.16-.32-.22-.46-.06-.13-.1-.25-.13-.33-.02-.07-.04-.12-.04-.12,0,0,.02.06.05.12.03.07.08.19.15.32.07.13.15.28.25.43.09.16.21.32.34.46ZM56.04,43.57s0-.02,0-.03l-4.24,3.87c-.06.05-.12.07-.17.07-.07,0-.14-.03-.19-.08-.09-.09-.12-.24,0-.37l4-4.4c-.47.44-1.06.9-1.71,1.18-.13.06-.28.11-.42.15-.13.03-.25.07-.37.12-.28.12-.55.27-.8.46-.13.09-.24.22-.36.34-.09.1-.19.21-.3.3-.18.16-.4.27-.62.33-.16.04-.3.07-.42.07-.11,0-.2-.02-.27-.06-.05-.03-.09-.08-.1-.13,0-.08.05-.17.14-.2.09-.03.18-.06.28-.07.13-.03.27-.07.37-.13.11-.07.27-.29.43-.51.14-.19.29-.39.42-.51.3-.29.93-.62,1.44-.83.37-.16.72-.38,1.11-.69.16-.13.32-.27.49-.45,0,0,.02,0,.02-.02l-5.4,1.96s-.07.02-.09.02c-.12,0-.21-.07-.24-.17-.05-.12-.02-.27.12-.34l5.39-2.52c-.62.22-1.32.42-2.03.43-.15,0-.3,0-.44-.02-.12-.02-.26-.02-.39-.02-.31,0-.61.04-.91.12-.16.04-.31.11-.47.18-.12.06-.25.12-.39.16-.17.06-.34.08-.51.08-.07,0-.12,0-.19,0-.32-.04-.54-.13-.65-.27-.04-.04-.05-.11-.04-.16.02-.08.11-.13.21-.13.09,0,.19.02.28.03.13.02.27.05.38.02.13-.02.37-.17.6-.31.21-.12.42-.25.57-.31.39-.16,1.11-.22,1.65-.22.4,0,.82-.07,1.29-.21.2-.06.41-.13.63-.22,0,0,.02,0,.02,0l-5.74-.26c-.17,0-.25-.14-.25-.27s.08-.26.25-.27l5.94-.27c-.65-.02-1.38-.12-2.04-.37-.13-.05-.27-.12-.39-.19-.12-.06-.23-.12-.36-.17-.28-.12-.58-.2-.88-.24-.16-.02-.32-.02-.5,0-.13,0-.28,0-.42,0-.24-.02-.47-.09-.67-.21-.28-.16-.45-.32-.5-.49-.02-.06,0-.12.02-.17.05-.06.15-.07.24-.04.09.04.17.09.25.14.12.07.22.14.35.17s.4,0,.67-.05c.23-.03.47-.07.65-.07.42,0,1.11.22,1.61.42.37.15.78.25,1.27.3.21.02.42.03.67.03h.02l-5.2-2.43c-.15-.07-.17-.22-.13-.34.05-.12.18-.21.34-.15l5.6,2.02c-.6-.27-1.23-.64-1.75-1.13-.11-.1-.2-.22-.29-.32-.08-.1-.17-.2-.27-.29-.22-.22-.46-.41-.72-.57-.13-.07-.29-.13-.45-.2-.13-.04-.27-.09-.39-.16-.22-.12-.41-.27-.55-.45-.2-.26-.29-.47-.27-.64,0-.06.04-.12.09-.14.07-.04.17-.02.23.05.07.07.12.15.17.22.08.12.16.22.26.29.11.07.38.13.64.2.22.06.47.12.62.19.38.17.94.62,1.32,1.01.28.28.62.53,1.06.77.18.1.38.19.6.28,0,0,.02,0,.03.02l-3.87-4.24c-.12-.12-.08-.28,0-.37.09-.08.24-.12.37,0l4.39,4.01c-.44-.48-.89-1.07-1.17-1.72-.06-.13-.11-.27-.15-.41-.03-.12-.07-.25-.12-.37-.12-.28-.27-.55-.46-.79-.1-.13-.22-.24-.34-.36-.1-.1-.21-.2-.3-.31-.16-.18-.28-.4-.33-.62-.08-.32-.08-.55,0-.7.02-.06.08-.09.13-.1.08,0,.17.05.2.14.03.08.06.18.07.27.03.13.06.26.13.36.07.11.29.27.51.44.19.14.38.28.51.41.29.3.62.94.83,1.44.16.37.37.73.68,1.11.14.17.28.33.45.5,0,0,.02.02.02.02l-1.96-5.4c-.05-.16.03-.28.15-.33.12-.05.27-.02.34.13l2.52,5.38c-.22-.62-.42-1.32-.43-2.02,0-.15,0-.3.02-.44,0-.12.02-.27.02-.39,0-.31-.04-.62-.12-.91-.04-.16-.11-.31-.18-.47-.06-.12-.12-.26-.16-.39-.07-.23-.1-.47-.07-.7.04-.32.13-.54.27-.65.04-.04.11-.06.16-.04.08.02.13.1.13.2,0,.1-.02.2-.03.29-.02.13-.05.26-.02.38s.17.37.31.6c.12.2.24.41.31.57.15.38.22,1.11.22,1.65,0,.4.07.82.21,1.28.06.21.13.42.22.63,0,0,0,.02.02.02l.26-5.73c0-.08.04-.15.09-.19s.12-.07.17-.07c.12,0,.26.09.27.26l.27,5.94c.02-.65.12-1.38.37-2.04.05-.14.12-.27.18-.4.07-.11.12-.23.17-.35.12-.28.2-.58.24-.88.02-.17.02-.32,0-.5,0-.14,0-.28,0-.42.02-.24.09-.47.21-.67.16-.28.32-.45.48-.5.07-.02.13,0,.17.02.07.05.08.15.05.24-.04.08-.09.17-.14.24-.07.12-.15.23-.17.35-.02.13,0,.41.05.67.03.23.07.47.07.65,0,.42-.22,1.11-.42,1.61-.16.37-.25.78-.3,1.27-.02.22-.03.43-.03.67v.02l2.43-5.2c.07-.15.22-.18.34-.13.12.05.21.17.15.33l-2.02,5.6c.27-.6.64-1.24,1.13-1.76.1-.11.22-.2.33-.29.1-.08.2-.17.29-.26.22-.22.41-.47.57-.72.07-.14.13-.29.2-.46.04-.12.09-.27.16-.39.11-.22.27-.41.45-.54.26-.2.47-.29.64-.27.06,0,.12.03.14.08.04.07.02.17-.05.23-.07.07-.15.12-.22.18-.12.07-.22.15-.29.25-.07.12-.14.38-.21.64-.05.23-.12.47-.18.63-.17.37-.62.93-1.01,1.32-.28.28-.53.63-.77,1.06-.1.19-.19.38-.28.61,0,0,0,.02-.02.02l4.24-3.87c.12-.11.28-.07.37,0,.09.09.12.25.02.37l-4.02,4.4c.48-.44,1.07-.9,1.72-1.19.14-.06.28-.1.42-.14.12-.04.25-.07.37-.12.28-.12.55-.27.79-.46.13-.1.24-.22.36-.35.1-.1.19-.2.31-.3.18-.16.4-.27.62-.32.32-.09.55-.09.7-.02.06.03.09.08.1.14,0,.08-.05.16-.14.2-.08.03-.18.05-.27.07-.13.02-.26.06-.37.12-.11.07-.27.3-.43.52-.14.19-.28.38-.42.51-.29.28-.93.62-1.43.83-.38.15-.73.37-1.11.68-.17.13-.33.28-.5.45,0,0-.02.02-.02.02l5.4-1.95c.16-.06.28.03.33.15s.02.27-.13.34l-5.38,2.52c.62-.22,1.32-.42,2.02-.43.15,0,.3,0,.44.02.12.02.27.03.39.02.31,0,.62-.04.91-.12.16-.03.31-.11.47-.17.12-.06.26-.12.39-.17.23-.07.47-.1.7-.07.32.04.54.12.65.26.04.05.06.11.04.17-.02.07-.11.13-.21.12-.09,0-.19-.02-.28-.03-.13-.02-.26-.04-.38-.02s-.37.17-.6.3c-.2.12-.41.25-.57.32-.38.15-1.11.22-1.65.22-.4,0-.82.07-1.28.21-.21.07-.42.13-.63.22,0,0-.02,0-.02,0l5.73.27c.17,0,.25.14.25.27s-.08.26-.25.27l-5.94.27c.65.03,1.38.12,2.04.37.14.06.27.12.4.19.11.06.23.12.35.17.28.12.58.19.88.23.16.02.32.02.5.02.14,0,.28,0,.42,0,.24.02.48.09.67.2.28.17.45.33.5.49.02.06,0,.12-.02.17s-.08.07-.14.07c-.03,0-.07,0-.1-.02-.08-.04-.17-.09-.25-.14-.12-.07-.22-.14-.34-.17-.13-.02-.41.02-.67.06-.23.03-.48.07-.65.07-.42,0-1.11-.22-1.61-.43-.37-.15-.78-.25-1.27-.3-.22-.02-.43-.03-.67-.03h-.02l5.2,2.43c.15.07.18.23.13.35-.04.09-.13.17-.24.17-.03,0-.07,0-.09-.02l-5.6-2.02c.59.27,1.23.63,1.74,1.12.11.1.21.22.3.32.08.1.17.21.26.3.22.22.46.4.72.56.14.08.29.14.46.2.12.05.27.1.39.17.22.11.4.27.54.44.2.26.29.47.27.64,0,.07-.03.12-.08.15-.02,0-.05.02-.08.02-.05,0-.11-.02-.16-.07-.06-.07-.12-.14-.17-.22-.07-.11-.15-.22-.26-.28-.11-.07-.37-.14-.64-.21-.22-.06-.46-.12-.62-.18-.38-.17-.93-.63-1.32-1.02-.28-.28-.63-.53-1.06-.76-.19-.1-.39-.2-.61-.29,0,0-.02,0-.02,0l3.87,4.24c.11.12.07.27-.02.37-.04.05-.12.08-.18.08s-.12-.02-.18-.07l-4.39-4c.44.48.89,1.06,1.18,1.71.06.13.1.27.14.42.03.12.08.25.12.37.12.28.27.55.46.8.1.12.22.24.34.36.11.09.21.19.3.3.16.18.27.4.33.62.08.31.09.55,0,.7-.02.05-.07.09-.13.1h-.02c-.07,0-.15-.06-.18-.14-.03-.09-.05-.18-.07-.27-.03-.13-.06-.27-.13-.37-.07-.11-.3-.27-.52-.43-.19-.14-.38-.29-.51-.42-.28-.3-.62-.94-.83-1.44-.15-.37-.37-.73-.68-1.11-.13-.17-.28-.32-.45-.5,0,0-.02,0-.02-.02l1.95,5.4c.06.16-.03.29-.15.33-.03.02-.07.02-.11.02-.09,0-.18-.04-.23-.15l-2.52-5.39c.22.62.42,1.32.43,2.03,0,.15,0,.29-.02.44,0,.12-.02.26-.02.38,0,.31.05.62.12.92.03.16.1.3.17.46.06.13.12.26.17.4.07.22.1.47.07.7-.04.32-.13.54-.26.65-.03.02-.08.04-.12.04,0,0-.03,0-.04,0-.07-.02-.13-.1-.12-.2,0-.1.02-.19.03-.28.02-.13.04-.27.02-.38-.02-.13-.17-.37-.31-.6-.12-.21-.24-.42-.31-.57-.15-.39-.22-1.11-.22-1.65,0-.4-.07-.82-.21-1.29-.07-.2-.13-.41-.22-.63,0,0,0-.02-.02-.02l-.26,5.74c0,.08-.04.14-.09.18-.05.04-.11.07-.18.07-.12,0-.26-.08-.27-.25l-.27-5.94c-.03.65-.12,1.37-.37,2.04-.06.13-.13.27-.19.39-.06.12-.12.23-.17.35-.12.29-.19.59-.24.89-.02.16-.02.32,0,.5,0,.13,0,.27,0,.42-.02.25-.09.48-.21.68-.16.27-.32.45-.48.5-.02,0-.04,0-.06,0-.04,0-.08-.02-.11-.04-.07-.05-.08-.14-.04-.23.03-.09.09-.17.14-.25.07-.12.14-.22.17-.35s-.02-.4-.06-.67c-.03-.23-.07-.47-.07-.66,0-.41.22-1.1.43-1.6.15-.37.25-.79.3-1.27.02-.21.03-.43.03-.67v-.03l-2.44,5.2c-.05.11-.14.15-.23.15-.04,0-.07,0-.11-.02-.12-.04-.2-.17-.15-.33l2.02-5.6c-.27.6-.63,1.23-1.12,1.75-.11.11-.22.2-.33.29-.1.08-.2.17-.29.26-.22.22-.4.47-.56.73-.08.13-.14.29-.2.45-.05.13-.1.27-.17.39-.11.22-.27.41-.44.55-.24.18-.45.27-.61.27h-.04c-.06,0-.11-.04-.14-.09-.04-.07-.02-.17.05-.23.07-.07.15-.12.22-.17.12-.08.22-.16.29-.26.07-.11.14-.38.21-.64.06-.22.12-.47.18-.62.17-.38.63-.94,1.02-1.32.28-.28.53-.62.76-1.06.1-.18.2-.38.29-.6ZM56.06,44.45c.08-.17.16-.36.23-.52.07-.17.15-.33.22-.46.07-.12.12-.22.16-.28l-.12-.1h0c-.12.14-.24.34-.32.55-.1.22-.19.43-.3.62-.23.44-.5.81-.79,1.1-.44.44-.84.96-.97,1.27-.06.15-.12.37-.18.6-.07.28-.14.56-.23.7-.09.12-.22.22-.33.3-.07.06-.15.11-.21.16h0c.11,0,.29-.08.49-.23.16-.12.29-.29.39-.48.06-.12.11-.25.15-.37.07-.16.12-.33.22-.48.17-.27.37-.53.59-.77.1-.1.2-.18.31-.27.11-.09.22-.18.31-.28.59-.62,1-1.44,1.29-2.12-.05-.02-.09-.05-.13-.08-.05.07-.1.15-.17.26-.08.12-.16.27-.24.43-.08.17-.17.35-.27.52-.1.17-.21.33-.32.48-.12.14-.23.27-.34.37-.1.11-.19.19-.26.25-.04.04-.07.07-.09.08.02,0,.04-.04.09-.09.06-.06.14-.15.24-.26.09-.12.2-.25.31-.4s.21-.32.29-.49Z"/>
  </g>
</svg>