<?xml version="1.0" encoding="UTF-8"?>
<svg id="Layer_1" data-name="Layer 1" xmlns="http://www.w3.org/2000/svg" viewBox="0 0 118.61 79.07">
  <defs>
    <style>
      .cls-1 {
        fill: #d01134;
      }

      .cls-1, .cls-2, .cls-3 {
        stroke-width: 0px;
      }

      .cls-2 {
        fill: #016233;
      }

      .cls-3 {
        fill: #fff;
      }
    </style>
  </defs>
  <g>
    <rect class="cls-3" x="59.31" y="0" width="59.3" height="79.08"/>
    <rect class="cls-2" x="0" y="0" width="59.31" height="79.08"/>
  </g>
  <g>
    <path class="cls-1" d="M65.03,55.37c-8.74,0-15.83-7.09-15.83-15.83s7.09-15.84,15.83-15.84c5.09,0,9.61,2.4,12.51,6.13-3.4-6.03-9.85-10.09-17.25-10.09-10.94,0-19.8,8.87-19.8,19.8s8.86,19.79,19.8,19.79c7.4,0,13.86-4.06,17.25-10.08-2.9,3.72-7.42,6.12-12.51,6.12Z"/>
    <polygon class="cls-1" points="71.35 30.2 71.34 37.34 78.13 39.55 71.34 41.75 71.33 48.89 67.15 43.11 60.35 45.31 64.56 39.54 60.37 33.75 67.16 35.96 71.35 30.2"/>
  </g>
</svg>