<?xml version="1.0" encoding="UTF-8"?>
<svg id="Layer_1" data-name="Layer 1" xmlns="http://www.w3.org/2000/svg" viewBox="0 0 118.61 79.08">
  <defs>
    <style>
      .cls-1 {
        fill: #243468;
      }

      .cls-1, .cls-2, .cls-3, .cls-4 {
        stroke-width: 0px;
      }

      .cls-2 {
        fill: #fcde09;
      }

      .cls-3 {
        fill: #fff;
      }

      .cls-4 {
        fill: #039a39;
      }
    </style>
  </defs>
  <g>
    <rect class="cls-4" width="118.61" height="79.08"/>
    <polygon class="cls-2" points="59.3 69.43 12.4 39.54 59.3 9.65 106.21 39.54 59.3 69.43"/>
    <g>
      <g>
        <path class="cls-1" d="M79.04,39.54c0,10.9-8.83,19.73-19.73,19.73s-19.73-8.84-19.73-19.73,8.83-19.73,19.73-19.73,19.73,8.84,19.73,19.73Z"/>
        <path class="cls-3" d="M41.25,31.57c-.43.97-.78,1.98-1.05,3.02,1.28-.28,21.16-4.31,37.93,10.87.32-1,.55-2.04.71-3.11-16.11-13.86-34.93-11.23-37.59-10.78Z"/>
      </g>
      <path class="cls-4" d="M42.4,31.89c.13,0,.25.02.36.07.11.05.2.11.28.19.07.08.14.18.18.3.04.12.06.25.06.39s-.02.27-.06.39c-.04.12-.1.22-.18.3s-.17.15-.27.19c-.11.05-.23.07-.37.07s-.25-.02-.36-.07c-.11-.05-.2-.11-.28-.19s-.14-.18-.18-.3c-.04-.11-.06-.24-.06-.39s.02-.27.06-.39c.04-.11.1-.22.18-.3.08-.08.17-.15.28-.19.11-.05.23-.07.36-.07ZM42.4,33.49c.08,0,.15-.02.22-.05.06-.03.12-.08.16-.14.05-.06.08-.13.1-.21.02-.08.03-.17.03-.26s-.01-.18-.03-.26c-.02-.08-.06-.15-.1-.21-.04-.06-.1-.1-.16-.13-.06-.03-.14-.05-.22-.05s-.15.02-.22.05c-.06.03-.12.08-.16.14-.05.06-.08.12-.1.21-.02.08-.04.17-.04.26s.01.18.04.26c.02.08.06.15.1.21.05.06.1.1.16.14.06.03.14.05.21.05Z"/>
      <path class="cls-4" d="M45.63,33.51l-.38.02-.18-.45s-.04-.07-.06-.11c-.02-.03-.05-.06-.08-.08-.03-.02-.06-.04-.1-.05-.04,0-.07-.01-.12-.01l-.34.02.03.73-.35.02-.09-1.83.81-.04c.07,0,.13,0,.19,0,.06,0,.11.01.16.02s.09.03.14.06.08.06.11.1c.06.08.1.18.1.31,0,.13-.02.23-.09.32-.07.08-.16.14-.28.18h0c.07.02.13.06.18.12.05.06.09.13.13.22l.21.48ZM44.36,32.56l.43-.02c.06,0,.11,0,.16-.02.05-.01.08-.03.11-.05.03-.02.05-.05.06-.09s.02-.08.01-.13c0-.09-.03-.16-.09-.2-.05-.04-.14-.06-.25-.05l-.46.02.02.54Z"/>
      <path class="cls-4" d="M46.4,31.61h.6c.32,0,.56.07.72.22.16.15.24.38.24.68,0,.62-.32.93-.96.93h-.6v-1.83ZM46.75,33.14h.25c.12,0,.22-.01.29-.04.08-.03.14-.07.18-.12.08-.11.12-.27.12-.46s-.04-.34-.12-.45c-.04-.05-.1-.09-.18-.12-.08-.03-.18-.04-.29-.04h-.25v1.23Z"/>
      <path class="cls-4" d="M50.26,33.45l-1.4-.02.02-1.83,1.36.02v.3s-1.01-.01-1.01-.01v.45s.93.01.93.01v.3s-.94,0-.94,0v.49s1.04.01,1.04.01v.3Z"/>
      <path class="cls-4" d="M52.99,33.62l-.33-.02.04-.76.05-.72-.53,1.45-.32-.02-.39-1.5-.02.72-.04.75-.33-.02.09-1.83.5.02.36,1.44.5-1.4.51.02-.09,1.83Z"/>
      <path class="cls-4" d="M56.4,34.15l-1.26-.18.24-1.66,1.23.17-.04.27-.91-.13-.06.4.85.12-.04.27-.85-.12-.06.44.95.14-.04.27Z"/>
      <path class="cls-4" d="M59.17,32.89l.67.2c.07.02.14.04.19.07.06.02.11.05.16.08.04.03.08.07.11.11.03.04.05.09.07.14.02.05.02.11.02.16,0,.06-.01.11-.03.17-.03.09-.07.17-.12.23-.05.06-.11.11-.18.14-.07.03-.16.05-.25.04-.09,0-.2-.02-.31-.05l-.33-.1-.2.66-.34-.1.52-1.76ZM59.27,33.82l.23.07s.05.01.07.02c.02,0,.04.01.06.02.06.01.11.02.15.02.05,0,.08,0,.11-.02s.06-.04.08-.07c.02-.03.04-.07.05-.11,0-.03.01-.06.01-.09,0-.03,0-.06,0-.08,0-.02-.02-.05-.03-.07-.01-.02-.03-.04-.05-.05-.03-.02-.07-.04-.12-.06-.05-.02-.11-.04-.17-.06l-.23-.07-.16.55Z"/>
      <path class="cls-4" d="M62.43,35.77l-.36-.12v-.48s-.01-.08-.02-.12c-.01-.04-.02-.07-.05-.11-.02-.03-.05-.06-.07-.08-.03-.02-.07-.04-.11-.05l-.32-.11-.23.69-.33-.11.59-1.74.77.26c.07.02.12.05.18.07.05.02.1.05.14.08.04.03.08.06.11.1.03.04.05.08.06.13.03.1.02.21-.02.32-.04.12-.11.21-.2.27-.09.05-.2.07-.33.06h0c.06.05.1.1.13.17.02.07.04.15.05.25l.02.52ZM61.59,34.42l.41.14c.06.02.11.03.16.04s.09,0,.12-.01.06-.03.09-.06c.02-.03.04-.07.06-.11.03-.09.02-.16-.01-.22-.04-.06-.11-.11-.21-.14l-.43-.14-.17.52Z"/>
      <path class="cls-4" d="M64.6,34.55c.13.05.23.11.32.18s.15.17.2.27.07.22.07.34c0,.12-.02.25-.07.39-.05.13-.11.25-.18.34-.08.09-.16.17-.26.23-.1.05-.21.08-.32.09s-.24-.01-.37-.06c-.13-.04-.23-.11-.32-.18s-.15-.17-.2-.27-.07-.22-.07-.34.02-.25.07-.39c.05-.14.11-.25.19-.35.08-.09.17-.17.27-.22.1-.05.21-.08.33-.09s.24.01.36.05ZM64.07,36.06c.08.03.15.04.22.03.07,0,.14-.03.2-.07.06-.04.11-.09.16-.16.05-.07.09-.15.12-.23.03-.09.05-.18.05-.26,0-.08,0-.16-.03-.23-.02-.07-.06-.13-.11-.18-.05-.05-.11-.09-.19-.12-.08-.03-.15-.04-.22-.03-.07,0-.14.03-.2.07-.06.04-.12.09-.16.16-.05.07-.09.15-.12.24-.03.09-.05.18-.05.26,0,.08,0,.16.03.23.02.07.06.13.11.18.05.05.11.09.19.12Z"/>
      <path class="cls-4" d="M66.19,37.21c-.12-.05-.22-.12-.3-.21-.08-.09-.14-.18-.18-.29s-.05-.22-.05-.34c0-.12.04-.25.1-.39.06-.13.13-.24.21-.33.08-.09.18-.16.28-.21.1-.05.21-.07.33-.07.12,0,.24.03.37.09.1.05.19.1.27.16.07.06.13.14.17.21.04.08.07.16.08.25s0,.18-.03.27l-.32-.14s.02-.09.02-.14c0-.05-.02-.09-.05-.13-.02-.04-.06-.08-.1-.11s-.09-.07-.16-.09c-.07-.03-.14-.05-.21-.05s-.14.02-.2.05c-.06.03-.12.08-.18.14-.06.07-.11.14-.15.24-.04.1-.07.19-.08.27,0,.09,0,.16.02.23.02.07.05.13.1.18.05.05.11.09.18.13.09.04.18.07.27.07s.16-.01.24-.05l.09-.21-.38-.17.11-.25.69.3-.39.88-.2-.09.02-.17c-.08.03-.17.05-.27.04-.1,0-.2-.03-.32-.08Z"/>
      <path class="cls-4" d="M69.02,38.58l-.33-.18.08-.48s0-.08,0-.12c0-.04-.01-.08-.03-.11-.02-.03-.03-.07-.06-.09-.02-.03-.06-.05-.09-.07l-.3-.16-.35.64-.31-.17.88-1.61.71.39c.06.03.11.07.16.1.05.03.09.07.13.1.04.04.06.08.09.12.02.04.03.09.04.14,0,.1-.02.21-.07.32-.06.11-.14.19-.24.23-.1.04-.21.04-.33,0h0c.05.06.08.12.1.19.01.07.01.16,0,.26l-.07.51ZM68.43,37.11l.37.21c.05.03.1.05.15.06.05.01.09.01.12,0,.04,0,.07-.02.1-.05.03-.02.06-.06.08-.1.05-.08.05-.15.03-.22-.03-.07-.09-.12-.18-.17l-.4-.22-.26.48Z"/>
      <path class="cls-4" d="M71.05,39.63l-1.21-.69.91-1.59,1.18.67-.15.26-.88-.5-.22.39.82.47-.15.26-.82-.47-.24.43.91.52-.15.26Z"/>
      <path class="cls-4" d="M72.48,40.56c-.21-.14-.34-.3-.39-.46-.05-.16-.02-.34.08-.52l.28.19c-.03.05-.04.1-.05.15,0,.05,0,.1.02.14s.05.09.08.13c.04.04.08.08.13.11.05.03.1.06.15.08s.09.03.13.03c.04,0,.08,0,.11-.02.03-.02.06-.04.08-.07.02-.03.03-.06.03-.09s0-.07-.02-.1c-.02-.04-.04-.08-.08-.12-.03-.04-.07-.09-.12-.14-.07-.07-.13-.15-.19-.21-.06-.07-.1-.13-.13-.19s-.05-.13-.05-.19c0-.06.01-.13.05-.2,0-.02.02-.04.03-.05,0-.02.02-.04.04-.05.04-.06.1-.1.16-.13.06-.03.13-.05.2-.05.07,0,.15,0,.23.04.08.03.16.07.25.12.09.06.17.13.23.2.06.07.1.15.13.22.03.08.04.15.02.23,0,.08-.04.16-.08.23l-.28-.19c.09-.17.03-.32-.16-.45-.05-.03-.09-.06-.14-.07s-.08-.02-.12-.02-.07,0-.1.02c-.03.01-.05.04-.07.07-.02.03-.03.05-.03.08,0,.03,0,.06.02.09s.04.07.07.11c.03.04.07.09.12.14.05.05.09.1.14.14.04.05.08.09.11.14.04.05.07.09.09.14.02.05.04.1.05.15s0,.1-.01.15c-.01.05-.04.11-.08.16-.05.07-.11.13-.18.16-.07.04-.14.06-.23.06-.08,0-.16,0-.25-.04-.09-.03-.18-.07-.27-.13Z"/>
      <path class="cls-4" d="M74.52,41.9c-.21-.14-.34-.3-.4-.46s-.02-.34.08-.52l.28.19c-.03.05-.04.1-.05.15s0,.1.02.15c.02.05.05.09.08.13.04.04.08.08.13.11.05.03.1.06.15.08s.09.03.13.03c.04,0,.08,0,.11-.02s.06-.04.08-.07c.02-.03.03-.06.03-.09s0-.07-.02-.1c-.02-.03-.04-.07-.07-.11-.03-.04-.08-.09-.12-.14-.07-.08-.13-.15-.19-.21-.05-.07-.1-.13-.13-.19s-.05-.13-.05-.19c0-.06.01-.13.05-.2,0-.02.02-.04.03-.05.01-.02.02-.03.04-.05.05-.06.1-.1.16-.13.06-.03.13-.05.2-.05.07,0,.15.01.23.04.08.02.16.07.25.12.09.06.17.13.23.2.06.07.1.14.13.22.02.08.03.15.02.23s-.04.16-.08.23l-.28-.19c.09-.16.04-.31-.16-.45-.05-.03-.09-.05-.14-.07-.04-.02-.08-.02-.12-.02s-.07,0-.1.02-.05.04-.07.07c-.02.03-.03.05-.03.08,0,.03,0,.06.02.09s.04.07.07.11.07.09.12.14c.05.05.09.1.14.14.04.05.08.09.12.14.03.05.06.09.09.14.02.05.04.1.05.15,0,.05,0,.1-.01.15-.01.05-.04.11-.08.16-.05.07-.11.13-.18.16-.07.04-.14.06-.23.06-.08,0-.17,0-.26-.04-.09-.03-.18-.07-.26-.13Z"/>
      <path class="cls-4" d="M77.46,41.77c.11.07.2.15.27.25s.11.2.13.31c.02.11.02.23,0,.35-.03.12-.08.24-.15.36-.07.12-.16.22-.25.3-.09.08-.2.13-.31.16-.11.03-.22.04-.34.02-.11-.02-.23-.06-.34-.13-.11-.07-.21-.15-.27-.25-.07-.09-.11-.2-.13-.31-.02-.11-.02-.23,0-.35.03-.12.08-.24.15-.36.07-.12.16-.22.26-.3s.2-.13.31-.16c.11-.03.22-.04.34-.02.11.02.23.06.34.13ZM76.61,43.13c.07.04.14.07.21.07.07,0,.14,0,.21-.03.07-.03.13-.07.19-.12.06-.06.12-.12.17-.2.05-.08.09-.16.11-.24.02-.08.03-.16.02-.23,0-.07-.03-.14-.07-.2-.04-.06-.09-.11-.16-.16-.07-.04-.14-.07-.21-.07-.07,0-.14,0-.21.03-.07.02-.13.07-.2.12s-.12.12-.17.21-.09.16-.11.24c-.02.08-.03.16-.02.23,0,.07.03.14.07.2.04.06.09.11.16.15Z"/>
    </g>
  </g>
  <g>
    <polygon class="cls-3" points="65.45 32.57 65.64 33.14 66.24 33.14 65.75 33.5 65.94 34.07 65.45 33.72 64.96 34.07 65.15 33.5 64.66 33.14 65.26 33.14 65.45 32.57"/>
    <polygon class="cls-3" points="64.68 37.86 64.83 38.31 65.3 38.31 64.92 38.59 65.06 39.04 64.68 38.76 64.3 39.04 64.44 38.59 64.06 38.31 64.53 38.31 64.68 37.86"/>
    <polygon class="cls-3" points="59.31 42 59.47 42.5 59.99 42.5 59.57 42.81 59.73 43.3 59.31 43 58.88 43.3 59.05 42.81 58.62 42.5 59.14 42.5 59.31 42"/>
    <polygon class="cls-3" points="51.81 39.55 51.98 40.08 52.54 40.08 52.09 40.41 52.26 40.94 51.81 40.61 51.36 40.94 51.53 40.41 51.08 40.08 51.64 40.08 51.81 39.55"/>
    <polygon class="cls-3" points="44.93 43.42 45.12 44.01 45.73 44.01 45.23 44.37 45.43 44.95 44.93 44.59 44.43 44.95 44.62 44.37 44.12 44.01 44.74 44.01 44.93 43.42"/>
    <polygon class="cls-3" points="42.48 45.28 42.66 45.8 43.21 45.8 42.76 46.13 42.93 46.65 42.48 46.33 42.04 46.65 42.21 46.13 41.76 45.8 42.31 45.8 42.48 45.28"/>
    <polygon class="cls-3" points="51.4 49.21 51.58 49.78 52.19 49.78 51.7 50.14 51.89 50.71 51.4 50.35 50.91 50.71 51.1 50.14 50.61 49.78 51.21 49.78 51.4 49.21"/>
    <polygon class="cls-3" points="48.48 47.61 48.61 48.04 49.06 48.04 48.7 48.3 48.84 48.72 48.48 48.46 48.11 48.72 48.25 48.3 47.89 48.04 48.34 48.04 48.48 47.61"/>
    <polygon class="cls-3" points="49.04 45.57 49.19 46.04 49.7 46.04 49.29 46.34 49.45 46.82 49.04 46.52 48.63 46.82 48.79 46.34 48.38 46.04 48.88 46.04 49.04 45.57"/>
    <polygon class="cls-3" points="46.87 42.58 46.98 42.92 47.34 42.92 47.05 43.13 47.16 43.46 46.87 43.26 46.59 43.46 46.7 43.13 46.41 42.92 46.76 42.92 46.87 42.58"/>
    <polygon class="cls-3" points="43.17 35 43.38 35.65 44.06 35.65 43.51 36.05 43.72 36.7 43.17 36.3 42.62 36.7 42.83 36.05 42.28 35.65 42.96 35.65 43.17 35"/>
    <polygon class="cls-3" points="61.61 43.8 61.77 44.3 62.29 44.3 61.87 44.6 62.03 45.1 61.61 44.8 61.18 45.1 61.34 44.6 60.92 44.3 61.44 44.3 61.61 43.8"/>
    <polygon class="cls-3" points="59.33 47.6 59.51 48.18 60.12 48.18 59.63 48.53 59.82 49.11 59.33 48.75 58.84 49.11 59.02 48.53 58.53 48.18 59.14 48.18 59.33 47.6"/>
    <polygon class="cls-3" points="65.25 52.07 65.43 52.62 66.01 52.62 65.54 52.96 65.72 53.51 65.25 53.17 64.78 53.51 64.96 52.96 64.49 52.62 65.07 52.62 65.25 52.07"/>
    <polygon class="cls-3" points="73.15 45.69 73.33 46.24 73.91 46.24 73.44 46.58 73.62 47.13 73.15 46.79 72.68 47.13 72.86 46.58 72.39 46.24 72.97 46.24 73.15 45.69"/>
    <polygon class="cls-3" points="73.98 47.52 74.14 48 74.64 48 74.23 48.3 74.39 48.78 73.98 48.48 73.57 48.78 73.73 48.3 73.32 48 73.82 48 73.98 47.52"/>
    <polygon class="cls-3" points="75.92 46.01 76.06 46.45 76.52 46.45 76.15 46.72 76.29 47.16 75.92 46.89 75.55 47.16 75.69 46.72 75.32 46.45 75.78 46.45 75.92 46.01"/>
    <polygon class="cls-3" points="72.77 49.11 72.93 49.59 73.44 49.59 73.03 49.89 73.18 50.37 72.77 50.07 72.36 50.37 72.52 49.89 72.11 49.59 72.62 49.59 72.77 49.11"/>
    <polygon class="cls-3" points="69.23 51.62 69.4 52.14 69.94 52.14 69.5 52.46 69.67 52.98 69.23 52.66 68.79 52.98 68.95 52.46 68.51 52.14 69.06 52.14 69.23 51.62"/>
    <polygon class="cls-3" points="66.9 50.45 67.05 50.89 67.51 50.89 67.14 51.16 67.28 51.6 66.9 51.33 66.53 51.6 66.67 51.16 66.3 50.89 66.76 50.89 66.9 50.45"/>
    <polygon class="cls-3" points="69.12 49.83 69.25 50.21 69.65 50.21 69.32 50.45 69.45 50.84 69.12 50.6 68.79 50.84 68.92 50.45 68.59 50.21 69 50.21 69.12 49.83"/>
    <polygon class="cls-3" points="71.18 50.22 71.31 50.61 71.71 50.61 71.39 50.84 71.51 51.23 71.18 50.99 70.85 51.23 70.98 50.84 70.65 50.61 71.06 50.61 71.18 50.22"/>
    <polygon class="cls-3" points="69.18 53.81 69.3 54.19 69.71 54.19 69.38 54.43 69.5 54.82 69.18 54.58 68.85 54.82 68.98 54.43 68.65 54.19 69.05 54.19 69.18 53.81"/>
    <polygon class="cls-3" points="63.65 49.96 63.79 50.4 64.25 50.4 63.88 50.67 64.02 51.11 63.65 50.84 63.28 51.11 63.42 50.67 63.05 50.4 63.51 50.4 63.65 49.96"/>
    <polygon class="cls-3" points="59.33 54.71 59.4 54.93 59.63 54.93 59.44 55.06 59.51 55.28 59.33 55.15 59.14 55.28 59.21 55.06 59.02 54.93 59.25 54.93 59.33 54.71"/>
    <polygon class="cls-3" points="57.29 43.85 57.44 44.3 57.91 44.3 57.52 44.58 57.67 45.02 57.29 44.75 56.91 45.02 57.06 44.58 56.68 44.3 57.14 44.3 57.29 43.85"/>
    <polygon class="cls-3" points="58.32 45.4 58.42 45.72 58.76 45.72 58.49 45.93 58.59 46.25 58.32 46.05 58.04 46.25 58.15 45.93 57.87 45.72 58.21 45.72 58.32 45.4"/>
  </g>
</svg>