<?xml version="1.0" encoding="UTF-8"?>
<svg id="Layer_1" data-name="Layer 1" xmlns="http://www.w3.org/2000/svg" viewBox="0 0 118.61 79.08">
  <defs>
    <style>
      .cls-1 {
        fill: #d32d1e;
      }

      .cls-1, .cls-2 {
        stroke-width: 0px;
      }

      .cls-2 {
        fill: #fff;
      }
    </style>
  </defs>
  <g>
    <rect class="cls-1" width="29.64" height="79.07"/>
    <rect class="cls-2" x="29.64" width="59.34" height="79.07"/>
    <rect class="cls-1" x="88.98" width="29.63" height="79.07"/>
  </g>
  <path class="cls-1" d="M72.12,49.4l12.01-9.75-2.81-1.2c-.39-.17-.6-.6-.48-1.01l2.23-7.97-7.22,1.54c-.46.1-.9-.18-1.01-.63l-.78-3.39-5.84,6.48c-.71.78-1.99.13-1.78-.9l2.68-13.15-3.89,1.99c-.58.29-1.29.07-1.59-.49l-4.34-8.03-4.33,8.03c-.31.57-1.02.78-1.59.49l-3.9-1.99,2.68,13.15c.22,1.03-1.07,1.68-1.78.9l-5.84-6.48-.78,3.39c-.1.45-.55.73-1,.63l-7.22-1.54,2.22,7.97c.12.41-.09.84-.48,1.01l-2.81,1.2,12.01,9.75c.55.44.76,1.17.52,1.84l-1.08,3.1,11.63-1.54c.57-.07,1.06.37,1.05.95l-.35,12.44h2.08l-.35-12.44c-.02-.57.48-1.02,1.06-.95l11.62,1.54-1.08-3.1c-.22-.67-.02-1.4.52-1.84Z"/>
</svg>