<?xml version="1.0" encoding="UTF-8"?>
<svg id="Layer_1" data-name="Layer 1" xmlns="http://www.w3.org/2000/svg" viewBox="0 0 118.61 79.08">
  <defs>
    <style>
      .cls-1, .cls-2, .cls-3, .cls-4, .cls-5, .cls-6 {
        stroke-width: 0px;
      }

      .cls-2 {
        fill: #2a317e;
      }

      .cls-3 {
        fill: #208fcf;
      }

      .cls-4 {
        fill: #e42521;
      }

      .cls-5 {
        fill: #fff;
      }

      .cls-6 {
        fill: #f5d922;
      }
    </style>
  </defs>
  <g>
    <rect class="cls-4" x="0" y="0" width="118.62" height="26.35"/>
    <rect class="cls-2" x="0" y="52.71" width="118.62" height="26.36"/>
    <rect class="cls-5" x="0" y="26.35" width="118.62" height="26.36"/>
  </g>
  <g>
    <g>
      <path class="cls-4" d="M44.79,27.2v17.42c0,.58.04,1.17.11,1.74.16,1.35.51,2.66,1.03,3.91.37.87.82,1.7,1.35,2.47h3.32v-12.77h11.61v-6.39h11.62v-6.39h-29.04ZM44.79,27.2v17.42c0,.58.04,1.17.11,1.74.16,1.35.51,2.66,1.03,3.91.37.87.82,1.7,1.35,2.47.52.77,1.11,1.48,1.77,2.14.49.49,1.01.94,1.56,1.36.94.71,1.96,1.29,3.06,1.76.88.37,1.81.66,2.75.85v-6.1h-5.81v-12.77h11.61v-6.39h11.62v-6.39h-29.04ZM58.89,59.13c.14,0,.28,0,.42,0,.14,0,.28,0,.42,0h-.83ZM44.79,27.2v17.42c0,.58.04,1.17.11,1.74.16,1.35.51,2.66,1.03,3.91.37.87.82,1.7,1.35,2.47.52.77,1.11,1.48,1.77,2.14.49.49,1.01.94,1.56,1.36.94.71,1.96,1.29,3.06,1.76.88.37,1.81.66,2.75.85.81.17,1.64.27,2.48.28.14,0,.28,0,.42,0,.14,0,.28,0,.42,0,.85-.02,1.67-.12,2.49-.28v-6.1h-11.61v-12.77h11.61v-6.39h11.62v-6.39h-29.04ZM44.79,27.2v17.42c0,.58.04,1.17.11,1.74.16,1.35.51,2.66,1.03,3.91.37.87.82,1.7,1.35,2.47.52.77,1.11,1.48,1.77,2.14.49.49,1.01.94,1.56,1.36.94.71,1.96,1.29,3.06,1.76.88.37,1.81.66,2.75.85.81.17,1.64.27,2.48.28.14,0,.28,0,.42,0,.14,0,.28,0,.42,0,.85-.02,1.67-.12,2.49-.28.94-.19,1.86-.47,2.75-.85,1.1-.47,2.11-1.05,3.06-1.76.54-.42,1.07-.87,1.55-1.36.67-.66,1.26-1.37,1.77-2.14.52-.77.97-1.6,1.34-2.47.53-1.26.88-2.56,1.04-3.91.07-.57.1-1.16.1-1.74v-17.42h-29.04ZM44.79,27.2v17.42c0,.58.04,1.17.11,1.74.16,1.35.51,2.66,1.03,3.91.37.87.82,1.7,1.35,2.47.52.77,1.11,1.48,1.77,2.14.49.49,1.01.94,1.56,1.36.94.71,1.96,1.29,3.06,1.76.88.37,1.81.66,2.75.85.81.17,1.64.27,2.48.28.14,0,.28,0,.42,0,.14,0,.28,0,.42,0,.85-.02,1.67-.12,2.49-.28.94-.19,1.86-.47,2.75-.85,1.1-.47,2.11-1.05,3.06-1.76.54-.42,1.07-.87,1.55-1.36.67-.66,1.26-1.37,1.77-2.14.52-.77.97-1.6,1.34-2.47.53-1.26.88-2.56,1.04-3.91.07-.57.1-1.16.1-1.74v-17.42h-29.04ZM44.79,27.2v17.42c0,.58.04,1.17.11,1.74.16,1.35.51,2.66,1.03,3.91.37.87.82,1.7,1.35,2.47.52.77,1.11,1.48,1.77,2.14.49.49,1.01.94,1.56,1.36.94.71,1.96,1.29,3.06,1.76.88.37,1.81.66,2.75.85.81.17,1.64.27,2.48.28.14,0,.28,0,.42,0,.14,0,.28,0,.42,0,.85-.02,1.67-.12,2.49-.28.94-.19,1.86-.47,2.75-.85,1.1-.47,2.11-1.05,3.06-1.76.54-.42,1.07-.87,1.55-1.36.67-.66,1.26-1.37,1.77-2.14.52-.77.97-1.6,1.34-2.47.53-1.26.88-2.56,1.04-3.91.07-.57.1-1.16.1-1.74v-17.42h-29.04ZM44.79,27.2v17.42c0,.58.04,1.17.11,1.74.16,1.35.51,2.66,1.03,3.91.37.87.82,1.7,1.35,2.47.52.77,1.11,1.48,1.77,2.14.49.49,1.01.94,1.56,1.36.94.71,1.96,1.29,3.06,1.76.88.37,1.81.66,2.75.85.81.17,1.64.27,2.48.28.14,0,.28,0,.42,0,.14,0,.28,0,.42,0,.85-.02,1.67-.12,2.49-.28.94-.19,1.86-.47,2.75-.85,1.1-.47,2.11-1.05,3.06-1.76.54-.42,1.07-.87,1.55-1.36.67-.66,1.26-1.37,1.77-2.14.52-.77.97-1.6,1.34-2.47.53-1.26.88-2.56,1.04-3.91.07-.57.1-1.16.1-1.74v-17.42h-29.04ZM44.79,27.2v17.42c0,.58.04,1.17.11,1.74.16,1.35.51,2.66,1.03,3.91.37.87.82,1.7,1.35,2.47.52.77,1.11,1.48,1.77,2.14.49.49,1.01.94,1.56,1.36.94.71,1.96,1.29,3.06,1.76.88.37,1.81.66,2.75.85.81.17,1.64.27,2.48.28.14,0,.28,0,.42,0,.14,0,.28,0,.42,0,.85-.02,1.67-.12,2.49-.28.94-.19,1.86-.47,2.75-.85,1.1-.47,2.11-1.05,3.06-1.76.54-.42,1.07-.87,1.55-1.36.67-.66,1.26-1.37,1.77-2.14.52-.77.97-1.6,1.34-2.47.53-1.26.88-2.56,1.04-3.91.07-.57.1-1.16.1-1.74v-17.42h-29.04ZM44.79,27.2v17.42c0,.58.04,1.17.11,1.74.16,1.35.51,2.66,1.03,3.91.37.87.82,1.7,1.35,2.47.52.77,1.11,1.48,1.77,2.14.49.49,1.01.94,1.56,1.36.94.71,1.96,1.29,3.06,1.76.88.37,1.81.66,2.75.85.81.17,1.64.27,2.48.28.14,0,.28,0,.42,0,.14,0,.28,0,.42,0,.85-.02,1.67-.12,2.49-.28.94-.19,1.86-.47,2.75-.85,1.1-.47,2.11-1.05,3.06-1.76.54-.42,1.07-.87,1.55-1.36.67-.66,1.26-1.37,1.77-2.14.52-.77.97-1.6,1.34-2.47.53-1.26.88-2.56,1.04-3.91.07-.57.1-1.16.1-1.74v-17.42h-29.04ZM44.79,27.2v17.42c0,.58.04,1.17.11,1.74.16,1.35.51,2.66,1.03,3.91.37.87.82,1.7,1.35,2.47.52.77,1.11,1.48,1.77,2.14.49.49,1.01.94,1.56,1.36.94.71,1.96,1.29,3.06,1.76.88.37,1.81.66,2.75.85.81.17,1.64.27,2.48.28.14,0,.28,0,.42,0,.14,0,.28,0,.42,0,.85-.02,1.67-.12,2.49-.28.94-.19,1.86-.47,2.75-.85,1.1-.47,2.11-1.05,3.06-1.76.54-.42,1.07-.87,1.55-1.36.67-.66,1.26-1.37,1.77-2.14.52-.77.97-1.6,1.34-2.47.53-1.26.88-2.56,1.04-3.91.07-.57.1-1.16.1-1.74v-17.42h-29.04ZM44.79,27.2v17.42c0,.58.04,1.17.11,1.74.16,1.35.51,2.66,1.03,3.91.37.87.82,1.7,1.35,2.47.52.77,1.11,1.48,1.77,2.14.49.49,1.01.94,1.56,1.36.94.71,1.96,1.29,3.06,1.76.88.37,1.81.66,2.75.85.81.17,1.64.27,2.48.28.14,0,.28,0,.42,0,.14,0,.28,0,.42,0,.85-.02,1.67-.12,2.49-.28.94-.19,1.86-.47,2.75-.85,1.1-.47,2.11-1.05,3.06-1.76.54-.42,1.07-.87,1.55-1.36.67-.66,1.26-1.37,1.77-2.14.52-.77.97-1.6,1.34-2.47.53-1.26.88-2.56,1.04-3.91.07-.57.1-1.16.1-1.74v-17.42h-29.04ZM44.79,27.2v17.42c0,.58.04,1.17.11,1.74.16,1.35.51,2.66,1.03,3.91.37.87.82,1.7,1.35,2.47.52.77,1.11,1.48,1.77,2.14.49.49,1.01.94,1.56,1.36.94.71,1.96,1.29,3.06,1.76.88.37,1.81.66,2.75.85.81.17,1.64.27,2.48.28.14,0,.28,0,.42,0,.14,0,.28,0,.42,0,.85-.02,1.67-.12,2.49-.28.94-.19,1.86-.47,2.75-.85,1.1-.47,2.11-1.05,3.06-1.76.54-.42,1.07-.87,1.55-1.36.67-.66,1.26-1.37,1.77-2.14.52-.77.97-1.6,1.34-2.47.53-1.26.88-2.56,1.04-3.91.07-.57.1-1.16.1-1.74v-17.42h-29.04ZM44.79,27.2v17.42c0,.58.04,1.17.11,1.74.16,1.35.51,2.66,1.03,3.91.37.87.82,1.7,1.35,2.47.52.77,1.11,1.48,1.77,2.14.49.49,1.01.94,1.56,1.36.94.71,1.96,1.29,3.06,1.76.88.37,1.81.66,2.75.85.81.17,1.64.27,2.48.28.14,0,.28,0,.42,0,.14,0,.28,0,.42,0,.85-.02,1.67-.12,2.49-.28v-6.1h-11.61v-12.77h11.61v-6.39h11.62v-6.39h-29.04ZM44.79,27.2v17.42c0,.58.04,1.17.11,1.74.16,1.35.51,2.66,1.03,3.91.37.87.82,1.7,1.35,2.47.52.77,1.11,1.48,1.77,2.14.49.49,1.01.94,1.56,1.36v-16.27h11.61v-6.39h11.62v-6.39h-29.04ZM44.79,27.2v17.42c0,.58.04,1.17.11,1.74h5.7v-6.39h11.61v-6.39h11.62v-6.39h-29.04Z"/>
      <path class="cls-4" d="M43.94,26.35v18.27c0,1.77.3,3.48.85,5.06.38,1.08.87,2.11,1.47,3.06,1.12,1.8,2.6,3.35,4.34,4.55,1.11.77,2.33,1.39,3.63,1.84,1.59.56,3.3.87,5.08.87s3.5-.31,5.09-.87c1.3-.45,2.51-1.07,3.63-1.84,1.74-1.2,3.21-2.75,4.34-4.55.6-.96,1.09-1.98,1.47-3.06.56-1.59.86-3.3.86-5.07v-18.27h-30.75ZM74.4,44.62c0,1.41-.19,2.79-.57,4.12-.17.6-.38,1.18-.62,1.76-.33.78-.72,1.54-1.18,2.25-.59.92-1.27,1.77-2.05,2.55-.61.61-1.27,1.16-1.96,1.65-.88.62-1.83,1.16-2.84,1.58-.57.24-1.15.44-1.73.61-1.34.38-2.73.57-4.15.57s-2.8-.19-4.14-.57c-.59-.17-1.17-.37-1.73-.61-1.01-.42-1.96-.96-2.84-1.58-.69-.49-1.35-1.04-1.96-1.65-.78-.78-1.47-1.63-2.05-2.55-.46-.71-.86-1.47-1.19-2.25-.24-.57-.44-1.16-.62-1.76-.37-1.33-.57-2.71-.57-4.12v-17.98h30.18v17.98Z"/>
      <path class="cls-5" d="M44.22,26.64v17.98c0,1.41.19,2.79.57,4.12.17.6.37,1.18.62,1.76.33.78.73,1.54,1.19,2.25.58.92,1.27,1.77,2.05,2.55.61.61,1.27,1.16,1.96,1.65.88.62,1.83,1.16,2.84,1.58.57.24,1.14.44,1.73.61,1.34.38,2.72.57,4.14.57s2.81-.19,4.15-.57c.58-.17,1.17-.37,1.73-.61,1.01-.42,1.96-.96,2.84-1.58.69-.49,1.35-1.04,1.96-1.65.77-.78,1.46-1.63,2.05-2.55.46-.71.85-1.47,1.18-2.25.24-.57.45-1.16.62-1.76.38-1.33.57-2.71.57-4.12v-17.98h-30.18ZM73.83,44.62c0,.58-.03,1.17-.1,1.74-.16,1.35-.51,2.66-1.04,3.91-.37.87-.82,1.7-1.34,2.47-.52.77-1.11,1.48-1.77,2.14-.48.49-1.01.94-1.55,1.36-.95.71-1.96,1.29-3.06,1.76-.89.37-1.81.66-2.75.85-.82.17-1.64.27-2.49.28-.13,0-.27,0-.42,0-.13,0-.27,0-.42,0-.84-.02-1.67-.12-2.48-.28-.94-.19-1.87-.47-2.75-.85-1.1-.47-2.12-1.05-3.06-1.76-.55-.42-1.07-.87-1.56-1.36-.66-.66-1.25-1.37-1.77-2.14-.52-.77-.97-1.6-1.35-2.47-.52-1.26-.87-2.56-1.03-3.91-.07-.57-.11-1.16-.11-1.74v-17.42h29.04v17.42Z"/>
      <path class="cls-5" d="M73.83,27.2v17.42c0,.58-.03,1.17-.1,1.74-.16,1.35-.51,2.66-1.04,3.91-.37.87-.82,1.7-1.34,2.47-.52.77-1.11,1.48-1.77,2.14-.48.49-1.01.94-1.55,1.36-.95.71-1.96,1.29-3.06,1.76-.89.37-1.81.66-2.75.85-.82.17-1.64.27-2.49.28-.13,0-.27,0-.42,0-.13,0-.27,0-.42,0-.84-.02-1.67-.12-2.48-.28-.94-.19-1.87-.47-2.75-.85-1.1-.47-2.12-1.05-3.06-1.76-.55-.42-1.07-.87-1.56-1.36-.66-.66-1.25-1.37-1.77-2.14-.52-.77-.97-1.6-1.35-2.47-.52-1.26-.87-2.56-1.03-3.91-.07-.57-.11-1.16-.11-1.74v-17.42h29.04Z"/>
      <path class="cls-5" d="M73.83,27.2v17.42c0,.58-.03,1.17-.1,1.74-.16,1.35-.51,2.66-1.04,3.91-.37.87-.82,1.7-1.34,2.47-.52.77-1.11,1.48-1.77,2.14-.48.49-1.01.94-1.55,1.36-.95.71-1.96,1.29-3.06,1.76-.89.37-1.81.66-2.75.85-.82.17-1.64.27-2.49.28-.13,0-.27,0-.42,0-.13,0-.27,0-.42,0-.84-.02-1.67-.12-2.48-.28-.94-.19-1.87-.47-2.75-.85-1.1-.47-2.12-1.05-3.06-1.76-.55-.42-1.07-.87-1.56-1.36-.66-.66-1.25-1.37-1.77-2.14-.52-.77-.97-1.6-1.35-2.47-.52-1.26-.87-2.56-1.03-3.91-.07-.57-.11-1.16-.11-1.74v-17.42h29.04Z"/>
      <g>
        <rect class="cls-4" x="44.79" y="27.2" width="5.81" height="6.39"/>
        <rect class="cls-5" x="50.6" y="27.2" width="5.81" height="6.39"/>
        <rect class="cls-4" x="56.41" y="27.2" width="5.8" height="6.39"/>
        <rect class="cls-5" x="62.21" y="27.2" width="5.81" height="6.39"/>
        <rect class="cls-4" x="68.03" y="27.2" width="5.8" height="6.39"/>
      </g>
      <g>
        <rect class="cls-5" x="44.79" y="33.59" width="5.81" height="6.39"/>
        <rect class="cls-4" x="50.6" y="33.59" width="5.81" height="6.39"/>
        <rect class="cls-5" x="56.41" y="33.59" width="5.8" height="6.39"/>
        <rect class="cls-4" x="62.21" y="33.59" width="5.81" height="6.39"/>
        <rect class="cls-5" x="68.03" y="33.59" width="5.8" height="6.39"/>
      </g>
      <g>
        <path class="cls-4" d="M50.6,39.97v6.39h-5.7c-.07-.57-.11-1.16-.11-1.74v-4.65h5.81Z"/>
        <rect class="cls-5" x="50.6" y="39.97" width="5.81" height="6.39"/>
        <rect class="cls-4" x="56.41" y="39.97" width="5.8" height="6.39"/>
        <rect class="cls-5" x="62.21" y="39.97" width="5.81" height="6.39"/>
        <path class="cls-4" d="M73.83,39.97v4.65c0,.58-.03,1.17-.1,1.74h-5.7v-6.39h5.8Z"/>
      </g>
      <g>
        <path class="cls-5" d="M50.6,46.36v6.39h-3.32c-.52-.77-.97-1.6-1.35-2.47-.52-1.26-.87-2.56-1.03-3.91h5.7Z"/>
        <rect class="cls-4" x="50.6" y="46.36" width="5.81" height="6.39"/>
        <rect class="cls-5" x="56.41" y="46.36" width="5.8" height="6.39"/>
        <rect class="cls-4" x="62.21" y="46.36" width="5.81" height="6.39"/>
        <path class="cls-5" d="M73.73,46.36c-.16,1.35-.51,2.66-1.04,3.91-.37.87-.82,1.7-1.34,2.47h-3.32v-6.39h5.7Z"/>
      </g>
      <g>
        <path class="cls-4" d="M50.6,52.75v3.5c-.55-.42-1.07-.87-1.56-1.36-.66-.66-1.25-1.37-1.77-2.14h3.32Z"/>
        <path class="cls-5" d="M56.41,52.75v6.1c-.94-.19-1.87-.47-2.75-.85-1.1-.47-2.12-1.05-3.06-1.76v-3.5h5.81Z"/>
        <path class="cls-4" d="M62.21,52.75v6.1c-.82.17-1.64.27-2.49.28h-.83c-.84-.02-1.67-.12-2.48-.28v-6.1h5.8Z"/>
        <path class="cls-5" d="M68.03,52.75v3.5c-.95.71-1.96,1.29-3.06,1.76-.89.37-1.81.66-2.75.85v-6.1h5.81Z"/>
        <path class="cls-4" d="M71.35,52.75c-.52.77-1.11,1.48-1.77,2.14-.48.49-1.01.94-1.55,1.36v-3.5h3.32Z"/>
      </g>
    </g>
    <g>
      <g>
        <g>
          <path class="cls-5" d="M69.82,19.06l-.41-.07-.13.52.33.05c2.01.31,3.96.93,5.79,1.85l.27.14.2-.5-.35-.17c-1.8-.9-3.72-1.52-5.71-1.82Z"/>
          <path class="cls-3" d="M74.69,13.61l-4.41,1.73-.87,3.66.41.07c1.99.31,3.91.92,5.71,1.82l.35.17,1.42-3.49-2.61-3.96Z"/>
          <path class="cls-3" d="M68.87,21.5h-.04s-.59,2.51-.59,2.51c1.02.25,1.99.54,2.91.85.98.33,1.91.7,2.77,1.07l1.01-2.48h0c-1.9-.98-3.95-1.63-6.05-1.94Z"/>
          <path class="cls-4" d="M69.62,19.57l-.33-.05-.34,1.45.12.02c2.09.31,4.1.96,5.99,1.92l.07.04.56-1.38-.27-.14c-1.82-.92-3.77-1.54-5.79-1.85Z"/>
          <path class="cls-5" d="M69.07,20.98l-.12-.02-.12.52h.04c2.11.32,4.15.97,6.05,1.95h0l.21-.5-.07-.04c-1.88-.96-3.9-1.61-5.99-1.92Z"/>
        </g>
        <g>
          <polygon class="cls-2" points="51.52 11.82 48.35 15.33 52.05 14.75 55.62 14.2 51.52 11.82"/>
          <path class="cls-4" d="M55.63,14.2h0s-1.04.05-1.04.05c-1.72.1-3.44.37-5.11.79l-1.11.28h0s.52,2.18.52,2.18l3.57-.55,3.36-.52-.17-2.23Z"/>
          <path class="cls-2" d="M55.79,16.44l-.7.03c-1.82.09-3.61.37-5.36.82l-.87.22.49,2.1,3.45-.54,3.16-.49-.17-2.14Z"/>
          <path class="cls-4" d="M55.96,18.58l-.36.02c-1.9.08-3.79.37-5.63.85l-.62.17.49,2.09,3.34-.52,2.95-.46-.17-2.15Z"/>
          <path class="cls-2" d="M56.13,20.72h0c-2,.07-3.99.37-5.93.88l-.36.09.54,2.3c1.02-.25,2.07-.47,3.17-.64.9-.15,1.82-.26,2.75-.34l-.17-2.29Z"/>
        </g>
        <g>
          <path class="cls-2" d="M70.28,15.34l-2.05,8.67c-1.84-.46-3.82-.81-5.92-.99l.68-8.81,4.1-2.39,3.19,3.52Z"/>
          <path class="cls-3" d="M63,14.2l-.68,8.81c-.98-.07-1.98-.12-3.01-.12s-2.02.05-3,.12l-.68-8.81,3.68-2.99,3.69,2.99Z"/>
          <path class="cls-3" d="M50.38,24c-2.11.53-4.02,1.2-5.68,1.92l-3.38-8.35,2.6-3.96,4.42,1.73,2.04,8.66Z"/>
        </g>
        <path class="cls-5" d="M77.43,17.49l-2.61-3.96c-.04-.07-.12-.09-.19-.07l-4.31,1.69-3.11-3.44s-.12-.07-.19-.02l-4,2.33-3.61-2.92c-.06-.05-.14-.05-.2,0l-3.6,2.92-4-2.33c-.07-.04-.15-.02-.2.02l-3.11,3.44-4.32-1.69c-.07-.02-.14,0-.18.07l-2.61,3.96s-.03.1-.02.15l3.39,8.34h0s0,.02.02.02h0s0,.02.02.02h0s.02.02.02.02h0s0,0,.02,0c0,0,0,0,0,0h.02s.02,0,.02,0h.03s0,0,.02,0h.02c1.77-.78,3.68-1.42,5.65-1.92,1.94-.48,3.92-.82,5.89-.98h0c.99-.08,2-.12,2.99-.12s1.99.04,2.99.12h0c1.97.17,3.95.5,5.89.98,1.97.49,3.87,1.14,5.65,1.92h0s0,0,.02,0h.08s0,0,0,0h.02s0,0,0-.02h0s0,0,.02,0h0s0-.02.02-.02h0s0-.02,0-.02c0,0,0,0,0,0h0s3.38-8.36,3.38-8.36c.02-.05.02-.11,0-.15ZM73.83,25.71c-1.76-.75-3.62-1.38-5.55-1.87-1.96-.48-3.95-.82-5.94-.98h0c-1.01-.09-2.02-.13-3.01-.13s-2.01.04-3.01.12h0c-1.99.17-3.99.5-5.94.99-1.94.48-3.81,1.11-5.55,1.87l-3.3-8.13,2.49-3.79,4.3,1.68h0s.02,0,.03,0t0,0h.02s.02,0,.02,0h0s.02,0,.02,0h0s.02,0,.03-.02h0s0-.02.02-.02h0s3.1-3.43,3.1-3.43l3.99,2.32h0s.02,0,.02,0t.02,0h.02s0,0,.02,0h.02s0,0,.02,0h.02s0,0,.02,0h0s0,0,.02,0h.02s3.58-2.92,3.58-2.92l3.59,2.91h0s0,0,0,0c0,0,.02,0,.02,0h0s.02,0,.02,0h.02s0,0,.02,0h.04s.02,0,.02,0h0s.02,0,.02-.02h0l3.99-2.32,3.09,3.42s0,0,0,0c0,0,0,0,.02.02h0s.02.02.02.02h0s.02,0,.03,0h0s0,0,.02,0h.03s.02,0,.03-.02h0l4.3-1.68,2.49,3.79-3.3,8.13Z"/>
      </g>
      <g>
        <path class="cls-6" d="M45.94,17.17l.14-.75s0-.02,0-.02c0,0,0,0-.02,0l-.72.26-.57-.51s-.03,0-.04.02l-.13.75-.72.25s-.02,0-.02.02,0,.02,0,.02l.58.49-.15.75s0,.02,0,.02c0,0,.02,0,.02,0h0l.72-.26.58.5s0,0,.02,0c0,0,.02,0,.02-.02l.14-.76.73-.24h0s0-.02,0-.02c0,0,0-.02,0-.02l-.58-.5Z"/>
        <g>
          <path class="cls-1" d="M45.94,17.17l.14-.75s0-.02,0-.02c0,0,0,0-.02,0l-.72.26-.57-.51s-.03,0-.04.02l-.13.75-.72.25s-.02,0-.02.02,0,.02,0,.02l.58.49-.15.75s0,.02,0,.02c0,0,.02,0,.02,0h0l.72-.26.58.5s0,0,.02,0c0,0,.02,0,.02-.02l.14-.76.73-.24h0s0-.02,0-.02c0,0,0-.02,0-.02l-.58-.5ZM45.89,17.17h0l-.67.24.8-.93-.13.69ZM45.21,17.39l.13-.7h0l.67-.23-.8.93ZM44.61,16.95h0l.53.46-1.21-.22.67-.23ZM45.14,17.44l-.67.23h0l-.53-.46,1.21.22ZM44.49,17.69h0l.67-.23-.81.93.14-.7ZM45.17,17.48l-.13.69h0l-.67.24.81-.93ZM45.77,17.91h0l-.54-.46,1.21.23-.67.22ZM45.24,17.43l.67-.22h0l.54.46-1.21-.23ZM45.31,16.69h0l-.12.69-.41-1.16.53.47ZM44.75,16.24l.41,1.16-.53-.47h0l.12-.69ZM45.06,18.18h0l.13-.7.4,1.17-.53-.47ZM45.62,18.63l-.41-1.17.53.47h0l-.12.7Z"/>
          <path class="cls-5" d="M48.17,19.33c.02.12.03.24.03.37.02,1.23-.97,2.24-2.19,2.26-.87.02-1.62-.47-2-1.17.19,1.06,1.12,1.85,2.22,1.84,1.23-.02,2.21-1.03,2.2-2.26,0-.37-.1-.72-.27-1.02Z"/>
        </g>
      </g>
      <g>
        <path class="cls-6" d="M72.2,17.67s0,0,0,.02,0,.02.02.02h0l.72.24.13.76s0,0,.02.02c0,0,.02,0,.02,0l.57-.5.73.26h0s.02,0,.02,0c0,0,0-.02,0-.02l-.14-.75.58-.49s0-.02,0-.02c0,0,0-.02-.02-.02l-.72-.25-.14-.75s-.02-.02-.03-.02l-.57.51-.72-.26s-.02,0-.02,0c0,0,0,0,0,.02l.15.75-.58.5Z"/>
        <path class="cls-1" d="M72.2,17.67s0,0,0,.02,0,.02.02.02h0l.72.24.13.76s0,0,.02.02c0,0,.02,0,.02,0l.57-.5.73.26h0s.02,0,.02,0c0,0,0-.02,0-.02l-.14-.75.58-.49s0-.02,0-.02c0,0,0-.02-.02-.02l-.72-.25-.14-.75s-.02-.02-.03-.02l-.57.51-.72-.26s-.02,0-.02,0c0,0,0,0,0,.02l.15.75-.58.5ZM72.7,16.48l.81.93-.67-.24h0l-.14-.69ZM72.72,16.46l.67.23h0l.13.7-.8-.93ZM74.79,17.19l-1.21.22.54-.46h0l.67.23ZM74.79,17.21l-.54.46h0l-.67-.23,1.21-.22ZM74.38,18.39l-.8-.93.67.23h0l.13.7ZM74.36,18.41l-.67-.24h0l-.13-.69.8.93ZM72.29,17.69l1.21-.23-.53.46h0l-.67-.22ZM72.29,17.66l.53-.46h0l.68.22-1.21.23ZM73.95,16.23l-.41,1.16-.13-.69h0l.54-.47ZM74.1,16.93h0l-.53.47.4-1.16.13.69ZM73.13,18.64l.41-1.17.13.7h0l-.53.47ZM72.98,17.94h0l.53-.47-.4,1.17-.13-.7Z"/>
      </g>
      <g>
        <path class="cls-1" d="M70.53,19.88s-.18.06-.22.07-.17,0-.13.07c.02.07.25.25.43.22.07.06.25.27.23.34-.13,0-.33.08-.42.06-.09-.02-.19-.07-.21-.02-.02.04.07.22.21.22.09-.05.33-.1.52-.05.18.05.42.19.43.23-.15.05-.22.09-.29.04-.08-.05-.22-.09-.23-.03-.02.07.1.17.22.18.11,0,.03.05.1.05.06,0,.63.05.73-.07.11-.11.36.12.51.13.15.02.08.02.08.02,0,0-.04.09-.15.08-.11,0-.33-.08-.32,0s.12.17.26.17c.13,0,.22-.07.23-.07,0,0,.2.04.3,0,.09-.02.21-.06.31-.03s.4.31.59.34c.12.07.08.17.03.18-.05,0-.2.12,0,.17.11,0,.21-.06.24-.11.03-.04.09-.02.07-.07-.02-.04-.12-.09-.14-.17-.02-.07.03-.19-.16-.25-.13-.07-.14-.17-.14-.22,0-.04,0-.13-.06-.2.11,0,.2,0,.38.13.19.13.41.27.61.25.2-.02.27-.11.22-.2-.04-.08-.28-.22-.6-.25-.32-.03-.53-.1-.72-.2-.18-.1-.27-.21-.63-.19-.36,0-.73-.06-.94-.16-.21-.11-.52-.25-.69-.27-.16-.02-.22-.12-.21-.16.02-.04,0-.19-.09-.19-.11,0-.2-.12-.28-.14-.07-.02-.09.07-.09.07Z"/>
        <path class="cls-5" d="M72,21.08s.25-.04.34-.02c.09.02.35.06.52.3-.18-.02-.46-.05-.55-.1-.09-.05-.3-.16-.34-.16-.03,0,.03-.02.03-.02Z"/>
      </g>
      <g>
        <g>
          <g>
            <g>
              <path class="cls-6" d="M58.87,17.05s-.06-.05-.07-.12c-.02-.07-.06-.17-.16-.24.35-.09.33-.32.33-.33s0-.02,0-.02c0,0,0,0-.02,0,0,0-.14.02-.27,0,.18-.16.25-.41.26-.61,0,0,0-.02-.02-.02h-.03s-.09.04-.17.05c-.07.02-.16.03-.26.06,0-.13.2-.4.32-.57.05-.07.08-.12.1-.15.02-.02.03-.06.02-.08-.02-.02-.08,0-.19.05-.02.02-.05.02-.07.04-.12,0-.17.02-.27.12-.12-.06-.22,0-.32.11,0-.05-.02-.08-.04-.11-.02,0-.03-.02-.05-.02.02-.05,0-.11,0-.13h0l-.3-.33h-.03l-.3.33h0s-.03.08,0,.13c-.02,0-.04,0-.05.02-.03.02-.04.06-.05.11-.09-.11-.19-.17-.31-.11-.09-.1-.15-.12-.27-.12-.02-.02-.05-.02-.07-.04-.11-.05-.16-.07-.19-.05-.02.02,0,.06.02.08.02.03.06.08.1.15.12.17.32.43.32.57-.1-.02-.18-.04-.26-.06-.08,0-.14-.02-.17-.05h-.02s-.02.02-.02.02c0,.2.08.45.26.61-.13,0-.27,0-.27,0,0,0-.02,0-.02,0,0,0,0,0,0,.02s-.02.24.33.33c-.1.07-.12.17-.15.24-.02.07-.04.11-.08.12-.02,0-.04.02-.04.04,0,0,0,.02.02.04.07.03.26.07.42,0-.06.08-.1.15-.09.32,0,0,0,.02,0,.02,0,0,.02,0,.02,0,.14-.02.22-.03.26-.04-.02.06-.03.12-.05.18,0,.04-.02.1-.02.11,0,0,0,.02,0,.02,0,0,.02.02.02.02.17,0,.29-.02.37-.06-.02.12,0,.2.02.26,0,.02,0,.02,0,.03,0,0,0,.02.02.02,0,0,.02,0,.02,0,.05-.05.11-.12.13-.16.05.05.11.13.11.17,0,0,0,.02.02.02,0,0,.02,0,.02-.02,0-.04.07-.12.11-.17.03.03.08.11.13.16,0,0,.02,0,.03,0,0,0,.02,0,.02-.02s0-.02,0-.02c.02-.07.03-.14.02-.27.07.04.2.06.37.06,0,0,.02,0,.02-.02,0,0,0-.02,0-.02,0,0-.02-.07-.02-.11,0-.06-.02-.12-.05-.18.05,0,.12.02.26.04,0,0,0,0,.02,0,0,0,0,0,0-.02.02-.17-.03-.23-.09-.32.17.07.37.03.42,0,.02-.02.03-.03.03-.04,0-.02-.02-.03-.05-.04Z"/>
              <g>
                <path class="cls-1" d="M58.87,17.05s-.06-.05-.07-.12c-.02-.07-.06-.17-.16-.24.35-.09.33-.32.33-.33s0-.02,0-.02c0,0,0,0-.02,0,0,0-.14.02-.27,0,.18-.16.25-.41.26-.61,0,0,0-.02-.02-.02h-.03s-.09.04-.17.05c-.07.02-.16.03-.26.06,0-.13.2-.4.32-.57.05-.07.08-.12.1-.15.02-.02.03-.06.02-.08-.02-.02-.08,0-.19.05-.02.02-.05.02-.07.04-.12,0-.17.02-.27.12-.12-.06-.22,0-.32.11,0-.05-.02-.08-.04-.11-.02,0-.03-.02-.05-.02.02-.05,0-.11,0-.13h0l-.3-.33h-.03l-.3.33h0s-.03.08,0,.13c-.02,0-.04,0-.05.02-.03.02-.04.06-.05.11-.09-.11-.19-.17-.31-.11-.09-.1-.15-.12-.27-.12-.02-.02-.05-.02-.07-.04-.11-.05-.16-.07-.19-.05-.02.02,0,.06.02.08.02.03.06.08.1.15.12.17.32.43.32.57-.1-.02-.18-.04-.26-.06-.08,0-.14-.02-.17-.05h-.02s-.02.02-.02.02c0,.2.08.45.26.61-.13,0-.27,0-.27,0,0,0-.02,0-.02,0,0,0,0,0,0,.02s-.02.24.33.33c-.1.07-.12.17-.15.24-.02.07-.04.11-.08.12-.02,0-.04.02-.04.04,0,0,0,.02.02.04.07.03.26.07.42,0-.06.08-.1.15-.09.32,0,0,0,.02,0,.02,0,0,.02,0,.02,0,.14-.02.22-.03.26-.04-.02.06-.03.12-.05.18,0,.04-.02.1-.02.11,0,0,0,.02,0,.02,0,0,.02.02.02.02.17,0,.29-.02.37-.06-.02.12,0,.2.02.26,0,.02,0,.02,0,.03,0,0,0,.02.02.02,0,0,.02,0,.02,0,.05-.05.11-.12.13-.16.05.05.11.13.11.17,0,0,0,.02.02.02,0,0,.02,0,.02-.02,0-.04.07-.12.11-.17.03.03.08.11.13.16,0,0,.02,0,.03,0,0,0,.02,0,.02-.02s0-.02,0-.02c.02-.07.03-.14.02-.27.07.04.2.06.37.06,0,0,.02,0,.02-.02,0,0,0-.02,0-.02,0,0-.02-.07-.02-.11,0-.06-.02-.12-.05-.18.05,0,.12.02.26.04,0,0,0,0,.02,0,0,0,0,0,0-.02.02-.17-.03-.23-.09-.32.17.07.37.03.42,0,.02-.02.03-.03.03-.04,0-.02-.02-.03-.05-.04ZM58.41,17.05s-.02,0-.03,0,0,.02,0,.02c.02.03.03.06.05.07.06.08.09.14.08.27-.21-.02-.23-.04-.27-.07,0,0-.02,0-.02,0s-.02.02,0,.02c.04.07.06.17.07.24,0,.04.02.07.02.09-.27,0-.33-.06-.35-.08,0,0-.02,0-.03,0,0,0,0,.02,0,.03.03.14.02.22,0,.28-.06-.07-.12-.14-.12-.14t-.02,0s-.02,0-.02,0c-.02.02-.08.08-.12.16-.04-.07-.11-.14-.12-.16,0,0-.02,0-.02,0,0,0,0,0-.02,0,0,0-.06.07-.11.14-.02-.07-.04-.14,0-.28,0-.02,0-.02,0-.03,0,0-.02,0-.03,0,0,.02-.08.08-.34.08,0-.02,0-.05.02-.09.02-.07.03-.17.07-.23,0-.02,0-.02,0-.03,0,0-.02,0-.02,0-.03.02-.06.04-.27.07,0-.13.02-.19.08-.27.02-.02.03-.04.06-.07,0,0,0-.02,0-.02s-.02,0-.03,0c-.16.12-.4.07-.46.04h0c.07-.02.09-.08.12-.15.02-.08.06-.17.18-.24,0,0,.02-.02,0-.02,0,0,0-.02-.02-.02-.29-.06-.34-.22-.35-.27.06,0,.19,0,.31,0,0,0,.02,0,.02-.02,0,0,0-.02,0-.02-.18-.12-.27-.37-.28-.56.04.02.09.02.16.03.07.02.17.03.27.07h.03s0,0,0-.02c.03-.15-.17-.43-.32-.63-.04-.07-.08-.12-.1-.14,0-.02,0-.02-.02-.02.03,0,.09.03.12.05.03.02.06.03.08.04h0c.11,0,.15.02.25.12,0,0,.02,0,.02,0,.11-.06.19-.02.32.14,0,0,.02.02.02,0,0,0,.02,0,.02-.02,0-.09,0-.12.02-.13.02-.02.04-.02.07,0,.02,0,.02,0,.03-.02,0,0,0-.02,0-.02-.07-.05-.04-.11-.03-.12l.28-.3.27.3s.04.07-.03.12c0,0,0,.02,0,.02,0,.02.02.02.03.02.03-.02.06-.02.07,0,.02,0,.03.04.03.13,0,.02,0,.02.02.02,0,0,.02,0,.02,0,.13-.16.21-.2.32-.14,0,0,.02,0,.02,0,.1-.11.14-.12.25-.12h0s.06-.02.08-.04c.04-.02.1-.05.12-.05,0,0,0,0-.02.02-.02.02-.05.07-.09.14-.19.25-.36.5-.32.63,0,0,0,0,.02.02h.02c.11-.03.2-.05.27-.07.07,0,.12-.02.16-.03-.02.19-.09.43-.28.56,0,0,0,.02,0,.02,0,.02.02.02.02.02.11,0,.24,0,.31,0-.02.06-.07.22-.36.27,0,0-.02.02-.02.02s0,.02,0,.02c.12.07.16.16.18.24.02.07.05.13.12.15h0c-.06.03-.29.07-.46-.04Z"/>
                <path class="cls-1" d="M57.5,16.26s0,0,.02,0h.02s0-.02,0-.03c-.09-.14-.33-.17-.34-.17-.02,0-.02,0-.02.02,0,.02,0,.02.02.02,0,0,.23.03.32.15Z"/>
                <path class="cls-1" d="M57.58,16.55s.02-.02,0-.03c0-.02-.03-.02-.03,0,0,0-.1.07-.07.23,0,.02.02.02.02.02h0s.02-.02.02-.03c-.02-.13.04-.18.04-.18Z"/>
                <path class="cls-1" d="M57.54,17.24s.02,0,.02-.02c0,0,0-.02,0-.02-.03-.02-.21-.12-.22-.13,0,0-.02,0-.03,0,0,.02,0,.02.02.03,0,0,.13.08.22.13h0Z"/>
                <path class="cls-1" d="M57.53,17.33s.02,0,.02-.02,0-.02-.02-.02l-.19-.09s-.02,0-.03.02c0,0,0,.02.02.03l.19.08h0Z"/>
                <path class="cls-1" d="M57.75,16.27h0s.02,0,.02,0c.09-.12.32-.15.32-.15,0,0,.02,0,.02-.02,0,0,0-.02-.02-.02,0,0-.25.02-.34.17,0,0,0,.02,0,.03Z"/>
                <path class="cls-1" d="M58.23,16.15s-.1.08-.16.12h0c-.08.05-.17.09-.23.11-.08,0-.12,0-.14-.02-.02-.02-.03-.05-.03-.09,0-.12.07-.26.07-.27,0,0,0-.02,0-.02-.02,0-.02,0-.03,0,0,0-.04.07-.06.15-.02-.08-.06-.15-.07-.15,0-.02-.02-.02-.03,0,0,0,0,.02,0,.02s.07.14.07.27c0,.04,0,.07-.03.09-.02.02-.07.02-.13.02-.07-.02-.16-.06-.24-.11h0c-.06-.03-.12-.08-.16-.12,0,0-.02,0-.03,0,0,0,0,.02,0,.03.04.03.1.08.17.12,0,0,0,0,0,.02.03.07.11.19.19.2h0s.09-.03.13-.1c.03,0,.07,0,.1-.02,0-.02.02-.02.03-.05,0,.02.02.03.02.05.03.02.07.02.1.02.03.07.08.1.12.1h0c.09,0,.16-.13.19-.2,0,0,0-.02.02-.02.06-.04.12-.09.16-.12,0,0,0-.02,0-.03,0,0-.02,0-.03,0ZM57.25,16.35s.07.03.1.05c0,.02,0,.04,0,.07-.03-.02-.07-.07-.09-.12ZM57.93,16.47s0-.05,0-.07c.03-.02.07-.03.1-.05-.02.04-.06.09-.09.12Z"/>
                <path class="cls-1" d="M57.84,17.38s-.12,0-.16-.02c-.02-.02-.02-.02-.02-.05h0v-.17s.02,0,.03,0h0c.06-.02.15-.03.17-.12,0-.06-.02-.09-.03-.1-.04-.02-.1-.02-.15,0,0,0-.02.02,0,.03,0,0,.02.02.03,0,.03-.02.07-.02.1,0,0,.02.02.03.02.06-.02.05-.07.07-.13.07h0c-.07.02-.17.02-.2-.04,0-.03,0-.07,0-.1,0,0,0-.02-.02-.02,0,0-.02,0-.02.02,0,.04,0,.09,0,.12.02.04.07.08.16.08h.02v.17h0s0,.04-.02.05c-.03.03-.13.03-.16.02,0,0-.02,0-.02.02,0,0,0,.02.02.02h.05s.1,0,.14-.04c0,0,0,0,.02,0h0s.03.03.06.04h0s-.05.04-.11.04h0s-.02,0-.02.02c0,0,0,.02.02.02h0c.08,0,.13-.02.15-.07,0,0,0-.02,0-.02h.11s.02-.02.02-.02c0-.02-.02-.02-.02-.02Z"/>
                <path class="cls-1" d="M57.95,17.07s-.19.11-.22.13c-.02,0-.02.02,0,.02,0,0,0,.02.02.02h.02c.08-.05.21-.12.22-.13.02,0,.02-.02.02-.03,0,0-.02-.02-.03,0Z"/>
                <path class="cls-1" d="M57.93,17.19l-.19.09s-.02.02-.02.02c0,0,.02.02.02.02h0l.19-.08s.02-.02.02-.03c0-.02-.02-.02-.03-.02Z"/>
                <path class="cls-1" d="M58.31,15.81c-.22-.03-.46-.05-.69-.04-.22,0-.45.02-.67.07,0,0,0,0,0,.02,0,0,0,0,.02,0h0c.22-.04.44-.07.67-.07.23,0,.46,0,.69.04,0,0,0,0,0-.02,0,0,0,0,0,0Z"/>
                <path class="cls-1" d="M58.37,15.77c-.24-.07-.49-.09-.74-.08-.23,0-.47.03-.69.09,0,0,0,0,0,.02h0s0,0,0,0c.22-.06.45-.09.68-.1.25,0,.49.02.73.08t.02,0s0,0,0,0Z"/>
                <path class="cls-1" d="M58.45,15.5s0-.02-.02-.02c-.28-.03-.57-.05-.86-.04-.25,0-.51.03-.76.08,0,0-.02,0,0,0t0,0h0c.25-.04.51-.07.76-.07.28,0,.57,0,.86.04,0,0,.02,0,.02,0Z"/>
                <path class="cls-1" d="M58.33,15.57s0,0,0-.02c0,0,0,0,0,0-.22-.02-.46-.04-.69-.03-.25,0-.51.03-.76.08t0,0s0,0,0,0h0c.25-.04.51-.07.76-.07.23,0,.46,0,.69.03Z"/>
                <path class="cls-1" d="M57.62,15.29s0,0,.02,0h0s.02,0,.02,0l.08-.13s0-.02,0-.02l-.11-.11s0,0-.02,0-.02,0-.02,0l-.1.12s0,.02,0,.03l.12.11ZM57.61,15.07l.07.07-.06.09-.08-.08.07-.08Z"/>
              </g>
            </g>
            <g>
              <path class="cls-1" d="M58.52,16.24h0s0,0,0-.02c.04-.05.08-.1.12-.15.04-.04.07-.09.11-.13,0,0,0,0,0,0t0,.02s-.07.09-.11.13c-.04.05-.08.1-.12.16h0Z"/>
              <g>
                <path class="cls-1" d="M56.88,16h0s-.05-.04-.07-.06c-.08-.05-.17-.07-.27-.08,0,0,0,0,0,0h0c.11,0,.2.03.28.08l.07.05s0,0,0,0h0Z"/>
                <path class="cls-1" d="M56.83,16.08h0s-.1-.04-.15-.07c-.04-.02-.08-.06-.13-.08v-.02h.02s.08.06.12.08c.05.02.09.05.14.07t0,.02h0Z"/>
                <path class="cls-1" d="M56.82,16.26h0s-.1,0-.16-.04c-.07-.05-.11-.12-.12-.15h.02s.05.09.12.13c.06.03.11.04.15.05,0,0,0,0,0,0h0Z"/>
                <path class="cls-1" d="M56.52,16.47s0,0,0,0c0,0,0,0,0,0,.08,0,.16,0,.24-.02h.12s0,0,0,0h0s-.08,0-.12,0c-.08,0-.16,0-.24.02h0Z"/>
                <path class="cls-1" d="M56.66,16.55s0,0,0,0h0s.1,0,.14-.02c.04-.02.08-.02.12-.04,0,0,0,0,0,0h0s-.08.03-.12.04c-.05.02-.1.02-.15.02h0Z"/>
                <path class="cls-1" d="M56.73,16.88h0c.02-.06.05-.1.07-.14.03-.05.07-.1.11-.15h0v.02s-.07.09-.1.14c-.03.04-.06.08-.07.12,0,0,0,0,0,0Z"/>
                <path class="cls-1" d="M56.56,17s0,0,0,0h0c.11-.04.2-.09.28-.16.04-.03.07-.07.11-.12t.02,0v.02s-.07.08-.12.12c-.08.07-.18.12-.28.15h0Z"/>
                <path class="cls-1" d="M56.76,17.03h0s0,0,0,0c.07-.05.14-.09.22-.12.05-.02.11-.05.16-.07,0,0,0,0,0,0h0c-.06.02-.11.05-.16.07-.07.03-.15.07-.22.12h0Z"/>
                <path class="cls-1" d="M56.84,17.3h0s0-.02,0-.02c.04-.05.09-.1.13-.15.03-.03.07-.07.11-.1,0,0,0,0,0,0,0,0,0,0,0,0-.03.03-.07.07-.1.11-.05.04-.09.09-.14.14,0,0,0,0,0,0Z"/>
                <path class="cls-1" d="M56.96,17.3h0s0-.02,0-.02c.05-.03.09-.07.12-.12.02-.03.04-.07.06-.11h0s0,0,0,0c0,.04-.03.07-.06.11-.03.05-.08.09-.13.12,0,0,0,0,0,0Z"/>
                <path class="cls-1" d="M57.09,17.53h0c0-.07.02-.12.06-.18,0-.02.02-.05.04-.07h0s0,0,0,0c0,.02-.02.05-.04.07-.02.05-.04.11-.05.17h0Z"/>
                <path class="cls-1" d="M57.15,17.56h0s0,0,0,0c.02-.04.03-.07.05-.12.02-.04.02-.08.03-.12,0,0,0,0,.02,0h0c0,.06-.02.1-.03.14-.02.03-.03.07-.06.12h0Z"/>
                <path class="cls-1" d="M57.14,17.65s0,0,0,0c0,0,0,0,0,0,.04,0,.07-.03.11-.06.02-.02.05-.05.07-.08h0s0,0,0,0c-.02.03-.03.06-.07.08-.03.03-.08.05-.12.07h0Z"/>
                <path class="cls-1" d="M58.37,15.96h0s0-.02,0-.02c.05-.03.11-.07.17-.08.07-.02.13-.02.21-.02,0,0,0,0,0,0h0c-.07,0-.14,0-.21.02-.06.02-.11.04-.16.08h0Z"/>
                <path class="cls-1" d="M58.43,16.09s0,0,0,0h0s.07-.08.12-.11c.08-.05.17-.08.27-.09,0,0,0,0,0,0,0,0,0,0,0,0-.09,0-.18.04-.26.08-.04.03-.07.07-.11.1h0Z"/>
                <path class="cls-1" d="M58.72,16.43h-.26s0,0,0,0c0,0,0,0,0,0h.26s0,0,0,0t0,0Z"/>
                <path class="cls-1" d="M58.47,16.52h0s0-.02,0-.02c.04,0,.07,0,.12,0,.06,0,.12-.02.18-.04h0c-.06.03-.12.04-.18.06-.04,0-.07,0-.11,0h0Z"/>
                <path class="cls-1" d="M58.43,16.65h0s0,0,0,0c0,0,0,0,0,0,.05,0,.12,0,.19-.05.02-.02.04-.03.07-.06h0v.02s-.04.04-.07.06c-.07.04-.14.05-.19.05Z"/>
                <path class="cls-1" d="M58.67,17.03h0c-.07-.02-.12-.03-.17-.07-.03-.02-.07-.05-.1-.08v-.02h0s.07.07.1.08c.05.03.11.06.17.07t0,0h0Z"/>
                <path class="cls-1" d="M58.63,17.05h0c-.07,0-.12,0-.19-.02-.07-.02-.12-.05-.18-.07t0-.02h.02c.06.03.12.06.18.07.06.02.12.02.18.03t0,0h0Z"/>
                <path class="cls-1" d="M58.43,17.34h0s-.07-.03-.09-.07c-.04-.04-.06-.09-.07-.12,0,0,0,0,0,0,0,0,0,0,0,0,0,.03.02.07.07.12.02.02.05.05.08.06t0,.02h0Z"/>
                <path class="cls-1" d="M58.37,17.37h0s-.1-.03-.14-.06l-.05-.05s0,0,0-.02c0,0,0,0,0,0,.02.02.03.02.05.04.04.03.08.05.13.07t0,0h0Z"/>
                <path class="cls-1" d="M58.68,16.98h0c-.03-.06-.08-.1-.13-.14-.04-.02-.09-.05-.15-.07,0,0,0,0,0,0h0c.06,0,.11.03.16.07.06.03.1.08.13.13,0,0,0,.02,0,.02h0Z"/>
                <path class="cls-1" d="M58.23,17.68h0c-.02-.06-.05-.1-.07-.15-.02-.06-.05-.12-.07-.17v-.02s0,0,0,0c.02.06.06.11.08.17.02.05.05.09.07.14t0,0h0Z"/>
                <path class="cls-1" d="M58.17,17.68h0s-.1-.07-.13-.12c-.02-.04-.04-.08-.05-.13t0,0s0,0,0,0c0,.04.02.08.05.12.03.05.07.09.13.12h0s0,.02,0,.02Z"/>
                <path class="cls-1" d="M58.1,17.68h0s-.06-.03-.08-.05c-.03-.03-.07-.06-.09-.09v-.02s0,0,0,0c.02.02.06.06.09.08.02.02.05.04.08.05,0,0,0,0,0,.02h0Z"/>
                <path class="cls-1" d="M57.88,17.84s0,0,0,0c0-.02-.02-.04-.02-.07-.02-.04-.02-.09-.04-.13,0,0,0,0,0,0h0s.02.09.04.13c0,.02,0,.05,0,.07,0,0,0,0,0,0h0Z"/>
                <path class="cls-1" d="M57.65,17.83h0s.02-.07.02-.09c0-.04,0-.07-.02-.12h0s0,0,0,0c.02.03.02.07.02.12,0,.02,0,.06-.02.08h0Z"/>
                <path class="cls-1" d="M57.42,17.82h0s0,0,0-.02c0-.02,0-.05,0-.07,0-.03,0-.07,0-.11h.02s0,.07,0,.11c0,.02,0,.06,0,.08h0Z"/>
                <path class="cls-1" d="M57.59,17.82s0,0,0,0c-.02-.02-.03-.05-.04-.07,0-.03,0-.07,0-.09t.02,0h0s0,.06,0,.1c0,.02.02.05.03.07,0,0,0,0,0,0h0Z"/>
              </g>
            </g>
          </g>
          <g>
            <g>
              <path class="cls-6" d="M62.22,17.05s-.06-.05-.08-.12-.06-.17-.16-.24c.35-.09.34-.32.34-.33s0-.02,0-.02c0,0-.02,0-.02,0,0,0-.14.02-.27,0,.17-.16.24-.41.25-.61,0,0,0-.02,0-.02h-.03s-.09.04-.17.05c-.07.02-.16.03-.26.06,0-.13.19-.4.32-.57.04-.07.07-.12.1-.15.02-.02.03-.06,0-.08s-.08,0-.18.05c-.02.02-.05.02-.07.04-.12,0-.17.02-.27.12-.12-.06-.22,0-.32.11,0-.05-.02-.08-.04-.11-.02,0-.03-.02-.05-.02.02-.05,0-.11,0-.13h0l-.3-.33h-.03l-.3.33h0s-.03.08,0,.13c-.02,0-.03,0-.05.02-.02.02-.04.06-.04.11-.1-.11-.19-.17-.32-.11-.09-.1-.15-.12-.27-.12-.02-.02-.05-.02-.07-.04-.1-.05-.16-.07-.18-.05s0,.06,0,.08c.03.03.06.08.11.15.12.17.31.43.31.57-.1-.02-.18-.04-.26-.06-.07,0-.14-.02-.17-.05h-.02s-.02.02-.02.02c0,.2.08.45.25.61-.12,0-.26,0-.27,0,0,0,0,0-.02,0,0,0,0,0,0,.02s0,.24.34.33c-.1.07-.13.17-.16.24s-.04.11-.08.12c-.02,0-.04.02-.04.04,0,0,0,.02.03.04.06.03.26.07.42,0-.07.08-.11.15-.09.32,0,0,0,.02,0,.02,0,0,0,0,.02,0,.14-.02.21-.03.25-.04-.03.06-.03.12-.04.18,0,.04-.02.1-.02.11,0,0-.02.02,0,.02,0,0,0,.02.02.02.17,0,.3-.02.37-.06-.02.12,0,.2.02.26,0,.02,0,.02,0,.03,0,0,0,.02.02.02s.02,0,.02,0c.04-.05.1-.12.12-.16.05.05.11.13.11.17,0,0,0,.02.02.02s.03,0,.03-.02c0-.04.06-.12.11-.17.02.03.08.11.12.16,0,0,.02,0,.02,0,0,0,.02,0,.02-.02,0,0,0-.02,0-.02.02-.07.04-.14.02-.27.07.04.2.06.37.06,0,0,.02,0,.02-.02,0,0,0-.02,0-.02,0,0-.02-.07-.02-.11,0-.06-.02-.12-.04-.18.04,0,.11.02.25.04,0,0,.02,0,.02,0,0,0,0,0,0-.02.02-.17-.02-.23-.09-.32.17.07.37.03.42,0,.03-.02.03-.03.03-.04,0-.02-.02-.03-.04-.04Z"/>
              <g>
                <path class="cls-1" d="M62.22,17.05s-.06-.05-.08-.12-.06-.17-.16-.24c.35-.09.34-.32.34-.33s0-.02,0-.02c0,0-.02,0-.02,0,0,0-.14.02-.27,0,.17-.16.24-.41.25-.61,0,0,0-.02,0-.02h-.03s-.09.04-.17.05c-.07.02-.16.03-.26.06,0-.13.19-.4.32-.57.04-.07.07-.12.1-.15.02-.02.03-.06,0-.08s-.08,0-.18.05c-.02.02-.05.02-.07.04-.12,0-.17.02-.27.12-.12-.06-.22,0-.32.11,0-.05-.02-.08-.04-.11-.02,0-.03-.02-.05-.02.02-.05,0-.11,0-.13h0l-.3-.33h-.03l-.3.33h0s-.03.08,0,.13c-.02,0-.03,0-.05.02-.02.02-.04.06-.04.11-.1-.11-.19-.17-.32-.11-.09-.1-.15-.12-.27-.12-.02-.02-.05-.02-.07-.04-.1-.05-.16-.07-.18-.05s0,.06,0,.08c.03.03.06.08.11.15.12.17.31.43.31.57-.1-.02-.18-.04-.26-.06-.07,0-.14-.02-.17-.05h-.02s-.02.02-.02.02c0,.2.08.45.25.61-.12,0-.26,0-.27,0,0,0,0,0-.02,0,0,0,0,0,0,.02s0,.24.34.33c-.1.07-.13.17-.16.24s-.04.11-.08.12c-.02,0-.04.02-.04.04,0,0,0,.02.03.04.06.03.26.07.42,0-.07.08-.11.15-.09.32,0,0,0,.02,0,.02,0,0,0,0,.02,0,.14-.02.21-.03.25-.04-.03.06-.03.12-.04.18,0,.04-.02.1-.02.11,0,0-.02.02,0,.02,0,0,0,.02.02.02.17,0,.3-.02.37-.06-.02.12,0,.2.02.26,0,.02,0,.02,0,.03,0,0,0,.02.02.02s.02,0,.02,0c.04-.05.1-.12.12-.16.05.05.11.13.11.17,0,0,0,.02.02.02s.03,0,.03-.02c0-.04.06-.12.11-.17.02.03.08.11.12.16,0,0,.02,0,.02,0,0,0,.02,0,.02-.02,0,0,0-.02,0-.02.02-.07.04-.14.02-.27.07.04.2.06.37.06,0,0,.02,0,.02-.02,0,0,0-.02,0-.02,0,0-.02-.07-.02-.11,0-.06-.02-.12-.04-.18.04,0,.11.02.25.04,0,0,.02,0,.02,0,0,0,0,0,0-.02.02-.17-.02-.23-.09-.32.17.07.37.03.42,0,.03-.02.03-.03.03-.04,0-.02-.02-.03-.04-.04ZM61.75,17.05s-.02,0-.02,0-.02.02,0,.02c.02.03.03.06.05.07.06.08.1.14.09.27-.21-.02-.24-.04-.27-.07,0,0-.03,0-.03,0s0,.02,0,.02c.04.07.06.17.07.24,0,.04,0,.07.02.09-.27,0-.33-.06-.35-.08,0,0-.02,0-.02,0,0,0-.02.02-.02.03.03.14.02.22,0,.28-.06-.07-.12-.14-.12-.14,0,0,0,0-.02,0,0,0,0,0-.02,0,0,.02-.08.08-.12.16-.03-.07-.11-.14-.12-.16,0,0,0,0-.02,0,0,0-.02,0-.02,0,0,0-.06.07-.12.14-.02-.07-.03-.14,0-.28,0-.02,0-.02-.02-.03,0,0-.02,0-.02,0-.02.02-.08.08-.35.08,0-.02,0-.05.02-.09.02-.07.03-.17.07-.23,0-.02,0-.02,0-.03s-.02,0-.03,0c-.02.02-.06.04-.27.07,0-.13.03-.19.09-.27.02-.02.03-.04.05-.07,0,0,0-.02,0-.02,0,0-.02,0-.02,0-.17.12-.41.07-.46.04h0c.07-.02.09-.08.11-.15.03-.08.07-.17.18-.24,0,0,.02-.02.02-.02s0-.02-.02-.02c-.3-.06-.35-.22-.36-.27.06,0,.2,0,.31,0,0,0,.02,0,.02-.02,0,0,0-.02,0-.02-.18-.12-.26-.37-.28-.56.03.02.09.02.15.03.08.02.17.03.28.07h.02s0,0,0-.02c.04-.15-.17-.43-.32-.63-.04-.07-.08-.12-.1-.14,0-.02,0-.02,0-.02.02,0,.08.03.12.05.02.02.05.03.07.04h0c.11,0,.16.02.25.12,0,0,.02,0,.03,0,.1-.06.18-.02.31.14,0,0,.03.02.03,0,0,0,.02,0,.02-.02,0-.09,0-.12.02-.13,0-.02.04-.02.07,0,0,0,.02,0,.02-.02,0,0,0-.02,0-.02-.07-.05-.03-.11-.03-.12l.28-.3.28.3s.03.07-.03.12c0,0-.02.02,0,.02,0,.02.02.02.02.02.04-.02.07-.02.07,0,.02,0,.03.04.03.13,0,.02,0,.02,0,.02,0,0,.02,0,.03,0,.12-.16.21-.2.31-.14,0,0,.02,0,.03,0,.1-.11.14-.12.25-.12h0s.05-.02.07-.04c.04-.02.1-.05.12-.05,0,0,0,0,0,.02-.02.02-.06.07-.1.14-.19.25-.35.5-.32.63t0,.02h.02c.11-.03.2-.05.28-.07.06,0,.12-.02.15-.03-.02.19-.09.43-.27.56,0,0-.02.02,0,.02,0,.02,0,.02.02.02.11,0,.25,0,.31,0,0,.06-.06.22-.36.27,0,0-.02.02-.02.02s0,.02.02.02c.12.07.15.16.18.24.02.07.04.13.11.15h0s-.29.07-.46-.04Z"/>
                <path class="cls-1" d="M60.84,16.26s.02,0,.02,0h.02s.02-.02,0-.03c-.1-.14-.33-.17-.35-.17,0,0-.02,0-.02.02,0,.02,0,.02.02.02,0,0,.23.03.31.15Z"/>
                <path class="cls-1" d="M60.93,16.55s0-.02,0-.03c0-.02-.02-.02-.03,0,0,0-.1.07-.07.23,0,.02,0,.02.02.02h0s.02-.02.02-.03c-.02-.13.04-.18.05-.18Z"/>
                <path class="cls-1" d="M60.88,17.24s.02,0,.02-.02,0-.02,0-.02c-.04-.02-.22-.12-.22-.13-.02,0-.03,0-.03,0,0,.02,0,.02,0,.03s.14.08.22.13h0Z"/>
                <path class="cls-1" d="M60.88,17.33s.02,0,.02-.02c0,0,0-.02,0-.02l-.2-.09s-.02,0-.02.02c0,0,0,.02,0,.03l.2.08h0Z"/>
                <path class="cls-1" d="M61.09,16.27h.02s0,0,.02,0c.08-.12.31-.15.31-.15.02,0,.02,0,.02-.02,0,0-.02-.02-.02-.02-.02,0-.25.02-.35.17,0,0,0,.02,0,.03Z"/>
                <path class="cls-1" d="M61.57,16.15s-.09.08-.16.12h0c-.07.05-.17.09-.23.11-.07,0-.12,0-.14-.02-.02-.02-.02-.05-.02-.09,0-.12.07-.26.07-.27,0,0,0-.02,0-.02,0,0-.02,0-.03,0,0,0-.03.07-.06.15-.02-.08-.06-.15-.06-.15,0-.02-.03-.02-.03,0-.02,0-.02.02,0,.02,0,0,.07.14.07.27,0,.04,0,.07-.02.09-.03.02-.07.02-.14.02-.07-.02-.16-.06-.23-.11h0c-.07-.03-.12-.08-.16-.12-.02,0-.02,0-.03,0-.02,0-.02.02,0,.03.03.03.09.08.16.12,0,0,0,0,0,.02.04.07.11.19.19.2h.02s.08-.03.12-.1c.04,0,.08,0,.1-.02.02-.02.02-.02.03-.05,0,.02.02.03.03.05.02.02.06.02.1.02.03.07.07.1.12.1h.02c.08,0,.15-.13.19-.2,0,0,0-.02,0-.02.07-.04.12-.09.16-.12.02,0,.02-.02,0-.03-.02,0-.02,0-.04,0ZM60.6,16.35s.07.03.09.05c0,.02,0,.04,0,.07-.03-.02-.07-.07-.09-.12ZM61.27,16.47s0-.05,0-.07c.02-.02.06-.03.09-.05-.02.04-.05.09-.09.12Z"/>
                <path class="cls-1" d="M61.18,17.38s-.12,0-.16-.02c0-.02-.02-.02-.02-.05h0v-.17s.02,0,.02,0h0c.07-.02.16-.03.17-.12,0-.06-.02-.09-.04-.1-.03-.02-.1-.02-.14,0-.02,0-.02.02,0,.03,0,0,.02.02.02,0,.03-.02.07-.02.1,0,.02.02.03.03.02.06,0,.05-.07.07-.13.07h0c-.07.02-.16.02-.19-.04-.02-.03-.02-.07,0-.1,0,0,0-.02-.02-.02-.02,0-.02,0-.03.02,0,.04,0,.09.02.12.02.04.06.08.16.08h0v.17h0s0,.04-.02.05c-.04.03-.13.03-.16.02-.02,0-.02,0-.02.02,0,0,0,.02.02.02h.05s.11,0,.14-.04c0,0,.02,0,.02,0,0,0,0,0,.02,0,0,.02.03.02.05.03h0s-.06.04-.12.04h0s-.02,0-.02.02c0,0,0,.02.02.02h0c.08,0,.14-.02.16-.07v-.02h.1s.02-.02.02-.02c0-.02-.02-.02-.03-.02Z"/>
                <path class="cls-1" d="M61.29,17.07s-.18.11-.22.13c0,0-.02.02,0,.02s.02.02.02.02h0c.08-.05.22-.12.22-.13s.02-.02,0-.03c0,0-.02-.02-.03,0Z"/>
                <path class="cls-1" d="M61.27,17.19l-.2.09s-.02.02,0,.02c0,0,0,.02.02.02h0l.2-.08s.02-.02,0-.03c0-.02-.02-.02-.02-.02Z"/>
                <path class="cls-1" d="M61.66,15.81c-.23-.03-.47-.05-.7-.04-.22,0-.45.02-.67.07,0,0,0,0,0,.02,0,0,0,0,0,0h0c.22-.04.45-.07.67-.07.23,0,.47,0,.69.04,0,0,.02,0,.02-.02h0Z"/>
                <path class="cls-1" d="M61.71,15.77c-.24-.07-.49-.09-.73-.08-.23,0-.47.03-.7.09,0,0,0,0,0,.02,0,0,0,0,.02,0h0c.23-.06.46-.09.69-.1.24,0,.49.02.72.08,0,0,.02,0,.02,0s0,0,0,0Z"/>
                <path class="cls-1" d="M61.79,15.5s0-.02,0-.02c-.28-.03-.57-.05-.86-.04-.26,0-.52.03-.77.08t0,0s0,0,0,0h0c.25-.04.5-.07.76-.07.28,0,.57,0,.85.04,0,0,.02,0,.02,0Z"/>
                <path class="cls-1" d="M61.67,15.57s.02,0,.02-.02c0,0,0,0-.02,0-.23-.02-.46-.04-.68-.03-.26,0-.52.03-.77.08t0,0s0,0,0,0h0c.25-.04.5-.07.76-.07.22,0,.46,0,.68.03Z"/>
                <path class="cls-1" d="M60.96,15.29s.02,0,.02,0h0s0,0,.02,0l.08-.13s0-.02,0-.02l-.11-.11s0,0-.02,0,0,0-.02,0l-.1.12s0,.02,0,.03l.12.11ZM60.96,15.07l.07.07-.06.09-.09-.08.07-.08Z"/>
              </g>
            </g>
            <g>
              <path class="cls-1" d="M61.86,16.24h0v-.02s.08-.1.12-.15c.03-.04.07-.09.1-.13t.02,0v.02s-.07.09-.11.13c-.03.05-.07.1-.12.16h0Z"/>
              <g>
                <path class="cls-1" d="M60.22,16h0s-.04-.04-.07-.06c-.08-.05-.17-.07-.27-.08t0,0s0,0,0,0c.1,0,.2.04.28.09.03.02.05.03.07.05h0s0,.02,0,.02Z"/>
                <path class="cls-1" d="M60.17,16.08h0s-.1-.04-.14-.07c-.05-.02-.09-.06-.13-.08t0-.02h0s.08.06.13.08c.04.02.09.05.14.07v.02h0Z"/>
                <path class="cls-1" d="M60.16,16.26h0s-.1,0-.16-.04c-.07-.05-.1-.12-.12-.15h0s0,0,.02,0c0,.03.04.1.11.14.06.03.12.04.15.05t0,0h0Z"/>
                <path class="cls-1" d="M59.86,16.47s0,0,0,0c0,0,0,0,0,0,.08,0,.17,0,.25-.02h.12s0,0,0,0c0,0,0,0,0,0h-.12c-.08,0-.17,0-.25.02h0Z"/>
                <path class="cls-1" d="M60.01,16.55s0,0,0,0c0,0,0,0,0,0,.04,0,.09,0,.14,0,.03-.02.07-.02.11-.04t.02,0s0,0,0,0c-.03.02-.07.02-.12.03-.05.02-.09.02-.14.02h0Z"/>
                <path class="cls-1" d="M60.07,16.88h0s0,0,0,0c.02-.05.05-.09.07-.13.03-.05.07-.1.11-.15h0s0,0,0,.02c-.04.04-.08.09-.11.14l-.07.12s0,0,0,0Z"/>
                <path class="cls-1" d="M59.9,17s0,0,0,0c0,0,0,0,0,0,.1-.03.19-.08.28-.15.04-.03.08-.07.12-.12,0,0,0,0,0,0t0,.02s-.07.08-.12.12c-.08.07-.17.12-.28.15h0Z"/>
                <path class="cls-1" d="M60.11,17.03h0c.07-.06.14-.1.22-.13.05-.02.11-.05.16-.07t.02,0h0s-.11.05-.16.07c-.07.03-.15.07-.22.12h0Z"/>
                <path class="cls-1" d="M60.19,17.3h0v-.02s.09-.1.14-.15c.03-.03.07-.07.1-.1t.02,0h0s-.07.07-.11.12c-.05.04-.09.09-.13.14,0,0,0,0,0,0Z"/>
                <path class="cls-1" d="M60.31,17.3h0v-.02s.09-.07.13-.12c.02-.03.04-.07.06-.11h0s0,0,0,0c-.02.04-.03.07-.06.11-.03.05-.08.09-.13.12h0Z"/>
                <path class="cls-1" d="M60.43,17.53h0s0,0,0,0c0-.06.03-.12.06-.17.02-.02.03-.05.04-.07h.02s-.03.06-.04.08c-.02.05-.05.11-.06.17h0Z"/>
                <path class="cls-1" d="M60.49,17.56h0s0,0,0,0c.03-.04.04-.07.05-.12.02-.04.03-.08.04-.12t0,0h0c0,.06-.03.1-.04.14-.02.03-.03.07-.05.12h0Z"/>
                <path class="cls-1" d="M60.48,17.65h0s0-.02,0-.02c.04,0,.08-.03.12-.06.02-.02.04-.05.06-.08h0s0,0,0,0c-.02.03-.04.06-.07.08-.03.03-.07.05-.12.07h0Z"/>
                <path class="cls-1" d="M61.71,15.96s0,0,0,0h0c.05-.04.11-.07.17-.09.07-.02.14-.02.21-.02t0,0s0,0,0,0c-.07,0-.13,0-.2.02-.06.02-.12.04-.17.08h0Z"/>
                <path class="cls-1" d="M61.77,16.09h0s0-.02,0-.02c.03-.04.07-.07.12-.1.07-.05.17-.08.26-.09t0,0s0,0,0,0c-.09,0-.17.04-.25.08-.04.03-.08.07-.12.1,0,0,0,0,0,0Z"/>
                <path class="cls-1" d="M62.07,16.43h-.27s0,0,0,0h0s.27,0,.27,0h0s0,.02,0,.02Z"/>
                <path class="cls-1" d="M61.81,16.52s0,0,0,0t0,0s.07,0,.11,0c.06,0,.12-.02.17-.04h.02s0,0,0,0c-.06.02-.12.03-.18.05-.03,0-.08,0-.11,0h0Z"/>
                <path class="cls-1" d="M61.77,16.65h0s0,0,0,0h0s.12,0,.19-.06c.02-.02.05-.03.07-.06h0s0,0,0,.02c-.02.02-.05.04-.07.06-.07.04-.14.05-.19.05Z"/>
                <path class="cls-1" d="M62.01,17.03h0c-.06-.02-.12-.03-.17-.07-.04-.02-.08-.05-.11-.08v-.02h.02s.06.07.1.08c.05.03.1.06.16.07t0,0s0,0,0,0Z"/>
                <path class="cls-1" d="M61.98,17.05h0c-.06,0-.12,0-.19-.02-.06-.02-.12-.05-.18-.07,0,0,0,0,0-.02h0c.06.03.12.06.18.07.06.02.12.02.19.03h0Z"/>
                <path class="cls-1" d="M61.76,17.34h0s-.07-.03-.09-.07c-.04-.04-.07-.09-.08-.12,0,0,0,0,0,0,0,0,0,0,0,0,0,.03.02.07.07.12.02.02.06.05.09.06v.02h0Z"/>
                <path class="cls-1" d="M61.71,17.37h0s-.1-.03-.14-.06l-.05-.05v-.02s0,0,0,0c.02.02.03.02.06.04.03.03.08.05.13.07,0,0,0,0,0,0h0Z"/>
                <path class="cls-1" d="M62.03,16.98s0,0,0,0c-.03-.05-.07-.09-.13-.13-.04-.02-.09-.05-.15-.07h0s0-.02,0-.02c.06.02.11.04.16.07s.09.08.13.13c0,0,0,.02,0,.02h0Z"/>
                <path class="cls-1" d="M61.57,17.68h0c-.03-.06-.05-.1-.07-.15-.03-.06-.06-.12-.08-.17t0-.02s0,0,0,0c.02.06.05.11.08.17.02.05.05.09.07.14h0s0,.02,0,.02Z"/>
                <path class="cls-1" d="M61.51,17.68h0c-.05-.03-.09-.07-.13-.12-.02-.04-.04-.08-.06-.13,0,0,0,0,0,0t0,0s.02.08.05.12c.03.05.07.09.12.12,0,0,0,0,0,0,0,0,0,0,0,0Z"/>
                <path class="cls-1" d="M61.44,17.68h0s-.07-.03-.09-.05c-.03-.03-.07-.06-.09-.09v-.02s0,0,.02,0c.02.02.05.06.08.08.02.02.06.04.08.05t0,.02h0Z"/>
                <path class="cls-1" d="M61.22,17.84h0s0-.05-.02-.07c0-.04-.02-.09-.03-.13h0s0,0,.02,0c0,.05.02.09.03.13,0,.02,0,.05.02.07,0,0,0,0,0,0h0Z"/>
                <path class="cls-1" d="M60.99,17.83h0s0,0,0,0c.02-.03.02-.06.03-.08,0-.04,0-.07-.02-.12h0s0,0,.02,0c0,.03.02.07.02.12,0,.02-.02.06-.02.08,0,0,0,0,0,0Z"/>
                <path class="cls-1" d="M60.76,17.82h0s0,0,0-.02c0-.02,0-.05.02-.07v-.11h.02s0,.07,0,.11c0,.02,0,.06,0,.08,0,0,0,0,0,0Z"/>
                <path class="cls-1" d="M60.93,17.82s0,0,0,0c-.02-.02-.03-.05-.03-.07,0-.03,0-.07,0-.09t0,0h0s0,.06,0,.1c0,.02.02.05.03.07h0s0,.02,0,.02Z"/>
              </g>
            </g>
          </g>
        </g>
        <g>
          <g>
            <path class="cls-6" d="M60.55,20.88s-.06-.06-.08-.12c-.02-.07-.06-.17-.16-.24.36-.1.34-.33.34-.34s0,0,0-.02h-.02s-.14,0-.27,0c.17-.15.25-.41.25-.61,0,0,0-.02,0-.02,0,0-.02,0-.02,0-.03.02-.09.03-.17.05-.07.02-.16.03-.26.06,0-.13.19-.41.32-.57.04-.07.08-.12.1-.15.02-.02.03-.06.02-.08-.03-.03-.08,0-.19.05-.02,0-.05.02-.07.03-.12,0-.17.02-.27.12-.12-.05-.22,0-.31.12,0-.05-.02-.09-.05-.11,0,0-.02-.02-.05-.02.03-.05.02-.11,0-.13,0,0,0,0,0,0l-.3-.32h0s0,0,0,0h-.02s0,0,0,0h0l-.3.32h0s-.03.09,0,.14c-.02,0-.03,0-.05.02-.02.02-.04.06-.04.11-.1-.11-.19-.17-.32-.12-.09-.1-.15-.12-.27-.12-.02,0-.04-.02-.07-.03-.11-.05-.17-.08-.19-.05-.02.02,0,.06.02.08.02.03.05.08.1.15.12.16.32.43.32.57-.1-.02-.19-.04-.26-.06-.08-.02-.15-.02-.17-.05,0,0-.02,0-.02,0,0,0-.02,0-.02.02,0,.2.07.46.25.61-.12,0-.26,0-.26,0,0,0-.02,0-.02,0t0,.02s-.02.24.33.34c-.1.07-.13.17-.16.24-.02.07-.03.11-.07.12-.03,0-.04.02-.05.03,0,.02,0,.03.03.05.06.03.26.07.42,0-.06.09-.11.16-.09.32,0,0,0,.02,0,.02t.02,0c.14-.02.21-.03.25-.05-.02.07-.03.13-.04.19,0,.04-.02.09-.02.1,0,0,0,.02,0,.02,0,.02.02.02.02.02.17,0,.29,0,.37-.05-.02.12,0,.19.02.26,0,0,0,.02,0,.03,0,0,0,0,.02.02,0,0,.02,0,.02,0,.05-.05.1-.12.13-.17.04.06.1.13.1.17,0,.02.02.02.02.02.02,0,.02,0,.02-.02,0-.04.06-.12.11-.17.02.04.08.12.13.17,0,0,.02,0,.02,0l.02-.02v-.03c.02-.07.04-.13.02-.26.07.04.2.06.37.05,0,0,.02,0,.02-.02,0,0,0-.02,0-.02s-.02-.06-.02-.1c-.02-.06-.02-.12-.05-.19.04.02.12.03.25.05,0,0,.02,0,.02,0,0,0,0,0,0-.02,0-.17-.03-.23-.09-.32.17.07.36.03.42,0,.03-.02.03-.03.03-.05s-.02-.02-.04-.03Z"/>
            <g>
              <path class="cls-1" d="M60.55,20.88s-.06-.06-.08-.12c-.02-.07-.06-.17-.16-.24.36-.1.34-.33.34-.34s0,0,0-.02h-.02s-.14,0-.27,0c.17-.15.25-.41.25-.61,0,0,0-.02,0-.02,0,0-.02,0-.02,0-.03.02-.09.03-.17.05-.07.02-.16.03-.26.06,0-.13.19-.41.32-.57.04-.07.08-.12.1-.15.02-.02.03-.06.02-.08-.03-.03-.08,0-.19.05-.02,0-.05.02-.07.03-.12,0-.17.02-.27.12-.12-.05-.22,0-.31.12,0-.05-.02-.09-.05-.11,0,0-.02-.02-.05-.02.03-.05.02-.11,0-.13,0,0,0,0,0,0l-.3-.32h0s0,0,0,0h-.02s0,0,0,0h0l-.3.32h0s-.03.09,0,.14c-.02,0-.03,0-.05.02-.02.02-.04.06-.04.11-.1-.11-.19-.17-.32-.12-.09-.1-.15-.12-.27-.12-.02,0-.04-.02-.07-.03-.11-.05-.17-.08-.19-.05-.02.02,0,.06.02.08.02.03.05.08.1.15.12.16.32.43.32.57-.1-.02-.19-.04-.26-.06-.08-.02-.15-.02-.17-.05,0,0-.02,0-.02,0,0,0-.02,0-.02.02,0,.2.07.46.25.61-.12,0-.26,0-.26,0,0,0-.02,0-.02,0t0,.02s-.02.24.33.34c-.1.07-.13.17-.16.24-.02.07-.03.11-.07.12-.03,0-.04.02-.05.03,0,.02,0,.03.03.05.06.03.26.07.42,0-.06.09-.11.16-.09.32,0,0,0,.02,0,.02t.02,0c.14-.02.21-.03.25-.05-.02.07-.03.13-.04.19,0,.04-.02.09-.02.1,0,0,0,.02,0,.02,0,.02.02.02.02.02.17,0,.29,0,.37-.05-.02.12,0,.19.02.26,0,0,0,.02,0,.03,0,0,0,0,.02.02,0,0,.02,0,.02,0,.05-.05.1-.12.13-.17.04.06.1.13.1.17,0,.02.02.02.02.02.02,0,.02,0,.02-.02,0-.04.06-.12.11-.17.02.04.08.12.13.17,0,0,.02,0,.02,0l.02-.02v-.03c.02-.07.04-.13.02-.26.07.04.2.06.37.05,0,0,.02,0,.02-.02,0,0,0-.02,0-.02s-.02-.06-.02-.1c-.02-.06-.02-.12-.05-.19.04.02.12.03.25.05,0,0,.02,0,.02,0,0,0,0,0,0-.02,0-.17-.03-.23-.09-.32.17.07.36.03.42,0,.03-.02.03-.03.03-.05s-.02-.02-.04-.03ZM60.07,20.88s-.02,0-.02,0,0,.02,0,.03c.02.02.04.05.05.07.07.08.1.13.09.27-.21-.02-.23-.05-.27-.07,0,0-.02,0-.03,0s0,.02,0,.02c.03.07.05.17.07.24,0,.04,0,.07.02.09-.26,0-.33-.07-.34-.08,0,0-.02-.02-.03,0,0,0-.02.02,0,.02.03.15.02.22,0,.29-.05-.07-.11-.14-.11-.15,0,0-.02,0-.02,0,0,0-.02,0-.02,0,0,0-.08.08-.12.15-.03-.07-.1-.14-.12-.15,0,0,0,0-.02,0,0,0-.02,0-.02,0,0,0-.06.08-.12.15-.02-.07-.03-.14,0-.29,0,0,0-.02-.02-.02,0,0-.02,0-.02,0-.02.02-.08.08-.35.08,0-.02.02-.05.03-.09,0-.07.02-.17.07-.24,0,0,0-.02,0-.02s-.02,0-.02,0c-.03.02-.06.04-.27.07,0-.14.03-.19.09-.27l.05-.07s0-.02,0-.03-.02,0-.03,0c-.17.12-.4.07-.46.04h0c.07-.02.09-.08.12-.15.02-.08.06-.18.18-.25,0,0,0,0,0-.02,0,0,0-.02-.02-.02-.3-.07-.35-.22-.36-.27.06,0,.2,0,.31,0,0,0,.02,0,.02-.02,0,0,0-.02-.02-.02-.18-.12-.26-.37-.27-.57.04.02.09.02.16.04.07,0,.17.02.27.07,0,0,.02,0,.02,0,0,0,.02,0,.02-.02.03-.14-.17-.42-.32-.63-.04-.06-.07-.11-.1-.14,0,0,0-.02,0-.02.02,0,.08.04.12.06.02.02.06.02.08.04h0c.1,0,.15.02.25.12,0,0,.02,0,.02,0,.11-.05.18-.02.32.15,0,0,.02,0,.03,0,0,0,.02-.02.02-.02,0-.09,0-.12.02-.14.02,0,.04,0,.07,0,0,0,.02,0,.03,0,0,0,0-.02,0-.03-.07-.04-.04-.11-.03-.12l.27-.31.28.31s.03.07-.03.12c0,0-.02.02,0,.03s.02.02.03,0c.03,0,.06,0,.07,0,.02.02.03.05.02.14,0,0,0,.02.02.02,0,0,.02,0,.02,0,.12-.17.21-.2.32-.15,0,0,.02,0,.02,0,.1-.11.14-.12.25-.12h0s.05-.02.07-.04c.04-.02.1-.05.13-.06,0,0,0,.02-.02.02-.02.03-.06.08-.1.14-.18.26-.35.5-.32.63,0,0,0,.02,0,.02,0,0,.02,0,.02,0,.11-.04.21-.06.28-.07.07-.02.12-.02.16-.04-.02.19-.1.44-.28.57,0,0,0,.02,0,.02s0,.02.02.02c.11.02.25,0,.31,0,0,.06-.06.22-.35.27,0,0-.02,0-.02.02,0,.02,0,.02.02.02.12.07.16.17.18.25.02.07.04.13.11.15h0s-.29.07-.46-.04Z"/>
              <path class="cls-1" d="M59.17,20.09s.02,0,.02,0c0,0,0,0,0,0,.02,0,.02-.02,0-.03-.09-.13-.33-.17-.34-.17-.02,0-.02,0-.02.02,0,0,0,.02.02.02,0,0,.22.02.31.15Z"/>
              <path class="cls-1" d="M59.26,20.37s.02-.02,0-.03c0,0-.02,0-.03,0,0,0-.1.07-.07.24,0,0,0,.02.02.02h0s.02-.02.02-.02c-.03-.14.04-.19.04-.19Z"/>
              <path class="cls-1" d="M59.22,21.07s.02,0,.02-.02c0,0,0-.02,0-.03-.03-.02-.22-.12-.22-.12,0,0-.02,0-.03,0s0,.02,0,.03c0,0,.14.07.22.12,0,0,0,0,.02,0Z"/>
              <path class="cls-1" d="M59.21,21.16s.02,0,.02-.02c0,0,0-.02-.02-.03l-.19-.08s-.02,0-.03.02c0,0,0,.02,0,.02l.2.08s0,0,0,0Z"/>
              <path class="cls-1" d="M59.42,20.09s0,0,.02,0c0,0,.02,0,.02,0,.08-.12.31-.15.32-.15,0,0,.02-.02.02-.02,0-.02,0-.02-.02-.02,0,0-.25.03-.34.17,0,.02,0,.03,0,.03Z"/>
              <path class="cls-1" d="M59.91,19.98s-.1.07-.16.12h0c-.08.05-.17.09-.24.1-.07.02-.11,0-.13,0s-.03-.05-.03-.1c0-.12.07-.26.07-.26,0,0,0-.02,0-.03-.02,0-.03,0-.03,0,0,0-.04.07-.07.16-.02-.08-.06-.15-.06-.16,0,0-.02-.02-.03,0s-.02.02,0,.03c0,0,.07.13.07.26,0,.05-.02.08-.03.1-.02.02-.07.02-.14,0-.06,0-.15-.05-.23-.1h0c-.06-.04-.12-.08-.16-.12,0-.02-.02-.02-.03,0,0,0,0,.02,0,.03.03.03.09.07.16.12,0,0,0,.02.02.02.03.06.1.19.19.2h0s.08-.03.12-.1c.03,0,.07,0,.09-.03.02,0,.02-.02.03-.04,0,.02.02.03.03.04.02.02.07.03.1.03.03.07.07.1.12.1h.02c.08,0,.16-.14.19-.2,0,0,0-.02,0-.02.07-.04.12-.08.17-.12,0,0,0-.02,0-.03,0-.02-.02-.02-.03,0ZM58.93,20.18s.07.03.1.04c0,.02,0,.04,0,.07-.03-.02-.07-.07-.09-.11ZM59.61,20.29s0-.05,0-.07c.03,0,.07-.02.1-.04-.02.04-.06.08-.09.11Z"/>
              <path class="cls-1" d="M59.52,21.21s-.12,0-.16-.02c-.02-.02-.02-.03-.02-.05h0v-.17h.03c.07-.02.16-.03.17-.12,0-.06-.02-.09-.03-.11-.04-.02-.1-.02-.15,0-.02,0-.02.02,0,.03,0,0,.02,0,.03,0,.03-.02.07-.02.09,0,.02,0,.02.03.02.06,0,.05-.07.06-.13.07h0c-.07.02-.17.02-.2-.05,0-.02-.02-.06,0-.09,0-.02,0-.02-.02-.03,0,0-.02,0-.02.02,0,.04,0,.08,0,.12s.06.08.16.08h0v.17h0s0,.03-.02.05c-.04.03-.12.02-.16.02-.02,0-.02,0-.02.02,0,.02,0,.02.02.02,0,0,.02,0,.05,0,.05,0,.11,0,.15-.04,0,0,0,0,0-.02l.02.02s.03.02.05.02h0s-.05.05-.12.05h0s-.03,0-.03.02c0,.02.02.02.03.02h0c.08,0,.14-.02.16-.07v-.02s.03,0,.05,0c.03,0,.05,0,.05,0,.02,0,.02,0,.02-.02,0,0-.02-.02-.02-.02Z"/>
              <path class="cls-1" d="M59.62,20.9s-.19.11-.22.12c-.02,0-.02.02-.02.03,0,0,.02.02.02.02h0c.09-.06.22-.13.22-.13.02,0,.02-.02,0-.03,0,0-.02-.02-.02,0Z"/>
              <path class="cls-1" d="M59.6,21.02l-.19.08s-.02.02-.02.03.02.02.02.02h0s.19-.09.19-.09c.02,0,.02-.02.02-.02,0-.02-.02-.02-.03-.02Z"/>
              <path class="cls-1" d="M59.98,19.63c-.23-.02-.47-.04-.69-.03-.22,0-.45.02-.67.07,0,0,0,0,0,0,0,0,0,.02,0,.02h0c.22-.04.44-.07.67-.07.22,0,.46,0,.69.04,0,0,0,0,0,0s0-.02,0-.02Z"/>
              <path class="cls-1" d="M60.03,19.59c-.24-.06-.48-.08-.73-.08-.23,0-.47.03-.69.1,0,0-.02,0,0,0t0,0h0c.22-.06.46-.09.69-.09.25,0,.49.02.73.08,0,0,0,0,0,0s0-.02,0-.02Z"/>
              <path class="cls-1" d="M60.12,19.33s0-.02,0-.02c-.28-.04-.57-.05-.86-.04-.26,0-.51.03-.77.07,0,0,0,0,0,.02s0,0,.02,0h0c.25-.04.51-.07.76-.07.28-.02.57,0,.86.04h0Z"/>
              <path class="cls-1" d="M60,19.39s.02,0,.02,0,0,0,0,0c-.23-.03-.47-.04-.69-.03-.26,0-.51.03-.76.07,0,0-.02,0-.02.02t.02,0h0c.25-.04.51-.07.76-.07.22,0,.46,0,.68.02Z"/>
              <path class="cls-1" d="M59.29,19.12s0,0,.02,0h0s0,0,.02-.02l.08-.12s0-.02,0-.02l-.11-.12s-.02,0-.02,0c0,0-.02,0-.02.02l-.09.12s0,.02,0,.03l.12.11ZM59.28,18.9l.07.07-.06.08-.08-.07.07-.08Z"/>
            </g>
          </g>
          <g>
            <path class="cls-1" d="M60.18,20.07h0s0-.02,0-.02c.03-.05.08-.1.12-.15.03-.05.07-.09.11-.14h0s0,0,0,0c-.03.05-.07.09-.1.14l-.12.15s0,0,0,0Z"/>
            <g>
              <path class="cls-1" d="M58.54,19.83h0l-.07-.05c-.08-.05-.17-.07-.27-.08t0,0s0,0,0,0c.1,0,.2.03.28.08.02.02.05.03.07.06h0s0,0,0,0Z"/>
              <path class="cls-1" d="M58.5,19.91h0s-.09-.04-.14-.07c-.04-.02-.09-.06-.13-.09h0s0,0,0,0c.04.03.09.06.13.08s.09.05.14.07h0v.02Z"/>
              <path class="cls-1" d="M58.48,20.09h0s-.09,0-.16-.05c-.07-.04-.1-.11-.12-.14t0-.02h0s.04.1.12.15c.05.03.11.04.14.04,0,0,0,0,0,0t0,0Z"/>
              <path class="cls-1" d="M58.18,20.3h0s0-.02,0-.02c.08,0,.17,0,.25-.02.04,0,.08,0,.12,0h0s0,.02,0,.02c-.04,0-.08,0-.12,0-.08,0-.17,0-.25.02h0Z"/>
              <path class="cls-1" d="M58.33,20.38s0,0,0,0,0,0,0,0c.05,0,.09,0,.14-.02.04,0,.07-.02.12-.03h0s0,0,0,.02c-.03,0-.08.02-.12.03s-.09.02-.14.02h0Z"/>
              <path class="cls-1" d="M58.4,20.71s0,0,0,0h0s.04-.1.07-.14c.03-.05.07-.1.1-.14h.02c-.04.06-.07.1-.11.15-.02.04-.05.09-.07.13h0Z"/>
              <path class="cls-1" d="M58.23,20.83s0,0,0,0h0c.1-.04.2-.09.27-.16.04-.04.08-.07.12-.12h0s0,0,0,0c-.04.05-.07.09-.12.12-.08.07-.18.12-.28.16h0Z"/>
              <path class="cls-1" d="M58.43,20.86h0s0-.02,0-.02c.07-.04.14-.08.22-.12.05-.02.1-.05.16-.07,0,0,0,0,0,0,0,0,0,0,0,0-.05.02-.1.03-.16.06-.07.03-.14.07-.21.12h0Z"/>
              <path class="cls-1" d="M58.52,21.12h0s0,0,0,0c.05-.05.09-.1.14-.15.03-.03.07-.07.11-.11h0v.02s-.07.07-.11.1c-.04.05-.09.1-.13.15h0Z"/>
              <path class="cls-1" d="M58.63,21.12h0s0,0,0-.02c.04-.03.08-.07.13-.12.02-.03.04-.07.05-.11,0,0,0,0,.02,0h0s-.03.08-.06.12c-.03.05-.07.09-.12.12h0Z"/>
              <path class="cls-1" d="M58.76,21.36h0c.02-.07.03-.13.06-.18.02-.02.03-.05.05-.07t0,0h0s-.02.06-.04.08c-.02.05-.04.11-.06.17t0,0Z"/>
              <path class="cls-1" d="M58.82,21.39h0s0,0,0-.02c.02-.03.04-.07.06-.11.02-.04.02-.08.03-.12,0,0,0,0,0,0t0,0s-.02.08-.04.12c0,.04-.02.08-.05.12t0,0Z"/>
              <path class="cls-1" d="M58.82,21.48s0,0,0,0h0s.08-.04.12-.07c.02-.02.04-.04.06-.07h.02s-.04.07-.07.09c-.03.02-.07.05-.12.07h0Z"/>
              <path class="cls-1" d="M60.04,19.78h0s0,0,0,0c.05-.04.1-.07.17-.08.07-.02.13-.02.21-.02h0s0,.02,0,.02c-.07,0-.13,0-.2.02-.06.02-.11.04-.16.07h0Z"/>
              <path class="cls-1" d="M60.11,19.92h0s.08-.08.12-.12c.07-.05.17-.07.27-.08,0,0,0,0,0,0,0,0,0,0,0,0-.09.02-.18.04-.26.09-.04.02-.07.06-.12.1h0Z"/>
              <path class="cls-1" d="M60.4,20.26h-.26s0,0,0,0t0,0h.26s0,0,0,0c0,0,0,0,0,0Z"/>
              <path class="cls-1" d="M60.14,20.35h0s0-.02,0-.02c.04,0,.07,0,.11-.02.07,0,.12-.02.18-.04,0,0,0,0,0,0,0,0,0,0,0,0-.06.02-.12.03-.17.04-.04,0-.08,0-.12.02h0Z"/>
              <path class="cls-1" d="M60.1,20.48h0v-.02s.12,0,.19-.05c.02-.02.05-.03.07-.06h.02s-.04.06-.07.07c-.07.05-.14.06-.19.06Z"/>
              <path class="cls-1" d="M60.34,20.85h0c-.06,0-.12-.03-.17-.06-.04-.02-.07-.06-.1-.09,0,0,0,0,0,0h0s.06.06.1.08c.05.03.11.05.17.06h0v.02Z"/>
              <path class="cls-1" d="M60.31,20.88h0c-.07,0-.13-.02-.19-.03-.07-.02-.13-.04-.19-.07h0s0-.02,0,0c.06.02.12.05.18.07.07.02.12.03.19.03h0s0,.02,0,.02Z"/>
              <path class="cls-1" d="M60.09,21.17h0s-.07-.04-.09-.07c-.04-.04-.06-.09-.07-.12,0,0,0,0,0,0t0,0s.03.07.07.12c.02.02.06.04.09.06,0,0,0,0,0,0t0,0Z"/>
              <path class="cls-1" d="M60.05,21.2h0c-.06,0-.1-.03-.14-.07-.02,0-.04-.02-.06-.05h0s0,0,.02,0l.05.05s.08.05.13.06c0,0,0,0,0,0,0,0,0,0,0,0Z"/>
              <path class="cls-1" d="M60.36,20.81s0,0,0,0c-.03-.05-.07-.1-.12-.13-.05-.03-.1-.06-.15-.07,0,0,0,0,0,0,0,0,0,0,0,0,.06.02.11.04.16.07.05.04.1.08.13.14h0v.02Z"/>
              <path class="cls-1" d="M59.91,21.5h0s-.05-.1-.07-.14c-.02-.06-.06-.12-.08-.17,0,0,0,0,0,0h0c.02.06.05.12.08.17.02.04.04.09.07.14,0,0,0,0,0,0h0Z"/>
              <path class="cls-1" d="M59.84,21.5h0c-.06-.03-.1-.07-.13-.12-.02-.04-.04-.08-.05-.12h0s0,0,0,0c.02.05.03.09.06.12.02.05.07.09.12.12v.02h0Z"/>
              <path class="cls-1" d="M59.77,21.51h0s-.06-.03-.08-.06c-.04-.02-.07-.06-.09-.09,0,0,0,0,0,0h0s.06.07.09.09c.02.02.05.03.08.05h0s0,.02,0,.02Z"/>
              <path class="cls-1" d="M59.55,21.67h0s0-.05-.02-.07c0-.04-.02-.08-.03-.12t0,0s0,0,0,0c0,.04.02.09.03.13,0,.02.02.05.02.07t0,0h0Z"/>
              <path class="cls-1" d="M59.32,21.66h0s0,0,0-.02c0-.02.02-.05.02-.08s0-.07-.02-.11t0,0s0,0,0,0c.02.04.02.08.02.12,0,.02,0,.06-.02.08,0,0,0,0,0,0Z"/>
              <path class="cls-1" d="M59.09,21.64h0s0-.06,0-.08v-.11h0s0,0,0,0v.11s0,.05-.02.07h0Z"/>
              <path class="cls-1" d="M59.26,21.64h0s-.03-.05-.04-.07c0-.03,0-.07,0-.1h0s0,0,0,0c0,.02,0,.05,0,.08,0,.02.02.05.03.07,0,0,0,0,0,0h0Z"/>
            </g>
          </g>
        </g>
      </g>
      <g>
        <g>
          <path class="cls-4" d="M64.17,20.53s-.06-.02-.11-.02c-.02.02-.05.02-.08.04-.12.04-.18.09-.18.13,0,0,0,.02.02.04.02,0,.05,0,.06,0h0s0,.02,0,.03c0,.02.02.06.04.07.06.04.17.07.27.05.09-.02.17-.06.2-.12,0-.02.02-.07,0-.14h0s-.07-.03-.12-.05c-.06-.02-.09-.04-.11-.05Z"/>
          <path class="cls-4" d="M64.6,20.92s-.02,0-.02.02c-.16.12-.23.22-.22.28,0,.04.03.07.08.08.02,0,.03.02.04.02h0s.03.04.06.06c.06.02.14.02.22-.02.08-.03.15-.11.17-.18h0s0-.08.02-.13c-.05-.03-.07-.08-.18-.11-.08-.02-.12,0-.15-.02Z"/>
          <path class="cls-4" d="M65.73,21s-.07-.05-.09-.07c-.03,0-.07.02-.09.02-.07.02-.15.03-.15.13,0,.02,0,.04,0,.07,0,.06,0,.11.02.14.02.02.07.04.14.04.15,0,.28,0,.33-.06.02-.02.02-.05.02-.08,0-.04,0-.06,0-.06,0,0,.02,0,.03,0,0,0-.02-.02-.02-.02-.05-.06-.09-.05-.18-.11Z"/>
          <path class="cls-6" d="M68.78,18.37s-.09-.02-.19,0c-.04,0-.09.02-.16.02-.07,0-.09,0-.12.02-.03,0-.07,0-.17,0-.11,0-.18.02-.23.03-.09,0-.13.02-.19,0-.05-.02-.07-.03-.1-.05-.02-.02-.06-.05-.12-.07-.13-.05-.24-.03-.32-.02h0c-.18.02-.37,0-.54-.02h-.06s-.02,0-.03-.02c-.02,0-.02-.02-.03-.04,0,0,0-.02,0-.02-.07-.12-.25-.12-.38-.12h-.16c-.08,0-.13,0-.18-.03-.03-.02-.04-.05-.06-.08,0-.02-.03-.07-.07-.12-.05-.06-.09-.08-.12-.11-.04-.02-.07-.04-.11-.09-.02-.02-.02-.03-.03-.06,0-.02,0-.06-.03-.12-.02-.08-.06-.14-.08-.19-.03-.06-.05-.1-.04-.15,0-.06.03-.1.04-.1s0,0,.02.02l.02.02c.1.08.28,0,.34-.04.1-.04.22-.13.23-.19,0-.02,0-.02,0-.03,0-.02-.04-.02-.08-.02-.02,0-.05,0-.07,0-.08,0-.16-.05-.24-.12,0,0-.02,0-.04,0,0,0-.03,0-.07,0-.07,0-.08.03-.18.07-.03,0-.05.02-.08.02-.06.03-.07.06-.1.06-.04,0-.04-.07-.1-.12-.09-.07-.19-.02-.22-.09-.02-.02,0-.02-.02-.04-.03-.04-.13,0-.14-.04,0-.02,0-.03,0-.06v-.06s-.08-.06-.12-.08c-.14-.07-.38-.12-.43-.03,0,.02-.02.03-.02.05,0,.06.02.15.12.25.04.03.08.07.14.08-.03.09-.09.17-.18.27-.07.07-.11.15-.12.2,0,0-.02.02-.02.02,0,0-.02.02-.02.05,0,.04.03.1.11.15.03.02.04.04.05.07,0,.05.03.11.13.1.09,0,.12-.02.12-.06,0-.02.02-.03.06-.04.07,0,.09,0,.1,0,0,0,0,.02-.02.03l-.06.06c-.06.06-.15.15-.11.24.02.03,0,.06,0,.07,0,.03-.02.07.03.12.03.04.06.04.08.04,0,.02,0,.05,0,.06,0,.1,0,.13-.03.17-.02.03-.04.07-.05.12-.02.07-.03.07-.06.09-.02.02-.06.05-.08.13-.05.15-.04.21.03.27.02.02.05.02.06.02h0s0,.06,0,.07c0,.1.02.16.05.21.02.04.03.07.02.09-.04.11,0,.17.03.2.02.02.02.04.02.1v.03s.03.06.04.07c.02.02.02.02,0,.07-.09.16-.14.29-.15.4-.02.09-.04.14-.07.17-.02.02-.03.04-.04.07-.02.03-.05.07-.12.11.05,0,.08,0,.11.02.02,0,.05.02.11.05.05.02.09.03.12.05,0-.02.02-.02.04-.03.03-.02.06-.05.06-.13,0-.08,0-.09.02-.12,0-.02.02-.03.02-.06.02-.03.02-.04.02-.04,0-.02.02-.03.07-.14.11-.22.2-.3.23-.28.05.02.09.08.05.19-.02.03-.02.06-.04.08-.04.08-.08.17-.07.34,0,.2,0,.21-.08.3h0c-.07.11-.08.14-.08.15s0,0,0,0c0,0-.02.02-.03.02.03,0,.07,0,.15.02.11.02.13.07.18.11,0-.02,0-.03.02-.04.02-.02.02-.02.03-.02.03,0,.04-.02.07-.1,0-.05.02-.09.03-.13,0-.08.02-.15.07-.22.02-.04.04-.09.05-.15.02-.1.05-.21.2-.27.14-.06.22-.06.27-.06.03,0,.07,0,.1,0,.03,0,.06,0,.07,0,0,0,.02.02.02.03,0,0-.02.03-.03.04-.02.02-.03.03-.02.06.02.02.04.02.12,0,.07-.02.12-.06.16-.09v.02h0c-.02.1,0,.15,0,.19,0,.03,0,.06,0,.09,0,.03-.02.05-.05.07-.03.03-.07.08-.1.2-.04.13-.1.17-.18.22-.02.02-.05.03-.08.05,0,0-.02.02-.04.02.02.02.05.04.09.07.09.06.13.05.18.11,0,0,.02.02.02.02h0s.02,0,.04,0c.09-.02.12-.09.15-.19v-.05c.04-.11.08-.23.29-.29.06-.02.1-.02.13-.03.08-.02.09-.02.17-.15v-.02s.05-.08.06-.12c.02-.02.02-.03.02-.04.02,0,.04.02.07.04l.02.02s.08.06.12.08c.12.07.17.12.14.22-.05.16-.26.37-.34.41-.02,0-.04.02-.06.02-.07.02-.12.04-.14.14,0,.04,0,.07,0,.08v.02s.12,0,.21.03c.05.02.12.04.2.08,0-.06.04-.1.11-.17.02-.02.05-.06.07-.09.07-.08.09-.12.12-.16.02-.04.04-.07.09-.12s.11-.08.17-.12c.02,0,.03-.02.05-.03.11-.07.21-.13.25-.25,0-.04,0-.07,0-.08,0-.02,0-.04,0-.07.02-.04.03-.06.05-.08.02-.02.05-.05.07-.1.03-.07.04-.12.05-.14,0-.07,0-.14-.02-.22-.02-.06-.02-.09-.03-.11,0-.02-.02-.04-.02-.07,0-.07,0-.12.04-.17.02-.03.03-.06.05-.07.02-.02.04-.04.05-.08,0-.04-.02-.07-.03-.08,0-.02-.02-.02-.02-.03,0-.02.02-.02.07-.03.04-.02.1-.03.16-.07.07-.05.12-.1.16-.17.03-.05.04-.08.05-.12s0-.05.03-.07c.03-.02.05-.02.08-.03.03,0,.07,0,.1-.05.05-.05.08-.15.04-.2Z"/>
          <path class="cls-4" d="M66.61,21.27s0,.02-.06.05c-.02,0-.04.02-.06.02-.07.02-.12.05-.13.09,0,.03.02.07.07.11.02.02.03.02.04.03,0,0,0,0-.02,0-.02,0-.04,0-.05.02,0,.02.02.05.02.05.03.03.11.04.19.04.07,0,.14,0,.2-.02.11-.03.18-.08.2-.15,0-.03,0-.05,0-.07,0,0,0-.02,0-.06h0c-.08-.05-.15-.07-.2-.09-.08-.02-.16-.03-.21-.03Z"/>
          <path class="cls-4" d="M64.55,16.5s-.02.04,0,.06c0,.04.11,0,.14.04.02.02,0,.02.02.04.02.07.12.02.22.09.06.05.06.11.1.12.03,0,.04-.02.1-.06.03,0,.05-.02.08-.02.1-.03.11-.06.18-.07.03,0,.06,0,.07,0,.02,0,.03,0,.04,0h0c.48-.11.81.14,1.12.37.19.15.39.3.62.37.22.07.41.09.55.09.27,0,.4-.09.5-.17,0,0,0-.02,0-.03,0,0-.02,0-.02,0-.7.08-1.13-.25-1.55-.62.17.07.39.13.66.08.16-.02.31-.09.45-.19,0,0,0-.02,0-.02,0-.02-.02-.02-.03-.02s-.46.02-.76-.07c-.1-.02-.19-.08-.31-.15-.24-.14-.54-.32-1.03-.31-.62.02-1.05.36-1.14.44,0,0-.02,0-.02-.02v.06Z"/>
        </g>
        <g>
          <path class="cls-1" d="M68.78,18.37s-.09-.02-.19,0c-.04,0-.09.02-.16.02-.07,0-.09,0-.12.02-.03,0-.07,0-.17,0-.11,0-.18.02-.23.03-.09,0-.13.02-.19,0-.05-.02-.07-.03-.1-.05-.02-.02-.06-.05-.12-.07-.13-.05-.24-.03-.32-.02h0c-.18.02-.37,0-.54-.02h-.06s-.02,0-.03-.02c-.02,0-.02-.02-.03-.04,0,0,0-.02,0-.02-.07-.12-.25-.12-.38-.12h-.16c-.08,0-.13,0-.18-.03-.03-.02-.04-.05-.06-.08,0-.02-.03-.07-.07-.12-.05-.06-.09-.08-.12-.11-.04-.02-.07-.04-.11-.09-.02-.02-.02-.03-.03-.06,0-.02,0-.06-.03-.12-.02-.08-.06-.14-.08-.19-.03-.06-.05-.1-.04-.15,0-.06.03-.1.04-.1s0,0,.02.02l.02.02c.1.08.28,0,.34-.04.1-.04.22-.13.23-.19,0-.02,0-.02,0-.03,0-.02-.04-.02-.08-.02-.02,0-.05,0-.07,0-.08,0-.17-.05-.24-.12.48-.1.81.15,1.12.38.19.15.39.3.62.37.22.07.41.09.55.09.27,0,.4-.09.5-.17,0,0,0-.02,0-.03,0,0-.02,0-.02,0-.7.08-1.13-.25-1.55-.62.17.07.39.13.66.08.16-.02.31-.09.45-.19,0,0,0-.02,0-.02,0-.02-.02-.02-.03-.02s-.46.02-.76-.07c-.1-.02-.19-.08-.31-.15-.24-.14-.54-.32-1.03-.31-.62.02-1.05.36-1.14.44-.05-.04-.09-.07-.14-.1-.14-.07-.38-.12-.43-.03,0,.02-.02.03-.02.05,0,.06.02.15.12.25.04.03.08.07.14.08-.03.09-.09.17-.18.27-.07.07-.11.15-.12.2,0,0-.02.02-.02.02,0,0-.02.02-.02.05,0,.04.03.1.11.15.03.02.04.04.05.07,0,.05.03.11.13.1.09,0,.12-.02.12-.06,0-.02.02-.03.06-.04.07,0,.09,0,.1,0,0,0,0,.02-.02.03l-.06.06c-.06.06-.15.15-.11.24.02.03,0,.06,0,.07,0,.03-.02.07.03.12.03.04.06.04.08.04,0,.02,0,.05,0,.06,0,.1,0,.13-.03.17-.02.03-.04.07-.05.12-.02.07-.03.07-.06.09-.02.02-.06.05-.08.13-.05.15-.04.21.03.27.02.02.05.02.06.02h0s0,.06,0,.07c0,.1.02.16.05.21.02.04.03.07.02.09-.04.11,0,.17.03.2.02.02.02.04.02.1v.03s.03.06.04.07c.02.02.02.02,0,.07-.09.16-.14.29-.15.4-.02.09-.04.14-.07.17-.02.02-.03.04-.04.07-.02.06-.09.1-.2.15-.12.04-.18.09-.18.13,0,0,0,.02.02.04.02,0,.05,0,.06,0h0s0,.02,0,.03c0,.02.02.06.04.07.06.04.17.07.27.05.09-.02.17-.06.2-.12,0-.02.02-.07,0-.14,0-.02.02-.02.04-.03.03-.02.06-.05.06-.13,0-.08,0-.09.02-.12,0-.02.02-.03.02-.06.02-.03.02-.04.02-.04,0-.02.02-.03.07-.14.11-.22.2-.3.23-.28.05.02.09.08.05.19-.02.03-.02.06-.04.08-.04.08-.08.17-.07.34,0,.2,0,.21-.08.3h0c-.07.11-.08.14-.08.15s0,0,0,0c-.02,0-.03.02-.06.04-.16.12-.23.22-.22.28,0,.04.03.07.08.08.02,0,.03.02.04.02h0s.03.04.06.06c.06.02.14.02.22-.02.08-.03.15-.11.17-.18h0s-.02-.13.04-.17c.02-.02.02-.02.03-.02.03,0,.04-.02.07-.1,0-.05.02-.09.03-.13,0-.08.02-.15.07-.22.02-.04.04-.09.05-.15.02-.1.05-.21.19-.27.15-.06.22-.06.28-.06.03,0,.07,0,.1,0,.03,0,.06,0,.07,0,0,0,.02.02.02.03,0,0-.02.03-.03.04-.02.02-.03.03-.02.06.02.02.04.02.12,0,.07-.02.12-.06.16-.09v.02h0c-.02.1,0,.15,0,.19,0,.03,0,.06,0,.09,0,.03-.02.05-.05.07-.03.03-.07.08-.1.2-.04.13-.1.17-.18.22-.02.02-.05.03-.08.05-.04.03-.09.04-.13.05-.07.02-.15.03-.15.13,0,.02,0,.04,0,.07,0,.06,0,.11.02.14.02.02.07.04.14.04.15,0,.28,0,.33-.06.02-.02.02-.05.02-.08,0-.04,0-.06,0-.06,0,0,.02,0,.04,0,0,0,.02,0,.04,0,.09-.02.12-.09.15-.19v-.05c.04-.11.08-.23.29-.29.06-.02.1-.02.13-.03.08-.02.09-.02.17-.15v-.02s.05-.08.06-.12c.02-.02.02-.03.02-.04.02,0,.04.02.07.04l.02.02s.08.06.12.08c.12.07.17.12.14.22-.05.16-.26.37-.34.41-.02,0-.04.02-.06.02-.07.02-.12.04-.14.14,0,.04,0,.07,0,.08t-.06.07s-.04.02-.06.02c-.07.02-.12.05-.13.09,0,.03.02.07.07.11.02.02.03.02.04.03,0,0,0,0-.02,0-.02,0-.04,0-.05.02,0,.02.02.05.02.05.03.03.11.04.19.04.07,0,.14,0,.2-.02.11-.03.18-.08.2-.15,0-.03,0-.05,0-.07,0,0,0-.02,0-.06,0-.07.04-.11.11-.18.02-.02.05-.06.07-.09.07-.08.09-.12.12-.16.02-.04.04-.07.09-.12s.11-.08.17-.12c.02,0,.03-.02.05-.03.11-.07.21-.13.25-.25,0-.04,0-.07,0-.08,0-.02,0-.04,0-.07.02-.04.03-.06.05-.08.02-.02.05-.05.07-.1.03-.07.04-.12.05-.14,0-.07,0-.14-.02-.22-.02-.06-.02-.09-.03-.11,0-.02-.02-.04-.02-.07,0-.07,0-.12.04-.17.02-.03.03-.06.05-.07.02-.02.04-.04.05-.08,0-.04-.02-.07-.03-.08,0-.02-.02-.02-.02-.03,0-.02.02-.02.07-.03.04-.02.1-.03.16-.07.07-.05.12-.1.16-.17.03-.05.04-.08.05-.12s0-.05.03-.07c.03-.02.05-.02.08-.03.03,0,.07,0,.1-.05.05-.05.08-.15.04-.2ZM65.81,16.43s-.04-.09-.09-.12c.16,0,.32.03.49.11.02.03.02.07.02.11-.02.08-.11.15-.15.17-.1-.03-.21-.06-.32-.07.03-.03.07-.11.06-.19ZM65.95,16.08c.15.02.28.06.39.1,0,.13-.04.19-.08.2-.09-.04-.19-.07-.28-.09.02,0,.03-.02.03-.04.02-.06-.03-.12-.06-.17ZM66.55,16.74c-.06.07-.17.07-.22.07-.08-.04-.15-.08-.23-.12.05-.03.12-.09.15-.17,0-.03,0-.07,0-.1.08.03.17.08.25.15h0s0,0,0,0c.02.02.05.03.08.06,0,.04,0,.07-.03.1ZM66.51,16.53c-.07-.05-.15-.1-.22-.13.05-.02.08-.08.08-.21.12.05.21.1.3.15,0,.05-.03.17-.16.19ZM66.37,16.84c.06,0,.15-.02.2-.08.02-.02.04-.06.04-.1l.07.07c.08.07.15.13.22.19,0,.05-.02.09-.05.12-.04.04-.1.05-.13.06-.02-.02-.05-.04-.07-.06-.08-.07-.17-.14-.27-.2ZM67.02,17.3c-.09-.05-.18-.12-.27-.18.04,0,.08-.02.12-.06.03-.03.05-.07.06-.12.12.09.23.17.36.25,0,.02-.02.05-.04.07-.06.05-.17.04-.22.04ZM67.07,17.33h0c.06,0,.13,0,.18-.05.02-.02.04-.05.05-.08.08.04.17.08.26.11-.02.07-.11.12-.15.14-.06-.02-.11-.03-.18-.05-.06-.02-.12-.04-.17-.07ZM67.75,17.49c-.08,0-.18,0-.3-.03.05-.02.12-.07.13-.14.08.02.17.04.26.06,0,.06-.06.1-.09.12ZM68.19,17.37c-.07.06-.18.12-.4.12.03-.02.07-.07.07-.12.11,0,.22.02.33,0ZM67.37,16.74s-.11,0-.16.02c.04-.05.05-.14.05-.18.07,0,.13.02.19.02,0,.02.02.08,0,.12-.02,0-.05.02-.07.02ZM67.73,16.59c-.08.05-.17.08-.25.12,0-.05,0-.09,0-.12.1,0,.19,0,.25,0ZM67.24,16.57s-.02.14-.07.18c-.14,0-.27-.03-.37-.07.08-.04.11-.14.12-.19.03.02.08.02.11.04.07.02.13.02.21.04ZM66.9,16.47s-.04.17-.13.2c-.1-.04-.18-.09-.22-.12.12-.03.14-.13.15-.19,0,0,.02,0,.02.02.07.04.12.07.18.1ZM65.71,16.07c.07,0,.14,0,.21,0,.03.03.08.11.07.16,0,.02-.02.03-.04.04-.12-.02-.22-.02-.33-.02,0,0,0-.02,0-.03,0-.05-.06-.11-.09-.13.06,0,.12-.02.18-.02ZM65.32,16.29s-.12-.09-.17-.12c.11-.04.22-.07.35-.09.03.02.09.08.1.14,0,0,0,.02,0,.03-.09,0-.18.02-.27.03ZM64.03,16.38s0-.02,0-.02c.02-.05.22-.02.37.05.04.02.08.05.12.08-.07,0-.22.04-.25.16,0,0,0,.02,0,.02-.05-.02-.09-.04-.12-.07-.09-.09-.11-.17-.11-.22ZM68.71,18.53s-.05.03-.07.04c-.03,0-.07,0-.11.04s-.04.07-.05.1c0,.02,0,.06-.04.1-.03.06-.08.11-.14.15-.06.03-.11.05-.14.06-.05.02-.09.02-.1.07,0,.03,0,.06.02.07.02.02.02.03.02.06,0,.02,0,.03-.03.05-.02.02-.04.04-.06.08-.03.06-.05.12-.05.2,0,.04,0,.06.02.09,0,.02.02.05.03.11.02.07.02.12.02.19,0,.02,0,.07-.04.12-.02.05-.04.07-.07.1-.02.02-.04.04-.06.09-.02.04-.02.07-.02.09s0,.04,0,.07c-.02.1-.12.16-.22.22-.02.02-.03.02-.05.03-.06.03-.12.07-.17.12-.05.05-.07.08-.1.12-.02.03-.05.07-.11.15-.03.04-.06.07-.08.09-.07.08-.11.13-.12.22,0,.03,0,.06,0,.07,0,.02,0,.02,0,.04-.02.07-.1.1-.16.12-.15.04-.31.02-.35,0h0s.05,0,.06-.03,0-.05-.07-.09c-.05-.03-.05-.05-.05-.06,0-.02.06-.04.1-.06.02,0,.04-.02.07-.02.07-.03.07-.05.07-.1,0-.02,0-.04,0-.08.02-.07.05-.08.11-.1.02,0,.04-.02.07-.02.11-.05.32-.27.37-.44.04-.13-.05-.19-.16-.27-.03-.02-.07-.05-.11-.07l-.03-.02s-.07-.07-.1-.06-.03.03-.06.07c0,.02-.02.07-.05.11v.02q-.07.12-.14.12s-.07.02-.14.03c-.23.07-.27.22-.31.32l-.02.05c-.03.11-.05.15-.11.16-.02,0-.03,0-.04,0-.03,0-.06,0-.07.02-.02.02-.02.05,0,.1,0,.02,0,.03,0,.04-.04.04-.17.04-.3.04-.06,0-.09,0-.11-.02-.02-.02,0-.05,0-.1v-.07c0-.06.04-.07.12-.09.05,0,.1-.02.16-.06.02-.02.05-.02.07-.04.08-.05.16-.1.2-.25.03-.1.07-.14.1-.17.02-.02.03-.05.05-.09.02-.05.02-.08,0-.12,0-.04,0-.08,0-.17h0c.02-.08.02-.1,0-.11-.02,0-.03,0-.05.02-.02.02-.07.07-.17.09-.02,0-.03.02-.04.02.02-.02.02-.04.02-.06,0-.03,0-.05-.03-.07-.02-.02-.05-.02-.12,0-.02,0-.05,0-.08,0-.06,0-.14,0-.3.06-.17.07-.19.2-.22.31-.02.05-.02.09-.04.13-.06.08-.07.16-.08.24,0,.04,0,.08-.02.12,0,.02,0,.05-.02.07-.02,0-.03,0-.07.02-.07.06-.06.18-.05.21-.02.06-.07.12-.15.15-.06.03-.12.04-.17.02,0,0-.02,0-.02,0t0-.02s-.02-.02-.09-.05c-.03,0-.05-.02-.05-.04,0-.05.07-.14.2-.24.03-.02.05-.03.06-.04.02-.02.02-.02.02-.03,0,0,0-.03.08-.12v-.02c.09-.1.1-.12.09-.32,0-.17.03-.23.07-.32.02-.02.03-.05.04-.08.06-.13,0-.22-.07-.26-.11-.04-.25.22-.29.31-.05.11-.07.12-.07.13s-.02.02-.03.06c0,.02,0,.04-.02.05-.02.05-.02.06-.02.15,0,.07-.02.07-.05.09-.02,0-.03.02-.06.05,0,0,0,.02,0,.02.02.05.02.09,0,.12-.02.04-.07.08-.16.09-.09.02-.18,0-.22-.03-.02-.02-.02-.03-.02-.04,0-.06-.02-.08-.06-.08h-.05s.05-.05.16-.09c.12-.05.2-.11.23-.17,0-.02.02-.03.03-.05.03-.04.07-.1.07-.2.02-.11.07-.23.15-.38.04-.07.03-.1,0-.13,0-.02-.02-.02-.02-.05v-.03c-.02-.06-.02-.09-.05-.12-.02-.02-.05-.07-.02-.15.02-.05,0-.09-.02-.13-.02-.04-.05-.09-.04-.17,0-.07.02-.1,0-.12,0-.02-.02-.02-.03-.02s-.02,0-.04-.02c-.04-.03-.07-.06-.02-.22.03-.07.05-.08.07-.1s.05-.04.07-.12c.02-.06.03-.09.05-.12.02-.05.05-.09.04-.2,0-.07-.02-.1-.03-.11,0,0-.02,0-.03,0s-.02,0-.04-.02c-.03-.03-.03-.04-.02-.06,0-.02.02-.07,0-.12-.03-.06.04-.13.1-.18.02-.02.05-.05.07-.07.02-.02.03-.06.02-.08-.02-.02-.06-.02-.15,0-.07,0-.08.03-.09.07,0,.02-.02.02-.08.03-.07,0-.07-.02-.09-.07,0-.04-.02-.08-.07-.11-.07-.05-.09-.11-.08-.12s0-.02.02-.05c.02-.04.05-.12.12-.18.1-.11.17-.2.2-.3,0-.02.02-.03.02-.06.03-.11.25-.12.25-.12,0,0,0,0,.02,0h0s0,0,0,0c.02-.02.09-.09.22-.17.03,0,.09.02.12.05h.02v-.02s-.07-.04-.12-.05c.08-.05.17-.1.27-.14.05.02.15.07.18.12-.36.09-.61.27-.62.27,0,0,0,.02,0,.03,0,0,.02.02.03,0s.11-.07.27-.15c.08.02.16.09.17.1,0,0,0,0,0,0h0s0,0,0,0h0s-.08-.09-.16-.12c.09-.04.19-.07.3-.1.08.04.16.17.16.2,0,0,0,0,0,0,0,0,.02,0,.02,0,0-.03-.07-.16-.15-.21.11-.02.22-.04.33-.04.07.03.11.08.12.13.02.07-.03.15-.07.18-.08,0-.18,0-.28.03-.11.03-.22.07-.35.13,0,0-.02.02,0,.03,0,.02.02.02.02.02.12-.06.23-.1.33-.13.1.1.19.16.29.16.03,0,.07,0,.09,0,0,0,.02,0,.03,0-.02.03-.11.11-.22.16-.17.09-.25.07-.28.05,0,0-.02-.02-.02-.02,0-.02-.02-.03-.05-.03-.05,0-.08.08-.09.14,0,.07.02.12.05.18.02.04.06.1.08.18.02.05.02.08.03.11,0,.02,0,.04.02.07.04.07.08.08.13.11.03.02.07.05.12.1.04.04.05.07.07.11.02.03.02.06.07.09.07.05.13.05.22.05h.16c.12,0,.27,0,.33.09,0,0,0,0,0,.02.02.02.02.04.05.06.02,0,.03,0,.06.02h.05c.18.02.37.05.55.02h.02c.07,0,.17-.02.29.02.05.02.08.04.11.06.02.02.06.04.11.06.07.02.12.02.22,0,.05,0,.12-.02.23-.02.09-.02.12-.02.16-.02s.07,0,.13,0c.07,0,.12-.02.17-.02.07-.02.12-.02.13,0,.02.02,0,.09-.03.13Z"/>
          <path class="cls-1" d="M64.6,16.96s.06,0,.08-.02c.04-.02.17-.07.15-.12,0-.02-.05-.04-.13-.04h-.12c-.05,0-.08.02-.1.05h0s0,.06,0,.06c.02.02.03.04.05.05.02.02.04.02.07.02ZM64.7,16.81c.1,0,.11.02.12.02,0,.02-.07.06-.14.08h0s.02-.02.02-.05,0-.05-.02-.06c.02,0,.02,0,.04,0ZM64.51,16.89s-.02-.02,0-.03c.02-.02.04-.03.08-.04-.02.02-.02.04-.02.06,0,.03,0,.06.02.07-.02,0-.03,0-.04,0-.02,0-.03-.02-.04-.04Z"/>
          <path class="cls-1" d="M64.31,16.5s0,0,.02,0h0s0,0,0-.02c-.02-.02-.08-.07-.08-.07,0,0-.02,0-.02,0,0,0,0,0,0,.02.02.02.07.04.07.06Z"/>
          <path class="cls-1" d="M64.4,16.78s-.02,0-.02,0l-.06.07s0,.02,0,.02h.02l.06-.08v-.02Z"/>
          <path class="cls-1" d="M64.28,17.07s0,0,0-.02v-.07s-.02,0-.02,0c0,0,0,0,0,.02v.07s.02,0,.02,0h0Z"/>
          <path class="cls-1" d="M64.39,16.95l-.03.05v.02h.02l.03-.05s0,0,0-.02h-.02Z"/>
          <path class="cls-1" d="M64.45,16.78h0l.08-.07s0-.02,0-.02c0,0,0,0-.02,0l-.08.08s0,0,0,.02h0Z"/>
          <path class="cls-1" d="M64.59,16.76h0l.05-.06v-.02h-.02l-.05.06s0,0,0,.02h0Z"/>
          <path class="cls-1" d="M64.77,16.74h0l.04-.07s0-.02,0-.02h-.02l-.04.07s0,.02,0,.02h0Z"/>
          <path class="cls-1" d="M64.97,17.12h0s.05-.02.08-.05c.03-.04.03-.07.03-.09,0,0,0-.02,0-.02,0,0-.02,0-.02.02s0,.04-.02.07c-.02.03-.05.04-.07.04,0,0,0,0,0,.02h0Z"/>
          <path class="cls-1" d="M64.66,17.11s0-.02,0-.02c0,0,0,0-.02,0s-.04.04-.04.08c0,.02,0,.04,0,.07h.02s0,0,0,0c0-.02,0-.03,0-.05,0-.04.03-.07.04-.07Z"/>
          <path class="cls-1" d="M64.78,17.01s-.04-.03-.04-.03t-.02,0s0,0,0,.02c0,0,.02.03.06.05h.03s.04,0,.05-.02c0,0,0,0,0-.02h-.02s-.03.02-.06,0Z"/>
          <path class="cls-1" d="M65.26,16.92h0s0,0,.02,0c0-.02,0-.06.04-.09,0-.02.03-.04.06-.05,0,0,0-.02,0-.02,0,0,0,0-.02,0-.02.02-.05.03-.07.06-.02.04-.04.07-.04.11,0,0,0,0,0,0Z"/>
          <path class="cls-1" d="M65.5,16.87s.05,0,.09,0c0,0,.02.02.03.03h0s0,0,0,0c0,0,0,0,0-.02s-.02-.02-.04-.02c-.05-.02-.09,0-.11,0t0,.02s0,0,.02,0Z"/>
          <path class="cls-1" d="M64.76,17.37s0,0-.02,0c0,0,0,0,0,.02,0,0,.03.02.07.02,0,0,.02,0,.04,0,0,0,.02-.02.03-.03,0,0,0,0,0-.02h-.02s-.02.02-.02.02c-.05.02-.09,0-.1-.02Z"/>
          <path class="cls-1" d="M64.46,17.23s-.04.04-.04.09c0,.02,0,.03.02.05h.02v-.02s-.02-.02-.02-.03c0-.04.02-.07.03-.07,0,0,0,0,0-.02h-.02Z"/>
          <path class="cls-1" d="M64.29,17.26s.02-.07.02-.08c0,0,0-.02,0-.02t-.02,0s-.03.06-.02.11c0,.02.02.03.03.05h.02v-.02s-.02-.02-.02-.04Z"/>
          <path class="cls-1" d="M64.83,17.87s0,.02.02.02h0s0,0,0-.02c0-.05.02-.09.03-.13.02-.04.05-.06.07-.08s.05-.04.07-.08c.02-.05.02-.1,0-.17,0,0,0,0-.02,0t0,.02c.02.06,0,.11,0,.15,0,.03-.03.05-.06.07-.02.02-.05.05-.07.08-.02.05-.04.1-.04.15Z"/>
          <path class="cls-1" d="M64.59,17.67s.05-.02.07-.05t0-.02s0,0-.02,0c-.02.02-.04.03-.07.05-.04.02-.09.03-.13.03,0,0-.02,0-.02,0,0,0,0,.02.02.02h0s.1-.02.14-.04Z"/>
          <path class="cls-1" d="M64.65,17.72s-.02-.02-.21.12v.02h.02c.08-.06.13-.08.15-.1h0s.02.02.02,0c.02-.02.03-.03.02-.04Z"/>
          <path class="cls-1" d="M65.11,17.76s0,0,0,0c.02-.02.03-.06.03-.11,0-.06-.02-.11-.03-.12,0,0,0,0-.02,0,0,0,0,.02,0,.02,0,.02.03.07.02.12,0,.04-.02.07-.03.1,0,0,0,0,0,.02h0Z"/>
          <path class="cls-1" d="M64.67,18.28s.02-.05.04-.09c.02-.03.04-.05.06-.07,0,0,.02-.02.02-.03.02-.04.02-.08.02-.13,0,0,0,0-.02,0h0c0,.06,0,.09-.02.12,0,.02,0,.02-.02.03-.02.02-.03.03-.06.07-.03.04-.04.07-.04.11,0,.02,0,.03,0,.05,0,0,0,0,0,0h0s.02,0,0-.02c0-.02,0-.03,0-.04Z"/>
          <path class="cls-1" d="M64.74,18.73h.02c.03-.06.05-.11.05-.16,0-.03-.02-.06-.03-.08,0-.02-.02-.05-.02-.07,0-.06,0-.11.03-.17,0,0,0-.02,0-.02,0,0,0,0-.02,0-.03.07-.04.12-.03.18,0,.03.02.06.03.08,0,.02.02.04.02.07,0,.05-.02.09-.04.14,0,0,0,.02,0,.02Z"/>
          <path class="cls-1" d="M64.61,18.47s0,0,0-.02h-.02s-.05.07-.06.12c0,.02,0,.05,0,.07,0,0,0,0,0,0h0s.02,0,.02,0c0-.02,0-.05,0-.07,0-.06.03-.09.05-.12Z"/>
          <path class="cls-1" d="M64.61,18.8s-.02,0-.02,0c-.03.05-.07.1-.1.13-.02.02-.04.05-.07.07,0,0,0,0,0,.02h.02s.04-.04.07-.07c.04-.04.08-.08.1-.14h0Z"/>
          <path class="cls-1" d="M64.98,17.79s-.04.07-.06.12c-.03.04-.04.08-.07.12,0,0,0,0,0,0t0,0h0s.04-.09.07-.13c.02-.04.03-.07.05-.12,0,0,0,0,0-.02,0,0-.02,0-.02,0Z"/>
          <path class="cls-1" d="M65.07,17.9s-.02,0-.02,0c-.02.07-.05.12-.09.17-.02.02-.03.03-.05.04-.02.02-.03.03-.04.06,0,.02-.02.05.02.2.02.05.03.1.05.15,0,0,0,0,0,0h0s0,0,0-.02c-.02-.05-.03-.09-.04-.14-.02-.07-.03-.15-.02-.19.02-.02.02-.03.04-.05.02,0,.03-.02.05-.04.04-.05.07-.11.1-.18,0,0,0,0,0,0Z"/>
          <path class="cls-1" d="M65.04,18.07s0,0,0,.02c0,0,.06.12,0,.19,0,0-.02.02-.03.03v.02h.02s.02-.02.04-.04c.06-.08,0-.2-.02-.21,0,0,0,0-.02,0Z"/>
          <path class="cls-1" d="M65.19,18.6v.05c0,.07-.02.13-.07.2,0,0,0,.02,0,.02h.02c.04-.07.07-.14.07-.22v-.05s0-.04,0-.07c0-.08,0-.15,0-.22.02-.08.02-.13.02-.16.02-.08.08-.15.17-.21v-.02s0,0-.02,0c-.09.07-.15.14-.17.22-.02.03-.02.07-.02.17,0,.07-.02.12-.02.22,0,.03,0,.06,0,.07Z"/>
          <path class="cls-1" d="M64.91,18.75s-.13.07-.18.17c-.02.02-.05.11-.03.2,0,.04.02.07.03.09.02.03.03.07.03.11,0,.03,0,.06-.03.08,0,0,0,.02,0,.02h.02s.02-.07.02-.09c0-.06-.02-.09-.03-.12,0-.02-.02-.05-.02-.08-.02-.09.02-.16.03-.19.04-.09.12-.13.17-.15,0,0,0,0,0-.02s0,0-.02,0Z"/>
          <path class="cls-1" d="M64.87,19.65c-.03-.08.02-.17.03-.19,0,0,0,0,0,0,0,0,0,0-.02,0,0,.02-.07.11-.03.21.02.02.02.04.04.07h.02s0-.02,0-.02c0-.02-.02-.04-.03-.06Z"/>
          <path class="cls-1" d="M64.59,19.61s-.02-.02-.02-.02c-.02-.02-.02-.07.02-.14,0,0,0,0,0-.02t-.02,0c-.03.07-.03.12-.02.17l.02.02s.02.02.02.03c0,.02,0,.04,0,.06,0,0,0,.02,0,.02h.02s.02-.06.02-.07c0-.02-.02-.04-.03-.05Z"/>
          <path class="cls-1" d="M65.39,19.73s-.05,0-.07.02c-.02,0-.03.03-.04.06,0,.02-.02.04-.05.07-.02.02-.03.03-.04.03h0s-.07-.09-.1-.17c0,0,0-.02,0,0,0,0-.02,0-.02,0,.02.05.06.2.12.2h0s.04-.02.06-.04c.03-.03.04-.06.05-.07,0-.02.02-.04.04-.05.02,0,.03-.02.06-.02,0,0,.02,0,.02,0s0-.02-.02-.02Z"/>
          <path class="cls-1" d="M65.13,20.07s-.02,0-.02.02c0,.12-.04.2-.09.22-.02,0-.03.02-.05.02-.02,0-.04.02-.05.04,0,.02.02.06.1.1h.02s0-.02,0-.02c-.08-.05-.08-.07-.08-.08s.02,0,.03-.02c.02,0,.03,0,.05-.02.07-.03.1-.12.11-.25,0,0,0-.02,0-.02Z"/>
          <path class="cls-1" d="M64.95,20.6s0,0,0,.02c0,.02.02.07-.02.12-.02.04-.06.06-.07.07,0,0,0,0,0,.02h.02s.07-.02.09-.07c.03-.07.02-.12.02-.15,0,0,0,0-.02,0Z"/>
          <path class="cls-1" d="M64.39,20.33s-.02,0-.02,0c0,.02-.02.04-.02.06v.07s0,0,.02,0h0s0,0,0,0v-.06s0-.04.02-.06t0-.02Z"/>
          <path class="cls-1" d="M65.74,19.27s-.02,0-.02,0c0,.05-.02.1-.03.14-.02.07-.06.12-.1.17,0,0,0,.02,0,.02t0,0h0c.03-.06.07-.12.09-.18.02-.04.03-.09.04-.14,0,0,0-.02,0-.02Z"/>
          <path class="cls-1" d="M65.7,19.1s0,0-.02,0c-.03.06-.07.12-.12.17-.06.07-.12.13-.14.12s-.03-.11-.02-.19c0-.02,0-.02,0-.04,0,0,0-.02,0-.03.02-.07.02-.13,0-.2h0s-.02,0-.02,0c0,.06,0,.12,0,.18,0,.02,0,.03,0,.04,0,0,0,.02,0,.04,0,0-.02.19.04.22h.02s.08-.06.15-.13c.04-.06.08-.12.12-.17,0,0,0-.02,0-.02Z"/>
          <path class="cls-1" d="M65.44,18.52v-.02h-.02c-.05.04-.08.09-.08.13,0,.03,0,.06,0,.08,0,.02,0,.04,0,.07s-.03.07-.08.11c0,0,0,0,0,0,0,0,0,0,0,0h0c.05-.03.08-.07.09-.12,0-.03,0-.06,0-.08,0-.02,0-.04,0-.07,0-.04.03-.08.07-.12Z"/>
          <path class="cls-1" d="M65.17,18.98h-.02c-.07.07-.09.14-.08.21,0,.03.02.07.04.09s.04.06.06.11c.02.04.02.09.02.15,0,0,0,0,.02,0h0c0-.07,0-.12-.02-.17-.02-.05-.04-.08-.06-.11-.02-.03-.04-.06-.04-.09,0-.05.02-.12.08-.18v-.02Z"/>
          <path class="cls-1" d="M65.29,19.49s0,.02,0,.02h.02s.02-.03.02-.05c.02-.07-.02-.13-.03-.16,0,0-.02,0-.02,0,0,0,0,.02,0,.02.02.02.04.08.02.14,0,.02,0,.03-.02.04Z"/>
          <path class="cls-1" d="M65.65,18.67s-.02.08-.04.1h0v-.02c0-.06,0-.13-.05-.2,0,0-.02,0-.02,0,0,0,0,.02,0,.02.04.07.06.13.06.19,0,0,0,0,0,.02,0,.02,0,.03,0,.04h.02s.06-.07.07-.13c0-.04,0-.09-.02-.13,0,0-.02,0-.02,0,0,0,0,0,0,.02,0,.02.02.07.02.12Z"/>
          <path class="cls-1" d="M65.39,18.08s0,0,0,.02c.02.03.02.07.02.1,0,.02,0,.03,0,.04,0,.02,0,.03,0,.04h0s.08-.05.11-.07c.04-.04.08-.1.11-.16,0,0,0,0,0-.02,0,0-.02,0-.02,0-.03.06-.07.11-.11.15-.03.03-.07.06-.08.07v-.02s0-.02.02-.05c0-.03,0-.07-.02-.11,0,0-.02,0-.02,0Z"/>
          <path class="cls-1" d="M66.03,18.83s-.08,0-.11-.02c-.02-.02-.02-.06-.02-.11,0-.02,0-.07,0-.1,0-.08-.05-.17-.12-.24,0,0,0,0-.02,0v.02c.07.07.11.15.12.22,0,.04,0,.07,0,.1,0,.05,0,.1.03.12.02.02.04.03.07.03.02,0,.03,0,.05,0,0,0,0,0,0-.02,0,0,0,0-.02,0Z"/>
          <path class="cls-1" d="M66.01,19.1s0,0-.02,0c-.05.08-.07.17-.07.23,0,.02.02.05.02.07.02.03.02.06,0,.08,0,.02-.03.04-.07.05,0,0,0,0,0,.02s0,0,.02,0h0s.07-.03.09-.06c.02-.04,0-.07,0-.11,0-.02,0-.04-.02-.06,0-.07,0-.14.07-.22,0,0,0-.02,0-.02Z"/>
          <path class="cls-1" d="M65.9,19.13s0,0,0,0h0s.02,0,0-.02c0-.02,0-.04-.03-.06-.02-.04-.04-.08-.07-.12,0,0-.02,0-.02,0,0,0,0,.02,0,.02.03.04.06.07.07.12,0,.02.02.04.02.06Z"/>
          <path class="cls-1" d="M66.17,18.99s0,.05,0,.05h0s.02,0,.02-.03c.02-.04.03-.12.08-.13,0,0,.04,0,.09.03.03,0,.05.02.07.02.02,0,.03.02.05,0t.05-.14s0-.02.02-.03h0s0-.04,0-.04t-.03.07s-.03.11-.04.12c0,0-.02,0-.03,0s-.03-.02-.07-.02c-.06-.02-.09-.03-.11-.02-.03,0-.06.04-.07.08v-.04c0-.09-.03-.17-.1-.27h-.02s0,.02,0,.02c.06.08.09.17.09.25v.09Z"/>
          <path class="cls-1" d="M66.6,19.29s0,0,0-.02h-.02s-.05.04-.08.07c-.09.06-.18.1-.23.12.02,0,.04-.02.06-.04.07-.07.12-.17.13-.29,0,0,0,0,0,0s0,0,0,0c-.02.12-.07.21-.13.27-.02.02-.05.04-.07.06-.02.02-.03.02-.03.03,0,0,0,0,0,0h0s.17-.06.28-.13c.02-.02.05-.04.07-.07Z"/>
          <path class="cls-1" d="M66.75,19.13s0,0,0,0c0,.09-.02.17-.06.26-.02.04-.03.08-.06.12,0,0,0,.02,0,.02,0,0,0,0,0,0h0s.05-.09.07-.13c.03-.08.05-.17.06-.27,0,0,0,0-.02,0Z"/>
          <path class="cls-1" d="M67.07,19.08s0,0-.02,0c-.02.06-.06.12-.09.17-.04.05-.09.1-.14.14,0,0,0,0,0,.02h.02s.1-.09.14-.14c.04-.06.07-.12.1-.17,0,0,0-.02,0-.02Z"/>
          <path class="cls-1" d="M66.93,19.54s0,0-.02,0c0,0,0,.02,0,.02.04.07.07.13.07.21,0,.09,0,.17-.02.17,0,0-.02-.02-.02-.04-.02-.04-.04-.1-.09-.17-.02-.03-.04-.06-.07-.08,0,0,0,0-.02,0,0,0,0,.02,0,.02.02.03.05.06.07.08.05.07.07.12.09.17,0,.03.02.06.04.06h0s.04-.13.04-.2c0-.07-.04-.15-.08-.22Z"/>
          <path class="cls-1" d="M66.09,19.65s0,0-.02,0v.02c.06.07.1.15.12.24,0,.04.02.09,0,.13,0,0,0,.02,0,.02h.02c0-.06,0-.11,0-.16-.02-.09-.06-.17-.12-.25Z"/>
          <path class="cls-1" d="M66.36,20.15s-.05.06-.06.11c-.02.05,0,.09,0,.12,0,0,0,0,0,0h0s.02,0,0-.02c0-.02-.02-.06,0-.1.02-.05.04-.08.06-.1,0,0,0,0,0-.02h-.02Z"/>
          <path class="cls-1" d="M66.66,20.16s-.02,0-.02,0c-.02.05-.05.09-.09.13-.02.02-.03.03-.06.05v.02h.02s.04-.03.06-.05c.04-.04.07-.09.1-.14t0-.02Z"/>
          <path class="cls-1" d="M65.95,20.88s0,0,0,.02c0,.04,0,.09-.05.11-.03.02-.07.02-.11,0t-.02,0s0,.02,0,.02c.02.02.04.02.07.02s.04,0,.06-.02c.05-.02.07-.08.07-.14,0,0,0,0-.02,0Z"/>
          <path class="cls-1" d="M67.43,19.4c.06-.03.06-.12.07-.21v-.15s0-.06,0-.06c0,0,.04.03.05.05.03.03.05.06.07.04,0,0,.02,0-.02-.14-.03-.07-.07-.15-.12-.22,0,0,0,0-.02,0,0,0,0,0,0,.02.04.07.08.14.11.22.02.06.03.09.03.11,0,0-.02-.02-.02-.03-.03-.03-.07-.07-.09-.06-.02,0-.02.03,0,.08v.15c0,.07,0,.16-.06.19-.03.02-.06.02-.08,0,0,0,0-.04,0-.07,0-.04.02-.08,0-.11-.02-.02-.05-.02-.09-.02,0,0,0,0,0,0,0,0,0,.02.02.02.02,0,.05,0,.06,0,.02.02,0,.05,0,.08,0,.03-.02.07,0,.09.02,0,.02.02.04.02.02,0,.05,0,.07-.02Z"/>
          <path class="cls-1" d="M67.26,18.93s-.02,0-.02,0c-.02.05-.04.1-.06.15,0,.02-.02.03-.02.05,0,.02-.03.06-.03.06,0,0,0,0-.02-.02,0,0,0-.02-.02,0,0,0,0,0,0,.02,0,.02.02.04.04.04h0s.03-.02.04-.08c0,0,.02-.02.02-.04.02-.05.04-.1.06-.14,0,0,0-.02,0-.02Z"/>
          <path class="cls-1" d="M66.8,18.83s0,.07-.02.1c0,0,0,.02,0,.02h.02s.02-.08.02-.12c0-.07-.03-.12-.05-.15,0,0-.02,0-.02,0,0,0,0,.02,0,.02.02.03.05.07.05.14Z"/>
          <path class="cls-1" d="M66.36,18.49h0s.02,0,.02,0v-.17s0,0,0,0c0,0,0,0,0,0l-.02.17s0,.02,0,.02Z"/>
          <path class="cls-1" d="M66.44,18.65h0s.05-.02.07-.05c.03-.04.02-.1,0-.14,0,0,0,0-.02,0,0,0,0,.02,0,.02.02.04.02.08,0,.12-.02.03-.04.04-.06.05,0,0,0,0,0,0,0,0,0,0,.02,0Z"/>
          <path class="cls-1" d="M67.13,18.66s0,0-.02,0c-.02,0-.05,0-.07-.02s-.02-.06,0-.09c0,0,0-.02,0-.02,0,0-.02,0-.02,0-.02.04-.02.1,0,.12.02.02.05.03.07.03,0,0,.02,0,.02,0s0,0,0-.02Z"/>
          <path class="cls-1" d="M67.89,18.65s0,0,0,.02c.05.08.05.17.02.19,0,0-.02,0-.06,0,0,0-.02,0-.02.02,0,0,0,0,0,0,0,0,.02,0,.03,0,.02,0,.04,0,.05-.02.04-.03.05-.12-.02-.22,0,0,0,0-.02,0Z"/>
          <path class="cls-1" d="M68.12,18.56s-.02,0-.02,0c0,0,0,.02,0,.02.03.02.05.04.05.07s0,.05-.02.05c0,0,0,.02,0,.02,0,0,0,0,0,0,0,0,0,0,0,0,0,0,.02-.03.02-.07s-.02-.07-.06-.09Z"/>
          <path class="cls-1" d="M68.28,18.54s0,0,0,.02c.02.02.02.06,0,.08,0,0-.02.02-.02.02,0,0-.02,0,0,.02,0,0,0,0,0,0h0s.02-.02.03-.02c.02-.03.02-.07,0-.12,0,0-.02,0-.02,0Z"/>
          <path class="cls-1" d="M68.57,18.5s0,0-.02,0c0,0,0,.02,0,.02l.03.06s0,0,.02,0h0s0-.02,0-.02l-.03-.06Z"/>
          <path class="cls-1" d="M67.73,19.34s0,0,0,0,0,0,0,.02c0,.07,0,.12-.02.17,0,0,0,.02-.02.03-.02.02-.03.06-.04.1v.03s-.03-.04-.08-.15c0,0-.02,0-.02,0,0,0,0,.02,0,.02.07.14.09.17.11.17h0s0-.02.02-.04h0s.02-.08.03-.11c0,0,.02-.02.02-.03.02-.05.03-.11.02-.18Z"/>
          <path class="cls-1" d="M67.77,19.86s-.02,0-.02,0c-.03.06-.04.12-.03.17,0,.05,0,.09.02.14h0s0,0,0,0c0,0,0,0,0,0-.02-.04-.02-.08-.03-.13,0-.06.02-.12.04-.17t0-.02Z"/>
          <path class="cls-1" d="M67.5,19.98s.03.05.04.08c0,.02,0,.03,0,.05t0,0h0s0,0,0,0c0-.02,0-.03,0-.05,0,0-.02-.1-.07-.11-.03,0-.04.02-.06.05,0-.04-.02-.09-.07-.15,0,0,0,0-.02,0v.02c.06.06.07.12.07.16,0,.02,0,.02,0,.03,0,.02,0,.02,0,.03,0,0,.02,0,.02-.02,0-.02.04-.09.06-.09Z"/>
          <path class="cls-1" d="M67.63,20.45s-.02,0-.02.02,0,.07-.06.09c-.04.02-.08.02-.1.02,0,0,0,0,0,0,0,0,0,0,0,0s.02,0,.02,0c.02,0,.06,0,.08-.02.06-.04.07-.11.07-.12s0-.02,0-.02Z"/>
          <path class="cls-1" d="M67.29,20.71s-.02,0-.02.02c0,0,0,.05-.03.07-.02.02-.05.02-.06.02s0,0,0,0c0,0,0,.02,0,.02h0s.04,0,.07-.02c.05-.04.04-.1.04-.11h0Z"/>
          <path class="cls-1" d="M67.18,20.96s-.06.05-.09.07c-.02.02-.04.03-.07.04,0,0,0,0,0,.02t0,0h0s.04-.02.07-.04c.03-.02.06-.04.08-.07,0,0,0-.02,0-.02,0,0-.02,0-.02,0Z"/>
          <path class="cls-1" d="M67.3,20.19s-.02,0-.02,0v.13s0,.02.02.02c0,0,0,0,0-.02v-.13h0Z"/>
          <path class="cls-1" d="M66.49,19.86v-.07s0,0,0,0,0,0,0,0v.07s0,0,0,0,0,0,0,0Z"/>
          <path class="cls-1" d="M65.79,19.73s-.02,0-.02,0c0,0,0,.02,0,.02l.04.04s0,0,0,0h0s0-.02,0-.02l-.03-.04Z"/>
        </g>
      </g>
    </g>
  </g>
</svg>