<?xml version="1.0" encoding="UTF-8"?>
<svg id="Layer_1" data-name="Layer 1" xmlns="http://www.w3.org/2000/svg" viewBox="0 0 118.61 79.07">
  <defs>
    <style>
      .cls-1, .cls-2, .cls-3, .cls-4 {
        stroke-width: 0px;
      }

      .cls-2 {
        fill: #cc1426;
      }

      .cls-3 {
        fill: #be920c;
      }

      .cls-4 {
        fill: #fff;
      }
    </style>
  </defs>
  <g>
    <rect class="cls-2" x="0" y="0" width="118.62" height="26.36"/>
    <rect class="cls-1" x="0" y="52.72" width="118.62" height="26.35"/>
    <rect class="cls-4" x="0" y="26.36" width="118.62" height="26.36"/>
  </g>
  <g>
    <path class="cls-3" d="M54.57,50.34l.16-.56s0-.08-.03-.11-.07-.03-.1-.02l-.16.05c-.06.02-.08.07-.07.13.02.04.06.07.11.07l-.08.28-.42-.12.16-.46s0-.08-.02-.11c-.03-.02-.07-.04-.11-.02l-.15.04c-.06.02-.08.07-.07.12.02.04.06.07.1.07l-.1.3-.29-.08.32-1.04s0-.09-.05-.12c-.04-.02-.09-.02-.13.02s-.21.05-.36.03c-.06,0-.11.03-.12.09s.03.11.09.12.18.02.3,0l-.15.49c-.35,0-.48.3-.49.32,0,.02,0,.06,0,.08.02.02.03.05.07.06l.35.12h0l.45.12s.02.02.03.02h.05l.59.16s.02,0,.02,0c.05,0,.09-.03.1-.08ZM53.28,49.89l-.12-.04s.08-.07.16-.09l-.04.13Z"/>
    <path class="cls-3" d="M56.7,49.4l-.07.07s-.03.05-.03.07v.47c0,.4-.13.74-.17.79-.02.02-.05.03-.07.03,0-.04,0-.12,0-.17,0-.02,0-.04,0-.06-.02-.06-.09-.12-.22-.12h-.02s-.03-.1-.06-.15l.24-.07s.06-.04.07-.07,0-.07-.02-.09l-.15-.17-.17-.22s-.04-.04-.07-.04c-.02,0-.06,0-.07.03l-.12.11s-.15.1-.26.15c-.03.02-.05.05-.06.08,0,.03.02.07.04.09l.21.18s-.09.09-.15.1c-.09.02-.26-.02-.38-.05.02-.2-.06-.37-.07-.38-.03-.05-.09-.07-.14-.04s-.07.08-.04.13c0,0,.09.2.02.36-.05.11-.18.18-.35.22-.06,0-.09.07-.08.12,0,.05.05.08.1.08,0,0,.02,0,.02,0,.23-.05.39-.15.48-.3.11.03.33.08.47.07.14-.02.24-.12.3-.2.02.04.05.08.05.1,0,.18.13.18.23.18h0c-.02.14,0,.29.1.33.03.02.07.02.11.02.08,0,.16-.03.22-.09.09-.1.23-.52.23-.94v-.42l.05-.04s.03-.11,0-.15c-.04-.03-.11-.03-.15,0ZM55.86,50.18l-.14-.12c.07-.04.14-.09.17-.12l.03-.03.1.13s0,0,0,0l.05.06-.22.07Z"/>
    <path class="cls-3" d="M57.14,50.72l.07-.97s.07,0,.11-.02c.04-.03.04-.1,0-.14l-.12-.12s-.07-.04-.11-.02c-.04,0-.07.05-.07.09l-.08,1.18c0,.06.03.11.09.11h0c.06,0,.1-.04.11-.09Z"/>
    <path class="cls-3" d="M60.11,50.38s-.02-.06-.05-.07c-.02-.02-.06-.02-.08,0-.02,0-.37.13-.42.44h-.15l-.02-.28s-.05-.09-.1-.09l-1.05-.05v-.12s-.02-.07-.04-.08c-.02-.02-.06-.02-.09-.02l-.12.05c-.06.02-.08.07-.07.12s.07.08.12.07v.34l-.17-.02c-.04-.17-.17-.32-.17-.32-.04-.04-.1-.04-.14,0-.05.04-.05.11,0,.15.04.05.17.22.12.34-.03.11-.2.18-.47.22-.05,0-.09.06-.08.12,0,.05.05.09.1.09h.02c.36-.05.57-.17.64-.37v-.02l.97.07c0,.07.04.18.12.25.03.02.08.06.17.06h.05c.19-.03.26-.19.27-.32h.71s.06-.02.07-.04c.02-.02.03-.06.02-.09l-.12-.44ZM59.11,51.07s-.04,0-.05,0c-.03-.03-.05-.13-.04-.18,0-.06-.04-.11-.1-.12l-.69-.05v-.17l.95.05.03.28s.02.18-.1.2ZM59.77,50.75c.03-.09.11-.15.17-.19l.05.19h-.23Z"/>
    <path class="cls-3" d="M61.54,50.12s-.07-.02-.1,0c-.05.02-.11.06-.13.06-.05,0-.09.05-.09.11s.04.1.1.1c0,0,.03,0,.07,0v.27l-.3.04-.12-1.12s-.03-.07-.07-.08-.07,0-.11.02l-.11.09s-.04.11,0,.15c.03.03.07.04.11.03l.06.53c-.23.1-.36.27-.36.5h0s0,.05,0,.07c.02.04.03.06.11.06.07,0,.19-.02.41-.04h0l.5-.07s.08-.05.08-.1v-.53s-.02-.07-.05-.09ZM60.7,50.74c.02-.06.06-.13.17-.19l.02.17c-.07,0-.13,0-.18.02Z"/>
    <path class="cls-3" d="M61.96,50.2s-.11-.02-.15.02c-.03.04-.02.11.02.15,0,0,.27.22.19.44s-.31.24-.32.24c-.06,0-.1.05-.09.11,0,.05.04.1.1.1h0s.37-.03.5-.38-.24-.66-.26-.67Z"/>
    <path class="cls-3" d="M65.71,49.88l-.42.07c-.05-.17-.17-.55-.28-.79-.09-.19-.22-.25-.32-.27-.14-.02-.28.04-.33.09-.04.04-.04.11,0,.15s.11.04.14,0c.02-.02.09-.05.17-.03.07.02.12.07.16.14.11.23.22.6.27.77l-.21.08s0,0,0,0c-.38-.17-.42-.13-.47-.09-.03.03-.12.16-.18.23l-.1.03c-.04-.15-.13-.38-.33-.38-.07,0-.14,0-.22.02-.02-.08-.04-.17-.06-.25,0-.06-.07-.1-.12-.08-.05,0-.09.07-.07.12.02.07.03.17.06.26-.03.02-.07.03-.08.05h0c-.07.05-.17.15-.17.43l-.16.02c-.03-.25-.07-.3-.12-.32-.03-.02-.07,0-.1.02h0l-.36.26s-.05.07-.03.11l.03.15c0,.06.06.09.12.08l.27-.05c-.03.21-.23.26-.25.26-.05,0-.09.05-.09.11,0,.05.04.1.1.1.04,0,.2-.04.32-.17.07-.08.12-.2.12-.32l.57-.09c.04.12.08.22.12.25.05.05.11.07.17.07.06,0,.12-.02.17-.03.04-.02.18-.08.18-.2v-.19l.08-.02s.02,0,.02.02c.1.03.34.12.46.07.1-.03.14-.14.16-.22l.33-.13.51-.08c.06,0,.09-.07.08-.12,0-.05-.07-.09-.12-.08ZM62.59,50.52l.17-.12s0,.06,0,.09l-.17.03ZM63.34,50.39c0-.18.06-.22.07-.23,0,0,0,0,.02,0,.02.07.03.14.06.22l-.15.02ZM63.63,50.1s.11-.02.17-.02c.04,0,.09.1.12.21l-.22.04c-.02-.07-.04-.15-.07-.23ZM63.98,50.63s-.07.05-.13.05h-.03s-.03-.07-.06-.14l.22-.04v.13ZM64.69,50.33s-.13,0-.24-.04c.03-.04.06-.08.08-.11.04,0,.11.03.18.07,0,.04-.02.07-.02.08Z"/>
    <path class="cls-3" d="M60.58,49.79c0-.07-.06-.12-.12-.12-.07,0-.12.06-.12.12,0,.07.05.13.12.13.07,0,.12-.06.12-.13Z"/>
    <path class="cls-3" d="M53.16,49.39c.07,0,.12-.06.12-.12,0-.07-.06-.12-.12-.12s-.13.05-.13.12c0,.07.06.12.13.12Z"/>
    <circle class="cls-3" cx="53.22" cy="50.32" r=".12"/>
    <path class="cls-3" d="M53.57,50.3c-.07,0-.12.06-.12.12,0,.07.06.13.12.13s.12-.06.12-.13c0-.07-.06-.12-.12-.12Z"/>
    <circle class="cls-3" cx="54.11" cy="50.58" r=".12"/>
    <circle class="cls-3" cx="60.5" cy="50.13" r=".12"/>
    <circle class="cls-3" cx="60.88" cy="51.18" r=".12"/>
    <circle class="cls-3" cx="61.19" cy="51.15" r=".12"/>
    <circle class="cls-3" cx="65.34" cy="50.49" r=".12"/>
    <path class="cls-3" d="M68.55,48.29s0-.02,0-.02h0c0-.21-.02-.4-.02-.59l-.05-1.09c-.03-.48-.04-.97-.07-1.47l-.33-7.56c-.02-.59-.05-1.17-.07-1.76l-.13-2.95c-.02-.52-.31-1.38-1-1.51-1.09-.2-2.05.32-2.9.77-.18.1-.36.19-.52.27-.37.18-1.09.28-1.82.33-.09-.16-.19-.34-.28-.57-.09-.22-.17-.47-.22-.77-.12-.68-.1-1.26-.08-1.72,0-.16.02-.3.02-.44,0-.58-.09-1.02-.27-1.36,0-.02-.02-.04-.03-.07-.19-.3-.46-.49-.8-.56-.28-.06-.5-.11-.65-.14-.39-.09-.47-.11-.59-.06-.07.04-.12.09-.14.14-.21-.06-.73-.19-1.07-.12-.24.06-.47.14-.57.42,0,0,0,.02,0,.04,0,0,0,.02-.02.03-.03.15-.04.33-.03.57,0,0,0,0,0,0h0v.02s0,0,0,0h0s0,0,0,.02h0s0,0,0,0h0l.02.02h.02s0,0,.02,0h.03s0,0,.02,0h0s0,0,0,0c0,0,0,0,0,0h0s0,0,0-.02h0s.04-.02.12-.06c.04-.02.09-.03.11-.04.07-.02.15-.03.22-.02.22.04.38.27.51.45.07.12.12.22.14.37.02.11.03.22.04.34.02.33,0,.59-.06.82l-.02.08c-.14.54-.43,1.7-1.07,2.61-.76-.05-1.51-.14-1.88-.33-.17-.08-.34-.17-.53-.27-.85-.45-1.81-.97-2.9-.77-.69.12-.98.99-1,1.51l-.13,2.95c-.02.58-.05,1.17-.07,1.76l-.33,7.56c-.02.49-.04.98-.07,1.47l-.05,1.09c0,.19-.02.38-.03.58h0s0,.02,0,.03c-.02.03,0,.07.02.09.02.02.04.02.07.02.02,0,.04,0,.06-.02h0l1.08-.97c.11-.1.23-.21.36-.32l.07-.06,1.41-1.26h0s.06-.06.06-.06l.71-.64c.16-.13.32-.27.47-.42.02-.02.04-.04.07-.06.17-.16.33-.31.51-.46l-.96,3.39c-.16-.05-.32-.11-.47-.17-.12-.05-.27-.03-.37.04,0,0,0,0,0,.02h0c-.1.02-.54.11-.74.44-.1.17-.12.37-.07.59-.02.08-.05.17-.07.27-.17.02-.47.13-.74.65h-.21c-.07,0-.12.04-.12.1,0,.06.03.12.09.12l.17.05c.02.2.12.67.43.85.02.04.02.1.03.17.02.22.07.53.47.69.5.2,3.66.75,6.3.72.42,0,.85,0,1.27,0h.17c2.61,0,5.63-.53,6.12-.72.41-.16.45-.47.47-.69,0-.07.02-.12.03-.17.32-.17.41-.65.43-.85l.17-.05c.06,0,.1-.07.09-.12s-.06-.1-.12-.1h-.22c-.27-.52-.57-.63-.74-.65-.02-.11-.04-.19-.07-.27.06-.22.03-.42-.07-.59-.2-.33-.64-.42-.74-.44h0s0,0,0-.02c-.1-.07-.24-.09-.37-.04-.16.07-.32.12-.47.17l-.96-3.39c.19.17.38.34.57.52.13.12.27.24.41.37.02.02.04.03.07.05l.77.69h0s.41.37.41.37l1.06.95c.12.12.25.22.36.32l1.08.97h0s.04.02.06.02c.02,0,.05,0,.07-.02.02-.02.03-.06.02-.09ZM59.16,27.58c.1,0,.17.08.17.17,0,.1-.07.18-.17.18s-.18-.08-.18-.18c0-.09.08-.17.18-.17ZM57.13,32.91l.12-.17c.03-.06.08-.12.11-.17.04-.06.07-.12.11-.18.02-.02.03-.06.05-.08.02-.03.03-.07.05-.09.03-.07.07-.13.09-.2,0-.02.02-.03.02-.06.02-.03.04-.07.05-.11.02-.04.04-.07.06-.12h0s.02-.04.02-.07c.02-.04.03-.09.06-.14l.02-.07s.03-.09.05-.13c.03-.09.07-.18.09-.27,0-.02.02-.04.02-.07,0-.02.02-.05.02-.07s0-.05.02-.08c.08-.25.13-.47.17-.64l.02-.09c.07-.24.08-.52.06-.87,0-.12-.02-.24-.04-.36,0-.03-.02-.07-.03-.1.1-.08.28-.03.55-.03-.58-.88-.93-.96-1.23-1.03-.27-.04-.39.13-.45.25-.02,0-.05.02-.07.03,0,0-.02,0-.03,0,0-.09,0-.18,0-.28,0-.02,0-.05.02-.07,0,0,0-.02,0-.02,0-.03.02-.06.05-.09.06-.07.14-.09.23-.11.12-.02.23-.03.36-.02.1,0,.18.02.26.09.15.14.32.26.49.37.11.07.27.17.41.17.03,0,.08.08.1.1.04.04.1.07.16.07.11,0,.18-.05.23-.13.03-.05.13-.09.17-.11.1-.04.2-.07.3-.1.12-.02.23-.04.35-.04.12,0,.29,0,.38.09.02.02.02.04.03.06.03.05.06.12.08.17.03.08.07.18.09.27.06.25.08.5.08.76v.09c0,.13,0,.28,0,.43-.02.47-.04,1.06.07,1.77.1.56.3.99.48,1.32.03.06.07.12.11.17.04.07.07.12.12.17-.26-.02-.44-.08-.57-.15-.12-.06-.18-.12-.21-.13,0-.02,0-.02-.02-.03-.02-.07-.05-.13-.07-.21-.1-.24-.2-.48-.27-.72-.18-.59-.24-1.67-.24-1.67,0-.05-.04-.09-.09-.08-.05,0-.08.04-.08.09,0,.04.06,1.11.25,1.72.07.25.17.5.27.74.02.05.04.1.06.14.02.07.04.12.07.18.06.15.1.28.12.38-.24-.04-.59-.21-.82-.37-.07-.06-.13-.11-.17-.16,0,0,0-.02,0-.02-.14-.63-.13-2.66-.13-2.69,0-.04-.04-.08-.09-.08s-.08.03-.08.08c0,.09,0,2,.13,2.69,0,.02,0,.03,0,.05-.03.04-.06.08-.1.13-.05.05-.11.12-.22.23l-.11.11s-.05-.03-.07-.05c-.08-.07-.18-.18-.28-.29-.05-.07-.1-.12-.14-.18h0c.42-.66.51-1.57.56-2.74,0-.05-.03-.09-.08-.09-.05,0-.09.03-.09.08-.06,1.2-.14,2.12-.61,2.75-.04.07-.09.12-.15.18-.13.14-.3.27-.5.37.02-.11.04-.25.08-.38,0-.06.02-.12.03-.17,0-.02,0-.04,0-.06.33-.44.65-1.22.85-2.61,0-.05-.02-.09-.07-.1s-.09.02-.1.07c-.22,1.55-.59,2.31-.95,2.68-.07.07-.13.12-.2.17-.12.08-.22.13-.33.17-.11.02-.2.04-.29.05.07-.07.13-.16.19-.23ZM55.88,43.8l.39,1.02s.02.03.05.04c.02,0,.05,0,.06-.03l.65-.87.32,1.62c-.32.47-.61.87-.73,1.04-.06-.18-.19-.55-.38-1.1,0-.02-.03-.04-.06-.04s-.04,0-.06.02l-.68,1.02-.52-1.77.96-.95ZM55.43,36.75c.07.47.17.93.31,1.38l-.22,5.25s-.04.04-.07.06c-.05.05-.11.1-.16.14-.05.05-.11.1-.16.14l.29-6.97ZM63.48,43.72s-.11-.09-.16-.14c-.05-.04-.11-.09-.16-.14-.02-.02-.04-.04-.07-.06l-.22-5.25c.13-.45.24-.91.31-1.38l.29,6.97ZM62.9,47.94l.33-1.12.63.94c-.33.08-.66.14-.97.18ZM62.76,47.94l-.55-.75s-.04-.03-.06-.02c-.03,0-.05.02-.06.03l-.32.83c-.22,0-.42,0-.6,0l-.21-.98.26-1.3c.75,1.09.76,1.09.82,1.07.03,0,.04-.02.04-.06.02-.06.22-.65.37-1.07l.67,1-.37,1.26ZM62.63,47.97c-.26.03-.49.05-.71.06l.26-.67.45.61ZM60.05,48.64s.03.04.04.07c.03.05.07.08.11.12,0,.02,0,.03,0,.04-.02.11-.12.16-.22.22-.03.02-.07.05-.11.07-.1.07-.13.12-.17.17-.07-.19-.11-.34-.12-.47-.02-.1-.02-.17,0-.24,0-.07.03-.12.06-.15.07-.11.2-.13.29-.13-.02.07,0,.13.05.18.03.02.05.06.07.11h0ZM59.97,48.2c-.21,0-.36.06-.45.19-.04.06-.07.14-.08.22h-.25c0-.08-.04-.17-.08-.22-.09-.13-.24-.19-.45-.19-.05-.07-.15-.17-.37-.2-.08,0-.22,0-.42,0-.08,0-.19,0-.3,0l.15-.71.31.49s.06.04.08.02l.5-.43s.02-.02.02-.04l.38-2.99-.19,3.01s0,.03,0,.04l.43.51s.07.03.08,0l.43-.51s0-.02,0-.04l-.19-3.01.38,2.99s0,.02.02.04l.5.43s.07.02.08-.02l.31-.49.15.71c-.11,0-.22,0-.3,0-.2,0-.33-.02-.41,0-.22.03-.32.13-.37.2ZM59.05,48.86c-.02.12-.06.27-.12.47-.03-.06-.07-.11-.17-.17-.03-.02-.07-.05-.11-.07-.11-.06-.2-.11-.22-.22,0,0,0-.02,0-.04.04-.03.08-.07.11-.12.02-.02.03-.05.04-.07h0c.02-.06.05-.09.07-.12.05-.05.07-.11.05-.18.09,0,.22.02.29.13.02.03.05.08.06.15.02.07.02.14,0,.24ZM56.52,47.2s-.03-.03-.06-.03c-.02,0-.04,0-.06.02l-.55.75-.37-1.26.67-1c.15.42.36,1.02.37,1.07,0,.03.02.05.05.06.06.02.07.02.82-1.07l.26,1.3-.21.98c-.17,0-.38,0-.6,0l-.32-.83ZM56.69,48.02c-.22,0-.45-.02-.71-.05l.45-.61.26.66ZM55.72,47.94c-.31-.04-.63-.1-.97-.18l.63-.94.33,1.12ZM57.48,45.6s.02,0,.02-.02c.25-.36.49-.72.66-.95l-.45,2.09-.22-1.12ZM57.68,41.68c.12.14.25.28.38.42l-.88,1.07-.1-.96c.21-.18.41-.37.6-.54ZM58.15,42.19c.14.14.28.28.43.42h0l-.31,1.45-.47-1.46.34-.42ZM61.54,42.22l-.1.96-.88-1.07c.13-.14.26-.28.38-.42.19.17.39.36.6.54ZM60.46,42.19l.34.42-.47,1.46-.31-1.45c.15-.14.29-.28.43-.42ZM60.46,44.63c.17.23.41.59.66.95,0,0,0,0,.02.02l-.22,1.12-.45-2.09ZM61.16,45.42c-.26-.37-.53-.77-.77-1.12l.51-1.57.53.65s.05.02.07.02c.02,0,.04-.02.04-.05l.11-1.02c.43.39.9.81,1.38,1.24.05.05.11.1.16.15.06.04.11.09.17.14l.06.05s.04.05.07.07l.15.53-.89-.87s-.03-.02-.06-.02c-.02,0-.04.02-.05.03l-.37,1-.67-.9s-.04-.03-.07-.02-.04.02-.05.05l-.33,1.64ZM63.12,35.08l.03.81c-.04.62-.14,1.23-.29,1.82-.37,1.44-1.05,2.75-2.02,3.89-.27.32-.58.63-.91.93h0s0,0,0,0c-.02.02-.05.04-.07.07-.02.02-.05.04-.07.06-.04.04-.09.07-.13.12-.11.09-.22.19-.34.28-.12-.09-.23-.19-.34-.28-.04-.04-.09-.07-.13-.12-.02-.02-.05-.04-.07-.06-.02-.02-.04-.05-.07-.07h0c-.32-.31-.63-.62-.91-.94-.97-1.14-1.66-2.45-2.02-3.89-.15-.58-.24-1.19-.29-1.82l.03-.81c2.17-.08,3.35-.78,3.72-1.05.04-.03.07-.05.09-.07.02.02.05.04.09.07.37.27,1.55.97,3.72,1.05ZM55.19,43.91l.06-.05c.06-.05.11-.1.17-.14.05-.05.11-.1.16-.15.48-.43.95-.85,1.38-1.24l.11,1.02s.02.05.04.05c.02,0,.06,0,.07-.02l.53-.65.51,1.57c-.23.34-.51.74-.77,1.12l-.32-1.64s-.02-.04-.05-.05c-.03,0-.05,0-.07.02l-.67.9-.37-1s-.02-.03-.05-.03c-.02,0-.04,0-.06.02l-.89.87.15-.53s.05-.04.07-.07ZM54.84,44.96l.5,1.69-.72,1.07c-.17-.04-.34-.09-.52-.15l.73-2.61ZM53.18,47.54l.02-.02s.02,0,.02-.02c.07-.05.15-.06.23-.03.17.07.33.13.49.18.64.22,1.24.35,1.79.42.26.03.5.05.72.07.1,0,.19,0,.28,0,.05,0,.1,0,.14,0h.53s.08,0,.13,0c.12,0,.23,0,.33,0,.18-.02.32-.02.38,0,.2.02.27.12.3.17.02.06.02.11,0,.12-.04.03-.07.08-.1.13,0,.02-.02.04-.04.07h0s-.07.08-.11.11c-.06.04-.12.07-.19.07-.34.02-.72.03-1.12.02-.29,0-.59-.02-.91-.06,0,0,0-.02,0-.02.02-.09.02-.17.02-.24-.02-.16-.13-.27-.22-.34,0,0-.02-.02-.03-.02-.04-.02-.08-.04-.12-.04h-.05s-.06,0-.09,0h0c-.14.05-.25.15-.29.29,0,.02-.02.04-.02.06-.02.07-.02.12-.02.18h0c-.26-.03-.52-.08-.74-.13-.72-.15-1.23-.31-1.32-.35l-.02-.03v-.02s-.03-.1-.04-.17c-.02-.08-.02-.18-.02-.27,0-.04.02-.08.07-.12ZM55.4,48.49s0-.05.02-.07c.04-.09.11-.16.21-.19.02,0,.04,0,.06,0,.04,0,.07,0,.11.03.1.06.17.14.18.24.02.07.02.15,0,.23-.02.06-.04.12-.08.19h0s-.04.05-.07.08c-.04.05-.11.12-.16.2-.02-.04-.06-.08-.08-.13-.08-.12-.17-.24-.18-.42,0-.05,0-.11.02-.17ZM52.49,47.92c.12-.2.36-.3.52-.34-.02.02-.02.06-.02.08,0,.07,0,.16.02.24,0,.07.02.14.03.2-.03,0-.06.02-.08.03-.08.02-.16.06-.22.08-.15.07-.23.13-.29.2-.02-.07-.03-.12-.03-.18,0-.12.02-.22.07-.32ZM66.93,49.54s.02.02.02.03c-.02.19-.1.63-.33.72-.03,0-.05.03-.07.06-.04.08-.05.17-.07.27-.03.2-.05.4-.33.51-.4.15-3.52.72-6.21.7h-1.28c-2.69.02-5.81-.55-6.21-.7-.27-.11-.3-.31-.32-.51-.02-.1-.02-.19-.07-.27-.02-.02-.03-.05-.07-.06-.23-.09-.32-.53-.33-.72,0,0,.02-.02.02-.03.31-.62.64-.58.64-.58.03,0,.07,0,.09-.02.02-.02.04-.05.05-.07.02-.15.04-.27.08-.36.09-.08.22-.17.53-.27,0,.02.02.02.02.03.06.07,1.03.34,2.16.52.03.15.11.27.18.37.07.1.12.17.11.25,0,.04.02.07.06.07h0s.06-.02.07-.05c.02-.14.13-.25.21-.32.03-.04.07-.07.08-.11h0s.03-.07.05-.1c.47.05.92.07,1.35.07.25,0,.5,0,.73-.02.05,0,.11-.02.16-.04.04.16.18.23.29.3.03.02.07.04.1.06.09.07.11.1.13.17.02.02.03.06.06.1,0,.02.03.03.05.03h0s.04-.02.06-.04c.11-.25.17-.47.19-.65h.25c.02.18.09.4.19.65.02.02.03.04.06.04h0s.04,0,.05-.03c.02-.04.04-.07.06-.1.03-.07.04-.1.13-.17.03-.02.07-.03.1-.06.12-.07.25-.14.29-.3.05.02.11.03.16.04.23.02.48.02.73.02.42,0,.87-.02,1.35-.07.02.02.03.06.05.09h0s.05.07.08.12c.07.07.18.18.21.32,0,.03.03.05.07.05h0s.06-.03.06-.07c0-.07.04-.15.11-.25.07-.1.15-.22.19-.37,1.12-.18,2.1-.46,2.16-.52,0,0,.02-.02.02-.03.32.11.44.19.53.27.04.09.07.21.08.36,0,.02.02.06.05.07.02.02.06.03.09.02,0,0,.33-.04.64.58ZM62.64,48.49c.02-.1.08-.18.18-.24.03-.02.07-.03.11-.03.02,0,.04,0,.06,0,.1.03.17.1.21.19,0,.02,0,.04.02.07.02.06.02.12.02.17,0,.17-.1.3-.18.42-.02.05-.06.09-.08.13-.05-.08-.12-.15-.16-.2-.03-.03-.07-.06-.07-.08h0c-.04-.07-.07-.13-.08-.19-.02-.08-.03-.17,0-.23ZM66.13,47.92c.05.09.07.2.07.32,0,.06-.02.12-.03.18-.06-.07-.14-.12-.29-.2-.06-.02-.13-.06-.22-.08-.02-.02-.05-.02-.08-.03.02-.06.02-.13.03-.2.02-.08.02-.17.02-.24,0-.02,0-.06-.02-.08.16.04.39.14.52.34ZM64.67,47.65c.16-.05.32-.11.49-.18.08-.02.17-.02.23.03,0,0,.02,0,.02.02l.02.02s.07.08.07.12c0,.09,0,.19-.02.27,0,.07-.02.12-.03.17v.02s-.02.03-.02.03c-.08.04-.59.2-1.32.35-.22.05-.48.1-.74.14h0c0-.07,0-.12-.02-.19,0-.02,0-.03-.02-.06-.04-.14-.15-.24-.29-.29h0s-.06-.02-.09-.02h-.05s-.08.02-.12.05c0,0-.02.02-.03.02-.09.07-.2.17-.22.34,0,.07,0,.15.02.24,0,0,0,0,0,.02-.32.03-.62.05-.91.06-.4.02-.77,0-1.12-.02-.07,0-.13-.02-.19-.07-.04-.02-.07-.06-.11-.1h0s-.03-.05-.04-.07c-.03-.05-.06-.1-.1-.13-.02-.02-.02-.07,0-.12.02-.05.1-.14.3-.17.06,0,.2,0,.38,0,.1,0,.21,0,.33,0,.04,0,.09,0,.13,0h.52s.09,0,.14,0c.09,0,.18,0,.28,0,.22-.02.47-.03.72-.07.55-.07,1.15-.2,1.79-.42ZM64.51,47.57c-.17.06-.35.11-.52.15l-.72-1.07.5-1.69.73,2.61ZM63.7,44.75l-.52,1.77-.68-1.02s-.03-.02-.06-.02-.05.02-.06.04c-.19.55-.32.92-.38,1.1-.12-.17-.41-.57-.73-1.04l.32-1.62.65.87s.03.03.06.03c.03,0,.04-.02.05-.04l.39-1.02.96.95ZM67.38,47.22c-.1-.08-.2-.17-.3-.27l-.07-.06-.58-14.14c-.21.22-.52.52-.92.87l.52,12.38-.41-.37h0l-.07-.06-.48-11.62c-.23.17-.47.32-.73.48l.43,10.44c-.13-.12-.27-.25-.41-.37-.02-.02-.04-.04-.07-.06l-.4-9.76c-.19.1-.39.19-.59.28-.02-.02-.03-.04-.06-.04-2.39-.06-3.61-.9-3.86-1.08-.03-.02-.05-.03-.05-.04-.02-.02-.06-.02-.08,0,0,0-.02.02-.05.04-.24.18-1.46,1.02-3.86,1.08-.02,0-.04.02-.05.04-.21-.09-.41-.18-.6-.28l-.4,9.76s-.05.03-.07.06c-.14.12-.28.24-.41.37l.43-10.44c-.26-.16-.5-.32-.72-.48l-.48,11.62-.07.06h0l-.41.37.52-12.38c-.41-.34-.72-.65-.92-.87l-.58,14.14-.07.06c-.1.09-.2.18-.3.27l.62-14.72c-.28.07-.74.35-.94.47v-.11c.02-.5.31-1.24.87-1.34.16-.02.31-.04.46-.04.85,0,1.62.42,2.32.79.18.1.36.19.53.28.38.18,1.09.28,1.82.34-.08.11-.18.21-.28.31-.02.03-.03.07,0,.11,0,.02.04.04.07.04h.02s.11-.02.17-.02c.24-.02.57-.06.9-.36-.03.2-.07.42-.07.51,0,.03.02.06.04.07.02,0,.03.02.05.02,0,0,.02,0,.03,0,.35-.16.61-.37.81-.61,0,0,.02-.02.02-.02l.02.02c.12.16.34.41.51.51.03,0,.04.02.06.02.02,0,.02,0,.03,0,.02,0,.04,0,.07-.02l.02-.03c.26-.26.35-.36.42-.46.25.24.83.54,1.16.54.05,0,.09-.04.09-.09,0-.09-.03-.21-.07-.35.17.09.45.18.84.18.03,0,.07-.02.08-.05.02-.02,0-.06,0-.09l-.02-.02c-.04-.06-.09-.12-.15-.21.36-.03.72-.07,1.02-.12.32-.06.58-.12.77-.22.17-.09.35-.18.53-.28.7-.37,1.47-.79,2.32-.79.15,0,.3.02.46.04.56.1.84.84.86,1.34v.11c-.19-.12-.65-.39-.93-.47l.62,14.72Z"/>
    <path class="cls-3" d="M53.33,47.79s.42.08.59.21c0,0,.02.02.03.02.02,0,.04-.02.06-.03.02-.02,0-.07-.02-.09-.19-.13-.63-.22-.64-.22-.04,0-.07.02-.08.05,0,.03.02.07.06.07Z"/>
    <path class="cls-3" d="M54.39,48.11c.14.02.53.11.66.17,0,0,.02,0,.02,0,.02,0,.05,0,.06-.03.02-.02,0-.07-.02-.08-.17-.1-.67-.19-.69-.19-.03,0-.07.02-.08.05,0,.04.02.07.05.07Z"/>
    <path class="cls-3" d="M56.3,48.5s.03,0,.07,0c.12-.02.42-.05.62,0t.02,0s.06-.02.07-.05c0-.02,0-.04,0-.05,0-.02-.02-.02-.04-.03-.07-.02-.17-.02-.26-.02-.16,0-.32,0-.41.02-.02,0-.05,0-.06,0-.03,0-.07.03-.07.07s.03.07.07.07Z"/>
    <path class="cls-3" d="M57.45,48.57h0s.43-.07.69-.07c.03,0,.06-.03.06-.07s-.02-.07-.06-.07c-.22,0-.56.05-.67.07h-.03s-.03.02-.04.03c-.02,0-.02.02-.02.04,0,.03.03.06.07.06Z"/>
    <path class="cls-3" d="M64.66,48.01s.02,0,.03-.02c.17-.12.59-.21.59-.21.04,0,.06-.04.06-.07,0-.03-.04-.06-.08-.05-.02,0-.45.09-.64.22-.02.02-.03.07-.02.09.02.02.03.03.06.03Z"/>
    <path class="cls-3" d="M63.55,48.29s.02,0,.03,0c.13-.07.52-.15.66-.17.03,0,.06-.03.05-.07,0-.03-.04-.06-.07-.05-.02,0-.51.09-.69.19-.03.02-.04.06-.02.08,0,.02.03.03.06.03Z"/>
    <path class="cls-3" d="M62.31,48.37s-.03,0-.06,0c-.08,0-.24-.02-.41-.02h0c-.09,0-.18.02-.26.03-.02,0-.03.02-.04.03,0,0,0,.03,0,.05,0,.02.03.05.07.05t.02,0c.2-.05.49-.02.62,0,.04,0,.06,0,.07,0,.03,0,.07-.03.07-.07s-.03-.07-.07-.07Z"/>
    <path class="cls-3" d="M61.17,48.44h-.03c-.12-.02-.45-.07-.67-.07-.03,0-.06.03-.06.07s.02.07.06.07c.26,0,.68.07.69.07h0s.06-.02.07-.06c0-.02,0-.03,0-.04-.02-.02-.02-.02-.05-.03Z"/>
    <path class="cls-3" d="M59.34,34.27s-.05-.02-.07,0c-.02,0-.03.02-.06.03-.26.17-.68.4-1.29.6-.57.18-1.21.31-1.88.37-.07,0-.12,0-.19,0-.04,0-.08,0-.13,0-.03,0-.06.03-.06.07.02.49.06.97.13,1.43.27,1.72.98,3.26,2.11,4.6.02.02.02.03.04.05.14.17.28.32.43.47.12.12.24.24.37.36.17.17.34.32.52.47,0,0,.02.02.04.02.02,0,.03,0,.04-.02.18-.15.36-.3.52-.47.28-.26.55-.54.8-.83.02-.02.02-.03.04-.05.72-.85,1.26-1.78,1.63-2.79.22-.57.37-1.18.48-1.81.07-.47.12-.94.13-1.43,0-.03-.02-.06-.06-.07-.05,0-.09,0-.13,0-.07,0-.12,0-.19,0-.68-.07-1.31-.19-1.88-.37-.1-.03-.2-.07-.29-.11-.45-.17-.78-.35-1-.49-.02,0-.04-.02-.06-.03ZM60.65,35.02h.02v6.22s-.03.03-.05.06c0,.02-.02.03-.04.05-.18.22-.38.42-.58.62-.05.05-.1.1-.16.15-.17.16-.35.32-.53.47-.18-.16-.37-.32-.53-.47-.11-.1-.21-.2-.31-.3-.15-.16-.29-.32-.42-.47-.02-.02-.03-.03-.04-.05-.02-.02-.03-.04-.05-.06v-6.22h.02c.57-.19.98-.4,1.25-.57.03-.02.07-.04.09-.06.02.02.06.03.09.06.22.13.53.3.96.46.09.03.18.07.29.11Z"/>
  </g>
</svg>