<?xml version="1.0" encoding="UTF-8"?>
<svg id="Layer_1" data-name="Layer 1" xmlns="http://www.w3.org/2000/svg" viewBox="0 0 118.61 79.08">
  <defs>
    <style>
      .cls-1 {
        fill: #3c3b6e;
      }

      .cls-1, .cls-2, .cls-3 {
        stroke-width: 0px;
      }

      .cls-2 {
        fill: #b02233;
      }

      .cls-3 {
        fill: #fff;
      }
    </style>
  </defs>
  <g>
    <rect class="cls-3" y="54.74" width="118.61" height="6.09"/>
    <rect class="cls-2" y="48.67" width="118.61" height="6.08"/>
    <rect class="cls-3" y="42.58" width="118.61" height="6.09"/>
    <rect class="cls-2" y="60.83" width="118.61" height="6.08"/>
    <rect class="cls-2" y="73" width="118.61" height="6.08"/>
    <rect class="cls-3" y="66.91" width="118.61" height="6.09"/>
    <rect class="cls-3" y="6.09" width="118.61" height="6.08"/>
    <rect class="cls-2" width="118.61" height="6.09"/>
    <rect class="cls-2" y="12.16" width="118.61" height="6.09"/>
    <rect class="cls-2" y="24.33" width="118.61" height="6.09"/>
    <rect class="cls-3" y="18.25" width="118.61" height="6.08"/>
    <rect class="cls-3" y="30.42" width="118.61" height="6.08"/>
    <rect class="cls-2" y="36.49" width="118.61" height="6.09"/>
  </g>
  <g>
    <rect class="cls-1" width="60.06" height="42.58"/>
    <g>
      <g>
        <polygon class="cls-3" points="5 2.02 5.55 3.74 7.35 3.74 5.9 4.8 6.45 6.5 5 5.45 3.55 6.5 4.1 4.8 2.65 3.74 4.45 3.74 5 2.02"/>
        <polygon class="cls-3" points="55.05 2.02 55.61 3.74 57.41 3.74 55.95 4.8 56.51 6.5 55.05 5.45 53.6 6.5 54.15 4.8 52.7 3.74 54.49 3.74 55.05 2.02"/>
        <polygon class="cls-3" points="45.04 2.02 45.6 3.74 47.4 3.74 45.94 4.8 46.5 6.5 45.04 5.45 43.59 6.5 44.15 4.8 42.69 3.74 44.49 3.74 45.04 2.02"/>
        <polygon class="cls-3" points="35.03 2.02 35.59 3.74 37.38 3.74 35.94 4.8 36.49 6.5 35.03 5.45 33.58 6.5 34.13 4.8 32.68 3.74 34.48 3.74 35.03 2.02"/>
        <polygon class="cls-3" points="25.02 2.02 25.58 3.74 27.38 3.74 25.92 4.8 26.48 6.5 25.02 5.45 23.56 6.5 24.12 4.8 22.66 3.74 24.46 3.74 25.02 2.02"/>
        <polygon class="cls-3" points="15.01 2.02 15.57 3.74 17.37 3.74 15.91 4.8 16.47 6.5 15.01 5.45 13.56 6.5 14.11 4.8 12.66 3.74 14.45 3.74 15.01 2.02"/>
      </g>
      <g>
        <polygon class="cls-3" points="5 10.54 5.55 12.25 7.35 12.25 5.9 13.31 6.45 15.02 5 13.96 3.55 15.02 4.1 13.31 2.65 12.25 4.45 12.25 5 10.54"/>
        <polygon class="cls-3" points="55.05 10.54 55.61 12.25 57.41 12.25 55.95 13.31 56.51 15.02 55.05 13.96 53.6 15.02 54.15 13.31 52.7 12.25 54.49 12.25 55.05 10.54"/>
        <polygon class="cls-3" points="45.04 10.54 45.6 12.25 47.4 12.25 45.94 13.31 46.5 15.02 45.04 13.96 43.59 15.02 44.15 13.31 42.69 12.25 44.49 12.25 45.04 10.54"/>
        <polygon class="cls-3" points="35.03 10.54 35.59 12.25 37.38 12.25 35.94 13.31 36.49 15.02 35.03 13.96 33.58 15.02 34.13 13.31 32.68 12.25 34.48 12.25 35.03 10.54"/>
        <polygon class="cls-3" points="25.02 10.54 25.58 12.25 27.38 12.25 25.92 13.31 26.48 15.02 25.02 13.96 23.56 15.02 24.12 13.31 22.66 12.25 24.46 12.25 25.02 10.54"/>
        <polygon class="cls-3" points="15.01 10.54 15.57 12.25 17.37 12.25 15.91 13.31 16.47 15.02 15.01 13.96 13.56 15.02 14.11 13.31 12.66 12.25 14.45 12.25 15.01 10.54"/>
      </g>
      <g>
        <polygon class="cls-3" points="5 19.05 5.55 20.77 7.35 20.77 5.9 21.82 6.45 23.53 5 22.47 3.55 23.53 4.1 21.82 2.65 20.77 4.45 20.77 5 19.05"/>
        <polygon class="cls-3" points="55.05 19.05 55.61 20.77 57.41 20.77 55.95 21.82 56.51 23.53 55.05 22.47 53.6 23.53 54.15 21.82 52.7 20.77 54.49 20.77 55.05 19.05"/>
        <polygon class="cls-3" points="45.04 19.05 45.6 20.77 47.4 20.77 45.94 21.82 46.5 23.53 45.04 22.47 43.59 23.53 44.15 21.82 42.69 20.77 44.49 20.77 45.04 19.05"/>
        <polygon class="cls-3" points="35.03 19.05 35.59 20.77 37.38 20.77 35.94 21.82 36.49 23.53 35.03 22.47 33.58 23.53 34.13 21.82 32.68 20.77 34.48 20.77 35.03 19.05"/>
        <polygon class="cls-3" points="25.02 19.05 25.58 20.77 27.38 20.77 25.92 21.82 26.48 23.53 25.02 22.47 23.56 23.53 24.12 21.82 22.66 20.77 24.46 20.77 25.02 19.05"/>
        <polygon class="cls-3" points="15.01 19.05 15.57 20.77 17.37 20.77 15.91 21.82 16.47 23.53 15.01 22.47 13.56 23.53 14.11 21.82 12.66 20.77 14.45 20.77 15.01 19.05"/>
      </g>
      <g>
        <polygon class="cls-3" points="5 27.56 5.55 29.27 7.35 29.27 5.9 30.33 6.45 32.05 5 30.98 3.55 32.05 4.1 30.33 2.65 29.27 4.45 29.27 5 27.56"/>
        <polygon class="cls-3" points="55.05 27.56 55.61 29.27 57.41 29.27 55.95 30.33 56.51 32.05 55.05 30.98 53.6 32.05 54.15 30.33 52.7 29.27 54.49 29.27 55.05 27.56"/>
        <polygon class="cls-3" points="45.04 27.56 45.6 29.27 47.4 29.27 45.94 30.33 46.5 32.05 45.04 30.98 43.59 32.05 44.15 30.33 42.69 29.27 44.49 29.27 45.04 27.56"/>
        <polygon class="cls-3" points="35.03 27.56 35.59 29.27 37.38 29.27 35.94 30.33 36.49 32.05 35.03 30.98 33.58 32.05 34.13 30.33 32.68 29.27 34.48 29.27 35.03 27.56"/>
        <polygon class="cls-3" points="25.02 27.56 25.58 29.27 27.38 29.27 25.92 30.33 26.48 32.05 25.02 30.98 23.56 32.05 24.12 30.33 22.66 29.27 24.46 29.27 25.02 27.56"/>
        <polygon class="cls-3" points="15.01 27.56 15.57 29.27 17.37 29.27 15.91 30.33 16.47 32.05 15.01 30.98 13.56 32.05 14.11 30.33 12.66 29.27 14.45 29.27 15.01 27.56"/>
      </g>
      <g>
        <polygon class="cls-3" points="5 36.08 5.55 37.78 7.35 37.78 5.9 38.84 6.45 40.56 5 39.5 3.55 40.56 4.1 38.84 2.65 37.78 4.45 37.78 5 36.08"/>
        <polygon class="cls-3" points="55.05 36.08 55.61 37.78 57.41 37.78 55.95 38.84 56.51 40.56 55.05 39.5 53.6 40.56 54.15 38.84 52.7 37.78 54.49 37.78 55.05 36.08"/>
        <polygon class="cls-3" points="45.04 36.08 45.6 37.78 47.4 37.78 45.94 38.84 46.5 40.56 45.04 39.5 43.59 40.56 44.15 38.84 42.69 37.78 44.49 37.78 45.04 36.08"/>
        <polygon class="cls-3" points="35.03 36.08 35.59 37.78 37.38 37.78 35.94 38.84 36.49 40.56 35.03 39.5 33.58 40.56 34.13 38.84 32.68 37.78 34.48 37.78 35.03 36.08"/>
        <polygon class="cls-3" points="25.02 36.08 25.58 37.78 27.38 37.78 25.92 38.84 26.48 40.56 25.02 39.5 23.56 40.56 24.12 38.84 22.66 37.78 24.46 37.78 25.02 36.08"/>
        <polygon class="cls-3" points="15.01 36.08 15.57 37.78 17.37 37.78 15.91 38.84 16.47 40.56 15.01 39.5 13.56 40.56 14.11 38.84 12.66 37.78 14.45 37.78 15.01 36.08"/>
      </g>
      <g>
        <polygon class="cls-3" points="50.05 31.82 50.61 33.53 52.41 33.53 50.95 34.59 51.51 36.3 50.05 35.24 48.59 36.3 49.15 34.59 47.69 33.53 49.49 33.53 50.05 31.82"/>
        <polygon class="cls-3" points="40.04 31.82 40.59 33.53 42.39 33.53 40.94 34.59 41.49 36.3 40.04 35.24 38.58 36.3 39.14 34.59 37.68 33.53 39.48 33.53 40.04 31.82"/>
        <polygon class="cls-3" points="30.02 31.82 30.58 33.53 32.38 33.53 30.92 34.59 31.48 36.3 30.02 35.24 28.58 36.3 29.13 34.59 27.67 33.53 29.47 33.53 30.02 31.82"/>
        <polygon class="cls-3" points="20.02 31.82 20.57 33.53 22.37 33.53 20.92 34.59 21.47 36.3 20.02 35.24 18.56 36.3 19.12 34.59 17.66 33.53 19.46 33.53 20.02 31.82"/>
        <polygon class="cls-3" points="10.01 31.82 10.57 33.53 12.36 33.53 10.91 34.59 11.47 36.3 10.01 35.24 8.55 36.3 9.11 34.59 7.65 33.53 9.45 33.53 10.01 31.82"/>
      </g>
      <g>
        <polygon class="cls-3" points="50.05 23.31 50.61 25.02 52.41 25.02 50.95 26.08 51.51 27.78 50.05 26.73 48.59 27.78 49.15 26.08 47.69 25.02 49.49 25.02 50.05 23.31"/>
        <polygon class="cls-3" points="40.04 23.31 40.59 25.02 42.39 25.02 40.94 26.08 41.49 27.78 40.04 26.73 38.58 27.78 39.14 26.08 37.68 25.02 39.48 25.02 40.04 23.31"/>
        <polygon class="cls-3" points="30.02 23.31 30.58 25.02 32.38 25.02 30.92 26.08 31.48 27.78 30.02 26.73 28.58 27.78 29.13 26.08 27.67 25.02 29.47 25.02 30.02 23.31"/>
        <polygon class="cls-3" points="20.02 23.31 20.57 25.02 22.37 25.02 20.92 26.08 21.47 27.78 20.02 26.73 18.56 27.78 19.12 26.08 17.66 25.02 19.46 25.02 20.02 23.31"/>
        <polygon class="cls-3" points="10.01 23.31 10.57 25.02 12.36 25.02 10.91 26.08 11.47 27.78 10.01 26.73 8.55 27.78 9.11 26.08 7.65 25.02 9.45 25.02 10.01 23.31"/>
      </g>
      <g>
        <polygon class="cls-3" points="50.05 14.8 50.61 16.5 52.41 16.5 50.95 17.56 51.51 19.28 50.05 18.22 48.59 19.28 49.15 17.56 47.69 16.5 49.49 16.5 50.05 14.8"/>
        <polygon class="cls-3" points="40.04 14.8 40.59 16.5 42.39 16.5 40.94 17.56 41.49 19.28 40.04 18.22 38.58 19.28 39.14 17.56 37.68 16.5 39.48 16.5 40.04 14.8"/>
        <polygon class="cls-3" points="30.02 14.8 30.58 16.5 32.38 16.5 30.92 17.56 31.48 19.28 30.02 18.22 28.58 19.28 29.13 17.56 27.67 16.5 29.47 16.5 30.02 14.8"/>
        <polygon class="cls-3" points="20.02 14.8 20.57 16.5 22.37 16.5 20.92 17.56 21.47 19.28 20.02 18.22 18.56 19.28 19.12 17.56 17.66 16.5 19.46 16.5 20.02 14.8"/>
        <polygon class="cls-3" points="10.01 14.8 10.57 16.5 12.36 16.5 10.91 17.56 11.47 19.28 10.01 18.22 8.55 19.28 9.11 17.56 7.65 16.5 9.45 16.5 10.01 14.8"/>
      </g>
      <g>
        <polygon class="cls-3" points="50.05 6.28 50.61 7.99 52.41 7.99 50.95 9.05 51.51 10.77 50.05 9.71 48.59 10.77 49.15 9.05 47.69 7.99 49.49 7.99 50.05 6.28"/>
        <polygon class="cls-3" points="40.04 6.28 40.59 7.99 42.39 7.99 40.94 9.05 41.49 10.77 40.04 9.71 38.58 10.77 39.14 9.05 37.68 7.99 39.48 7.99 40.04 6.28"/>
        <polygon class="cls-3" points="30.02 6.28 30.58 7.99 32.38 7.99 30.92 9.05 31.48 10.77 30.02 9.71 28.58 10.77 29.13 9.05 27.67 7.99 29.47 7.99 30.02 6.28"/>
        <polygon class="cls-3" points="20.02 6.28 20.57 7.99 22.37 7.99 20.92 9.05 21.47 10.77 20.02 9.71 18.56 10.77 19.12 9.05 17.66 7.99 19.46 7.99 20.02 6.28"/>
        <polygon class="cls-3" points="10.01 6.28 10.57 7.99 12.36 7.99 10.91 9.05 11.47 10.77 10.01 9.71 8.55 10.77 9.11 9.05 7.65 7.99 9.45 7.99 10.01 6.28"/>
      </g>
    </g>
  </g>
</svg>