<?xml version="1.0" encoding="UTF-8"?>
<svg id="Layer_1" data-name="Layer 1" xmlns="http://www.w3.org/2000/svg" viewBox="0 0 118.61 79.07">
  <defs>
    <style>
      .cls-1, .cls-2, .cls-3, .cls-4 {
        stroke-width: 0px;
      }

      .cls-2 {
        fill: #cd1327;
      }

      .cls-3 {
        fill: #009d49;
      }

      .cls-4 {
        fill: #fcd118;
      }
    </style>
  </defs>
  <g>
    <polygon class="cls-2" points=".1 .06 .1 39.54 .1 79.01 39.57 79.01 39.57 39.54 39.57 .06 .1 .06"/>
    <polygon class="cls-4" points="79.05 .06 39.57 .06 39.57 39.54 79.05 39.54 118.51 39.54 118.51 .06 79.05 .06"/>
    <polygon class="cls-3" points="79.05 39.54 39.57 39.54 39.57 79.01 79.05 79.01 118.51 79.01 118.51 39.54 79.05 39.54"/>
  </g>
  <polygon class="cls-1" points="19.83 27.62 22.79 36.72 32.37 36.72 24.62 42.35 27.58 51.46 19.83 45.83 12.09 51.46 15.05 42.35 7.3 36.72 16.88 36.72 19.83 27.62"/>
</svg>