<?xml version="1.0" encoding="UTF-8"?>
<svg id="Layer_1" data-name="Layer 1" xmlns="http://www.w3.org/2000/svg" viewBox="0 0 118.61 79.08">
  <defs>
    <style>
      .cls-1 {
        fill: #2770b6;
      }

      .cls-1, .cls-2 {
        stroke-width: 0px;
      }

      .cls-2 {
        fill: #fff;
      }
    </style>
  </defs>
  <g>
    <rect class="cls-1" width="118.61" height="26.35"/>
    <rect class="cls-1" y="52.72" width="118.61" height="26.36"/>
    <rect class="cls-2" y="26.35" width="118.61" height="26.36"/>
  </g>
  <g>
    <polygon class="cls-1" points="59.31 35.83 60.33 38.95 63.61 38.95 60.95 40.88 61.97 44.02 59.31 42.08 56.65 44.02 57.66 40.88 55.01 38.95 58.3 38.95 59.31 35.83"/>
    <g>
      <g>
        <polygon class="cls-1" points="37.31 28.87 38.33 31.99 41.62 31.99 38.96 33.92 39.98 37.05 37.31 35.12 34.66 37.05 35.67 33.92 33.01 31.99 36.3 31.99 37.31 28.87"/>
        <polygon class="cls-1" points="37.31 42.03 38.33 45.15 41.62 45.15 38.96 47.09 39.98 50.21 37.31 48.28 34.66 50.21 35.67 47.09 33.01 45.15 36.3 45.15 37.31 42.03"/>
      </g>
      <g>
        <polygon class="cls-1" points="81.3 28.87 82.32 31.99 85.61 31.99 82.94 33.92 83.96 37.05 81.3 35.12 78.64 37.05 79.66 33.92 77 31.99 80.29 31.99 81.3 28.87"/>
        <polygon class="cls-1" points="81.3 42.03 82.32 45.15 85.61 45.15 82.94 47.09 83.96 50.21 81.3 48.28 78.64 50.21 79.66 47.09 77 45.15 80.29 45.15 81.3 42.03"/>
      </g>
    </g>
  </g>
</svg>