<?xml version="1.0" encoding="UTF-8"?>
<svg id="Layer_1" data-name="Layer 1" xmlns="http://www.w3.org/2000/svg" viewBox="0 0 118.61 79.07">
  <defs>
    <style>
      .cls-1 {
        fill: #28306d;
      }

      .cls-1, .cls-2, .cls-3, .cls-4 {
        stroke-width: 0px;
      }

      .cls-2 {
        fill: #148837;
      }

      .cls-3 {
        fill: #f39638;
      }

      .cls-4 {
        fill: #fff;
      }
    </style>
  </defs>
  <g>
    <rect class="cls-4" y="0" width="118.62" height="79.08"/>
    <rect class="cls-3" y="0" width="118.62" height="26.36"/>
    <rect class="cls-2" y="52.71" width="118.62" height="26.36"/>
  </g>
  <g>
    <path class="cls-1" d="M60.72,40.72s0-.02.02-.02c0,0,0,0,0-.02,0,0,.02-.02.02-.02,0-.02.02-.02.02-.03,0,0,0,0,0-.02,0,0,.02-.02.02-.02,0,0,.02-.02.02-.02,0,0,0-.02,0-.02l1.44,1.08,4.99,2.51-4.67-3.06-1.66-.71s0,0,0-.02c0,0,0-.02.02-.03,0,0,0-.02,0-.02,0,0,0-.02,0-.02,0-.02.02-.02.02-.03,0-.02,0-.02.02-.04,0,0,0,0,0-.02,0,0,0-.02,0-.02,0,0,0-.02,0-.03s0-.02,0-.02l1.67.68,5.47,1.13-5.3-1.75-1.78-.25s0-.02,0-.02v-.03s0-.02,0-.02v-.02s0-.02,0-.03c0-.02,0-.02,0-.04v-.08s0,0,0-.02l1.78.22,5.58-.32-5.58-.32-1.78.22s0-.02,0-.02v-.08s0-.02,0-.04c0,0,0-.02,0-.03v-.02s0-.02,0-.02v-.03s0-.02,0-.02l1.78-.25,5.3-1.75-5.47,1.13-1.67.68s0-.02,0-.02,0-.02,0-.03c0,0,0-.02,0-.02,0,0,0-.02,0-.02,0,0,0-.02-.02-.03,0,0,0-.02-.02-.03t0-.02s0-.02,0-.02c0,0,0-.02-.02-.03,0,0,0-.02,0-.02l1.66-.71,4.67-3.06-4.99,2.51-1.44,1.08s0,0,0-.02c0,0-.02-.02-.02-.02,0,0,0-.02-.02-.02,0,0,0,0,0-.02,0,0-.02-.02-.02-.03,0,0-.02-.02-.02-.02,0,0,0-.02,0-.02,0,0-.02-.02-.02-.02l-.02-.02-.02-.02,1.42-1.11,3.71-4.16-4.16,3.71-1.11,1.42-.02-.02s-.02-.02-.03-.02c0,0,0,0-.02-.02l-.02-.02s-.02-.02-.03-.02c0,0-.02-.02-.02-.02,0,0-.02,0-.02-.02,0,0-.02,0-.02-.02,0,0-.02,0-.02-.02,0,0-.02,0-.02,0l1.09-1.44,2.51-4.99-3.06,4.67-.7,1.66s-.02,0-.02,0c-.02,0-.02,0-.03-.02s-.02,0-.02-.02c0,0-.02,0-.02,0,0,0-.02,0-.03,0,0,0-.02,0-.03-.02,0,0,0,0-.02,0s-.02,0-.02,0c-.02,0-.02,0-.03,0,0,0-.02,0-.02,0l.67-1.67,1.14-5.46-1.75,5.3-.25,1.78s-.02,0-.02,0c0,0-.02,0-.03,0h-.02s-.02,0-.02,0h-.03s-.02,0-.04,0h-.05s-.02,0-.03,0h-.02l.22-1.78-.32-5.58-.32,5.58.22,1.78h-.02s-.02,0-.03,0h-.05s-.02,0-.03,0h-.03s-.02,0-.02,0h-.02s-.02,0-.03,0-.02,0-.02,0l-.25-1.78-1.75-5.3,1.13,5.46.67,1.67s0,0-.02,0c-.02,0-.02,0-.03,0s-.02,0-.02,0c0,0-.02,0-.03,0,0,0-.02,0-.03.02,0,0-.02,0-.03,0,0,0-.02,0-.02,0,0,0-.02,0-.02.02-.02,0-.02,0-.03.02,0,0-.02,0-.03,0l-.7-1.66-3.06-4.67,2.51,4.99,1.08,1.44s0,0-.02,0c0,0-.02.02-.02.02,0,0-.02.02-.02.02,0,0-.02,0-.02.02,0,0-.02.02-.03.02,0,0-.02,0-.02.02,0,0-.02,0-.02.02,0,0-.02,0-.02.02l-.02.02s0,0-.02.02l-1.11-1.42-4.16-3.71,3.71,4.16,1.42,1.11s0,0,0,.02c0,0-.02.02-.02.02,0,0-.02.02-.02.02,0,0,0,0-.02.02l-.02.02s0,.02-.02.03t-.02.02s0,.02-.02.02,0,.02-.02.02,0,.02-.02.02l-1.43-1.08-4.99-2.51,4.67,3.06,1.66.71s0,0-.02.02c0,0,0,.02,0,.03,0,0,0,.02-.02.02t0,.02s0,.02-.02.03c0,.02,0,.02,0,.03s0,.02,0,.02c0,0,0,.02,0,.02,0,0,0,.02-.02.03,0,0,0,.02,0,.02l-1.67-.68-5.46-1.13,5.3,1.75,1.78.25v.02s0,.02,0,.03v.02s0,.02,0,.02v.03s0,.02,0,.04v.02s0,.02,0,.02v.06l-1.79-.22-5.57.32,5.57.32,1.79-.22v.05s0,.02,0,.03v.02s0,.02,0,.04v.03s0,.02,0,.02v.02s0,.02,0,.03v.02l-1.78.25-5.3,1.75,5.46-1.13,1.67-.68s0,.02,0,.02c0,0,0,.02.02.03,0,0,0,.02,0,.02,0,0,0,.02,0,.02,0,.02,0,.02,0,.04,0,0,.02.02.02.03,0,0,0,0,0,.02,0,0,0,.02.02.02,0,0,0,.02,0,.03t.02.02l-1.66.71-4.67,3.06,4.99-2.51,1.43-1.08s0,0,.02.02,0,.02.02.02,0,.02.02.02,0,0,.02.02c0,0,0,.02.02.03l.02.02.02.02s0,.02.02.02c0,0,.02.02.02.02,0,0,0,0,0,.02l-1.42,1.11-3.71,4.16,4.16-3.71,1.11-1.42s0,.02.02.02l.02.02s.02,0,.02.02c0,0,0,0,.02.02,0,0,.02.02.02.02,0,0,.02.02.03.02,0,0,0,0,.02.02,0,0,.02,0,.02,0l.02.02s0,0,.02,0l-1.08,1.44-2.51,4.99,3.06-4.67.7-1.66s.02,0,.03,0c0,0,.02,0,.03.02,0,0,.02,0,.02,0,0,0,0,0,.02,0,0,0,.02.02.03.02.02,0,.02,0,.03.02,0,0,.02,0,.03,0,0,0,.02,0,.02,0s.02,0,.03,0t.02,0l-.67,1.67-1.13,5.46,1.75-5.3.25-1.78s.02,0,.02,0,.02,0,.03,0h.02s.02,0,.02,0h.03s.02,0,.03,0h.05s.02,0,.03,0h.02l-.22,1.78.32,5.58.32-5.58-.22-1.78h.02s.02,0,.03,0h.05s.02,0,.04,0h.03s.02,0,.02,0h.02s.03,0,.03,0c0,0,.02,0,.02,0l.25,1.78,1.75,5.3-1.14-5.46-.67-1.67s.02,0,.02,0c0,0,.02,0,.03,0,0,0,.02,0,.02,0s0,0,.02,0c.02,0,.02,0,.03-.02.02,0,.02,0,.03-.02,0,0,.02,0,.02,0,0,0,.02,0,.02,0,0,0,.02,0,.03-.02,0,0,0,0,.02,0l.7,1.66,3.06,4.67-2.51-4.99-1.09-1.44s.02,0,.02,0l.02-.02s.02,0,.02,0c0,0,0,0,.02-.02,0,0,.02-.02.02-.02.02,0,.02,0,.03-.02l.02-.02s.02,0,.02-.02c0,0,.02-.02.03-.02l.02-.02,1.11,1.42,4.16,3.71-3.71-4.16-1.42-1.11.02-.02.02-.02Z"/>
    <path class="cls-1" d="M59.31,28.95c-5.85,0-10.58,4.74-10.58,10.58s4.74,10.58,10.58,10.58,10.57-4.74,10.57-10.58-4.73-10.58-10.57-10.58ZM65.29,46.6c-.14-.18-.4-.25-.61-.12-.22.12-.31.42-.17.64,0,.02.02.03.04.06-.41.27-.84.52-1.29.73-.08-.22-.32-.34-.56-.28-.25.07-.4.32-.33.58,0,.02.02.04.02.06-.47.17-.95.29-1.44.38-.02-.23-.22-.42-.47-.42-.26,0-.47.21-.47.47,0,.02,0,.04,0,.07-.24.02-.47.02-.72.02-.26,0-.52,0-.77-.02.04-.24-.11-.47-.34-.52-.25-.07-.51.07-.57.33,0,.02,0,.04-.02.07-.49-.09-.97-.22-1.43-.39.1-.22.02-.47-.19-.6-.22-.12-.52-.05-.64.17-.02.02-.02.04-.02.07-.45-.22-.88-.47-1.29-.75.15-.19.14-.46-.03-.62-.18-.18-.48-.18-.67,0-.02.02-.02.03-.04.05-.37-.32-.72-.67-1.05-1.06.19-.14.25-.4.13-.61-.13-.22-.42-.3-.64-.17-.02.02-.04.02-.06.04-.28-.41-.53-.84-.74-1.29.22-.08.35-.32.28-.56-.07-.25-.32-.4-.57-.33-.02,0-.04.02-.07.02-.16-.47-.29-.94-.37-1.44.23-.02.42-.22.42-.46,0-.27-.21-.47-.47-.47-.02,0-.05,0-.07,0-.02-.23-.03-.47-.03-.72,0-.26.02-.52.03-.77.23.03.47-.12.52-.35.07-.25-.08-.51-.33-.57-.02,0-.04,0-.07,0,.09-.5.22-.97.39-1.44.22.1.47.02.59-.19.13-.22.06-.51-.17-.64-.02,0-.04-.02-.07-.02.22-.45.47-.88.75-1.29.18.15.45.14.62-.03s.18-.47,0-.67c-.02,0-.03-.02-.05-.04.32-.37.67-.72,1.05-1.04.14.18.41.25.62.12.23-.13.3-.42.17-.64-.02-.02-.03-.04-.04-.06.41-.27.83-.52,1.28-.73.09.22.33.34.57.28.25-.07.4-.33.33-.58,0-.02-.02-.04-.02-.06.46-.17.94-.29,1.43-.38.02.23.22.42.47.42.26,0,.47-.21.47-.47,0-.02,0-.05,0-.07.23-.02.47-.02.72-.02.26,0,.52,0,.77.02-.03.23.11.47.34.52.26.07.52-.08.58-.33,0-.02,0-.04,0-.07.49.09.97.22,1.43.39-.09.22-.02.47.19.59.23.13.52.06.65-.17,0-.02.02-.04.02-.07.45.22.88.47,1.28.75-.14.18-.13.46.03.62.18.18.48.18.67,0,.02-.02.03-.03.04-.05.37.32.73.67,1.05,1.06-.19.14-.25.4-.12.61.12.22.42.3.64.17.02-.02.03-.02.05-.04.28.41.53.84.74,1.29-.22.08-.34.32-.28.56.07.25.32.4.57.33.02,0,.05-.02.07-.02.17.47.29.94.38,1.44-.24.02-.42.22-.42.46,0,.27.22.47.47.47.02,0,.04,0,.07,0,.02.23.03.47.03.72,0,.26,0,.52-.03.77-.23-.03-.46.12-.52.35-.07.25.08.51.33.57.02,0,.05,0,.07,0-.09.49-.22.97-.38,1.43-.22-.09-.47-.02-.6.2-.12.22-.05.51.17.64.02,0,.04.02.06.02-.21.45-.47.88-.75,1.28-.18-.14-.45-.13-.62.04-.19.18-.19.47,0,.66,0,.02.03.03.05.04-.32.38-.67.73-1.06,1.05Z"/>
  </g>
</svg>