<?xml version="1.0" encoding="UTF-8"?>
<svg id="Layer_1" data-name="Layer 1" xmlns="http://www.w3.org/2000/svg" viewBox="0 0 118.61 79.07">
  <defs>
    <style>
      .cls-1 {
        fill: #1d9d41;
      }

      .cls-1, .cls-2, .cls-3 {
        stroke-width: 0px;
      }

      .cls-2 {
        fill: #d80e15;
      }

      .cls-3 {
        fill: #fff;
      }
    </style>
  </defs>
  <g>
    <g>
      <rect class="cls-2" x="0" y="52.71" width="118.61" height="26.36"/>
      <rect class="cls-3" x="0" y="26.35" width="118.61" height="26.36"/>
      <rect class="cls-1" x="0" y="0" width="118.61" height="26.35"/>
    </g>
    <g>
      <path class="cls-2" d="M64.67,37.76c-.12-.58-.3-1.11-.47-1.58-.7-1.9-1.54-2.86-1.54-2.86,0,0,.32,1.31.59,3.19.12.94.22,2.03.16,3.16-.02.56-.1,1.12-.22,1.67-.12.55-.29,1.07-.52,1.57-.21.52-.52.95-.82,1.38-.34.41-.68.81-1.07,1.14-.2.17-.41.34-.62.5.03-2.75.23-11.58.23-13.11l-1.12-.84-1.09.84c0,1.52.2,10.36.23,13.11-.21-.16-.42-.32-.62-.5-.39-.33-.73-.73-1.07-1.14-.3-.43-.62-.87-.82-1.38-.23-.49-.4-1.02-.52-1.57s-.2-1.12-.22-1.67c-.07-1.12.04-2.21.16-3.16.26-1.88.59-3.19.59-3.19,0,0-.84.97-1.54,2.86-.17.47-.35,1-.47,1.58-.12.58-.24,1.22-.27,1.88-.02.67-.02,1.38.1,2.1.11.72.33,1.43.63,2.1.29.67.71,1.26,1.13,1.79.45.51.95.92,1.45,1.27.26.19.53.35.8.48-.46.24-.87.43-1.18.57-.47.22-.73.36-.73.36,0,0,.28.02.79.03.26,0,.57,0,.92-.04.36-.02.76-.07,1.18-.18.02,0,.04,0,.07-.02.06.15.11.29.16.42.2.48.32.76.32.76,0,0,.13-.27.33-.76.05-.12.1-.27.16-.42.02,0,.04.02.06.02.43.12.83.16,1.19.18.35.05.66.05.91.04.51,0,.8-.03.8-.03,0,0-.27-.14-.73-.36-.32-.14-.72-.33-1.18-.57.27-.13.53-.29.8-.48.5-.34,1-.76,1.44-1.27.43-.53.85-1.12,1.14-1.79.29-.67.52-1.38.62-2.1.13-.72.13-1.42.1-2.1-.02-.67-.13-1.3-.26-1.88Z"/>
      <path class="cls-2" d="M53.13,44.47c-.12-.27-.19-.58-.28-.92-.08-.34-.21-.68-.29-1.06-.07-.38-.14-.78-.22-1.17-.02-.41-.07-.82-.08-1.23.03-.42-.02-.84.07-1.25.02-.21.04-.42.08-.62.06-.2.1-.41.15-.61.09-.41.23-.79.37-1.17.17-.36.29-.74.47-1.07.16-.34.33-.66.5-.96.33-.57.64-1.07.87-1.42.23-.35.37-.55.37-.55,0,0-.22.06-.57.23-.36.17-.84.47-1.37.94-.53.47-1.1,1.12-1.58,1.96-.12.21-.22.44-.33.67-.11.22-.22.46-.29.72-.07.26-.16.52-.22.77-.05.27-.09.55-.13.82-.1.55-.04,1.11-.03,1.65.03.54.19,1.05.28,1.55.14.47.34.91.51,1.32.17.4.42.72.61,1.04.19.32.39.58.6.78.2.22.37.39.52.53.29.28.47.42.47.42,0,0-.07-.25-.2-.66-.07-.21-.14-.45-.24-.72Z"/>
      <path class="cls-2" d="M68,38.55c-.04-.27-.07-.54-.12-.82-.07-.26-.15-.52-.23-.77-.07-.26-.18-.49-.28-.72-.12-.23-.22-.47-.33-.67-.48-.83-1.05-1.49-1.58-1.96-.53-.47-1.02-.77-1.37-.94-.36-.17-.57-.23-.57-.23,0,0,.14.2.37.55.22.34.52.84.87,1.42.16.3.33.62.5.96.18.33.3.72.47,1.07.12.38.28.77.37,1.17.04.2.09.41.14.61.03.2.05.41.08.62.09.41.03.83.07,1.25-.02.41-.07.82-.08,1.23-.09.39-.16.79-.22,1.17-.08.37-.21.72-.29,1.06-.09.34-.17.66-.28.92-.1.27-.17.51-.24.72-.13.41-.2.66-.2.66,0,0,.17-.14.47-.42.14-.14.32-.32.52-.53.22-.2.41-.47.6-.78.2-.32.44-.64.62-1.04.17-.41.36-.84.51-1.32.09-.5.24-1.01.28-1.55,0-.54.07-1.1-.04-1.65Z"/>
      <path class="cls-2" d="M57.95,31.98c.63,0,1.17-.48,1.35-1.15.19.67.72,1.15,1.36,1.15.79,0,1.44-.75,1.44-1.67,0-.18-.03-.36-.08-.52-.19.67-.72,1.15-1.36,1.15s-1.16-.47-1.35-1.13v-.02s0,.02,0,.02c-.19.66-.72,1.13-1.35,1.13s-1.17-.48-1.36-1.15c-.05.17-.08.34-.08.52,0,.92.64,1.67,1.44,1.67Z"/>
    </g>
  </g>
  <g>
    <g>
      <g>
        <rect class="cls-3" x="64.77" y="22.18" width="6.78" height=".46"/>
        <rect class="cls-3" x="64.77" y="25.98" width="4.73" height=".46"/>
        <rect class="cls-3" x="70.14" y="25.98" width="4.72" height=".46"/>
        <polygon class="cls-3" points="67.96 23.42 67.96 23.87 69.11 23.87 69.11 24.55 67.27 24.55 67.27 23.87 67.27 23.42 66.87 23.42 65.17 23.42 64.77 23.42 64.77 23.87 64.77 25.01 65.17 25.01 65.17 23.87 66.87 23.87 66.87 25.01 67.18 25.01 67.27 25.01 69.11 25.01 69.5 25.01 69.5 24.55 69.5 23.87 69.5 23.42 69.11 23.42 67.96 23.42"/>
        <polygon class="cls-3" points="72.7 24.99 73.38 24.99 73.78 24.99 74.47 24.99 74.86 24.99 74.86 24.53 74.86 22.18 74.47 22.18 74.47 24.53 73.78 24.53 73.78 22.18 73.38 22.18 73.38 24.53 72.7 24.53 72.7 22.18 72.31 22.18 72.31 23.42 70.54 23.42 70.15 23.42 70.15 23.87 70.15 24.53 70.15 24.99 70.54 24.99 71.53 24.99 71.53 24.53 70.54 24.53 70.54 23.87 72.31 23.87 72.31 24.53 72.31 24.99 72.7 24.99"/>
        <rect class="cls-3" x="65.82" y="24.53" width=".39" height=".47"/>
      </g>
      <g>
        <rect class="cls-3" x="106.83" y="22.18" width="6.78" height=".46"/>
        <rect class="cls-3" x="106.83" y="25.98" width="4.73" height=".46"/>
        <rect class="cls-3" x="112.2" y="25.98" width="4.73" height=".46"/>
        <polygon class="cls-3" points="110.02 23.42 110.02 23.87 111.17 23.87 111.17 24.55 109.33 24.55 109.33 23.87 109.33 23.42 108.94 23.42 107.23 23.42 106.83 23.42 106.83 23.87 106.83 25.01 107.23 25.01 107.23 23.87 108.94 23.87 108.94 25.01 109.24 25.01 109.33 25.01 111.17 25.01 111.56 25.01 111.56 24.55 111.56 23.87 111.56 23.42 111.17 23.42 110.02 23.42"/>
        <polygon class="cls-3" points="114.77 24.99 115.45 24.99 115.84 24.99 116.52 24.99 116.92 24.99 116.92 24.53 116.92 22.18 116.52 22.18 116.52 24.53 115.84 24.53 115.84 22.18 115.45 22.18 115.45 24.53 114.77 24.53 114.77 22.18 114.37 22.18 114.37 23.42 112.61 23.42 112.21 23.42 112.21 23.87 112.21 24.53 112.21 24.99 112.61 24.99 113.59 24.99 113.59 24.53 112.61 24.53 112.61 23.87 114.37 23.87 114.37 24.53 114.37 24.99 114.77 24.99"/>
        <rect class="cls-3" x="107.89" y="24.53" width=".39" height=".47"/>
      </g>
      <g>
        <rect class="cls-3" x="96.32" y="22.18" width="6.77" height=".46"/>
        <rect class="cls-3" x="96.32" y="25.98" width="4.72" height=".46"/>
        <rect class="cls-3" x="101.69" y="25.98" width="4.73" height=".46"/>
        <polygon class="cls-3" points="99.51 23.42 99.51 23.87 100.65 23.87 100.65 24.55 98.81 24.55 98.81 23.87 98.81 23.42 98.42 23.42 96.72 23.42 96.32 23.42 96.32 23.87 96.32 25.01 96.72 25.01 96.72 23.87 98.42 23.87 98.42 25.01 98.72 25.01 98.81 25.01 100.65 25.01 101.05 25.01 101.05 24.55 101.05 23.87 101.05 23.42 100.65 23.42 99.51 23.42"/>
        <polygon class="cls-3" points="104.25 24.99 104.93 24.99 105.33 24.99 106.01 24.99 106.4 24.99 106.4 24.53 106.4 22.18 106.01 22.18 106.01 24.53 105.33 24.53 105.33 22.18 104.93 22.18 104.93 24.53 104.25 24.53 104.25 22.18 103.86 22.18 103.86 23.42 102.09 23.42 101.7 23.42 101.7 23.87 101.7 24.53 101.7 24.99 102.09 24.99 103.08 24.99 103.08 24.53 102.09 24.53 102.09 23.87 103.86 23.87 103.86 24.53 103.86 24.99 104.25 24.99"/>
        <rect class="cls-3" x="97.37" y="24.53" width=".39" height=".47"/>
      </g>
      <g>
        <rect class="cls-3" x="85.81" y="22.18" width="6.77" height=".46"/>
        <rect class="cls-3" x="85.81" y="25.98" width="4.72" height=".46"/>
        <rect class="cls-3" x="91.17" y="25.98" width="4.73" height=".46"/>
        <polygon class="cls-3" points="89 23.42 89 23.87 90.14 23.87 90.14 24.55 88.3 24.55 88.3 23.87 88.3 23.42 87.91 23.42 86.2 23.42 85.81 23.42 85.81 23.87 85.81 25.01 86.2 25.01 86.2 23.87 87.91 23.87 87.91 25.01 88.21 25.01 88.3 25.01 90.14 25.01 90.53 25.01 90.53 24.55 90.53 23.87 90.53 23.42 90.14 23.42 89 23.42"/>
        <polygon class="cls-3" points="93.73 24.99 94.42 24.99 94.81 24.99 95.49 24.99 95.89 24.99 95.89 24.53 95.89 22.18 95.49 22.18 95.49 24.53 94.81 24.53 94.81 22.18 94.42 22.18 94.42 24.53 93.73 24.53 93.73 22.18 93.34 22.18 93.34 23.42 91.58 23.42 91.19 23.42 91.19 23.87 91.19 24.53 91.19 24.99 91.58 24.99 92.56 24.99 92.56 24.53 91.58 24.53 91.58 23.87 93.34 23.87 93.34 24.53 93.34 24.99 93.73 24.99"/>
        <rect class="cls-3" x="86.86" y="24.53" width=".39" height=".47"/>
      </g>
      <g>
        <rect class="cls-3" x="75.29" y="22.18" width="6.77" height=".46"/>
        <rect class="cls-3" x="75.29" y="25.98" width="4.73" height=".46"/>
        <rect class="cls-3" x="80.65" y="25.98" width="4.73" height=".46"/>
        <polygon class="cls-3" points="78.48 23.42 78.48 23.87 79.62 23.87 79.62 24.55 77.78 24.55 77.78 23.87 77.78 23.42 77.39 23.42 75.68 23.42 75.29 23.42 75.29 23.87 75.29 25.01 75.68 25.01 75.68 23.87 77.39 23.87 77.39 25.01 77.69 25.01 77.78 25.01 79.62 25.01 80.02 25.01 80.02 24.55 80.02 23.87 80.02 23.42 79.62 23.42 78.48 23.42"/>
        <polygon class="cls-3" points="83.22 24.99 83.9 24.99 84.29 24.99 84.98 24.99 85.38 24.99 85.38 24.53 85.38 22.18 84.98 22.18 84.98 24.53 84.29 24.53 84.29 22.18 83.9 22.18 83.9 24.53 83.22 24.53 83.22 22.18 82.83 22.18 82.83 23.42 81.06 23.42 80.67 23.42 80.67 23.87 80.67 24.53 80.67 24.99 81.06 24.99 82.04 24.99 82.04 24.53 81.06 24.53 81.06 23.87 82.83 23.87 82.83 24.53 82.83 24.99 83.22 24.99"/>
        <rect class="cls-3" x="76.34" y="24.53" width=".39" height=".47"/>
      </g>
      <g>
        <rect class="cls-3" x="54.26" y="22.18" width="6.78" height=".46"/>
        <rect class="cls-3" x="54.26" y="25.98" width="4.73" height=".46"/>
        <rect class="cls-3" x="59.63" y="25.98" width="4.72" height=".46"/>
        <polygon class="cls-3" points="57.45 23.42 57.45 23.87 58.6 23.87 58.6 24.55 56.76 24.55 56.76 23.87 56.76 23.42 56.36 23.42 54.66 23.42 54.26 23.42 54.26 23.87 54.26 25.01 54.66 25.01 54.66 23.87 56.36 23.87 56.36 25.01 56.66 25.01 56.76 25.01 58.6 25.01 58.99 25.01 58.99 24.55 58.99 23.87 58.99 23.42 58.6 23.42 57.45 23.42"/>
        <polygon class="cls-3" points="62.18 24.99 62.88 24.99 63.27 24.99 63.95 24.99 64.34 24.99 64.34 24.53 64.34 22.18 63.95 22.18 63.95 24.53 63.27 24.53 63.27 22.18 62.88 22.18 62.88 24.53 62.18 24.53 62.18 22.18 61.79 22.18 61.79 23.42 60.03 23.42 59.64 23.42 59.64 23.87 59.64 24.53 59.64 24.99 60.03 24.99 61.01 24.99 61.01 24.53 60.03 24.53 60.03 23.87 61.79 23.87 61.79 24.53 61.79 24.99 62.18 24.99"/>
        <rect class="cls-3" x="55.31" y="24.53" width=".4" height=".47"/>
      </g>
      <g>
        <rect class="cls-3" x="43.74" y="22.18" width="6.78" height=".46"/>
        <rect class="cls-3" x="43.74" y="25.98" width="4.73" height=".46"/>
        <rect class="cls-3" x="49.11" y="25.98" width="4.73" height=".46"/>
        <polygon class="cls-3" points="46.93 23.42 46.93 23.87 48.08 23.87 48.08 24.55 46.24 24.55 46.24 23.87 46.24 23.42 45.85 23.42 44.14 23.42 43.74 23.42 43.74 23.87 43.74 25.01 44.14 25.01 44.14 23.87 45.85 23.87 45.85 25.01 46.15 25.01 46.24 25.01 48.08 25.01 48.47 25.01 48.47 24.55 48.47 23.87 48.47 23.42 48.08 23.42 46.93 23.42"/>
        <polygon class="cls-3" points="51.68 24.99 52.36 24.99 52.75 24.99 53.43 24.99 53.82 24.99 53.82 24.53 53.82 22.18 53.43 22.18 53.43 24.53 52.75 24.53 52.75 22.18 52.36 22.18 52.36 24.53 51.68 24.53 51.68 22.18 51.28 22.18 51.28 23.42 49.52 23.42 49.12 23.42 49.12 23.87 49.12 24.53 49.12 24.99 49.52 24.99 50.49 24.99 50.49 24.53 49.52 24.53 49.52 23.87 51.28 23.87 51.28 24.53 51.28 24.99 51.68 24.99"/>
        <rect class="cls-3" x="44.8" y="24.53" width=".39" height=".47"/>
      </g>
      <g>
        <rect class="cls-3" x="33.23" y="22.18" width="6.77" height=".46"/>
        <rect class="cls-3" x="33.23" y="25.98" width="4.72" height=".46"/>
        <rect class="cls-3" x="38.59" y="25.98" width="4.73" height=".46"/>
        <polygon class="cls-3" points="36.42 23.42 36.42 23.87 37.56 23.87 37.56 24.55 35.72 24.55 35.72 23.87 35.72 23.42 35.33 23.42 33.62 23.42 33.23 23.42 33.23 23.87 33.23 25.01 33.62 25.01 33.62 23.87 35.33 23.87 35.33 25.01 35.63 25.01 35.72 25.01 37.56 25.01 37.95 25.01 37.95 24.55 37.95 23.87 37.95 23.42 37.56 23.42 36.42 23.42"/>
        <polygon class="cls-3" points="41.16 24.99 41.84 24.99 42.23 24.99 42.92 24.99 43.31 24.99 43.31 24.53 43.31 22.18 42.92 22.18 42.92 24.53 42.23 24.53 42.23 22.18 41.84 22.18 41.84 24.53 41.16 24.53 41.16 22.18 40.77 22.18 40.77 23.42 39 23.42 38.61 23.42 38.61 23.87 38.61 24.53 38.61 24.99 39 24.99 39.99 24.99 39.99 24.53 39 24.53 39 23.87 40.77 23.87 40.77 24.53 40.77 24.99 41.16 24.99"/>
        <rect class="cls-3" x="34.28" y="24.53" width=".39" height=".47"/>
      </g>
      <g>
        <rect class="cls-3" x="22.72" y="22.18" width="6.77" height=".46"/>
        <rect class="cls-3" x="22.72" y="25.98" width="4.72" height=".46"/>
        <rect class="cls-3" x="28.08" y="25.98" width="4.73" height=".46"/>
        <polygon class="cls-3" points="25.9 23.42 25.9 23.87 27.05 23.87 27.05 24.55 25.21 24.55 25.21 23.87 25.21 23.42 24.81 23.42 23.11 23.42 22.72 23.42 22.72 23.87 22.72 25.01 23.11 25.01 23.11 23.87 24.81 23.87 24.81 25.01 25.11 25.01 25.21 25.01 27.05 25.01 27.44 25.01 27.44 24.55 27.44 23.87 27.44 23.42 27.05 23.42 25.9 23.42"/>
        <polygon class="cls-3" points="30.64 24.99 31.33 24.99 31.72 24.99 32.4 24.99 32.8 24.99 32.8 24.53 32.8 22.18 32.4 22.18 32.4 24.53 31.72 24.53 31.72 22.18 31.33 22.18 31.33 24.53 30.64 24.53 30.64 22.18 30.25 22.18 30.25 23.42 28.49 23.42 28.09 23.42 28.09 23.87 28.09 24.53 28.09 24.99 28.49 24.99 29.47 24.99 29.47 24.53 28.49 24.53 28.49 23.87 30.25 23.87 30.25 24.53 30.25 24.99 30.64 24.99"/>
        <rect class="cls-3" x="23.76" y="24.53" width=".39" height=".47"/>
      </g>
      <g>
        <rect class="cls-3" x="12.2" y="22.18" width="6.77" height=".46"/>
        <rect class="cls-3" x="12.2" y="25.98" width="4.73" height=".46"/>
        <rect class="cls-3" x="17.56" y="25.98" width="4.73" height=".46"/>
        <polygon class="cls-3" points="15.39 23.42 15.39 23.87 16.53 23.87 16.53 24.55 14.69 24.55 14.69 23.87 14.69 23.42 14.3 23.42 12.59 23.42 12.2 23.42 12.2 23.87 12.2 25.01 12.59 25.01 12.59 23.87 14.3 23.87 14.3 25.01 14.6 25.01 14.69 25.01 16.53 25.01 16.93 25.01 16.93 24.55 16.93 23.87 16.93 23.42 16.53 23.42 15.39 23.42"/>
        <polygon class="cls-3" points="20.13 24.99 20.81 24.99 21.2 24.99 21.89 24.99 22.28 24.99 22.28 24.53 22.28 22.18 21.89 22.18 21.89 24.53 21.2 24.53 21.2 22.18 20.81 22.18 20.81 24.53 20.13 24.53 20.13 22.18 19.73 22.18 19.73 23.42 17.97 23.42 17.58 23.42 17.58 23.87 17.58 24.53 17.58 24.99 17.97 24.99 18.95 24.99 18.95 24.53 17.97 24.53 17.97 23.87 19.73 23.87 19.73 24.53 19.73 24.99 20.13 24.99"/>
        <rect class="cls-3" x="13.25" y="24.53" width=".39" height=".47"/>
      </g>
      <g>
        <rect class="cls-3" x="1.68" y="22.18" width="6.78" height=".46"/>
        <rect class="cls-3" x="1.68" y="25.98" width="4.73" height=".46"/>
        <rect class="cls-3" x="7.05" y="25.98" width="4.72" height=".46"/>
        <polygon class="cls-3" points="4.87 23.42 4.87 23.87 6.02 23.87 6.02 24.55 4.18 24.55 4.18 23.87 4.18 23.42 3.78 23.42 2.07 23.42 1.68 23.42 1.68 23.87 1.68 25.01 2.07 25.01 2.07 23.87 3.78 23.87 3.78 25.01 4.09 25.01 4.18 25.01 6.02 25.01 6.41 25.01 6.41 24.55 6.41 23.87 6.41 23.42 6.02 23.42 4.87 23.42"/>
        <polygon class="cls-3" points="9.61 24.99 10.29 24.99 10.69 24.99 11.37 24.99 11.77 24.99 11.77 24.53 11.77 22.18 11.37 22.18 11.37 24.53 10.69 24.53 10.69 22.18 10.29 22.18 10.29 24.53 9.61 24.53 9.61 22.18 9.22 22.18 9.22 23.42 7.45 23.42 7.06 23.42 7.06 23.87 7.06 24.53 7.06 24.99 7.45 24.99 8.44 24.99 8.44 24.53 7.45 24.53 7.45 23.87 9.22 23.87 9.22 24.53 9.22 24.99 9.61 24.99"/>
        <rect class="cls-3" x="2.73" y="24.53" width=".39" height=".47"/>
      </g>
    </g>
    <g>
      <g>
        <rect class="cls-3" x="64.79" y="54.05" width="6.77" height=".46"/>
        <rect class="cls-3" x="49.11" y="52.63" width="4.73" height=".45"/>
        <rect class="cls-3" x="43.74" y="52.63" width="4.73" height=".45"/>
        <polygon class="cls-3" points="67.97 55.29 67.97 55.75 69.12 55.75 69.12 56.42 67.28 56.42 67.28 55.75 67.28 55.29 66.89 55.29 65.18 55.29 64.79 55.29 64.79 55.75 64.79 56.88 65.18 56.88 65.18 55.75 66.89 55.75 66.89 56.88 67.19 56.88 67.28 56.88 69.12 56.88 69.51 56.88 69.51 56.42 69.51 55.75 69.51 55.29 69.12 55.29 67.97 55.29"/>
        <polygon class="cls-3" points="72.72 56.86 73.4 56.86 73.79 56.86 74.47 56.86 74.87 56.86 74.87 56.41 74.87 54.05 74.47 54.05 74.47 56.41 73.79 56.41 73.79 54.05 73.4 54.05 73.4 56.41 72.72 56.41 72.72 54.05 72.32 54.05 72.32 55.29 70.56 55.29 70.16 55.29 70.16 55.75 70.16 56.41 70.16 56.86 70.56 56.86 71.54 56.86 71.54 56.41 70.56 56.41 70.56 55.75 72.32 55.75 72.32 56.41 72.32 56.86 72.72 56.86"/>
        <rect class="cls-3" x="65.84" y="56.41" width=".39" height=".47"/>
      </g>
      <g>
        <rect class="cls-3" x="106.85" y="54.05" width="6.77" height=".46"/>
        <rect class="cls-3" x="7.05" y="52.63" width="4.72" height=".45"/>
        <rect class="cls-3" x="1.68" y="52.63" width="4.73" height=".45"/>
        <polygon class="cls-3" points="110.04 55.29 110.04 55.75 111.18 55.75 111.18 56.42 109.34 56.42 109.34 55.75 109.34 55.29 108.95 55.29 107.24 55.29 106.85 55.29 106.85 55.75 106.85 56.88 107.24 56.88 107.24 55.75 108.95 55.75 108.95 56.88 109.25 56.88 109.34 56.88 111.18 56.88 111.58 56.88 111.58 56.42 111.58 55.75 111.58 55.29 111.18 55.29 110.04 55.29"/>
        <polygon class="cls-3" points="114.78 56.86 115.46 56.86 115.85 56.86 116.53 56.86 116.93 56.86 116.93 56.41 116.93 54.05 116.53 54.05 116.53 56.41 115.85 56.41 115.85 54.05 115.46 54.05 115.46 56.41 114.78 56.41 114.78 54.05 114.38 54.05 114.38 55.29 112.62 55.29 112.23 55.29 112.23 55.75 112.23 56.41 112.23 56.86 112.62 56.86 113.6 56.86 113.6 56.41 112.62 56.41 112.62 55.75 114.38 55.75 114.38 56.41 114.38 56.86 114.78 56.86"/>
        <rect class="cls-3" x="107.9" y="56.41" width=".39" height=".47"/>
      </g>
      <g>
        <rect class="cls-3" x="96.33" y="54.05" width="6.77" height=".46"/>
        <rect class="cls-3" x="17.56" y="52.63" width="4.73" height=".45"/>
        <rect class="cls-3" x="12.2" y="52.63" width="4.73" height=".45"/>
        <polygon class="cls-3" points="99.52 55.29 99.52 55.75 100.66 55.75 100.66 56.42 98.83 56.42 98.83 55.75 98.83 55.29 98.43 55.29 96.72 55.29 96.33 55.29 96.33 55.75 96.33 56.88 96.72 56.88 96.72 55.75 98.43 55.75 98.43 56.88 98.73 56.88 98.83 56.88 100.66 56.88 101.06 56.88 101.06 56.42 101.06 55.75 101.06 55.29 100.66 55.29 99.52 55.29"/>
        <polygon class="cls-3" points="104.26 56.86 104.94 56.86 105.33 56.86 106.03 56.86 106.42 56.86 106.42 56.41 106.42 54.05 106.03 54.05 106.03 56.41 105.33 56.41 105.33 54.05 104.94 54.05 104.94 56.41 104.26 56.41 104.26 54.05 103.87 54.05 103.87 55.29 102.1 55.29 101.71 55.29 101.71 55.75 101.71 56.41 101.71 56.86 102.1 56.86 103.09 56.86 103.09 56.41 102.1 56.41 102.1 55.75 103.87 55.75 103.87 56.41 103.87 56.86 104.26 56.86"/>
        <rect class="cls-3" x="97.38" y="56.41" width=".39" height=".47"/>
      </g>
      <g>
        <rect class="cls-3" x="85.82" y="54.05" width="6.78" height=".46"/>
        <rect class="cls-3" x="28.08" y="52.63" width="4.73" height=".45"/>
        <rect class="cls-3" x="22.72" y="52.63" width="4.72" height=".45"/>
        <polygon class="cls-3" points="89 55.29 89 55.75 90.15 55.75 90.15 56.42 88.31 56.42 88.31 55.75 88.31 55.29 87.91 55.29 86.21 55.29 85.82 55.29 85.82 55.75 85.82 56.88 86.21 56.88 86.21 55.75 87.91 55.75 87.91 56.88 88.22 56.88 88.31 56.88 90.15 56.88 90.55 56.88 90.55 56.42 90.55 55.75 90.55 55.29 90.15 55.29 89 55.29"/>
        <polygon class="cls-3" points="93.74 56.86 94.43 56.86 94.83 56.86 95.51 56.86 95.9 56.86 95.9 56.41 95.9 54.05 95.51 54.05 95.51 56.41 94.83 56.41 94.83 54.05 94.43 54.05 94.43 56.41 93.74 56.41 93.74 54.05 93.35 54.05 93.35 55.29 91.59 55.29 91.19 55.29 91.19 55.75 91.19 56.41 91.19 56.86 91.59 56.86 92.57 56.86 92.57 56.41 91.59 56.41 91.59 55.75 93.35 55.75 93.35 56.41 93.35 56.86 93.74 56.86"/>
        <rect class="cls-3" x="86.86" y="56.41" width=".4" height=".47"/>
      </g>
      <g>
        <rect class="cls-3" x="75.3" y="54.05" width="6.78" height=".46"/>
        <rect class="cls-3" x="38.59" y="52.63" width="4.73" height=".45"/>
        <rect class="cls-3" x="33.23" y="52.63" width="4.72" height=".45"/>
        <polygon class="cls-3" points="78.49 55.29 78.49 55.75 79.64 55.75 79.64 56.42 77.8 56.42 77.8 55.75 77.8 55.29 77.41 55.29 75.7 55.29 75.3 55.29 75.3 55.75 75.3 56.88 75.7 56.88 75.7 55.75 77.41 55.75 77.41 56.88 77.71 56.88 77.8 56.88 79.64 56.88 80.03 56.88 80.03 56.42 80.03 55.75 80.03 55.29 79.64 55.29 78.49 55.29"/>
        <polygon class="cls-3" points="83.23 56.86 83.92 56.86 84.31 56.86 84.99 56.86 85.38 56.86 85.38 56.41 85.38 54.05 84.99 54.05 84.99 56.41 84.31 56.41 84.31 54.05 83.92 54.05 83.92 56.41 83.23 56.41 83.23 54.05 82.83 54.05 82.83 55.29 81.07 55.29 80.68 55.29 80.68 55.75 80.68 56.41 80.68 56.86 81.07 56.86 82.05 56.86 82.05 56.41 81.07 56.41 81.07 55.75 82.83 55.75 82.83 56.41 82.83 56.86 83.23 56.86"/>
        <rect class="cls-3" x="76.35" y="56.41" width=".4" height=".47"/>
      </g>
      <g>
        <rect class="cls-3" x="54.27" y="54.05" width="6.77" height=".46"/>
        <rect class="cls-3" x="59.63" y="52.63" width="4.72" height=".45"/>
        <rect class="cls-3" x="54.26" y="52.63" width="4.73" height=".45"/>
        <polygon class="cls-3" points="57.46 55.29 57.46 55.75 58.6 55.75 58.6 56.42 56.76 56.42 56.76 55.75 56.76 55.29 56.37 55.29 54.67 55.29 54.27 55.29 54.27 55.75 54.27 56.88 54.67 56.88 54.67 55.75 56.37 55.75 56.37 56.88 56.67 56.88 56.76 56.88 58.6 56.88 59 56.88 59 56.42 59 55.75 59 55.29 58.6 55.29 57.46 55.29"/>
        <polygon class="cls-3" points="62.2 56.86 62.88 56.86 63.28 56.86 63.96 56.86 64.35 56.86 64.35 56.41 64.35 54.05 63.96 54.05 63.96 56.41 63.28 56.41 63.28 54.05 62.88 54.05 62.88 56.41 62.2 56.41 62.2 54.05 61.81 54.05 61.81 55.29 60.04 55.29 59.65 55.29 59.65 55.75 59.65 56.41 59.65 56.86 60.04 56.86 61.03 56.86 61.03 56.41 60.04 56.41 60.04 55.75 61.81 55.75 61.81 56.41 61.81 56.86 62.2 56.86"/>
        <rect class="cls-3" x="55.32" y="56.41" width=".39" height=".47"/>
      </g>
      <g>
        <rect class="cls-3" x="43.76" y="54.05" width="6.77" height=".46"/>
        <rect class="cls-3" x="70.14" y="52.63" width="4.72" height=".45"/>
        <rect class="cls-3" x="64.77" y="52.63" width="4.73" height=".45"/>
        <polygon class="cls-3" points="46.95 55.29 46.95 55.75 48.09 55.75 48.09 56.42 46.25 56.42 46.25 55.75 46.25 55.29 45.86 55.29 44.15 55.29 43.76 55.29 43.76 55.75 43.76 56.88 44.15 56.88 44.15 55.75 45.86 55.75 45.86 56.88 46.16 56.88 46.25 56.88 48.09 56.88 48.48 56.88 48.48 56.42 48.48 55.75 48.48 55.29 48.09 55.29 46.95 55.29"/>
        <polygon class="cls-3" points="51.68 56.86 52.37 56.86 52.76 56.86 53.44 56.86 53.84 56.86 53.84 56.41 53.84 54.05 53.44 54.05 53.44 56.41 52.76 56.41 52.76 54.05 52.37 54.05 52.37 56.41 51.68 56.41 51.68 54.05 51.29 54.05 51.29 55.29 49.53 55.29 49.14 55.29 49.14 55.75 49.14 56.41 49.14 56.86 49.53 56.86 50.51 56.86 50.51 56.41 49.53 56.41 49.53 55.75 51.29 55.75 51.29 56.41 51.29 56.86 51.68 56.86"/>
        <rect class="cls-3" x="44.81" y="56.41" width=".39" height=".47"/>
      </g>
      <g>
        <rect class="cls-3" x="33.24" y="54.05" width="6.77" height=".46"/>
        <rect class="cls-3" x="80.65" y="52.63" width="4.73" height=".45"/>
        <rect class="cls-3" x="75.29" y="52.63" width="4.73" height=".45"/>
        <polygon class="cls-3" points="36.43 55.29 36.43 55.75 37.57 55.75 37.57 56.42 35.74 56.42 35.74 55.75 35.74 55.29 35.34 55.29 33.63 55.29 33.24 55.29 33.24 55.75 33.24 56.88 33.63 56.88 33.63 55.75 35.34 55.75 35.34 56.88 35.64 56.88 35.74 56.88 37.57 56.88 37.97 56.88 37.97 56.42 37.97 55.75 37.97 55.29 37.57 55.29 36.43 55.29"/>
        <polygon class="cls-3" points="41.17 56.86 41.85 56.86 42.24 56.86 42.93 56.86 43.33 56.86 43.33 56.41 43.33 54.05 42.93 54.05 42.93 56.41 42.24 56.41 42.24 54.05 41.85 54.05 41.85 56.41 41.17 56.41 41.17 54.05 40.78 54.05 40.78 55.29 39.01 55.29 38.62 55.29 38.62 55.75 38.62 56.41 38.62 56.86 39.01 56.86 39.99 56.86 39.99 56.41 39.01 56.41 39.01 55.75 40.78 55.75 40.78 56.41 40.78 56.86 41.17 56.86"/>
        <rect class="cls-3" x="34.29" y="56.41" width=".39" height=".47"/>
      </g>
      <g>
        <rect class="cls-3" x="22.72" y="54.05" width="6.78" height=".46"/>
        <rect class="cls-3" x="91.17" y="52.63" width="4.73" height=".45"/>
        <rect class="cls-3" x="85.81" y="52.63" width="4.72" height=".45"/>
        <polygon class="cls-3" points="25.91 55.29 25.91 55.75 27.06 55.75 27.06 56.42 25.22 56.42 25.22 55.75 25.22 55.29 24.82 55.29 23.12 55.29 22.72 55.29 22.72 55.75 22.72 56.88 23.12 56.88 23.12 55.75 24.82 55.75 24.82 56.88 25.13 56.88 25.22 56.88 27.06 56.88 27.45 56.88 27.45 56.42 27.45 55.75 27.45 55.29 27.06 55.29 25.91 55.29"/>
        <polygon class="cls-3" points="30.65 56.86 31.33 56.86 31.73 56.86 32.42 56.86 32.81 56.86 32.81 56.41 32.81 54.05 32.42 54.05 32.42 56.41 31.73 56.41 31.73 54.05 31.33 54.05 31.33 56.41 30.65 56.41 30.65 54.05 30.26 54.05 30.26 55.29 28.49 55.29 28.1 55.29 28.1 55.75 28.1 56.41 28.1 56.86 28.49 56.86 29.48 56.86 29.48 56.41 28.49 56.41 28.49 55.75 30.26 55.75 30.26 56.41 30.26 56.86 30.65 56.86"/>
        <rect class="cls-3" x="23.77" y="56.41" width=".4" height=".47"/>
      </g>
      <g>
        <rect class="cls-3" x="12.21" y="54.05" width="6.78" height=".46"/>
        <rect class="cls-3" x="101.69" y="52.63" width="4.73" height=".45"/>
        <rect class="cls-3" x="96.32" y="52.63" width="4.72" height=".45"/>
        <polygon class="cls-3" points="15.4 55.29 15.4 55.75 16.55 55.75 16.55 56.42 14.71 56.42 14.71 55.75 14.71 55.29 14.31 55.29 12.61 55.29 12.21 55.29 12.21 55.75 12.21 56.88 12.61 56.88 12.61 55.75 14.31 55.75 14.31 56.88 14.61 56.88 14.71 56.88 16.55 56.88 16.94 56.88 16.94 56.42 16.94 55.75 16.94 55.29 16.55 55.29 15.4 55.29"/>
        <polygon class="cls-3" points="20.13 56.86 20.83 56.86 21.22 56.86 21.9 56.86 22.29 56.86 22.29 56.41 22.29 54.05 21.9 54.05 21.9 56.41 21.22 56.41 21.22 54.05 20.83 54.05 20.83 56.41 20.13 56.41 20.13 54.05 19.74 54.05 19.74 55.29 17.98 55.29 17.59 55.29 17.59 55.75 17.59 56.41 17.59 56.86 17.98 56.86 18.96 56.86 18.96 56.41 17.98 56.41 17.98 55.75 19.74 55.75 19.74 56.41 19.74 56.86 20.13 56.86"/>
        <rect class="cls-3" x="13.26" y="56.41" width=".4" height=".47"/>
      </g>
      <g>
        <rect class="cls-3" x="1.7" y="54.05" width="6.77" height=".46"/>
        <rect class="cls-3" x="112.2" y="52.63" width="4.73" height=".45"/>
        <rect class="cls-3" x="106.83" y="52.63" width="4.73" height=".45"/>
        <polygon class="cls-3" points="4.88 55.29 4.88 55.75 6.03 55.75 6.03 56.42 4.19 56.42 4.19 55.75 4.19 55.29 3.8 55.29 2.09 55.29 1.7 55.29 1.7 55.75 1.7 56.88 2.09 56.88 2.09 55.75 3.8 55.75 3.8 56.88 4.1 56.88 4.19 56.88 6.03 56.88 6.42 56.88 6.42 56.42 6.42 55.75 6.42 55.29 6.03 55.29 4.88 55.29"/>
        <polygon class="cls-3" points="9.63 56.86 10.31 56.86 10.7 56.86 11.38 56.86 11.77 56.86 11.77 56.41 11.77 54.05 11.38 54.05 11.38 56.41 10.7 56.41 10.7 54.05 10.31 54.05 10.31 56.41 9.63 56.41 9.63 54.05 9.23 54.05 9.23 55.29 7.47 55.29 7.07 55.29 7.07 55.75 7.07 56.41 7.07 56.86 7.47 56.86 8.45 56.86 8.45 56.41 7.47 56.41 7.47 55.75 9.23 55.75 9.23 56.41 9.23 56.86 9.63 56.86"/>
        <rect class="cls-3" x="2.75" y="56.41" width=".39" height=".47"/>
      </g>
    </g>
  </g>
</svg>