<?xml version="1.0" encoding="UTF-8"?>
<svg id="Layer_1" data-name="Layer 1" xmlns="http://www.w3.org/2000/svg" viewBox="0 0 118.61 79.08">
  <defs>
    <style>
      .cls-1, .cls-2, .cls-3 {
        stroke-width: 0px;
      }

      .cls-2 {
        fill: #fdcf18;
      }

      .cls-3 {
        fill: #00993b;
      }
    </style>
  </defs>
  <polygon class="cls-2" points="118.62 71.86 118.62 79.09 107.77 79.09 59.31 46.78 10.85 79.09 0 79.09 0 71.86 48.46 39.56 0 7.25 0 .01 10.85 .01 59.31 32.32 107.77 .01 118.62 .01 118.62 7.25 70.16 39.56 118.62 71.86"/>
  <polygon class="cls-1" points="118.62 7.25 118.62 71.86 70.16 39.56 118.62 7.25"/>
  <polygon class="cls-3" points="107.77 .01 59.31 32.32 10.85 .01 107.77 .01"/>
  <polygon class="cls-3" points="107.77 79.09 10.85 79.09 59.31 46.78 107.77 79.09"/>
  <polygon class="cls-1" points="48.46 39.56 0 71.86 0 7.25 48.46 39.56"/>
</svg>