<?xml version="1.0" encoding="UTF-8"?>
<svg id="Layer_1" data-name="Layer 1" xmlns="http://www.w3.org/2000/svg" viewBox="0 0 118.61 79.07">
  <defs>
    <style>
      .cls-1 {
        fill: #fcc31c;
      }

      .cls-1, .cls-2 {
        stroke-width: 0px;
      }

      .cls-2 {
        fill: #00aec9;
      }
    </style>
  </defs>
  <rect class="cls-2" x="19.77" y="-19.77" width="79.08" height="118.61" transform="translate(98.84 -19.77) rotate(90)"/>
  <g>
    <g>
      <path class="cls-1" d="M76.31,33.19c0,5.88-4.77,10.64-10.65,10.64s-10.64-4.76-10.64-10.64,4.76-10.64,10.64-10.64,10.65,4.76,10.65,10.64Z"/>
      <path class="cls-1" d="M66.54,20.27c0,.48-.39.87-.87.87s-.87-.39-.87-.87.87-3.64.87-3.64c0,0,.87,3.16.87,3.64Z"/>
      <path class="cls-1" d="M66.54,20.27c0,.48-.39.87-.87.87s-.87-.39-.87-.87.87-3.64.87-3.64c0,0,.87,3.16.87,3.64Z"/>
      <path class="cls-1" d="M64,20.34c.1.47-.21.93-.68,1.03-.47.09-.93-.22-1.02-.69-.09-.47.14-3.74.14-3.74,0,0,1.47,2.93,1.57,3.4Z"/>
      <path class="cls-1" d="M64,20.34c.1.47-.21.93-.68,1.03-.47.09-.93-.22-1.02-.69-.09-.47.14-3.74.14-3.74,0,0,1.47,2.93,1.57,3.4Z"/>
      <path class="cls-1" d="M61.53,20.92c.19.45-.03.96-.47,1.14-.45.18-.96-.02-1.14-.47-.18-.44-.59-3.7-.59-3.7,0,0,2.02,2.59,2.2,3.03Z"/>
      <path class="cls-1" d="M61.53,20.92c.19.45-.03.96-.47,1.14-.45.18-.96-.02-1.14-.47-.18-.44-.59-3.7-.59-3.7,0,0,2.02,2.59,2.2,3.03Z"/>
      <path class="cls-1" d="M59.21,21.96c.27.41.17.95-.23,1.22-.41.27-.95.16-1.22-.24-.27-.4-1.3-3.51-1.3-3.51,0,0,2.48,2.14,2.75,2.54Z"/>
      <path class="cls-1" d="M59.21,21.96c.27.41.17.95-.23,1.22-.41.27-.95.16-1.22-.24-.27-.4-1.3-3.51-1.3-3.51,0,0,2.48,2.14,2.75,2.54Z"/>
      <path class="cls-1" d="M57.15,23.44c.34.33.34.89,0,1.23s-.89.34-1.23,0-1.96-3.2-1.96-3.2c0,0,2.85,1.62,3.19,1.97Z"/>
      <path class="cls-1" d="M57.15,23.44c.34.33.34.89,0,1.23s-.89.34-1.23,0-1.96-3.2-1.96-3.2c0,0,2.85,1.62,3.19,1.97Z"/>
      <path class="cls-1" d="M55.41,25.29c.4.27.51.81.24,1.21-.27.4-.81.51-1.21.24-.4-.27-2.54-2.75-2.54-2.75,0,0,3.11,1.03,3.51,1.3Z"/>
      <path class="cls-1" d="M55.41,25.29c.4.27.51.81.24,1.21-.27.4-.81.51-1.21.24-.4-.27-2.54-2.75-2.54-2.75,0,0,3.11,1.03,3.51,1.3Z"/>
      <path class="cls-1" d="M54.07,27.44c.44.18.66.7.47,1.14-.19.45-.7.66-1.14.47-.45-.18-3.03-2.2-3.03-2.2,0,0,3.25.4,3.7.58Z"/>
      <path class="cls-1" d="M54.07,27.44c.44.18.66.7.47,1.14-.19.45-.7.66-1.14.47-.45-.18-3.03-2.2-3.03-2.2,0,0,3.25.4,3.7.58Z"/>
      <path class="cls-1" d="M53.17,29.81c.47.1.77.56.68,1.03-.09.47-.55.77-1.02.68s-3.41-1.57-3.41-1.57c0,0,3.27-.24,3.75-.15Z"/>
      <path class="cls-1" d="M53.17,29.81c.47.1.77.56.68,1.03-.09.47-.55.77-1.02.68s-3.41-1.57-3.41-1.57c0,0,3.27-.24,3.75-.15Z"/>
      <path class="cls-1" d="M52.75,32.32c.47,0,.87.39.87.87s-.39.87-.87.87-3.65-.87-3.65-.87c0,0,3.16-.87,3.65-.87Z"/>
      <path class="cls-1" d="M52.75,32.32c.47,0,.87.39.87.87s-.39.87-.87.87-3.65-.87-3.65-.87c0,0,3.16-.87,3.65-.87Z"/>
      <path class="cls-1" d="M52.83,34.86c.47-.09.93.22,1.02.68.09.47-.21.93-.68,1.03-.47.09-3.75-.15-3.75-.15,0,0,2.93-1.47,3.41-1.57Z"/>
      <path class="cls-1" d="M52.83,34.86c.47-.09.93.22,1.02.68.09.47-.21.93-.68,1.03-.47.09-3.75-.15-3.75-.15,0,0,2.93-1.47,3.41-1.57Z"/>
      <path class="cls-1" d="M53.4,37.33c.44-.18.95.02,1.14.47.18.44-.03.96-.47,1.14-.45.18-3.7.58-3.7.58,0,0,2.58-2.02,3.03-2.2Z"/>
      <path class="cls-1" d="M53.4,37.33c.44-.18.95.02,1.14.47.18.44-.03.96-.47,1.14-.45.18-3.7.58-3.7.58,0,0,2.58-2.02,3.03-2.2Z"/>
      <path class="cls-1" d="M54.44,39.64c.4-.27.94-.16,1.21.24.27.4.16.94-.24,1.21-.4.27-3.51,1.3-3.51,1.3,0,0,2.14-2.48,2.54-2.75Z"/>
      <path class="cls-1" d="M54.44,39.64c.4-.27.94-.16,1.21.24.27.4.16.94-.24,1.21-.4.27-3.51,1.3-3.51,1.3,0,0,2.14-2.48,2.54-2.75Z"/>
      <path class="cls-1" d="M55.91,41.71c.34-.34.89-.34,1.23,0s.34.89,0,1.23-3.19,1.97-3.19,1.97c0,0,1.62-2.86,1.96-3.2Z"/>
      <path class="cls-1" d="M55.91,41.71c.34-.34.89-.34,1.23,0s.34.89,0,1.23-3.19,1.97-3.19,1.97c0,0,1.62-2.86,1.96-3.2Z"/>
      <path class="cls-1" d="M57.76,43.45c.27-.4.81-.51,1.22-.24.4.27.51.81.23,1.22-.27.4-2.75,2.54-2.75,2.54,0,0,1.03-3.11,1.3-3.51Z"/>
      <path class="cls-1" d="M57.76,43.45c.27-.4.81-.51,1.22-.24.4.27.51.81.23,1.22-.27.4-2.75,2.54-2.75,2.54,0,0,1.03-3.11,1.3-3.51Z"/>
      <path class="cls-1" d="M59.92,44.8c.18-.45.69-.66,1.14-.47.44.18.66.69.47,1.14-.18.44-2.2,3.03-2.2,3.03,0,0,.41-3.26.59-3.7Z"/>
      <path class="cls-1" d="M59.92,44.8c.18-.45.69-.66,1.14-.47.44.18.66.69.47,1.14-.18.44-2.2,3.03-2.2,3.03,0,0,.41-3.26.59-3.7Z"/>
      <path class="cls-1" d="M62.29,45.7c.09-.47.55-.78,1.02-.69.47.1.78.56.68,1.02-.09.47-1.57,3.41-1.57,3.41,0,0-.23-3.27-.14-3.74Z"/>
      <path class="cls-1" d="M62.29,45.7c.09-.47.55-.78,1.02-.69.47.1.78.56.68,1.02-.09.47-1.57,3.41-1.57,3.41,0,0-.23-3.27-.14-3.74Z"/>
      <path class="cls-1" d="M64.8,46.11c0-.48.39-.87.87-.87s.87.39.87.87-.87,3.64-.87,3.64c0,0-.87-3.16-.87-3.64Z"/>
      <path class="cls-1" d="M64.8,46.11c0-.48.39-.87.87-.87s.87.39.87.87-.87,3.64-.87,3.64c0,0-.87-3.16-.87-3.64Z"/>
      <path class="cls-1" d="M67.33,46.03c-.09-.47.22-.92.69-1.02.47-.09.93.22,1.02.69.09.47-.14,3.74-.14,3.74,0,0-1.47-2.93-1.57-3.41Z"/>
      <path class="cls-1" d="M67.33,46.03c-.09-.47.22-.92.69-1.02.47-.09.93.22,1.02.69.09.47-.14,3.74-.14,3.74,0,0-1.47-2.93-1.57-3.41Z"/>
      <path class="cls-1" d="M69.8,45.47c-.18-.45.03-.96.47-1.14.45-.18.96.02,1.14.47.18.44.59,3.7.59,3.7,0,0-2.02-2.59-2.21-3.03Z"/>
      <path class="cls-1" d="M69.8,45.47c-.18-.45.03-.96.47-1.14.45-.18.96.02,1.14.47.18.44.59,3.7.59,3.7,0,0-2.02-2.59-2.21-3.03Z"/>
      <path class="cls-1" d="M72.12,44.42c-.27-.41-.16-.95.24-1.22.41-.27.95-.16,1.22.24s1.3,3.51,1.3,3.51c0,0-2.48-2.14-2.76-2.54Z"/>
      <path class="cls-1" d="M72.12,44.42c-.27-.41-.16-.95.24-1.22.41-.27.95-.16,1.22.24s1.3,3.51,1.3,3.51c0,0-2.48-2.14-2.76-2.54Z"/>
      <path class="cls-1" d="M74.19,42.94c-.34-.34-.34-.89,0-1.23.34-.34.89-.34,1.23,0,.34.34,1.96,3.2,1.96,3.2,0,0-2.85-1.62-3.19-1.97Z"/>
      <path class="cls-1" d="M74.19,42.94c-.34-.34-.34-.89,0-1.23.34-.34.89-.34,1.23,0,.34.34,1.96,3.2,1.96,3.2,0,0-2.85-1.62-3.19-1.97Z"/>
      <path class="cls-1" d="M75.93,41.09c-.41-.27-.52-.81-.24-1.21.27-.4.81-.51,1.21-.24.4.27,2.54,2.75,2.54,2.75,0,0-3.11-1.03-3.5-1.3Z"/>
      <path class="cls-1" d="M75.93,41.09c-.41-.27-.52-.81-.24-1.21.27-.4.81-.51,1.21-.24.4.27,2.54,2.75,2.54,2.75,0,0-3.11-1.03-3.5-1.3Z"/>
      <path class="cls-1" d="M77.27,38.95c-.44-.18-.66-.7-.47-1.14.19-.45.7-.66,1.14-.47.45.18,3.03,2.2,3.03,2.2,0,0-3.25-.4-3.7-.58Z"/>
      <path class="cls-1" d="M77.27,38.95c-.44-.18-.66-.7-.47-1.14.19-.45.7-.66,1.14-.47.45.18,3.03,2.2,3.03,2.2,0,0-3.25-.4-3.7-.58Z"/>
      <path class="cls-1" d="M78.17,36.57c-.47-.1-.78-.56-.68-1.03.09-.47.55-.77,1.03-.68.47.09,3.4,1.57,3.4,1.57,0,0-3.26.24-3.74.15Z"/>
      <path class="cls-1" d="M78.17,36.57c-.47-.1-.78-.56-.68-1.03.09-.47.55-.77,1.03-.68.47.09,3.4,1.57,3.4,1.57,0,0-3.26.24-3.74.15Z"/>
      <path class="cls-1" d="M78.59,34.07c-.48,0-.87-.39-.87-.87s.38-.87.87-.87,3.65.87,3.65.87c0,0-3.16.87-3.65.87Z"/>
      <path class="cls-1" d="M78.59,34.07c-.48,0-.87-.39-.87-.87s.38-.87.87-.87,3.65.87,3.65.87c0,0-3.16.87-3.65.87Z"/>
      <path class="cls-1" d="M78.51,31.53c-.48.09-.93-.22-1.03-.68-.1-.47.21-.93.68-1.03.47-.09,3.74.15,3.74.15,0,0-2.92,1.47-3.4,1.57Z"/>
      <path class="cls-1" d="M78.51,31.53c-.48.09-.93-.22-1.03-.68-.1-.47.21-.93.68-1.03.47-.09,3.74.15,3.74.15,0,0-2.92,1.47-3.4,1.57Z"/>
      <path class="cls-1" d="M77.94,29.05c-.44.18-.95-.02-1.14-.47-.18-.44.03-.96.47-1.14.45-.18,3.7-.58,3.7-.58,0,0-2.58,2.02-3.03,2.2Z"/>
      <path class="cls-1" d="M77.94,29.05c-.44.18-.95-.02-1.14-.47-.18-.44.03-.96.47-1.14.45-.18,3.7-.58,3.7-.58,0,0-2.58,2.02-3.03,2.2Z"/>
      <path class="cls-1" d="M76.9,26.74c-.4.27-.94.16-1.21-.24-.27-.4-.17-.94.24-1.21.4-.27,3.5-1.3,3.5-1.3,0,0-2.14,2.48-2.54,2.75Z"/>
      <path class="cls-1" d="M76.9,26.74c-.4.27-.94.16-1.21-.24-.27-.4-.17-.94.24-1.21.4-.27,3.5-1.3,3.5-1.3,0,0-2.14,2.48-2.54,2.75Z"/>
      <path class="cls-1" d="M75.42,24.67c-.34.34-.89.34-1.23,0-.34-.34-.34-.9,0-1.23.34-.34,3.19-1.97,3.19-1.97,0,0-1.61,2.86-1.96,3.2Z"/>
      <path class="cls-1" d="M75.42,24.67c-.34.34-.89.34-1.23,0-.34-.34-.34-.9,0-1.23.34-.34,3.19-1.97,3.19-1.97,0,0-1.61,2.86-1.96,3.2Z"/>
      <path class="cls-1" d="M73.58,22.93c-.27.4-.81.51-1.22.24-.4-.27-.51-.81-.24-1.22.27-.4,2.76-2.54,2.76-2.54,0,0-1.03,3.11-1.3,3.51Z"/>
      <path class="cls-1" d="M73.58,22.93c-.27.4-.81.51-1.22.24-.4-.27-.51-.81-.24-1.22.27-.4,2.76-2.54,2.76-2.54,0,0-1.03,3.11-1.3,3.51Z"/>
      <path class="cls-1" d="M71.42,21.58c-.18.45-.69.66-1.14.47-.44-.18-.66-.69-.47-1.14.19-.44,2.21-3.03,2.21-3.03,0,0-.41,3.26-.59,3.7Z"/>
      <path class="cls-1" d="M71.42,21.58c-.18.45-.69.66-1.14.47-.44-.18-.66-.69-.47-1.14.19-.44,2.21-3.03,2.21-3.03,0,0-.41,3.26-.59,3.7Z"/>
      <path class="cls-1" d="M69.05,20.68c-.09.47-.55.78-1.02.69-.48-.1-.78-.56-.69-1.03.1-.47,1.57-3.4,1.57-3.4,0,0,.23,3.27.14,3.74Z"/>
      <path class="cls-1" d="M69.05,20.68c-.09.47-.55.78-1.02.69-.48-.1-.78-.56-.69-1.03.1-.47,1.57-3.4,1.57-3.4,0,0,.23,3.27.14,3.74Z"/>
    </g>
    <g>
      <path class="cls-1" d="M66.56,51.8c-.35.15-.66.66-.89.92-.4.44-.81.88-1.22,1.3-.77.77-1.89,1.57-2.51,1.71-.63.13-1.26.04-1.58.37-.33.33-.69.66-.69.86s-.7.31-.82.72c-.12.42-.1.94-.07.98.04.03.59-.24.72-.37.13-.13.13.16.13.16,0,0,.4-.05.48-.05s1.06-.33,2.25-.33,3.77.25,4.35.17-.51-.23-.89-.23-1.7-.2-1.94-.2-1.06.07-1.06-.07.37-.55.44-.62c.07-.07-.93.1-.29-.3.64-.39.42-.69.1-.57-.33.12-1.65.52-1.65.64,0,.13-.52.68-.66.53-.15-.15-.5-.15-.5-.15,0,0-.07-.25.4-.4.46-.14.21.07.98-.36.77-.43,3.16-1.75,4.49-2.91.7-.56,1.86-.82,2.76-.94.69-.09,1.39-.13,2.08-.22.58-.08,1.5-.14,1.94-.58.88-.88,2.1-1.87,3.24-2.36.88-.38,1.7-.58,2.48-1.18,1-.77,1.5-1.92,2.39-2.78.6-.59,1.3-1.08,2.06-1.46.27-.12,1.97-.97,1.77-.08-.12.54-1.02,1.74-1.12,1.83-.09.09.92-.39,1.13-.18s.1.64-.15.89c-.24.25-.84.84-.84.84,0,0,.94-.08.86.22-.08.32-1.87,1.21-2.01,1.34s.04.19.04.3-.27.27-.5.51c-.23.22-1.01.47-.87.81.13.32.04.15-.15.34s-.86.2-.86.45.08.61-.07.76c-.15.14-1.01.26-1.01.26,0,0,.15.27,0,.6-.14.32-3.51,1.89-3.71,1.89s-.49.18-.42.18,2.98-.07,3.96-.64c.97-.58,1.82-.76,2.06-.99s-.81-.44-.81-.71.61-.56,1.68-.69c1.07-.13,1.6-.2,1.12-.35-.47-.15-1.17,0-1.17-.2s.12-.17.62-.32,1.77-.27,1.77-.56-.94-.18-1.22-.28c-.27-.1.02-.1.96-.41.94-.32,1.85-.7,1.85-.91s-.92-.27-1.21-.27-.44-.07.07-.35c.52-.29,2.53-1.5,2.91-2.07.38-.57.7-.89.48-1.1-.22-.22-.96.54-1.63.66-.67.12-.87.26-.67-.07.2-.33,1.13-.99,2.07-1.93.94-.93,2.22-2.02,2.22-2.43s.05-.81-.47-.7c-.53.12-1.18,1.03-1.53,1.39-.36.35-2.12,1.71-2.12,1.71,0,0,.97-1.18,2.04-2.66s1.57-2.32,1.57-2.57-.09-.57-.17-.64-.56-.17-1.02.3c-.46.46-1.81,2.6-2.24,2.88-.42.28-.72.72-.42.28.3-.45,1.15-2.49,1.25-2.76.1-.26.62-1.78.62-2.54,0-.34-.06-1.03-.42-1.21-.4-.19-.74.19-.79.55-.11.75-.23,1.49-.43,2.21-.1.37-.23.74-.38,1.1-.15.33-.38.62-.61.91.06-.48.27-.92.29-1.42,0-.51.03-1.02-.08-1.52-.05-.19-.12-.43-.35-.42-.46.03-.69.52-.73.91-.07.63-.23,1.15-.46,1.75-.32.84-.68,1.67-1.07,2.49-1.59,3.38-4.37,5.99-7.59,7.84-2.63,1.53-5.4,2.18-8.4,2.5-.05,0-.1.02-.15.04Z"/>
      <path class="cls-1" d="M72.37,57.01c-.26,0-.61-.18-.61.32s-.25.92-.76,1.08c-.5.17-3.49.5-5.27.37-1.78-.13-3.13.82-3.35,1.27-.21.45-.12,1.04.35.74.47-.29,1.35-.98,1.58-.98s-.25,1.07.27.98c.51-.08.86-.76,1.29-.87.43-.1.47.19.32.54-.15.34-.22.82.56.21.77-.61,1.05-.95,1.05-.46s.18.71.81.3c.63-.42.43-.72.69-.72s.21.25.4.44.49.49,1.15-.37c.22-.21.27-.16.47.04.21.21.07.64.62.29.54-.34.77-.9,1.1-.9.25,0,.25.62.59.37.05-.03.08-.09.12-.14.17-.27.37-.92.75-.92.51,0,.56.47.97.47s.87.02,1.02-.57c.15-.59.16-1.22.47-.91.42.42.95.79,1.5.38.25-.19.43-.46.52-.76.07-.24-.08-.49-.33-.52-.87-.12-1.75-.19-2.63-.25-.52-.04-1.03-.07-1.54-.09-.47-.02-1.02-.13-1.46-.04-.48.1-.65.71-.65.71Z"/>
      <path class="cls-1" d="M47.16,42.66c.36.25.88.85.96.93.34.35.69.7,1.04,1.05.32.33,1.75,2.58,2.74,3.25.98.67,2.07,1.02,2.61,1.31.54.3,1.64,1.12,2.22,1.71s2.32,1.46,3.43,1.46,2.65-.03,2.97.3c.33.32,1.17.63,1.36.44s.64-1.06.64-1.06c0,0-.4-.17-1.33-.17s-4.18-.54-6.87-2.12c-2.7-1.57-5.2-3.12-6.99-5.92-1.81-2.79-2.8-5.8-3.04-6.69-.25-.89-.92-.89-.92.35s.65,2.21.47,2.4c-.13.13-.92-1.44-.97-1.56-.4-.88-.62-1.86-.87-2.8-.06-.22-.07-.6-.35-.69-.28-.09-.52.18-.64.41-.16.27-.1.57-.07.87.05.51.17,1.02.35,1.5.18.5.35,1,.52,1.51.27.77.55,1.55.84,2.33,0,0-1.68-2.34-2.25-2.91-.2-.19-.39-.38-.61-.57-.12-.1-.52-.48-.66-.21-.02.07-.02.13-.02.2.02.82.29,1.59.72,2.28.62.99,2.42,3.31,2.42,3.31,0,0-1.16-1.04-1.72-1.61-.57-.57-2.42-1.91-2.3-1.02.12.89,3.64,4.01,3.92,4.5.07.11.27.61-.06.52-.08-.02-.14-.08-.2-.15-.18-.19-.46-.35-.68-.5-.16-.11-.39-.3-.59-.3-.24,0-.56.28.02.87.58.57,3.82,2.12,3.82,2.34s-1.4.05-1.77.05-.6.11-.17.36c.42.25,1.3.35,1.87.56.56.22,1.04.12.87.3-.13.13-.42.13-.58.15-.27.03-.6-.03-.86.02-.18.04-.16.13-.02.27.36.36,1.91.54,2.02.65.11.1-.48.34-.64.34-.17,0-.86-.03-.33.28.52.31,2.47.57,2.52.62s-1.06.37-1.06.56.49.3.54.35c.05.05,4.93,2.19,6.87,2.19-1.08-.4-5.61-2.04-5.78-2.39s.66-.47.66-.71-.61-.23-1.17-.52c-.57-.3-.78-.29-.58-.5.21-.2.84-.17.27-.44-.57-.27-1.28-.08-1.17-.51.12-.43.48-.28.38-.57-.1-.27-.46-.24-.54-.49-.07-.19.05-.32-.05-.52-.24-.43-.97-.56-1.37-.77-.18-.09-.48-.21-.61-.39-.22-.29.52-.39.71-.38-.17-.14-1.76-1.47-1.37-1.61.18-.06.34-.12.52-.12.16,0,.37.06.39-.17,0-.17-.12-.39-.19-.53-.26-.53-.97-1.43-.72-1.53.3-.12.68.35.91.17.11-.08.15-.22.23-.33.06-.07.17-.03.32.06Z"/>
    </g>
  </g>
  <g>
    <g>
      <path class="cls-1" d="M9.21,36.48c.07-.14.13-.27.19-.41.23-.47.46-.95.69-1.43.3-.62.61-1.26.92-1.89.43-.92.88-1.82,1.32-2.73.42-.86.92-1.72.82-2.71-.02-.23-.08-.47-.18-.68-.33-.76-1.1-1.07-1.9-1.07-2.02,0-2.64,1.37-2.64,1.37,0,0-.62-1.37-2.65-1.37-.79,0-1.56.31-1.89,1.07-.1.22-.16.45-.18.68-.1.98.41,1.85.82,2.71.45.91.89,1.82,1.33,2.73.31.63.61,1.27.92,1.89.22.48.46.96.68,1.43.07.13.13.27.2.41,0,0,0,0,0,.02.22.46.27,1.02.07,1.49-.24.57-.84.9-1.46.75-.37-.1-.64-.31-.85-.63-.31-.47-.27-1.01,0-1.37.17-.24.37-.34.65-.37.24-.02.52.02.67.21.07.07.12.21.14.31.02.09.02.2-.02.28-.07.17-.42.32-.58.22-.17-.12-.2-.4-.25-.52,0,0-.06.1-.07.11-.02.06-.02.11-.03.16,0,.06,0,.12,0,.17s0,.07-.04.08c-.02,0-.36.08-.36.09,0,0,.07.17.4.26,0,.1,0,.22.05.32.02.05.05.1.08.14.02.02.1.09.1.11,0-.07,0-.12,0-.19.04-.16.18-.17.32-.15.27.03.52-.09.69-.3.19-.24.27-.57.23-.87-.02-.28-.15-.56-.37-.74-.25-.2-.59-.23-.9-.29-.05,0-.41-.07-.3-.17.16-.17.22-.37.22-.37,0,0-.26-.26-.03-.66.22-.41-.13-.13-.57,0,.2-2.14-1.29-2.07-1.29-2.07,0,0,1.02,1.6.4,3.44-.62,1.84.02,2.71.37,3.17-.42.11-.57.46-.57.46,0,0,.14.34.57.46-.34.46-.98,1.33-.37,3.17.62,1.84-.4,3.44-.4,3.44,0,0,1.49.07,1.29-2.07.44.12.8.39.57,0-.23-.4.03-.66.03-.66,0,0-.06-.21-.22-.37-.11-.11.25-.17.3-.17.31-.06.65-.09.9-.3.22-.18.34-.45.37-.73.03-.3-.04-.62-.23-.87-.17-.21-.42-.33-.69-.31-.14.02-.28.02-.32-.15-.02-.06,0-.12,0-.18,0,.02-.08.08-.1.1-.03.05-.07.1-.08.15-.04.1-.04.21-.05.32-.32.09-.4.26-.4.26,0,0,.33.08.36.09.05,0,.04.02.04.08s0,.12,0,.17c0,.06.02.11.03.16,0,.02.07.11.07.11.05-.12.08-.4.25-.52.17-.11.51.04.58.22.04.08.04.18.02.28-.02.1-.07.22-.14.31-.16.19-.43.22-.67.21-.28-.03-.48-.14-.65-.37-.27-.37-.31-.91,0-1.37.21-.32.48-.54.85-.63.62-.15,1.22.17,1.46.75.2.47.15,1.03-.07,1.49t0,.02c-.07.13-.13.27-.2.41-.22.47-.46.95-.68,1.42-.31.63-.61,1.27-.92,1.9-.44.92-.88,1.82-1.33,2.73-.41.86-.92,1.72-.82,2.71.03.23.08.47.18.68.33.75,1.1,1.07,1.89,1.07,2.03,0,2.65-1.37,2.65-1.37,0,0,.62,1.37,2.64,1.37.8,0,1.57-.32,1.9-1.07.1-.22.16-.45.18-.68.09-.99-.41-1.85-.82-2.71-.44-.91-.89-1.82-1.33-2.73-.3-.63-.61-1.27-.91-1.9-.23-.47-.46-.95-.69-1.42-.06-.13-.13-.27-.19-.41t0-.02c-.22-.46-.27-1.02-.07-1.49.24-.57.83-.9,1.45-.75.37.09.65.31.86.63.31.47.27,1.01,0,1.37-.17.23-.37.34-.65.37-.24.02-.52-.02-.68-.21-.07-.08-.12-.21-.13-.31-.02-.1-.02-.2.02-.28.08-.17.42-.32.59-.22.17.12.2.4.25.52,0,0,.06-.09.07-.11.02-.05.02-.1.03-.16,0-.05,0-.11,0-.17s0-.07.04-.08c.02,0,.36-.08.36-.09,0,0-.07-.17-.4-.26,0-.11-.02-.22-.05-.32-.02-.05-.05-.1-.08-.15-.02-.02-.1-.08-.1-.1,0,.07,0,.12,0,.18-.04.17-.18.17-.33.15-.26-.02-.52.1-.68.31-.19.24-.27.57-.23.87.02.28.15.55.37.73.25.21.59.24.9.3.04,0,.41.07.3.17-.16.17-.22.37-.22.37,0,0,.27.26.03.66-.22.4.13.13.58,0-.2,2.14,1.28,2.07,1.28,2.07,0,0-1.01-1.6-.39-3.44.62-1.84-.02-2.71-.37-3.17.43-.12.57-.46.57-.46,0,0-.14-.35-.57-.46.35-.46.99-1.33.37-3.17-.62-1.84.39-3.44.39-3.44,0,0-1.48-.07-1.28,2.07-.44-.12-.8-.4-.58,0,.23.4-.03.66-.03.66,0,0,.07.21.22.37.11.11-.26.17-.3.17-.31.06-.65.09-.9.29-.22.18-.34.46-.37.74-.03.3.04.62.23.87.17.21.42.33.68.3.15-.02.29,0,.33.15,0,.07,0,.12,0,.19,0-.02.08-.08.1-.11.03-.04.06-.09.08-.14.03-.1.04-.22.05-.32.32-.09.4-.26.4-.26,0,0-.33-.08-.36-.09-.05,0-.04-.02-.04-.08s0-.12,0-.17c0-.05-.02-.1-.03-.16,0,0-.07-.11-.07-.11-.05.12-.08.41-.25.52-.17.11-.51-.04-.59-.22-.03-.08-.04-.19-.02-.28.02-.1.07-.23.13-.31.17-.19.44-.23.68-.21.28.03.48.13.65.37.27.37.31.9,0,1.37-.21.32-.48.53-.86.63-.62.15-1.21-.17-1.45-.75-.2-.47-.15-1.03.07-1.49,0,0,0-.02,0-.02ZM10.98,48.23c.32.65.68,1.28.97,1.95.26.59.46,1.31.12,1.91-.22.4-.7.6-1.15.61-.27,0-.56-.04-.8-.17-.24-.14-.43-.36-.52-.62-.07-.25-.03-.53.15-.72.17-.19.49-.25.7-.1.12.08.19.21.23.35.03.14.04.28.05.42.19-.04.36-.19.41-.38.02-.11.02-.22.07-.32.05-.12.12-.12.23-.14.09-.02.17-.07.25-.13.02-.02.15-.15.14-.16-.12-.24-.41-.27-.64-.3,0-.18-.02-.35-.12-.52-.05-.07-.11-.14-.18-.21,0,0-.21-.12-.21-.09.02.28-.02.63-.33.77-.1.04-.24-.02-.36,0-.34.02-.64.22-.99.22,0-.76.04-2.08.04-2.08.13-.57.64-.46,1.27-.36-.16-.62-.85-.97-1.41-1.06.83-1.3-.47-2.14-.47-2.14,0,0-1.3.84-.47,2.14-.56.09-1.25.44-1.42,1.06.63-.1,1.14-.21,1.27.36,0,0,.04,1.32.04,2.08-.35,0-.66-.2-.99-.22-.12,0-.26.05-.36,0-.31-.13-.35-.48-.33-.77,0-.02-.2.08-.21.09-.07.07-.13.13-.18.21-.1.17-.12.34-.12.52-.23.03-.52.06-.65.3,0,0,.13.14.15.16.07.07.16.12.25.13.11.02.18.02.23.14.04.1.04.21.07.32.05.19.22.34.41.38,0-.14,0-.28.05-.42s.12-.27.23-.35c.21-.15.52-.09.7.1s.22.47.15.72c-.08.27-.27.48-.52.62-.24.13-.52.18-.8.17-.46,0-.93-.21-1.15-.61-.34-.6-.14-1.32.12-1.91.29-.67.66-1.3.97-1.95.82-1.71,1.61-3.41,2.4-5.13.03-.08.16-.26.16-.35,0,.09.12.27.16.35.79,1.72,1.58,3.42,2.39,5.13ZM9.59,39.54c-.59.1-1.16.94-1.16.94,0,0-.57-.84-1.17-.94.6-.1,1.17-.94,1.17-.94,0,0,.57.84,1.16.94ZM8.59,35.97c-.03.08-.16.25-.16.35,0-.1-.12-.27-.16-.35-.79-1.72-1.58-3.42-2.4-5.13-.31-.65-.67-1.28-.97-1.95-.26-.59-.46-1.31-.12-1.91.22-.4.69-.6,1.15-.61.27,0,.56.04.8.17.24.13.43.36.52.62.07.24.02.53-.15.72s-.49.25-.7.1c-.12-.08-.19-.22-.23-.35-.04-.14-.04-.28-.05-.42-.19.04-.36.19-.41.38-.02.1-.02.22-.07.32-.05.12-.13.12-.23.14-.09.02-.18.07-.25.13-.02,0-.15.14-.15.15.12.25.42.27.65.3,0,.19.02.36.12.52.05.08.11.15.18.21,0,.02.21.12.21.1-.02-.28.02-.63.33-.77.1-.04.24.02.36,0,.33-.02.64-.22.99-.22,0,.76-.04,2.08-.04,2.08-.13.57-.64.45-1.27.36.17.62.86.96,1.42,1.06-.83,1.3.47,2.14.47,2.14,0,0,1.3-.84.47-2.14.56-.1,1.25-.44,1.41-1.06-.62.09-1.13.21-1.27-.36,0,0-.04-1.32-.04-2.08.35,0,.65.2.99.22.12,0,.26-.05.36,0,.31.13.35.48.33.77,0,.02.2-.08.21-.1.07-.06.13-.12.18-.21.1-.17.12-.33.12-.52.23-.02.52-.05.64-.3,0,0-.12-.14-.14-.15-.07-.07-.16-.12-.25-.13-.11-.02-.18-.02-.23-.14-.04-.1-.04-.22-.07-.32-.05-.19-.22-.34-.41-.38,0,.14-.02.28-.05.42-.04.13-.12.27-.23.35-.21.15-.52.09-.7-.1-.18-.19-.22-.48-.15-.72.08-.27.27-.49.52-.62s.53-.18.8-.17c.45,0,.92.21,1.15.61.34.6.14,1.32-.12,1.91-.29.67-.66,1.3-.97,1.95-.81,1.71-1.6,3.41-2.39,5.13Z"/>
      <path class="cls-1" d="M8.44,24.19s.62,1.37,2.64,1.37c.8,0,1.57-.32,1.9-1.07.1-.22.16-.45.18-.68.09-.98-.41-1.85-.82-2.7-.44-.92-.89-1.82-1.33-2.74-.3-.62-.61-1.26-.91-1.89-.23-.47-.46-.95-.69-1.43-.06-.13-.13-.27-.19-.4,0,0,0-.02,0-.02-.22-.46-.27-1.02-.07-1.5.24-.57.83-.9,1.45-.74.37.09.65.31.86.62.31.47.27,1.01,0,1.38-.17.23-.37.34-.65.37-.24.02-.52-.02-.68-.2-.07-.08-.12-.21-.13-.32-.02-.09-.02-.19.02-.28.08-.17.42-.32.59-.21.17.11.2.39.25.52,0,0,.06-.1.07-.11.02-.05.02-.11.03-.16,0-.06,0-.12,0-.17,0-.05,0-.07.04-.08.02,0,.36-.08.36-.09,0,0-.07-.17-.4-.26,0-.1-.02-.22-.05-.32-.02-.05-.05-.1-.08-.14-.02-.02-.1-.09-.1-.1,0,.06,0,.12,0,.18-.04.16-.18.17-.33.15-.26-.03-.52.09-.68.3-.19.24-.27.57-.23.87.02.27.15.55.37.73.25.21.59.23.9.29.04,0,.41.07.3.18-.16.16-.22.37-.22.37,0,0,.27.26.03.67-.22.4.13.12.58,0-.2,2.14,1.28,2.07,1.28,2.07,0,0-1.01-1.59-.39-3.43.62-1.85-.02-2.72-.37-3.18.43-.11.57-.46.57-.46h-2.9c-.59.1-1.16.94-1.16.94,0,0-.57-.84-1.17-.94h-2.89s.14.35.57.46c-.34.46-.98,1.33-.37,3.18.62,1.84-.4,3.43-.4,3.43,0,0,1.49.07,1.29-2.07.44.12.8.4.57,0-.23-.41.03-.67.03-.67,0,0-.06-.21-.22-.37-.11-.11.25-.17.3-.18.31-.06.65-.08.9-.29.22-.18.34-.46.37-.73.03-.31-.04-.63-.23-.87-.17-.21-.42-.33-.69-.3-.14.02-.28,0-.32-.15-.02-.06,0-.12,0-.18,0,0-.08.08-.1.1-.03.04-.07.09-.08.14-.04.1-.04.22-.05.32-.32.09-.4.26-.4.26,0,0,.33.08.36.09.05.02.04.03.04.08,0,.06,0,.12,0,.17,0,.05.02.11.03.16,0,0,.07.11.07.11.05-.12.08-.41.25-.52.17-.12.51.03.58.21.04.09.04.19.02.28-.02.11-.07.23-.14.32-.16.18-.43.22-.67.2-.28-.02-.48-.13-.65-.37-.27-.37-.31-.91,0-1.38.21-.32.48-.53.85-.62.62-.16,1.22.17,1.46.74.2.47.15,1.04-.07,1.5,0,0,0,0,0,.02-.07.13-.13.27-.2.4-.22.48-.46.96-.68,1.43-.31.63-.61,1.27-.92,1.89-.44.92-.88,1.82-1.33,2.74-.41.85-.92,1.72-.82,2.7.03.23.08.47.18.68.33.76,1.1,1.07,1.89,1.07,2.03,0,2.65-1.37,2.65-1.37ZM7.83,20.53s.04,1.32.04,2.07c-.35,0-.66-.19-.99-.22-.12,0-.26.06-.36,0-.31-.12-.35-.48-.33-.77,0-.02-.2.09-.21.1-.07.06-.13.12-.18.21-.1.17-.12.33-.12.52-.23.02-.52.06-.65.3,0,0,.13.14.15.16.07.06.16.12.25.12.11.02.18.03.23.14.04.1.04.22.07.32.05.19.22.35.41.38,0-.14,0-.28.05-.42.04-.13.12-.27.23-.35.21-.15.52-.09.7.1s.22.48.15.73c-.08.26-.27.48-.52.62-.24.13-.52.19-.8.18-.46-.02-.93-.22-1.15-.61-.34-.61-.14-1.32.12-1.92.29-.67.66-1.29.97-1.95.82-1.7,1.61-3.41,2.4-5.13.03-.08.16-.25.16-.35,0,.1.12.27.16.35.79,1.72,1.58,3.43,2.39,5.13.32.66.68,1.28.97,1.95.26.59.46,1.31.12,1.92-.22.39-.7.59-1.15.61-.27,0-.56-.05-.8-.18s-.43-.36-.52-.62c-.07-.25-.03-.54.15-.73.17-.19.49-.25.7-.1.12.08.19.22.23.35.03.14.04.28.05.42.19-.03.36-.19.41-.38.02-.1.02-.22.07-.32.05-.11.12-.12.23-.14.09,0,.17-.07.25-.12.02-.02.15-.15.14-.16-.12-.24-.41-.27-.64-.3,0-.19-.02-.36-.12-.52-.05-.08-.11-.15-.18-.21,0,0-.21-.12-.21-.1.02.28-.02.64-.33.77-.1.05-.24-.02-.36,0-.34.02-.64.22-.99.22,0-.76.04-2.07.04-2.07.13-.57.64-.46,1.27-.36-.16-.62-.85-.97-1.41-1.07.83-1.3-.47-2.14-.47-2.14,0,0-1.3.84-.47,2.14-.56.1-1.25.44-1.42,1.07.63-.1,1.14-.22,1.27.36Z"/>
      <path class="cls-1" d="M8.44,54.88s-.62-1.37-2.65-1.37c-.79,0-1.56.32-1.89,1.07-.1.22-.16.45-.18.68-.1.98.41,1.85.82,2.7.45.92.89,1.82,1.33,2.73.31.63.61,1.27.92,1.9.22.47.46.95.68,1.43l.2.4s0,.02,0,.02c.22.46.27,1.02.07,1.5-.24.57-.84.9-1.46.74-.37-.09-.64-.31-.85-.63-.31-.47-.27-1,0-1.37.17-.23.37-.34.65-.37.24-.02.52.02.67.2.07.08.12.21.14.32.02.09.02.19-.02.28-.07.17-.42.32-.58.21-.17-.12-.2-.39-.25-.52,0,0-.06.1-.07.11-.02.05-.02.11-.03.16,0,.06,0,.12,0,.17,0,.05,0,.07-.04.08-.02,0-.36.08-.36.09,0,0,.07.17.4.25,0,.11,0,.22.05.32.02.06.05.11.08.15.02.02.1.08.1.1,0-.06,0-.12,0-.18.04-.16.18-.17.32-.15.27.03.52-.09.69-.3.19-.24.27-.57.23-.87-.02-.27-.15-.55-.37-.73-.25-.21-.59-.24-.9-.29-.05-.02-.41-.07-.3-.18.16-.16.22-.37.22-.37,0,0-.26-.26-.03-.67.22-.4-.13-.12-.57,0,.2-2.14-1.29-2.07-1.29-2.07,0,0,1.02,1.59.4,3.43-.62,1.84.02,2.72.37,3.18-.42.11-.57.46-.57.46h2.89c.6-.1,1.17-.94,1.17-.94,0,0,.57.84,1.16.94h2.9s-.14-.35-.57-.46c.35-.46.99-1.34.37-3.18-.62-1.84.39-3.43.39-3.43,0,0-1.48-.07-1.28,2.07-.44-.12-.8-.4-.58,0,.23.41-.03.67-.03.67,0,0,.07.21.22.37.11.11-.26.17-.3.18-.31.05-.65.08-.9.29-.22.18-.34.46-.37.73-.03.31.04.63.23.87.17.21.42.33.68.3.15-.02.29,0,.33.15,0,.06,0,.12,0,.18,0-.02.08-.08.1-.1.03-.04.06-.09.08-.15.03-.1.04-.21.05-.32.32-.08.4-.25.4-.25,0,0-.33-.08-.36-.09-.05-.02-.04-.03-.04-.08,0-.06,0-.12,0-.17,0-.05-.02-.11-.03-.16,0,0-.07-.11-.07-.11-.05.12-.08.4-.25.52-.17.12-.51-.03-.59-.21-.03-.09-.04-.19-.02-.28.02-.11.07-.23.13-.32.17-.18.44-.22.68-.2.28.02.48.13.65.37.27.37.31.91,0,1.37-.21.32-.48.54-.86.63-.62.16-1.21-.17-1.45-.74-.2-.47-.15-1.04.07-1.5,0,0,0,0,0-.02.07-.13.13-.27.19-.4.23-.48.46-.96.69-1.43.3-.63.61-1.27.92-1.9.43-.91.88-1.82,1.32-2.73.42-.85.92-1.72.82-2.7-.02-.23-.08-.47-.18-.68-.33-.76-1.1-1.07-1.9-1.07-2.02,0-2.64,1.37-2.64,1.37ZM9.04,58.54s-.04-1.32-.04-2.07c.35,0,.65.19.99.22.12,0,.26-.06.36,0,.31.12.35.47.33.76,0,.03.2-.08.21-.09.07-.06.13-.13.18-.21.1-.17.12-.33.12-.52.23-.02.52-.06.64-.3,0,0-.12-.14-.14-.16-.07-.07-.16-.12-.25-.12-.11-.02-.18-.03-.23-.15-.04-.1-.04-.21-.07-.32-.05-.18-.22-.34-.41-.38,0,.15-.02.29-.05.42-.04.14-.12.27-.23.36-.21.15-.52.09-.7-.1-.18-.19-.22-.48-.15-.73.08-.26.27-.48.52-.62s.53-.19.8-.18c.45.02.92.22,1.15.61.34.61.14,1.32-.12,1.92-.29.67-.66,1.29-.97,1.95-.81,1.7-1.6,3.41-2.39,5.12-.03.09-.16.26-.16.36,0-.1-.12-.27-.16-.36-.79-1.71-1.58-3.42-2.4-5.12-.31-.66-.67-1.28-.97-1.95-.26-.59-.46-1.31-.12-1.92.22-.39.69-.59,1.15-.61.27,0,.56.05.8.18.24.13.43.36.52.62.07.25.02.54-.15.73s-.49.25-.7.1c-.12-.08-.19-.22-.23-.36-.04-.13-.04-.27-.05-.42-.19.04-.36.2-.41.38-.02.11-.02.22-.07.32-.05.12-.13.13-.23.15-.09,0-.18.06-.25.12-.02.02-.15.15-.15.16.12.24.42.27.65.3,0,.19.02.36.12.52.05.07.11.15.18.21,0,0,.21.12.21.09-.02-.28.02-.63.33-.76.1-.05.24.02.36,0,.33-.02.64-.22.99-.22,0,.75-.04,2.07-.04,2.07-.13.57-.64.46-1.27.36.17.62.86.97,1.42,1.07-.83,1.3.47,2.14.47,2.14,0,0,1.3-.84.47-2.14.56-.1,1.25-.45,1.41-1.07-.62.1-1.13.21-1.27-.36Z"/>
    </g>
    <path class="cls-1" d="M12.25,71.48c.41-1.86.5-2.4-.46-3.36-.02-.02.25-.13.28-.14.21-.1.33-.29.42-.49h-2.9s-.77.22-1.16,1.04c-.39-.82-1.17-1.04-1.17-1.04h-2.89c.09.2.22.39.42.49.02,0,.29.12.27.14-.96.96-.87,1.5-.46,3.36.41,1.87-.08,2.26-.39,3.22,1.45-.07,1.31-1.96,1.38-2.04.07-.07.42.12.42.12l-.22-.84s.42.37.42.13-.41-.77-.41-.77c0,0,.64.1,1.11-.21l.02-.02c.32-.22.41-.63.38-1-.02-.26-.1-.53-.31-.7-.18-.14-.42-.18-.64-.18,0,0-.18,0-.18,0l-.15-.32s-.12.21-.12.49c-.32.07-.39.39-.39.39h.41l.1.5c.05-.17.16-.42.34-.49.23-.07.41.27.41.45.02.58-.7.6-1.09.46-.57-.21-.63-1-.46-1.49.17-.48.57-.72,1.26-.77.6-.03,1.22.31,1.31.94.08.58-.15,1.09-.38,1.62-.22.49-.47.97-.68,1.47-.09.22-.2.42-.22.66-.03.23,0,.47.07.69.12.33.4.71.77.77.25.04.5-.02.73-.12.03,0,.33-.13.33-.17,0,.04.3.17.33.17.23.1.48.17.73.12.37-.06.66-.43.77-.77.08-.22.11-.46.07-.69-.03-.23-.13-.44-.22-.66-.21-.5-.46-.97-.68-1.47-.23-.52-.47-1.03-.39-1.62.09-.63.72-.97,1.31-.94.7.04,1.1.28,1.27.77.17.49.12,1.28-.47,1.49-.39.14-1.1.12-1.09-.46,0-.18.18-.52.42-.45.18.07.29.32.34.49l.1-.5h.41s-.07-.32-.39-.39c0-.28-.12-.49-.12-.49l-.15.32s-.17,0-.18,0c-.22,0-.46.04-.64.18-.21.17-.29.44-.31.7-.02.37.07.77.38,1,0,0,0,0,.02.02.46.31,1.11.21,1.11.21,0,0-.41.54-.41.77s.43-.13.43-.13l-.23.84s.34-.19.42-.12c.07.08-.07,1.97,1.37,2.04-.31-.97-.8-1.36-.38-3.22ZM9.45,73.01c.02.23.04.72-.28.77-.27.03-.56-.25-.73-.42-.17.17-.46.46-.74.42-.32-.04-.3-.53-.27-.77.09-.76,1.02-2.3,1.02-2.3,0,0,.92,1.54,1.02,2.3Z"/>
    <path class="cls-1" d="M4.62,7.6c-.42,1.86-.5,2.39.46,3.36.02.02-.25.13-.27.14-.21.1-.33.29-.42.49h2.89s.77-.22,1.17-1.04c.38.82,1.16,1.04,1.16,1.04h2.9c-.09-.2-.22-.39-.42-.49-.03,0-.29-.12-.28-.14.96-.97.87-1.5.46-3.36-.42-1.87.07-2.26.38-3.22-1.44.07-1.3,1.96-1.37,2.04-.07.07-.42-.12-.42-.12l.23.85s-.43-.37-.43-.13.41.77.41.77c0,0-.65-.11-1.11.21,0,0-.02,0-.02.02-.32.22-.41.62-.38,1,.02.26.1.53.31.69.18.14.42.19.64.19,0,0,.18,0,.18,0l.15.32s.12-.22.12-.49c.32-.07.39-.39.39-.39h-.41l-.1-.5c-.05.17-.16.42-.34.48-.23.08-.41-.26-.42-.44,0-.58.7-.61,1.09-.47.58.22.64,1.01.47,1.5-.17.48-.57.72-1.27.77-.59.03-1.22-.31-1.31-.94-.07-.58.16-1.09.39-1.62.22-.49.47-.97.68-1.47.09-.22.19-.42.22-.67.03-.22,0-.47-.07-.68-.12-.33-.4-.71-.77-.77-.25-.04-.5.02-.73.12-.03.02-.33.13-.33.18,0-.05-.3-.17-.33-.18-.23-.09-.48-.16-.73-.12-.37.06-.66.43-.77.77-.08.22-.11.46-.07.68.02.24.13.45.22.67.21.5.46.97.68,1.47.23.52.47,1.03.38,1.62-.08.63-.71.97-1.31.94-.69-.04-1.09-.28-1.26-.77-.18-.49-.12-1.28.46-1.5.39-.14,1.11-.12,1.09.47,0,.18-.17.52-.41.44-.18-.06-.29-.31-.34-.48l-.1.5h-.41s.07.32.39.39c0,.27.12.49.12.49l.15-.32s.17,0,.18,0c.22,0,.46-.05.64-.19.21-.16.29-.43.31-.69.02-.37-.07-.77-.38-1l-.02-.02c-.47-.32-1.11-.21-1.11-.21,0,0,.41-.54.41-.77s-.42.13-.42.13l.22-.85s-.34.2-.42.12c-.07-.08.07-1.97-1.38-2.04.31.96.8,1.36.39,3.22ZM7.42,6.06c-.02-.23-.04-.73.27-.77.28-.03.57.25.74.42.17-.17.46-.46.73-.42.32.03.31.53.28.77-.09.76-1.02,2.3-1.02,2.3,0,0-.92-1.54-1.02-2.3Z"/>
  </g>
</svg>