<?xml version="1.0" encoding="UTF-8"?>
<svg id="Layer_1" data-name="Layer 1" xmlns="http://www.w3.org/2000/svg" viewBox="0 0 118.61 79.07">
  <defs>
    <style>
      .cls-1 {
        fill: #05a451;
      }

      .cls-1, .cls-2, .cls-3 {
        stroke-width: 0px;
      }

      .cls-2 {
        fill: #e42528;
      }

      .cls-3 {
        fill: #fff;
      }
    </style>
  </defs>
  <g>
    <rect class="cls-2" x="0" y="0" width="118.61" height="19.77"/>
    <rect class="cls-2" x="0" y="59.3" width="118.61" height="19.77"/>
    <rect class="cls-3" x="0" y="19.76" width="118.61" height="39.54"/>
  </g>
  <path class="cls-1" d="M78.71,51.44c-.27-.42-.68-.8-1.05-1.13-.34-.3-.73-.65-1.17-.8-.55-.18-1.08-.56-1.57-.86-.52-.31-1.02-.63-1.52-.97-.47-.32-.94-.73-1.45-1.01-.37-.21-1.05-.62-.7-1.13.12-.17.31-.27.49-.36.31-.14.57-.31.91-.33.46-.02.9.27,1.32.41.6.22,1.21.41,1.82.57.28.08.69.19.69-.22,0-.57-.39-1.02-.88-1.25-.6-.28-1.09-.74-1.55-1.21-.76-.76-1.39-2.03-2.64-1.94-.36.02-.71.11-1.07.12-.26,0-.61.02-.77-.23-.07-.12-.09-.29-.07-.44.07-.51.42-.8.93-.8,1.23,0,2.66.17,3.84-.25.13-.05.31-.12.37-.26.09-.23-.19-.41-.37-.5-1.02-.51-2.21-.64-3.31-.88-.37-.08-.76-.17-1.05-.4-.41-.32-.62-1.47.19-1.32.18.03.35.12.52.19.59.26,1.24.39,1.89.38.47,0,1.02-.27.67-.81-.1-.16-.25-.27-.4-.38-.55-.37-1.17-.6-1.72-.97-1.07-.72-2.1-1.48-3.15-2.21-.85-.6-1.8-1.1-2.71-1.58-.12-.07-.27-.15-.36-.27-.1-.13-.13-.31-.12-.47,0-.19.06-.66.32-.65.06,0,.12.02.17.05.49.21.97.46,1.49.6.38.11.77.17,1.17.19.29.02.77.09.87-.29.2-.79-.85-1.16-1.38-1.42-.43-.22-.87-.51-1.04-.97-.03-.08-.05-.17-.02-.26.06-.14.22-.1.33-.1.38,0,.82.1,1.17-.07.51-.23-.07-.62-.28-.85-.25-.24-.51-.47-.78-.7-.77-.62-1.66-1.22-2.65-1.43-.95-.2-1.89-.17-2.76-.67-.5-.28-.95-.65-1.34-1.07-.19-.22-.37-.45-.53-.69-.17-.26-.37-.49-.52-.77-.11-.22-.28-.47-.38-.69-.07-.15-.16-.44-.27-.54-.04-.04-.09-.04-.14-.02-.14.07-.34.49-.42.61-.31.44-.56.98-.94,1.36-.31.32-2.28,2.06-2.47,2.25-.2.2-.79.72-.64.87s.72-.07.92.12.18.67-.18.81c-.49.18-.96.49-1.41.75-.48.27-1.01.52-1.44.86-.17.12-.27.34-.32.53-.02.05-.03.1-.02.15.02.06.07.1.12.12.21.07.45,0,.67.05.11.02.3.03.37.12.08.09.17.47.15.6-.02.09-.07.17-.15.22-.18.14-.37.19-.6.23-.21.05-.43.09-.63.17-.13.04-.27.12-.39.19-.15.07-.32.15-.45.26-.21.15-.26.37-.35.59-.1.25-.23.48-.42.68-.3.29-.73.49-1.1.69-.52.27-1.04.53-1.57.77-.42.19-.92.39-1.26.73-.33.32-.8,1.22-.44,1.37.22.09.53,0,.75-.05.48-.1,1.01-.27,1.5-.27.39,0,.97-.17,1.31.09.17.14.27.5.32.71.11.4.2.89-.12,1.22-.54.54-1.87,1.69-2.5,1.86-.62.16-1.56.6-1.79.83-.29.29-.59.59-.88.89-.15.14-.24.26-.42.36-.23.12-.52.17-.66.42-1.02,1.77.13,1.96,1,1.53.65-.32,1.26-.77,1.97-.96.33-.08.7-.11,1.02.06.32.17.7.64.54,1.02-.24.58-1.15.82-1.66,1.07-.6.31-1.34.65-1.72,1.23-.38.6-.93,1.07-1.45,1.54-.45.42-.92.81-1.47,1.08-.29.14-1.1.54-1.1.93,0,.48.93.57,1.24.55.75-.06,1.45-.46,2.12-.77.57-.26,1.17-.5,1.72-.79.92-.48,2.34-1.45,3.38-.85.12.07.24.17.31.3.19.44-.57,1.02-.86,1.24-.61.47-1.3.86-2.02,1.12-.83.3-1.7.44-2.56.65-.25.06-.43.15-.66.26-.42.2-1.3.38-.92.99.29.45.93.76,1.47.62.75-.18,1.51-.36,2.26-.53.65-.15,1.37-.24,1.98-.53.73-.35,1.42-.81,2.16-1.12.89-.37,2.5-.86,3.33-.21.81.62,1.38,1.71.94,2.71-.65,1.48-1.31,2.37-2.41,3.48-1.1,1.1-2.27,1.69-2.82,1.85-.42.12-.87.16-1.24.37-.39.22-.72.81-.48,1.25.12.22.52.39.58.09.11-.42.53-1.07,1.14-1.07s1.76.14,2.82-.48c.84-.5,1.82-.77,2.51-1.52.29-.31.62-.63,1.07-.69.27-.02.52.07.78.15.11.02.22.06.32.06.51,0,.95-.27,1.48-.27.37,0,.83.02,1.1.27.53.48.24,1.13,1.42,1.64.32.13.42.58.71.77.47.3.81-.1,1-.5.12-.27.22-.4.54-.47.52-.11,1.12.02,1.62.16.68.17,1.32.51,1.87.96.26.22.46.47.66.73.17.22.32.43.66.42.27-.02.54-.27.58-.57.07-.53-.91-1.02-1.27-1.27-.58-.39-1.2-.77-1.72-1.26-1.19-1.13-1.77-2.64-1.91-4.26-.05-.61,0-1.22.15-1.8.14-.53.35-1.23.79-1.59.77-.62,1.68.36,2.36.62.55.22,1.13.32,1.72.36.67.04,1.34,0,2.01-.05.5-.03,1,.03,1.52-.06.33-.05.64.1.97.17.97.22,1.92.59,2.78,1.11.89.53,1.69,1.17,2.69,1.51.31.1.6.12.88-.07.13-.08.23-.22.25-.37,0-.12-.03-.24-.1-.34ZM51.24,41.04c-.23.28-.47.21-1.12.45-.83.31-.91.61-1.32.56-.52-.07-.83-.64-.87-.73-.03-.05-.39-.72-.1-1.09.14-.17.41-.2.95-.25.35-.03.59-.02,1.28,0,1.05.04,1.21.06,1.31.2.16.23.06.63-.13.87ZM51.64,34.97c-.09.22-.3.32-.36.34-.49.21-1.05-.26-1.12-.32-.09-.07-.35-.3-.45-.68-.05-.17-.12-.45.03-.67.2-.31.64-.3.72-.29.21,0,.36.07.4.09.28.13.41.37.56.65.18.36.32.62.22.89ZM59.08,32.45c.11.16-.07.52-.32.69-.05.03-.39.27-.71.09-.18-.11-.32-.33-.27-.55.06-.32.44-.47.68-.46.11,0,.21.04.34.08.17.06.25.08.28.14ZM53.5,27.36c.13-.09.34-.14.51-.05.24.14.24.49.19.68-.02.04-.12.41-.39.44-.24.03-.47-.22-.52-.46-.05-.21,0-.47.22-.62ZM53.92,46.01c-.1.26-.39.47-.66.45-.31-.03-.47-.36-.69-.81-.03-.07-.23-.49-.25-1.07-.02-.43.08-.52.12-.55.12-.07.27-.02.42.02.37.12.59.37.62.42.2.23.26.46.36.86.09.34.13.52.07.67ZM53.97,33.73c-.11.3-.41.42-.54.47-.17.07-.57.24-.9.02-.27-.19-.3-.53-.31-.57,0-.07-.02-.3.14-.5.21-.26.56-.25.76-.24.26,0,.43.08.47.11.13.06.32.15.39.35.05.16,0,.3-.02.36ZM54.11,31.52c-.07-.02-.39-.07-.52-.32-.15-.33.18-.75.25-.85.13-.17.18-.16,1.01-.65.32-.2.47-.3.58-.23.12.07.13.27.14.45,0,.12.02.38-.12.69-.22.49-.78,1.01-1.34.92ZM54.57,38.65c-.33-.13-.32-.61-.32-.68,0-.08,0-.35.16-.42s.36.13.43.2c.13.13.45.51.29.76-.1.16-.37.22-.56.14ZM56.09,46.43c-.16.1-.49-.17-.66-.37-.27-.31-.3-.66-.27-.84.02-.07.04-.12.08-.17.1-.08.25-.04.31-.03.19.05.31.17.37.23.24.27.26.62.26.76,0,.18.02.37-.09.42ZM56.92,28.78c.15-.18.37-.29.82-.49.1-.04.14-.07.19-.07.06-.02.53-.16.82.13.19.2.21.52.12.74-.15.37-.57.47-.85.54-.4.1-1.13.14-1.28-.2-.12-.26.16-.62.18-.65ZM57.31,38.17c-.27.02-.5-.23-.5-.49,0-.15.08-.34.27-.42.17-.07.36-.02.47.09.18.17.14.42.14.43-.03.18-.19.37-.38.38ZM58.87,45.86c-.16.22-.45.3-.7.25-.34-.07-.49-.37-.55-.48-.15-.29-.17-.67.02-.96.03-.05.19-.3.41-.29.08,0,.14.04.32.19.29.24.43.36.45.38.14.2.27.61.05.91ZM59.91,39.67c-.15.24-.49.36-.76.27-.42-.12-.5-.72-.52-.87-.02-.14.02-.28.05-.42.03-.11.06-.22.09-.33s.06-.25.12-.34c.05-.09.13-.16.27-.14.15.02.22.13.29.25.06.11.13.2.19.3.11.17.19.34.24.52.1.34.16.56.03.76ZM59.95,28.85c-.13-.19-.1-.43,0-.59.11-.18.33-.32.57-.27.17.02.37.15.42.36.04.17-.06.32-.12.42-.06.07-.22.32-.5.31-.22-.02-.36-.2-.37-.22ZM60.18,32.96s-.03-.3.16-.52c.19-.22.47-.22.52-.22.06,0,.31.02.44.2.22.3-.12.77-.14.8-.07.1-.22.31-.45.31-.27,0-.48-.3-.52-.57ZM61.24,39.77s-.2.21-.38.15c-.17-.05-.21-.28-.23-.39-.04-.23-.02-.63.21-.72.13-.05.29.02.38.1.08.07.11.16.13.21,0,.02.12.4-.11.65ZM62.01,29.14c-.18-.22-.2-.57-.03-.76.08-.09.19-.11.35-.14.19-.03.43-.07.59.07.13.12.14.29.15.4,0,.08.02.28-.09.43-.19.25-.72.29-.97,0ZM64.67,33.97c-.13.27-.42.36-.62.42-.13.04-.62.18-1.05-.09-.05-.03-.53-.34-.49-.75.05-.48.79-.68.97-.73.16-.04.32-.08.53-.03.4.1.58.46.6.5.04.07.19.39.05.69ZM65.97,36.24c.15-.23.44-.32.67-.29.28.03.44.22.47.26.17.19.23.47.14.72-.09.27-.35.49-.65.5-.38,0-.65-.34-.72-.62-.02-.06-.08-.32.08-.57ZM67.4,43.62c-.21.21-.43.26-.89.35-.38.07-.65.12-.98.02-.17-.05-.52-.17-.62-.47-.08-.29.14-.57.17-.6.09-.12.29-.18.68-.32.45-.16.68-.19.75-.2.12,0,.13,0,.27-.02.37-.05.43-.12.56-.08.25.07.33.45.34.48.09.46-.26.82-.28.85ZM70.46,44.77c-.38.32-.7.59-1.05.49-.35-.09-.5-.48-.53-.57-.02-.06-.15-.4,0-.77.14-.36.44-.52.63-.62.22-.11.8-.41,1.23-.1.22.16.36.44.35.72-.03.34-.27.54-.63.85Z"/>
</svg>
