<?xml version="1.0" encoding="UTF-8"?>
<svg id="Layer_1" data-name="Layer 1" xmlns="http://www.w3.org/2000/svg" viewBox="0 0 118.61 79.07">
  <defs>
    <style>
      .cls-1, .cls-2, .cls-3, .cls-4 {
        stroke-width: 0px;
      }

      .cls-2 {
        fill: #209d46;
      }

      .cls-3 {
        fill: #e2051a;
      }

      .cls-4 {
        fill: #fff;
      }
    </style>
  </defs>
  <g>
    <rect class="cls-3" width="118.62" height="19.77"/>
    <rect class="cls-2" y="59.31" width="118.62" height="19.77"/>
    <rect class="cls-1" y="19.77" width="118.62" height="39.54"/>
  </g>
  <g>
    <path class="cls-4" d="M57.19,48.11c-4.74,0-8.58-3.84-8.58-8.58s3.84-8.58,8.58-8.58c2.05,0,3.92.72,5.4,1.92-1.82-2.02-4.46-3.29-7.39-3.29-5.5,0-9.95,4.45-9.95,9.95s4.45,9.96,9.95,9.96c2.93,0,5.57-1.27,7.39-3.29-1.48,1.19-3.36,1.91-5.4,1.91Z"/>
    <polygon class="cls-4" points="65.16 32.56 68.29 36.87 73.37 35.23 70.23 39.54 73.36 43.85 68.29 42.21 65.15 46.52 65.15 41.18 60.08 39.53 65.16 37.88 65.16 32.56"/>
  </g>
</svg>