<?xml version="1.0" encoding="UTF-8"?>
<svg id="Layer_1" data-name="Layer 1" xmlns="http://www.w3.org/2000/svg" viewBox="0 0 118.61 79.07">
  <defs>
    <style>
      .cls-1 {
        fill: #bf272d;
      }

      .cls-1, .cls-2 {
        stroke-width: 0px;
      }

      .cls-2 {
        fill: #016233;
      }
    </style>
  </defs>
  <rect class="cls-1" width="118.61" height="79.07"/>
  <path class="cls-2" d="M71.54,36.79h-9.34l-2.89-8.88-2.89,8.88h-9.34l7.56,5.5-2.89,8.88,7.56-5.5,7.56,5.5-2.89-8.88,7.56-5.5ZM63.38,40.42l-.58-1.78h3.04l-2.46,1.78ZM59.31,43.38h0l-2.5-1.81.96-2.93h3.08l.95,2.93-2.49,1.81h0ZM60.25,36.79h-1.88l.94-2.89.94,2.89ZM52.78,38.64h3.04l-.58,1.78-2.46-1.78ZM56.21,43.42l1.52,1.11-2.46,1.79.94-2.9ZM60.88,44.53l1.52-1.11.94,2.9-2.47-1.79Z"/>
</svg>