<?xml version="1.0" encoding="UTF-8"?>
<svg id="Layer_1" data-name="Layer 1" xmlns="http://www.w3.org/2000/svg" viewBox="0 0 118.61 79.07">
  <defs>
    <style>
      .cls-1 {
        fill: #1d3e87;
      }

      .cls-1, .cls-2, .cls-3 {
        stroke-width: 0px;
      }

      .cls-2 {
        fill: #db153d;
      }

      .cls-3 {
        fill: #fff;
      }
    </style>
  </defs>
  <g>
    <rect class="cls-1" y="0" width="118.61" height="79.07"/>
    <rect class="cls-2" x="24.55" y="-14.99" width="69.52" height="109.05" transform="translate(98.84 -19.78) rotate(90)"/>
  </g>
  <g>
    <polygon class="cls-3" points="69.02 54.57 75.52 51.98 69.02 49.37 73.35 43.87 66.42 44.87 67.42 37.94 61.91 42.27 59.31 35.76 56.71 42.27 51.21 37.94 52.21 44.87 45.28 43.87 49.61 49.37 43.11 51.98 49.61 54.57 45.28 60.08 52.21 59.08 51.21 66.01 56.71 61.68 59.31 68.18 61.91 61.68 67.42 66.01 66.42 59.08 73.35 60.08 69.02 54.57"/>
    <path class="cls-3" d="M59.31,30.28c8.95,0,16.21-7.26,16.21-16.21,0-.12,0-.23,0-.35-1.08,4.1-4.31,7.54-8.64,9.4l-1.19-1.41,3.24-1.46-3.24-1.46,2.29-2.71-3.55.1.88-3.44-3.16,1.62-.7-3.48-2.14,2.83-2.14-2.83-.69,3.48-3.16-1.62.88,3.44-3.56-.1,2.29,2.71-3.24,1.46,3.24,1.46-1.19,1.41c-4.33-1.87-7.55-5.3-8.63-9.4,0,.12,0,.23,0,.35,0,8.95,7.25,16.21,16.2,16.21Z"/>
  </g>
</svg>