<?xml version="1.0" encoding="UTF-8"?>
<svg id="Layer_1" data-name="Layer 1" xmlns="http://www.w3.org/2000/svg" viewBox="0 0 118.61 79.07">
  <defs>
    <style>
      .cls-1 {
        fill: #074020;
      }

      .cls-1, .cls-2 {
        stroke-width: 0px;
      }

      .cls-2 {
        fill: #fff;
      }
    </style>
  </defs>
  <rect class="cls-2" x="0" y="0" width="29.68" height="79.07"/>
  <rect class="cls-1" x="29.68" y="0" width="88.94" height="79.07"/>
  <g>
    <path class="cls-2" d="M81.19,55.27c-11.99,0-21.71-9.72-21.71-21.7,0-6.99,3.3-13.21,8.43-17.18-9.54,3.06-16.45,12.01-16.45,22.57,0,13.1,10.61,23.71,23.7,23.71,9.66,0,17.97-5.78,21.66-14.07-3.95,4.1-9.5,6.66-15.64,6.66Z"/>
    <polygon class="cls-2" points="93.89 32.42 88.21 31.19 85.29 36.21 84.7 30.44 79.02 29.22 84.34 26.87 83.74 21.1 87.62 25.42 92.93 23.08 90.01 28.1 93.89 32.42"/>
  </g>
</svg>