<?xml version="1.0" encoding="UTF-8"?>
<svg id="Layer_1" data-name="Layer 1" xmlns="http://www.w3.org/2000/svg" viewBox="0 0 118.61 79.08">
  <defs>
    <style>
      .cls-1, .cls-2, .cls-3, .cls-4, .cls-5, .cls-6 {
        stroke-width: 0px;
      }

      .cls-2 {
        fill: #204193;
      }

      .cls-3 {
        fill: #d32d1e;
      }

      .cls-4 {
        fill: #fff;
      }

      .cls-5 {
        fill: #fcdd16;
      }

      .cls-6 {
        fill: #00993b;
      }
    </style>
  </defs>
  <g>
    <rect class="cls-2" x="0" y="52.71" width="118.61" height="26.36"/>
    <rect class="cls-4" x="0" y="26.35" width="118.61" height="26.36"/>
    <rect class="cls-3" x="0" y="0" width="118.61" height="26.35"/>
  </g>
  <g>
    <g>
      <path class="cls-1" d="M59.31,49.8c-1.38,0-2.73-.27-4-.8-1.22-.52-2.31-1.26-3.26-2.21-.94-.94-1.68-2.04-2.2-3.26-.53-1.27-.81-2.61-.81-4s.27-2.73.81-4c.52-1.22,1.26-2.31,2.2-3.26.95-.94,2.04-1.68,3.26-2.2,1.27-.53,2.62-.81,4-.81s2.73.27,4,.81c1.22.52,2.32,1.26,3.26,2.2.95.95,1.68,2.04,2.21,3.26.53,1.27.8,2.61.8,4s-.27,2.73-.8,4c-.52,1.22-1.26,2.32-2.21,3.26-.94.95-2.04,1.68-3.26,2.21-1.27.53-2.61.8-4,.8ZM59.31,29.72c-5.41,0-9.82,4.4-9.82,9.82s4.4,9.82,9.82,9.82,9.82-4.4,9.82-9.82-4.4-9.82-9.82-9.82Z"/>
      <path class="cls-1" d="M59.31,48.01c-1.14,0-2.25-.22-3.3-.67-1.01-.42-1.92-1.03-2.69-1.82-.78-.77-1.39-1.68-1.82-2.69-.44-1.05-.67-2.16-.67-3.31s.22-2.25.67-3.3c.43-1.01,1.04-1.92,1.82-2.69.78-.78,1.68-1.39,2.69-1.82,1.05-.44,2.16-.67,3.3-.67s2.26.22,3.31.67c1.01.43,1.92,1.04,2.69,1.82.78.77,1.39,1.68,1.82,2.69.44,1.05.67,2.16.67,3.3s-.22,2.26-.67,3.31c-.42,1.01-1.03,1.92-1.82,2.69-.77.78-1.68,1.39-2.69,1.82-1.05.44-2.16.67-3.31.67ZM59.31,31.24c-4.57,0-8.29,3.72-8.29,8.29s3.72,8.3,8.29,8.3,8.3-3.72,8.3-8.3-3.72-8.29-8.3-8.29Z"/>
      <path class="cls-1" d="M59.31,45.9c-.86,0-1.69-.17-2.48-.5-.76-.32-1.43-.77-2.02-1.37-.58-.58-1.04-1.27-1.37-2.02-.33-.78-.5-1.62-.5-2.48s.17-1.69.5-2.48c.33-.76.78-1.43,1.37-2.02.59-.58,1.27-1.04,2.02-1.37.79-.33,1.62-.5,2.48-.5s1.7.17,2.48.5c.76.32,1.44.78,2.02,1.37.59.59,1.05,1.27,1.37,2.02.33.79.5,1.62.5,2.48s-.17,1.7-.5,2.48c-.32.76-.77,1.44-1.37,2.02-.58.59-1.27,1.05-2.02,1.37-.78.33-1.61.5-2.48.5ZM59.31,33.35c-3.41,0-6.19,2.77-6.19,6.19s2.77,6.19,6.19,6.19,6.2-2.78,6.2-6.19-2.78-6.19-6.2-6.19Z"/>
      <g>
        <path class="cls-1" d="M52.65,42.59c.08,0,.17.04.27.15h.02c-.05-.08-.07-.16-.05-.22.02-.06.06-.12.13-.16l.25-.14.22.37-.17.1c-.06.03-.09.06-.1.1-.02.03,0,.08.02.13l.17.28.32-.18.21.36-1.24.72-.4-.71c-.1-.17-.14-.3-.13-.39,0-.11.08-.21.23-.29.13-.07.22-.11.27-.11ZM52.57,43.14s0,.07.03.13l.17.28.33-.19-.16-.28c-.04-.07-.08-.11-.12-.11-.03,0-.08.02-.16.07-.06.03-.08.07-.09.1Z"/>
        <path class="cls-1" d="M53.21,42.07l-1.36.43-.34-1.08.3-.09.22.68.25-.08-.21-.64.26-.07.21.64.27-.08-.22-.7.3-.1.34,1.1Z"/>
        <path class="cls-1" d="M52.22,39.63c.09.07.14.21.17.42l.03.37.37-.03.04.42-1.42.14-.08-.79c-.02-.19,0-.33.08-.42.07-.08.2-.14.39-.16.2-.02.34,0,.42.06ZM51.74,40.02s-.04.02-.05.03c-.02,0-.02.03-.02.06v.09l.02.29.4-.04-.02-.28c0-.08-.02-.14-.06-.16-.02-.02-.08-.02-.17,0-.04,0-.07,0-.1.02Z"/>
        <path class="cls-1" d="M52.76,38.2c.05.1.06.27.03.51-.03.29-.1.48-.18.57-.07.07-.2.09-.38.07l-.95-.12.05-.42.94.12c.08,0,.12,0,.14-.05s.04-.11.05-.21c.02-.09.02-.16,0-.18-.02-.04-.07-.07-.15-.07l-.92-.12.05-.42.95.12c.18.02.31.09.38.21Z"/>
        <path class="cls-1" d="M53.26,36.73c.02.08,0,.21-.07.38l-.29.79-1.34-.49.28-.78c.06-.17.12-.27.18-.32.08-.07.19-.07.32-.02.1.03.17.07.2.12.04.05.05.12.03.23h0c.04-.1.09-.16.17-.17.06-.02.13,0,.23.02.15.06.24.14.27.24ZM52.18,36.69s-.04.04-.06.09l-.12.33.25.09.1-.28c.02-.07.03-.12.03-.15,0-.02-.04-.05-.1-.07-.04-.02-.07-.02-.1,0ZM52.68,36.86s-.05.07-.08.13l-.11.31.27.09.11-.3c.02-.07.02-.12.02-.15s-.03-.06-.09-.07c-.05-.02-.09-.02-.12,0Z"/>
        <path class="cls-1" d="M53.44,36.54l-1.22-.75.22-.36.93.57.35-.57.28.17-.57.92Z"/>
        <path class="cls-1" d="M54.08,35.54l-1.11-.9.27-.33,1.11.91-.27.32Z"/>
        <path class="cls-1" d="M55.24,33.97c.07.14.05.29-.07.45-.03.03-.1.1-.2.18-.19.17-.34.27-.44.3-.15.04-.31-.02-.47-.21l-.25-.27c-.15-.17-.2-.32-.15-.47.03-.12.15-.26.34-.43.18-.16.32-.25.41-.27.12-.02.25.04.38.19l.04.04-.32.28-.03-.04s-.1-.05-.15-.02c-.03.02-.08.04-.13.1-.09.07-.13.13-.13.18,0,.04.04.11.12.19l.15.17c.06.07.1.11.13.12.07.04.15,0,.26-.08.07-.07.12-.12.13-.17,0-.04,0-.08-.05-.14l-.03-.03.32-.28.02.03c.07.07.12.13.13.17Z"/>
        <path class="cls-1" d="M56.42,33.62l-.19-.17-.5.27.06.25-.38.22-.29-1.48.57-.31,1.11,1.02-.37.21ZM55.54,32.8l.12.63.34-.19-.47-.44Z"/>
        <path class="cls-1" d="M58.97,32.61c0,.07-.03.14-.07.19-.04.06-.09.1-.17.13-.07.03-.16.06-.27.07l-.84.12-.22-1.42.79-.12c.11-.02.21-.02.29-.02.08,0,.15.03.21.07.06.04.1.09.14.16.03.07.06.15.07.24l.04.3c.02.1.02.18,0,.26ZM58.48,32.12c-.02-.08-.04-.14-.07-.17s-.09-.03-.17-.02l-.37.06.12.76.37-.05c.13-.02.19-.12.17-.27l-.04-.3Z"/>
        <path class="cls-1" d="M59.18,32.94l.1-1.43,1.13.07-.02.32-.72-.05-.02.26.67.05-.02.27-.67-.05-.02.28.73.05-.02.31-1.15-.07Z"/>
        <path class="cls-1" d="M60.51,33.05l.36-1.38.41.11-.27,1.07.63.17-.08.32-1.04-.27Z"/>
        <path class="cls-1" d="M63.71,33.98c-.11.02-.25-.02-.43-.14l-.31-.21-.2.31-.36-.23.8-1.19.66.43c.16.11.25.22.27.33.03.11-.02.25-.12.4-.12.17-.22.27-.32.3ZM63.71,33.36s0-.05,0-.07,0-.04-.02-.06c-.02-.02-.05-.03-.08-.06l-.23-.16-.22.33.24.16c.07.05.12.07.16.06.02-.02.06-.06.11-.12.02-.03.04-.07.05-.08Z"/>
        <path class="cls-1" d="M64.23,35.16l.12-.23-.4-.4-.22.12-.31-.31,1.35-.67.45.45-.68,1.35-.3-.3ZM64.79,34.1l-.57.3.27.27.3-.57Z"/>
        <path class="cls-1" d="M65.84,36.21c-.08,0-.18-.04-.28-.14h-.02c.05.08.07.16.06.22s-.05.12-.12.16l-.25.16-.22-.36.17-.11s.08-.07.09-.1,0-.08-.03-.14l-.17-.27-.32.21-.22-.36,1.21-.77.43.69c.11.17.16.29.15.38,0,.11-.07.22-.22.31-.12.07-.21.12-.26.12ZM65.89,35.66s0-.08-.04-.14l-.17-.27-.32.21.17.27c.04.07.08.1.12.11.02,0,.08-.03.16-.08.05-.03.08-.06.08-.09Z"/>
        <path class="cls-1" d="M65.63,37.68l.21-.16-.19-.53h-.26s-.14-.4-.14-.4l1.51-.04.22.61-1.19.92-.15-.4ZM66.59,36.96l-.65.02.12.37.52-.39Z"/>
        <path class="cls-1" d="M66,39.32c-.08-.08-.13-.26-.17-.54-.03-.27-.03-.46.02-.57.06-.13.2-.21.42-.23l.37-.05c.22-.02.37.02.47.15.07.1.12.27.16.53.03.25.03.42,0,.5-.04.14-.17.22-.37.24l-.04-.42c.06,0,.1-.04.11-.1,0-.03,0-.1,0-.19-.02-.13-.05-.22-.1-.26-.04-.02-.12-.03-.25-.02l-.23.02c-.12.02-.19.05-.22.1-.02.04-.03.12-.02.25,0,.1.03.17.07.21.03.03.1.05.21.03l-.04-.29.27-.02.08.71-.25.02c-.23.02-.39,0-.47-.08Z"/>
        <path class="cls-1" d="M65.88,40.81c-.06-.11-.07-.27-.04-.52.03-.29.09-.48.17-.57.07-.07.19-.09.38-.07l.95.11-.05.42-.93-.11c-.07,0-.12.02-.15.06-.02.03-.03.1-.05.21,0,.09,0,.16,0,.18.02.04.07.06.15.07l.92.11-.05.42-.95-.11c-.18-.02-.31-.08-.37-.19Z"/>
        <path class="cls-1" d="M65.39,42.06h.26s.19-.52.19-.52l-.21-.16.14-.41,1.2.92-.22.61-1.51-.02.14-.41ZM66.59,42.1l-.52-.39-.13.37.65.02Z"/>
        <path class="cls-1" d="M65.31,43.3l-.43-.26.21-.37.43.26h1.08l-.24.41-.62-.03h0s.32.54.32.54l-.25.42-.5-.97Z"/>
      </g>
    </g>
    <g>
      <polygon class="cls-5" points="59.31 37.28 59.82 38.83 61.44 38.83 60.12 39.78 60.63 41.33 59.31 40.37 57.99 41.33 58.49 39.78 57.18 38.83 58.81 38.83 59.31 37.28"/>
      <path class="cls-1" d="M60.7,41.42l-1.39-1.01-1.38,1.01.52-1.62-1.38-1.01h1.72l.52-1.63.53,1.63h1.71l-1.39,1.01.53,1.62ZM57.28,38.86l1.26.91-.48,1.47,1.25-.91,1.25.91-.47-1.47,1.25-.91h-1.54l-.48-1.47-.47,1.47h-1.55Z"/>
    </g>
    <g>
      <path class="cls-6" d="M62.38,35.42v.04s-.02.04-.03.07c-.02-.07-.05-.12-.08-.17s-.07-.08-.1-.12c-.03-.02-.07-.06-.1-.11-.07-.07-.12-.17-.15-.27,0-.02-.02-.02-.04-.02-.02,0-.03.02-.02.04.04.11.09.2.16.28.04.06.07.09.11.12.03.02.06.06.09.1.02.03.05.08.07.13-.14-.17-.28-.31-.45-.39h0s-.02,0-.03-.02c0,0,0-.02,0-.02,0-.07-.03-.17-.08-.3-.03-.09-.07-.16-.1-.22-.02-.04-.05-.09-.04-.1,0,0,.04-.02.25.08.08.04.23.12.37.3.13.17.17.34.19.43,0,.05.02.08.02.12Z"/>
      <path class="cls-1" d="M64.84,38.03c.07.1.04.57-.05.93-.06.23-.11.43-.27.64-.08.12-.16.19-.24.26-.09.09-.17.17-.26.32-.02.04-.05.08-.07.13.02,0,.05,0,.07,0,.11,0,.17.03.19.07.08.1.03.26-.06.35,0,0-.06.07-.14.08.02,0,.06,0,.09,0,.13-.02.22-.08.28-.12.05-.03.09-.06.13-.02.08.07-.11.34-.11.35-.03.05-.07.08-.08.11-.03.04-.06.07-.07.11-.02.06-.02.1,0,.14,0,.03,0,.06,0,.09h0s.11-.04.17-.07h.02c.17-.08.22-.11.27-.07.02.02.04.09-.17.44-.21.34-.32.52-.46.6-.06.03-.09.03-.23.07-.07,0-.18.03-.36.07-.07.02-.17.03-.25.06,0,.02.02.03.02.05.03.12-.03.27-.17.32-.03.02-.06.02-.09.02s-.07,0-.09-.02c-.03.03-.07.07-.11.09.07,0,.13,0,.15,0,.06,0,.1.02.15.02.12.02.18.02.28,0,.03,0,.07-.02.08-.02.05-.02.09-.03.12,0,.06.07-.17.26-.18.27-.04.04-.12.09-.42.22-.14.06-.21.08-.32.12-.03.02-.07.02-.11.03.03,0,.07.02.12.02,0,0,.02,0,.03,0,.05,0,.1,0,.11.03.02.04-.02.07-.19.17-.18.11-.27.16-.34.18-.12.03-.22.03-.42.04h-.06s-.09,0-.15,0c-.07,0-.1.02-.13.02-.02,0-.05.02-.09.02h-.02s-.07,0-.13-.02c-.03,0-.08-.02-.17-.05-.12-.03-.19-.05-.25-.05-.12,0-.2.02-.27.04h0s0,0-.02,0c.09.04.19.09.27.13.09.04.18.09.27.13.05.02.08.06.11.11h0s.02.08,0,.13c-.03.08-.12.14-.24.14h-.02c-.13,0-.27-.05-.42-.12-.1-.04-.2-.1-.29-.16-.11-.06-.21-.12-.32-.17h-.03s-.09-.05-.13-.07c-.02.02-.04.03-.07.04s-.07.02-.12.02c-.12,0-.23-.05-.34-.1-.19.04-.37.13-.54.22-.12.06-.23.12-.36.17-.02,0-.04,0-.06.02h0c-.12.04-.22.07-.32.07-.03,0-.07,0-.12-.02h0c-.07-.02-.19-.04-.24-.11-.02-.02-.03-.03-.03-.06,0-.02,0-.03.02-.05h0c.05-.07.17-.09.25-.12.02,0,.05,0,.06-.02.12-.04.26-.09.41-.14.15-.06.31-.12.49-.2-.06-.02-.12-.04-.17-.07h-.02c-.06-.03-.26-.11-.36-.14-.24-.07-.47-.06-.72-.05-.14,0-.29.02-.43,0-.38-.02-.72-.12-1.02-.27-.08-.04-.16-.09-.22-.14-.26-.18-.5-.47-.52-.57,0-.02,0-.03.02-.04.03-.04.08,0,.19.05.03.02.07.05.12.07.49.25,1.04.26,1.14.21-.03-.02-.12-.08-.42-.23-.36-.18-.54-.26-.66-.31-.11-.04-.17-.07-.28-.14-.25-.16-.6-.47-.84-1.03-.07-.17-.18-.51-.16-.57l.02-.02s.07.03.12.12c0,0,.02.02.02.02.2.31.45.5.59.61.12.09.2.13.29.17.08.04.17.08.32.18-.04-.04-.09-.09-.13-.14-.09-.09-.16-.2-.23-.31-.06-.09-.12-.18-.2-.27-.15-.18-.31-.32-.49-.48-.12-.11-.26-.25-.34-.42-.03-.07-.06-.14-.07-.21-.03-.11-.07-.22-.13-.3,0,0,0-.02-.02-.02-.03-.05-.07-.09-.04-.12.03-.04.09,0,.26.09.17.1.29.17.37.22-.03-.13-.07-.27-.12-.41-.08-.22-.18-.46-.31-.68-.17-.32-.33-.57-.44-.75-.15-.22-.19-.29-.15-.33.03-.02.06-.02.24.1h0c.21.13.32.19.36.23.13.11.17.21.25.42.02.05.05.12.08.19,0-.02,0-.03-.02-.06-.05-.22-.08-.42-.08-.68.02-.2.05-.29.08-.39s.08-.21.11-.45c.06-.48-.02-.82-.05-.9,0-.02-.02-.07,0-.08s.05,0,.12.11c.04.07.07.12.07.12.07.12.16.31.17.75,0-.02,0-.03,0-.05.03-.2.04-.32.05-.42.02-.15.02-.23.08-.38.11-.27.33-.61.51-.77,0,0,.15-.14.24-.3.02-.04.04-.08.04-.08.04-.07.06-.13.07-.16,0-.02.02-.04.04-.04h0s.02.02.02.02c0,.02-.04.34-.19.65-.07.17-.15.27-.22.34-.07.09-.12.16-.17.3-.02.09-.02.13-.02.21,0,.07,0,.18-.02.39,0,.17-.03.27-.05.39-.02.06-.02.12-.03.2,0-.03.02-.07.02-.11.06-.17.12-.35.22-.56.04-.07.07-.12.1-.17.04-.07.07-.11.1-.18.06-.17.06-.28.06-.4,0-.05,0-.09,0-.13.03-.57.74-1.04.88-1.09.02,0,.04-.02.06,0,.02.03,0,.06-.02.07-.02.02-.06.07-.1.13-.07.12-.1.2-.16.36,0,.02-.02.06-.03.08-.06.17-.09.26-.12.32-.02.07-.03.09-.05.16,0,.04,0,.09-.02.13.04-.04.07-.08.12-.12.11-.12.35-.36.72-.58.32-.19.76-.36.86-.33.02,0,.02.02.03.02.02.04-.02.07-.08.13l-.02.02c-.14.13-.2.2-.26.27s-.12.15-.26.28c-.25.25-.5.48-.86.69-.09.05-.17.09-.22.12-.11.05-.17.08-.26.17-.08.08-.17.24-.35.52-.02.04-.05.09-.07.13.12-.15.17-.26.22-.34.05-.08.08-.15.15-.22.16-.15.37-.18.52-.21h.04c.08-.02.12-.02.17-.02.02,0,.05,0,.1,0,.26-.07.42-.3.49-.39.03-.05.05-.07.08-.05.02,0,.02.02.02.03,0,.07-.09.34-.32.54-.09.07-.15.1-.26.15-.07.03-.15.07-.27.13,0,0-.21.11-.44.27-.21.13-.37.32-.5.5,0-.02.03-.02.03-.04.12-.12.35-.32.71-.47.31-.13.36-.11.37-.07.03.06-.03.11-.26.29-.11.09-.24.2-.37.32-.28.26-.6.55-.8,1.01-.08.16-.22.47-.18.91.02.3.12.57.21.73-.02-.06-.03-.13-.04-.22-.02-.15-.08-.6.13-1.02.03-.05.06-.1.09-.14.05-.08.1-.15.13-.28.02-.1.03-.18.04-.24,0-.07,0-.12.05-.12,0,0,.02,0,.03,0,.05.05.1.29.1.47,0,.25-.04.42-.1.61-.02.05-.04.1-.06.16,0,.04-.04.15-.07.3.02-.03.05-.05.08-.05.03,0,.05.02.07.05,0-.02.02-.04.03-.05.12-.04.33.42.37.53.1.26.11.42.12.63,0,.14.02.3.05.52.07.34.12.64.31.94.25.39.63.63.72.63h0c0-.06-.12-.26-.22-.42-.05-.08-.09-.15-.13-.22-.08-.1-.15-.22-.23-.38-.11-.2-.16-.29-.11-.32.03-.03.09,0,.18.07.07.05.14.12.21.18.19.2.28.36.37.52.06.11.12.22.22.34.16.2.32.31.56.47.18.12.38.24.53.34.07.04.14.08.21.12.14-.06.29-.1.44-.09.14.02.27.07.38.13.02,0,.05.02.07.03.1-.03.2-.07.3-.11.25-.1.29-.13.32-.17.05-.07.05-.12.06-.2,0-.07,0-.17.07-.28.03-.07.07-.1.1-.12.03-.03.07-.07.13-.16.04-.07.06-.12.08-.16.02-.05.04-.1.09-.18.07-.12.12-.2.22-.28.15-.12.41-.25.51-.15.04.04.04.1.03.19h0c.16-.13.27-.22.27-.22.02,0,.04-.02.06-.04.09-.06.12-.08.16-.14,0-.02.02-.05.02-.07,0-.02.02-.07.06-.07.02,0,.07,0,.14.25,0,0,0,.02,0,.02,0-.02.02-.04.03-.06.02-.03.03-.06.06-.08l-.02-.1h0c-.02-.14-.06-.21-.08-.27-.03-.07-.07-.13-.06-.24,0-.1.02-.15.04-.2s.05-.09.06-.2c0-.12,0-.2-.02-.28-.02-.1-.03-.18.02-.29,0-.03.02-.05.05-.07s.06-.06.12-.13h0c.04-.06.07-.1.11-.08.04,0,.05.05.05.1,0,.02,0,.04,0,.07.02.07.07.11.14.15,0,0,.02.02.03.02.02-.04.06-.07.1-.1,0,0,.07-.03.13-.03-.03-.13-.07-.26-.13-.37-.07-.14-.13-.22-.21-.31-.08-.12-.17-.22-.21-.4-.07-.23-.03-.48.02-.58.02-.02.04-.04.06-.04.04,0,.07.02.09.05.02.03.06.07.12.12.03.02.04.02.07.04,0-.06,0-.11,0-.17,0-.08-.02-.16-.03-.22-.03-.12-.04-.18.02-.22s.14.02.22.09c-.02-.06-.04-.1-.07-.15-.13-.12-.27-.17-.31-.19-.07-.03-.12-.05-.12-.05-.04,0-.07-.02-.09-.02-.04,0-.07,0-.12-.03,0,0-.05-.02-.1-.04-.13-.07-.23-.18-.37-.38-.09-.12-.15-.22-.17-.27-.02-.03-.04-.07-.02-.1.03-.03.09-.02.23.04l.03.02s.02,0,.03.02c-.03-.07-.05-.15-.06-.23,0-.09,0-.18.02-.27,0-.02,0-.03.02-.05h0s0-.02.02-.02c0-.02-.02-.02-.03-.04-.02-.02-.05-.05-.07-.07,0,.02-.02.04-.02.06h0c-.04.06-.11.09-.18.09h-.02c-.08,0-.14-.02-.19-.07-.04-.04-.07-.09-.07-.15-.32-.02-.57-.14-.75-.23-.13-.07-.27-.15-.37-.22-.17-.12-.17-.17-.16-.21s.05-.03.12-.02c.04,0,.12.02.22.02.08,0,.17,0,.23,0-.05-.07-.1-.15-.15-.23-.05-.09-.11-.19-.14-.28-.06-.13-.05-.17-.02-.19.03-.02.06,0,.09.03s.08.08.17.12c.07.03.13.03.21.03.06,0,.12,0,.21.02.09.02.16.04.22.07,0-.07-.03-.15-.07-.26-.03-.08-.07-.15-.1-.21-.04-.08-.07-.14-.03-.18.06-.07.2,0,.34.07.08.05.25.13.39.32.13.18.19.37.21.47,0,.05,0,.09,0,.13.02-.02.04-.02.05-.02.04-.02.11-.03.18,0,.03,0,.11.03.15.11.02.03.03.09.02.14.06.04.12.11.24.21.09.07.17.16.26.23.05-.27.13-.5.19-.55.02-.02.03-.02.04,0,.04,0,.05.03.06.1,0,0,0,.02,0,.03.03.12.05.17.08.25.02.05.03.1.06.17.05.17.15.47.18.81,0,.1,0,.2,0,.29.02-.1.03-.18.03-.27,0-.07,0-.13,0-.18,0-.11-.02-.19.02-.31.03-.09.1-.2.14-.22.02,0,.03,0,.04,0,.03.02.02.06.02.13,0,.02-.02.07-.02.11,0,.11,0,.18.02.27,0,.03,0,.07.02.12.03.3-.03.55-.06.67-.02.07-.03.12-.05.16-.02.07-.04.12-.03.22,0,.04,0,.08,0,.12h0s.05-.09.07-.13c.15-.21.2-.17.22-.17.03.02.02.06.02.1v.04c-.02.11,0,.18.02.25,0,.02,0,.03,0,.04.02.06.02.12,0,.18.08-.07.15-.12.23-.23h0s.05-.09.09-.08c0,0,.02,0,.04.03ZM64.73,38.93c.1-.4.09-.77.06-.86,0,0,0,.02-.02.02v.02c-.1.13-.18.2-.27.27-.05.04-.11.09-.17.15-.11.1-.29.27-.41.51-.07.16-.08.26-.1.42,0,.07-.02.16-.03.26,0,.08-.02.17-.05.26v.02s0,.08,0,.12c0,.04,0,.09,0,.11.04-.02.12-.2.17-.31.07-.16.1-.25.12-.32s.03-.13.09-.22c.07-.11.12-.16.18-.21.06-.06.11-.11.16-.22.05-.1.07-.21.07-.33,0-.02,0-.03.03-.03h0s.03.02.03.03c0,.13-.02.25-.07.37s-.12.17-.17.23c-.06.05-.12.1-.17.2-.05.08-.06.13-.08.2-.02.07-.04.17-.12.33-.1.22-.17.36-.24.36h0s-.05-.04-.06-.09c0,0,0,.02,0,.02s0,.02,0,.02c.03.07.04.16.02.24-.02.05-.04.15-.12.19-.02,0-.05,0-.07,0h-.03c0,.11,0,.22-.02.32-.02.19-.07.34-.11.45.02-.02.05-.06.07-.09.07-.07.1-.11.13-.13.02-.02.05-.04.08-.09.06-.07.07-.12.1-.17.02-.05.04-.1.1-.14.03-.02.06-.02.07-.02h0s-.11-.04-.14-.14c-.03-.07-.02-.17.05-.25,0,0,.02-.04.07-.06.02-.07.05-.15.09-.22.09-.16.18-.24.27-.33.07-.07.16-.14.23-.25.15-.2.2-.38.26-.62ZM64.49,41.72c.15-.25.17-.33.17-.36-.02,0-.09.03-.17.07h-.02c-.07.04-.14.07-.2.09l-.02.02c-.09.25-.48.44-.75.57-.07.03-.12.06-.16.07-.09.03-.12.05-.17.1-.03.03-.04.07-.06.1.07-.05.15-.09.24-.12.1-.03.16-.03.22-.03.06,0,.12,0,.21-.02.21-.07.33-.23.37-.28.06-.07.1-.16.13-.25,0-.02.03-.02.05-.02s.02.02.02.04c-.03.1-.08.18-.14.27-.04.06-.18.23-.41.31-.1.03-.17.03-.23.03-.06,0-.12,0-.21.02-.07.02-.15.06-.22.11.02,0,.03.02.04.03h0c.1-.02.19-.04.29-.07.17-.03.28-.06.36-.07.13-.02.16-.03.2-.06.13-.07.23-.24.44-.57ZM64.36,40.96c.07-.11.12-.22.12-.26-.02,0-.03.02-.05.03-.06.04-.16.1-.3.13-.07,0-.12,0-.17,0-.04,0-.07,0-.1.02-.04.02-.06.05-.07.11-.02.04-.05.11-.11.18-.04.06-.07.07-.09.1-.03.02-.07.06-.12.12-.05.07-.09.12-.12.16-.05.07-.07.1-.11.08-.04-.02-.02-.06,0-.16.03-.1.09-.27.12-.49,0-.11.02-.22.02-.34-.07-.03-.13-.1-.16-.17,0-.02,0-.02,0-.04-.02.02-.02.06-.04.08-.07.21-.06.41-.05.56,0,.09.02.16.03.21,0,.07.02.13,0,.22,0,.07-.02.13-.04.19.02.02.05.03.07.06.07.12-.03.28-.08.36-.04.07-.13.2-.22.25-.02,0-.04.02-.07.02,0,0-.02,0-.03,0-.02,0-.03-.02-.04-.02h0c-.04.2-.17.36-.24.46-.07.09-.12.13-.17.17,0,0-.02.02-.02.02.07,0,.16-.02.24-.02h.09c.07-.03.13-.07.18-.12-.06-.03-.1-.09-.12-.16-.03-.12.03-.27.16-.32,0,0,.02,0,.02,0,.04-.02.08-.02.12,0,.02-.05.05-.1.09-.14.05-.07.1-.08.18-.12.04-.02.09-.04.16-.07.27-.12.72-.35.73-.61v-.07s-.02-.1,0-.17c.02-.07.05-.1.08-.14.02-.02.05-.05.07-.09ZM64.4,38.17s0-.02,0-.02,0-.02,0-.04c-.02-.07-.05-.16-.03-.27,0-.02,0-.03,0-.04h0s-.07.07-.11.12c-.02.02-.04.06-.06.09.03,0,.06.02.08.03.05.02.08.07.09.08.02.02.02.04.03.06ZM64.35,38.41v-.12c0-.06-.02-.1-.04-.14,0-.02-.03-.05-.07-.07s-.07-.02-.11-.02h0s-.1.02-.13.05c-.03.02-.04.06-.05.09h0c-.02.1.03.22.03.22.03.07.1.14.16.18.05-.05.09-.08.12-.12.02-.03.06-.06.08-.07ZM64.12,40.67c.07-.07.11-.19.05-.26-.02-.02-.06-.05-.13-.05-.05,0-.09.02-.12.04h0s-.05.04-.06.05c-.03.03-.07.11-.04.18.02.07.09.09.1.1.1.03.2-.06.2-.07ZM64.11,37.48c.03-.12.09-.37.06-.65,0-.05,0-.08-.02-.12-.02-.09-.02-.17,0-.29,0-.03,0-.07.02-.1-.02.03-.04.07-.06.12-.03.1-.03.17-.02.27,0,.05,0,.12,0,.19,0,.15-.03.26-.07.47-.03.15-.07.24-.09.3,0,.04-.02.07-.02.09h0s0,.07,0,.11c0,.08,0,.16.03.24,0-.02.02-.03.03-.04.02-.02.06-.04.09-.06,0-.04-.02-.08-.02-.13,0-.1.02-.16.04-.24.02-.04.02-.08.04-.15ZM64.1,38.65c-.07-.04-.13-.12-.17-.2,0,0-.07-.13-.04-.26-.05-.11-.07-.22-.07-.33,0-.04,0-.08.02-.12v-.02h0c.07-.28.09-.57.07-.84-.03-.32-.12-.63-.17-.8-.02-.07-.04-.12-.06-.17-.03-.07-.06-.14-.08-.26,0-.02,0-.02,0-.04,0,0,0,0,0-.02-.04.07-.12.28-.16.54h0c-.02.1-.03.2-.04.31-.02.17,0,.34.02.52.06.09.1.17.13.24.18.36.15.44.11.47,0,0-.02.02-.04.02-.08,0-.18-.08-.36-.22-.15-.12-.35-.27-.56-.55-.11-.13-.19-.24-.24-.33,0,.05,0,.09,0,.13.02.32.29.54.39.62h0c.08.07.14.1.2.12.05.02.11.05.18.12.11.09.2.2.27.34l.05.05c.27.3.26.72.25.85,0,.12-.03.23-.07.35l.02.27h0c.02-.17.03-.27.11-.44.08-.15.17-.27.25-.37ZM63.7,39.79s0-.05.02-.08c-.04-.17-.06-.35-.07-.52h0v-.33c0-.24,0-.42-.12-.6-.08-.11-.18-.17-.21-.16,0,.02,0,.08.02.14s.02.13.03.22c.02.09.02.17.02.23,0,.07-.02.12-.02.17-.02.1-.02.17,0,.29.03.1.07.14.11.19.05.05.1.11.16.23.02.07.05.14.07.21ZM63.62,40.47c.02-.07,0-.13-.02-.19-.02-.02-.02-.05-.06-.07-.02,0-.04-.02-.06-.02-.05,0-.1.02-.1.02-.03.02-.07.06-.08.1h0s-.02.1,0,.14c.02.06.07.11.13.14.04.02.09.02.12,0,.03-.02.05-.04.06-.07.02-.03.02-.06.02-.07ZM63.65,39.98c-.02-.13-.04-.26-.09-.37-.05-.12-.1-.17-.14-.22-.05-.06-.09-.11-.13-.22-.04-.13-.03-.22-.02-.32,0-.04,0-.09.02-.14-.04-.02-.07-.03-.11-.06-.07-.05-.1-.09-.13-.12,0,0-.02-.02-.02-.03-.03.03-.09.27-.02.54.04.17.12.27.2.37.07.08.14.18.22.32.07.12.11.27.14.41t.02,0s.02.02.02.02c.02-.06.03-.12.05-.18ZM63.59,37.63s.03-.06-.13-.38c-.04-.07-.07-.16-.13-.24h0c-.06-.09-.13-.18-.23-.27-.21-.17-.48-.29-.59-.29h-.02s-.02,0-.02,0v.02s0,.05.06.12c.05.08.12.18.21.29.21.27.4.42.56.54.12.09.27.22.31.2ZM63.5,43.07s0,0,0,0c-.02,0-.05.02-.09.02-.07.02-.14.02-.22.02-.02,0-.06,0-.09,0-.05,0-.09,0-.15-.02-.03,0-.22-.02-.37-.02-.11,0-.22,0-.33.02-.02.04-.06.07-.09.12l-.04.04s-.07.1-.12.16c-.02.02-.05.04-.07.07.03,0,.06,0,.08,0,.06-.02.12-.05.17-.08h0s.12-.07.22-.1c.11-.02.18,0,.26,0,.03,0,.06,0,.09,0,.14,0,.28-.04.44-.13,0,0,0,0,.02,0,0,0,.02,0,.03.02,0,.02,0,.04-.02.05-.17.11-.32.16-.48.15-.03,0-.06,0-.09-.02-.07,0-.14-.02-.23,0-.09.02-.15.06-.19.08h0s-.02.02-.04.02c.03,0,.04,0,.07.02.07.02.12.05.17.07.02,0,.04.02.06.02.07-.02.13-.03.2-.06.11-.03.17-.06.31-.12.32-.12.37-.17.41-.21.07-.05.12-.11.14-.15ZM63.3,36.41c0-.08.02-.17.03-.26-.09-.08-.19-.17-.29-.27s-.17-.15-.22-.19t0,.02s-.06.05-.08.06c.02.07.04.16.06.21.05.15.13.3.22.44.08.12.17.22.28.32,0-.07,0-.14,0-.21-.09-.14-.18-.27-.27-.41-.06-.07-.11-.14-.17-.21,0-.02,0-.04,0-.05.02-.02.04,0,.05,0,.06.07.11.13.17.21l.22.32ZM63.3,36.85h0s-.02-.02-.02-.02c0,0,0,.02.02.02ZM63.15,37.72s.09.03.17.08c-.05-.06-.1-.11-.15-.16-.07-.06-.12-.08-.17-.11-.06-.02-.12-.05-.21-.12h0c-.07-.06-.21-.17-.31-.35-.03,0-.07-.02-.12-.04l-.02-.02c-.06-.02-.11-.04-.13-.05.02.03.06.11.17.27.14.19.23.29.35.36.05.03.09.04.09.04.04.02.07.02.11.02.02,0,.06.02.1.02,0,0,.06.02.13.05ZM63.06,42.85c.11-.03.15-.15.13-.23,0-.03-.02-.05-.03-.07h0l-.02-.02s-.09-.07-.17-.07c-.02,0-.05,0-.07.02-.08.03-.13.14-.12.23.02.05.05.1.11.13.05.02.12.03.17,0ZM63.21,40.32s-.02,0-.03-.02c-.07-.04-.14-.09-.17-.19,0-.02,0-.06-.02-.08v-.02s-.02.02-.02.03h0c-.06.08-.1.12-.12.15-.02.02-.02.03-.03.05-.04.09-.02.17,0,.26,0,.08.02.17.02.3-.02.12-.04.17-.07.22-.03.04-.04.08-.04.17,0,.09.02.14.05.22.03.06.07.14.09.27h0s0,.05,0,.07c.04-.03.09-.05.14-.05h.05c.02-.06.03-.12.04-.18,0-.08,0-.13-.02-.2,0-.06-.03-.12-.03-.22-.02-.15-.03-.36.05-.58.02-.07.06-.12.1-.19ZM63.06,42.1c.04-.07.13-.21.08-.28-.02-.02-.04-.03-.07-.04h0s-.05,0-.06,0,0,0,0,0c-.1,0-.17.09-.2.15s-.05.13-.05.19v.1s0,.04.02.05c0,.03.02.05.04.06.04.02.15-.08.24-.22ZM63.12,36.67c-.06-.07-.12-.13-.17-.21-.1-.14-.17-.3-.23-.47-.02-.05-.04-.13-.06-.21-.06,0-.11-.02-.15-.03.02.06.02.12,0,.17-.05.08-.14.1-.16.1h-.08s0,0,.02.02c.02.04.04.08.04.14.05.03.09.07.12.12.02.02.03.04.06.07.14,0,.42.14.62.3ZM62.78,35.63s0-.08,0-.11c-.02-.05-.08-.07-.11-.07s-.04,0-.07,0-.05,0-.07.02c-.06.02-.12.07-.12.11,0,.02.02.06.05.08h0s.11.06.2.07c.02,0,.06,0,.09-.05,0,0,.02-.02.02-.03h0ZM62.7,42.23h0s0-.07,0-.11c0-.07-.02-.13-.04-.18-.02-.08-.04-.14-.07-.17,0,.02,0,.05-.02.07-.03.08-.08.12-.17.17-.02.02-.03.03-.06.04,0,0-.11.08-.27.22-.02.02-.05.05-.07.07l-.02.03c-.04.17-.11.3-.16.38-.03.06-.06.09-.08.12s-.04.05-.07.1c-.08.12-.11.19-.13.25s-.05.12-.1.19c-.07.09-.15.16-.22.21.13-.04.33-.09.57-.12h0s.1-.09.15-.13c.05-.06.08-.1.12-.15,0-.02.02-.03.03-.05.04-.05.07-.09.11-.13h0s.08-.07.12-.1c.05-.05.09-.08.15-.17.09-.12.23-.3.24-.55ZM62.7,43.73h-.03c-.11,0-.18-.02-.25-.05-.03,0-.05-.02-.07-.03-.05-.02-.11-.05-.17-.07-.05-.02-.11-.02-.2,0-.05,0-.11,0-.2.02h0c-.27.03-.47.09-.62.13-.14.03-.18.05-.2,0-.02-.03.02-.06.07-.08.07-.03.22-.11.32-.26.05-.06.07-.11.09-.17.02-.07.06-.14.14-.27.03-.05.06-.08.07-.11.02-.02.05-.05.08-.11.04-.07.11-.19.15-.36l.02-.05c.02-.12.05-.21.02-.23-.05-.05-.27.02-.41.15-.09.07-.14.16-.21.27-.05.08-.07.12-.09.17-.02.05-.04.09-.09.17-.07.1-.11.14-.14.17-.03.02-.06.05-.08.11-.06.1-.06.17-.07.26,0,.07,0,.15-.08.23-.03.05-.07.08-.34.19-.08.02-.15.06-.23.08.08.03.17.07.27.12.03,0,.06-.02.09-.02h0c.08-.02.17-.05.3-.04.07,0,.13.02.27.05.07.02.13.03.16.05.07.02.08.02.12.02.04,0,.06,0,.08-.02.03,0,.07-.02.13-.02s.12-.02.17-.02h.06c.2,0,.3,0,.4-.04.07-.02.16-.07.33-.17.06-.03.09-.06.12-.07ZM62.44,35.89s.02-.09,0-.13c-.02-.05-.06-.08-.1-.09,0,0-.02,0-.03,0-.02,0-.05,0-.07.02s-.04.02-.05.04c-.04.05-.04.11-.02.16.03.07.1.08.16.07,0,0,.07,0,.1-.06ZM62.38,35.46v-.04s0-.07-.02-.12c-.02-.09-.06-.27-.19-.43-.13-.17-.28-.26-.37-.3-.21-.11-.25-.09-.25-.08,0,0,.02.06.04.1.02.06.07.12.1.22.05.13.07.22.08.3,0,0,0,.02,0,.02,0,0,.02.02.03.02h0c.17.08.31.22.45.39-.02-.05-.04-.1-.07-.13-.03-.04-.06-.07-.09-.1-.03-.03-.07-.07-.11-.12-.07-.08-.12-.17-.16-.28,0-.02,0-.04.02-.04.02,0,.04,0,.04.02.03.1.08.19.15.27.03.05.07.08.1.11.03.03.07.07.1.12s.07.11.08.17c0-.02.02-.04.03-.07ZM62.23,36.29c.04-.06.03-.15,0-.2-.02-.03-.06-.06-.07-.07-.03-.02-.07-.02-.1-.02-.04,0-.07.02-.11.04-.02.02-.04.07-.04.12,0,.05.02.1.05.14.03.03.1.06.16.06.05,0,.1-.03.12-.07ZM62.14,35.68s.06-.06.1-.07c-.13-.18-.28-.32-.45-.4h0s-.03-.02-.05-.02c-.09-.05-.17-.07-.27-.1-.08,0-.14,0-.2,0-.05,0-.09,0-.13,0-.03,0-.07-.02-.11-.03-.07-.04-.13-.08-.17-.12.02.07.08.21.17.34.06.1.11.19.17.27h0c.05.05.1.1.16.14.21.14.42.16.51.17.07,0,.15,0,.22,0,0-.02,0-.02,0-.04-.05-.02-.1-.05-.15-.07-.06-.02-.08-.04-.12-.06-.02,0-.04-.02-.07-.04-.13-.06-.2-.09-.27-.12-.07-.03-.12-.05-.18-.1-.08-.06-.15-.14-.22-.23,0-.02,0-.03.02-.05h.02s.02,0,.02.02c.05.08.12.15.19.21.06.04.1.06.17.09.06.02.14.06.27.12.03.02.06.03.07.04.03.02.06.03.11.06l.15.07s0-.02.02-.02ZM62.13,35.94s0-.02-.02-.02c0,0,0-.02,0-.02-.05,0-.1,0-.15,0h-.09c-.08,0-.32-.02-.54-.18-.06-.04-.11-.08-.15-.14-.08.02-.15.02-.23.02h-.06c-.12,0-.19-.02-.23-.02,0,0-.02,0-.02,0,.05.07.23.21.48.33.18.09.42.21.72.22,0-.02,0-.05.02-.07-.04,0-.07-.02-.11-.02-.19-.03-.31-.06-.44-.11-.13-.06-.27-.13-.38-.24-.02,0-.02-.03,0-.05,0,0,.02,0,.02,0s.02,0,.02,0c.11.09.23.17.36.22.12.05.24.07.42.11.05,0,.09.02.14.02h0c.07-.07.17-.07.24-.05ZM61.15,44.55s0-.04,0-.07c-.05-.02-.11-.03-.17-.03-.06,0-.18-.02-.3.04-.03.02-.05.03-.07.06.13.06.24.08.35.09.06,0,.16,0,.19-.09ZM60.98,44.37s.04,0,.06,0c-.08-.04-.16-.08-.23-.12-.12-.06-.24-.12-.36-.17h0c-.13-.07-.24-.12-.35-.17,0,0,0,0-.02,0-.02,0-.05-.02-.08-.03-.11-.06-.23-.12-.35-.12-.12,0-.24.02-.36.06.04.02.08.04.12.07.04.02.08.04.13.06.02,0,.04.02.07.02.02,0,.02.02.03.02.04.02.08.03.12.06.02.02.03.06.03.08h0s.08.04.13.07h.02c.12.06.23.12.33.18.08.05.17.1.25.14.03-.03.07-.06.11-.08.13-.07.27-.07.34-.06ZM59.73,44.12s0-.02-.02-.02c-.02-.02-.06-.03-.09-.05,0,0-.02,0-.03-.02-.03,0-.05-.02-.08-.02-.04-.02-.09-.04-.13-.06-.07-.03-.12-.07-.19-.11-.07-.03-.15-.07-.22-.12-.16-.09-.35-.21-.54-.34-.24-.17-.41-.28-.58-.49-.1-.12-.17-.24-.23-.35-.08-.16-.17-.31-.36-.5-.13-.12-.23-.21-.28-.23.02.05.07.15.11.22.09.17.16.27.23.38.04.07.08.13.13.21.19.32.27.46.21.51-.02.02-.03.02-.07.02-.14-.02-.53-.29-.76-.66-.21-.32-.26-.62-.32-.97-.04-.22-.05-.38-.06-.52,0-.21-.02-.37-.12-.61-.09-.25-.22-.45-.28-.49,0,.03.02.11.03.17.02.09.04.22.07.37h0c.02.17.02.34.02.51,0,.11-.02.2-.02.27-.02.17-.02.28.03.44.09.26.27.42.34.47.02.02.03.03.03.05,0,0,0,.02,0,.02s-.02,0-.03,0c-.03,0-.32-.21-.52-.56-.03-.05-.06-.09-.08-.14-.09-.08-.17-.18-.24-.28-.11-.16-.15-.27-.2-.38-.03-.08-.07-.17-.12-.28-.07-.12-.2-.35-.45-.56,0,0-.02-.02-.1-.06s-.22-.12-.45-.27c-.03-.02-.07-.04-.12-.07,0,0,0,0,0,.02.07.09.11.21.14.32.02.07.04.14.07.21.08.16.22.29.33.39.18.17.34.31.5.49.07.09.14.18.2.27.07.11.14.21.22.3.13.15.26.27.34.35.03.02.05.05.07.07.02.02.05.05.02.07-.02.03-.04.02-.17-.07-.03-.02-.07-.06-.12-.08-.21-.16-.32-.21-.42-.26-.09-.04-.17-.08-.31-.19-.13-.1-.39-.3-.6-.62,0,0,0-.02-.02-.02,0,0,0,0,0-.02.02.1.08.27.14.43.23.54.57.84.82,1,.1.07.16.09.27.13.12.05.3.12.67.32.19.1.32.17.39.21.04.03.07.06.07.1,0,.02-.02.04-.05.05-.15.07-.72.03-1.2-.21-.05-.02-.09-.05-.13-.07-.02-.02-.05-.03-.07-.04.05.09.22.3.47.47.07.05.14.09.22.13.28.15.62.24.98.27.14,0,.29,0,.42,0,.1,0,.2-.02.3-.02.15,0,.3.02.45.07.11.03.31.11.37.13h.02c.08.04.17.07.26.11h0s.1.05.15.07c.03.02.06.03.09.05.03.02.07.03.11.06.13.06.28.12.43.08.02,0,.04-.02.05-.03,0,0,0,0,0-.02ZM59.13,44.1s-.02,0-.02-.02c-.03-.02-.06-.02-.09-.04-.04-.02-.08-.04-.13-.07-.21.09-.39.16-.56.22-.15.05-.28.1-.41.14-.02,0-.04.02-.07.02-.02,0-.03,0-.06.02h.06c.19,0,.27.02.33.05.03.02.06.04.08.07.02,0,.02,0,.04,0,.12-.05.23-.11.35-.17.16-.07.31-.16.47-.21ZM58.19,44.53s-.02-.02-.04-.03c-.04-.02-.1-.05-.3-.04-.07,0-.14,0-.21,0t0,.02s.13.07.19.08h0c.1.02.2,0,.34-.03ZM58.06,35.01s.02-.02.04-.04c-.12.02-.45.14-.77.32-.37.22-.6.47-.71.57-.06.07-.12.13-.17.2-.14.17-.27.36-.38.56,0,.02-.03.02-.05.02-.02-.02-.02-.03,0-.05.11-.2.23-.38.37-.56,0-.08,0-.16.02-.24,0-.07.02-.09.05-.17.02-.06.06-.14.12-.32.02-.02.02-.06.03-.08.06-.16.09-.25.17-.37,0-.02.02-.03.02-.04-.23.15-.69.51-.72.96v.12c0,.12,0,.26-.06.43-.03.08-.07.13-.1.19-.03.04-.06.09-.1.17-.11.2-.16.37-.22.55-.1.31-.14.57-.16.7-.02.09-.02.11-.05.11h0s-.03-.03-.02-.14c0-.07,0-.17.02-.27.02-.25.06-.39.07-.52.02-.12.04-.22.06-.37.02-.22,0-.32,0-.39,0-.07,0-.12.02-.23.05-.15.11-.22.18-.32.06-.07.12-.17.2-.32.06-.11.09-.21.12-.3-.09.15-.23.28-.23.28-.17.16-.38.49-.49.75-.06.14-.07.22-.07.36,0,.1-.02.23-.05.42-.02.14-.05.27-.08.41,0,.17-.02.29-.03.4-.02.18-.03.32,0,.54.02.15.06.3.11.44,0,.02,0,.04-.02.05s-.04,0-.05-.02c-.05-.15-.08-.3-.11-.46-.03-.23-.02-.37,0-.55.02-.13.03-.29.04-.52,0-.6-.09-.84-.17-.96,0-.02-.02-.04-.03-.06.02.16.05.43,0,.77-.02.25-.07.37-.11.47-.03.1-.07.18-.07.37-.02.26.02.45.07.67.07.34.18.67.32.98.02.02,0,.04-.02.05h0s-.03,0-.03-.02c-.07-.12-.12-.26-.17-.38-.06-.1-.09-.19-.12-.27,0-.03-.02-.07-.03-.09-.07-.15-.12-.27-.15-.36-.08-.21-.12-.29-.22-.38-.04-.03-.15-.1-.36-.22h0s-.09-.07-.13-.08c.02.04.07.12.13.21.12.18.28.43.45.76.12.23.22.47.31.69.06.16.11.32.15.49q.09.05.09.06c.27.21.4.45.47.57.07.12.1.22.13.3.05.12.08.22.19.37.03.05.07.09.11.14-.07-.2-.09-.37-.11-.5-.02-.09-.02-.19-.02-.29,0-.09,0-.18,0-.28.02-.36.09-.63.12-.71.02-.06.03-.12.05-.17.07-.18.12-.34.11-.58,0-.13-.03-.25-.05-.33,0,.06-.02.14-.04.22-.03.14-.09.22-.14.31-.02.04-.06.08-.08.13-.22.4-.15.83-.13.97.02.17.07.3.1.37,0,.02.02.04.02.07,0,0,0,.02-.03.03,0,0-.02,0-.03,0-.06-.03-.33-.46-.37-.97-.03-.44.12-.77.19-.94.21-.47.53-.77.82-1.02.12-.12.27-.23.37-.32.08-.07.18-.15.22-.19-.04,0-.12.02-.27.09-.34.14-.57.35-.67.46-.12.12-.3.33-.42.61,0,.02-.02.03-.04.03,0,0-.02,0-.02,0-.02,0-.02-.02-.02-.02,0-.04.27-.78.87-1.17.23-.16.43-.27.43-.27.13-.07.21-.11.27-.14.11-.04.17-.07.24-.14.12-.11.21-.23.26-.33-.1.12-.25.27-.47.32-.06.02-.08.02-.12.02-.02,0-.07,0-.14,0-.02,0-.03,0-.04,0-.15.02-.35.05-.49.19-.06.06-.09.12-.13.19-.05.09-.11.2-.23.36-.03.05-.08.11-.12.14-.06.07-.09.11-.12.08s0-.07.04-.17c.04-.07.09-.16.17-.27.17-.29.27-.45.35-.54.1-.1.17-.13.29-.19.06-.02.13-.06.21-.11.36-.21.59-.43.85-.68.14-.13.2-.21.25-.27.06-.07.12-.15.27-.28l.02-.02ZM56.18,41.78s-.03-.07-.04-.1c-.07-.17-.06-.29-.04-.47,0-.07.02-.16.02-.27,0-.17,0-.33-.02-.49-.03-.14-.07-.27-.1-.41-.03-.11-.05-.14-.06-.15,0,0-.03.03-.06.12-.02.07-.04.16-.07.25,0,.19,0,.38.02.56.03.19.07.48.25.79.03.06.07.12.11.17Z"/>
      <path class="cls-6" d="M64.79,38.08c.03.08.04.46-.06.86-.06.24-.11.42-.26.62-.07.11-.16.18-.23.25-.09.09-.18.17-.27.33-.04.07-.07.14-.09.22-.04.02-.06.05-.07.06-.07.08-.08.17-.05.25.03.1.12.13.14.14h0s-.04,0-.07.02c-.06.04-.08.09-.1.14-.02.05-.04.1-.1.17-.03.05-.06.07-.08.09-.03.02-.07.06-.13.13-.02.03-.05.07-.07.09.04-.11.08-.26.11-.45,0-.1.02-.22.02-.32h.03s.05,0,.07,0c.08-.04.11-.14.12-.19.02-.08,0-.17-.02-.24,0,0,0,0,0-.02s0-.02,0-.02c0,.05.02.08.06.09h0c.07,0,.14-.13.24-.36.07-.17.1-.26.12-.33.02-.07.03-.12.08-.2.06-.1.12-.15.17-.2.06-.06.12-.12.17-.23s.07-.23.07-.37c0-.02-.02-.03-.03-.03h0s-.03.02-.03.03c0,.12-.02.23-.07.33-.05.11-.1.16-.16.22-.06.05-.12.1-.18.21-.06.09-.07.15-.09.22s-.04.17-.12.32c-.05.11-.12.28-.17.31,0-.02,0-.07,0-.11,0-.04,0-.08,0-.12v-.02c.03-.08.04-.17.05-.26.02-.1.02-.18.03-.26.02-.16.03-.26.1-.42.12-.23.3-.41.41-.51.07-.06.12-.11.17-.15.09-.07.18-.13.27-.27v-.02s.02-.02.02-.02Z"/>
      <path class="cls-6" d="M64.66,41.36s-.02.11-.17.36c-.21.32-.31.49-.44.57-.04.02-.07.03-.2.06-.07.02-.19.04-.36.07-.1.02-.19.04-.29.07h0s-.02-.02-.04-.03c.07-.05.14-.08.22-.11.09-.02.15-.02.21-.02.07,0,.13,0,.23-.03.22-.07.37-.25.41-.31.06-.08.11-.17.14-.27,0-.02,0-.03-.02-.04s-.04,0-.05.02c-.03.09-.07.17-.13.25-.04.05-.17.22-.37.28-.09.03-.15.03-.21.02-.07,0-.12,0-.22.03-.09.02-.17.07-.24.12.02-.03.03-.07.06-.1.05-.05.07-.07.17-.1.03-.02.09-.04.16-.07.27-.13.66-.32.75-.57l.02-.02c.06-.02.12-.05.2-.08h.02c.08-.05.15-.07.17-.08Z"/>
      <path class="cls-6" d="M64.39,38.14s0,.02,0,.02c0-.02-.02-.04-.03-.06,0-.02-.04-.06-.09-.08-.02-.02-.05-.02-.08-.03.02-.03.04-.07.06-.09.04-.05.08-.1.11-.12h0s0,.03,0,.05c-.02.12,0,.21.03.27,0,.02,0,.03,0,.04Z"/>
      <path class="cls-6" d="M64.35,38.29v.12s-.06.04-.08.07c-.03.03-.07.07-.12.12-.06-.04-.12-.11-.16-.18,0,0-.05-.12-.03-.22h0s.02-.07.05-.09c.03-.03.08-.05.13-.05h0s.07,0,.11.02.06.05.07.07c.03.04.04.08.04.14Z"/>
      <path class="cls-6" d="M64.17,40.42c.06.07.02.19-.05.26,0,0-.1.1-.2.07,0,0-.08-.03-.1-.1-.03-.07,0-.15.04-.18,0,0,.02-.03.06-.05h0s.07-.04.12-.04c.07,0,.12.02.13.05Z"/>
      <path class="cls-6" d="M64.17,36.83c.03.28-.03.53-.06.65-.02.07-.02.11-.04.15-.02.08-.04.14-.04.24,0,.05,0,.09.02.13-.03.02-.07.03-.09.06,0,0-.02.02-.03.04-.03-.08-.03-.16-.03-.24,0-.03,0-.07,0-.1h0s.02-.06.02-.1c.02-.06.06-.15.09-.3.04-.21.07-.32.07-.47,0-.07,0-.14,0-.19,0-.1,0-.17.02-.27.02-.04.03-.08.06-.12,0,.03-.02.07-.02.1-.02.12,0,.2,0,.29,0,.04.02.07.02.12Z"/>
      <path class="cls-1" d="M64.15,40.99s0,.04-.02.04c-.13.04-.22.11-.27.2-.02.03-.02.07-.02.1,0,.03,0,.07-.03.14-.02.07-.06.11-.26.32-.07.07-.14.15-.21.22,0,0-.02,0-.02,0s-.02,0-.02,0c-.02-.02-.02-.03,0-.05.07-.07.14-.15.21-.22.19-.2.22-.24.24-.3.03-.06.03-.09.03-.12,0-.04,0-.07.03-.12.05-.11.16-.18.32-.23.02,0,.04,0,.04.02Z"/>
      <path class="cls-6" d="M63.93,38.45c.03.08.1.16.17.2-.08.1-.17.22-.25.37-.07.17-.09.27-.11.44h0l-.02-.27c.03-.12.06-.23.07-.35,0-.13.02-.55-.25-.85l-.05-.05c-.07-.14-.17-.25-.27-.34-.07-.07-.13-.09-.18-.12-.06-.02-.12-.06-.2-.12h0c-.1-.08-.37-.3-.39-.62,0-.04,0-.08,0-.13.05.09.13.2.24.33.21.27.41.43.56.55.18.14.28.22.36.22.02,0,.03,0,.04-.02.04-.03.07-.12-.11-.47-.03-.07-.07-.15-.13-.24-.02-.17-.03-.35-.02-.52,0-.11.02-.21.04-.31h0c.04-.26.12-.47.16-.54,0,0,0,.02,0,.02,0,.02,0,.02,0,.04.02.12.05.18.08.26.02.05.03.1.06.17.05.17.14.47.17.8.02.27,0,.56-.07.84h0v.02s-.02.07-.02.12c0,.11.03.22.07.33-.02.12.03.25.04.26ZM63.73,37.51s.03-.02.03-.04c-.02-.06-.02-.13-.04-.19,0-.06-.02-.11-.02-.15-.02-.06-.03-.12-.04-.2-.03-.16-.03-.2-.02-.23,0-.04,0-.06.02-.08s.02-.05.03-.09c0-.07,0-.12-.02-.18,0-.03-.02-.07-.02-.1-.02-.08-.02-.17-.02-.26,0-.02-.02-.03-.04-.03-.02,0-.03.02-.03.03,0,.09,0,.18.02.27,0,.04.02.07.02.11.02.06.02.1.02.16,0,.03,0,.06-.02.07,0,.02-.02.05-.02.1,0,.04,0,.08.02.25.02.09.03.15.04.21,0,.04.02.08.03.14,0,.07.02.13.03.2,0,.02.02.02.03.02h0Z"/>
      <path class="cls-1" d="M63.76,37.47s-.02.04-.03.04h0s-.03,0-.03-.02c0-.07-.02-.13-.03-.2-.02-.06-.02-.1-.03-.14,0-.06-.02-.12-.04-.21-.03-.17-.02-.21-.02-.25,0-.05.02-.07.02-.1,0-.02.02-.04.02-.07,0-.06,0-.1-.02-.16,0-.03,0-.07-.02-.11-.02-.08-.02-.17-.02-.27,0-.02.02-.03.03-.03.02,0,.04.02.04.03,0,.09,0,.17.02.26,0,.03,0,.07.02.1.02.07.02.11.02.18,0,.04-.02.07-.03.09s-.02.04-.02.08c0,.03,0,.07.02.23,0,.08.02.14.04.2,0,.04.02.09.02.15.02.06.02.13.04.19Z"/>
      <path class="cls-6" d="M63.71,39.71s-.02.06-.02.08c-.02-.07-.04-.14-.07-.21-.06-.12-.11-.18-.16-.23-.04-.05-.07-.09-.11-.19-.03-.12-.02-.19,0-.29,0-.05,0-.1.02-.17,0-.07,0-.14-.02-.23,0-.09-.02-.17-.03-.22s-.02-.12-.02-.14c.02,0,.12.05.21.16.12.17.12.36.12.6v.33h0c.02.17.03.35.07.52Z"/>
      <path class="cls-6" d="M63.6,40.28c.02.06.03.12.02.19,0,.02,0,.04-.02.07,0,.02-.02.05-.06.07-.02,0-.07,0-.12,0-.06-.03-.11-.08-.13-.14-.02-.04,0-.09,0-.13h0s.05-.08.08-.11c0,0,.05-.02.1-.02.02,0,.03,0,.06.02.03.02.04.04.06.07Z"/>
      <path class="cls-6" d="M63.56,39.62c.05.11.07.23.09.37-.02.07-.03.12-.05.18,0,0-.02,0-.02-.02t-.02,0c-.03-.14-.07-.28-.14-.41-.08-.14-.15-.24-.22-.32-.08-.1-.16-.19-.2-.37-.07-.27,0-.51.02-.54,0,0,.02.02.02.03.03.03.07.07.13.12.03.02.07.04.11.06,0,.05,0,.1-.02.14-.02.1-.02.18.02.32.03.12.07.17.13.22.04.05.09.1.14.22Z"/>
      <path class="cls-6" d="M63.46,37.24c.16.32.13.38.13.38-.03.02-.19-.11-.31-.2-.16-.12-.35-.27-.56-.54-.08-.11-.16-.21-.21-.29-.05-.07-.06-.11-.06-.12v-.02s.02,0,.02,0h.02c.12,0,.38.12.59.29.1.08.17.17.23.27h0c.06.08.09.17.13.24Z"/>
      <path class="cls-6" d="M63.34,36.15c-.02.08-.03.17-.03.26l-.22-.32c-.06-.07-.11-.14-.17-.21,0-.02-.03-.02-.05,0-.02,0-.02.03,0,.05.06.07.11.14.17.21.09.13.18.27.27.41,0,.07,0,.14,0,.21-.11-.1-.2-.21-.28-.32-.09-.14-.17-.29-.22-.44-.02-.05-.04-.13-.06-.21.02,0,.06-.03.08-.06t0-.02s.12.1.22.19.2.18.29.27Z"/>
      <path class="cls-6" d="M63.31,37.8c-.07-.05-.14-.07-.17-.08-.07-.03-.13-.05-.13-.05-.04,0-.07-.02-.1-.02-.03,0-.07,0-.11-.02,0,0-.04,0-.09-.04-.12-.07-.21-.17-.35-.36-.12-.16-.16-.23-.17-.27.02,0,.07.03.13.05l.02.02s.08.03.12.04c.1.17.24.29.31.34h0c.09.08.15.11.21.13.05.02.1.05.17.11.05.05.1.1.15.16Z"/>
      <path class="cls-6" d="M63.2,42.62c.02.08-.02.2-.13.23-.05.02-.12.02-.17,0-.06-.03-.09-.08-.11-.13-.02-.09.03-.2.12-.23.02,0,.05-.02.07-.02.07,0,.13.04.17.07l.02.02h0s.02.03.03.07Z"/>
      <path class="cls-6" d="M63.18,40.3s.02.02.03.02c-.04.07-.07.12-.1.19-.08.22-.07.43-.05.58,0,.1.02.17.03.22.02.07.02.12.02.2,0,.07-.02.12-.04.18h-.05s-.1.02-.14.05c0-.02,0-.04,0-.06h0c-.02-.14-.06-.22-.09-.28-.02-.07-.05-.12-.05-.22,0-.08.02-.12.04-.17.02-.05.05-.11.07-.22,0-.12,0-.22-.02-.3-.02-.09-.03-.17,0-.26,0-.02.02-.02.03-.05.02-.02.07-.07.12-.14h0s.02-.02.02-.04v.02s0,.06.02.08c.02.1.1.15.17.19Z"/>
      <path class="cls-6" d="M63.49,43.08s-.05.02-.09.02c-.07.02-.14.02-.22.02-.02,0-.06,0-.09,0-.05,0-.09,0-.15-.02-.03,0-.22-.02-.37-.02-.11,0-.22,0-.33.02-.02.04-.06.07-.09.12l-.04.04s-.07.1-.12.16c-.02.02-.05.04-.07.07.03,0,.06,0,.08,0,.06-.02.12-.05.17-.08h0s.12-.07.22-.1c.11-.02.18,0,.26,0,.03,0,.06,0,.09,0,.14,0,.28-.04.44-.13,0,0,0,0,.02,0,0,0,.02,0,.03.02,0,.02,0,.04-.02.05-.17.11-.32.16-.48.15-.03,0-.06,0-.09-.02-.07,0-.14-.02-.23,0-.09.02-.15.06-.19.08h0s-.02.02-.04.02c.03,0,.04,0,.07.02.07.02.12.05.17.07.02,0,.04.02.06.02.07-.02.13-.03.2-.06.11-.03.17-.06.31-.12.32-.12.37-.17.41-.21.07-.05.12-.11.14-.15,0,0,0,0,0,0Z"/>
      <path class="cls-6" d="M63.15,41.81c.05.07-.04.22-.08.28-.09.14-.2.24-.24.22-.02,0-.03-.02-.04-.06,0,0,0-.02-.02-.05v-.1c0-.06.02-.13.05-.19s.1-.15.2-.15c0,0,0,0,0,0s.03,0,.06,0h0s.05.02.07.04Z"/>
      <path class="cls-6" d="M64.44,40.74c-.06.04-.16.1-.3.13-.07,0-.12,0-.17,0-.04,0-.07,0-.1.02-.04.02-.06.05-.07.11-.02.04-.05.11-.11.18-.04.06-.07.07-.09.1-.03.02-.07.06-.12.12-.05.07-.09.12-.12.16-.05.07-.07.1-.11.08-.04-.02-.02-.06,0-.16.03-.1.09-.27.12-.49,0-.11.02-.22.02-.34-.07-.03-.13-.1-.16-.17,0-.02,0-.02,0-.04-.02.02-.02.06-.04.08-.07.21-.06.41-.05.56,0,.09.02.16.03.21,0,.07.02.13,0,.22,0,.07-.02.13-.04.19.02.02.05.03.07.06.07.12-.03.28-.08.36-.04.07-.13.2-.22.25-.02,0-.04.02-.07.02,0,0-.02,0-.03,0-.02,0-.03-.02-.04-.02h0c-.04.2-.17.36-.24.46-.07.09-.12.13-.17.17,0,0-.02.02-.02.02.07,0,.16-.02.24-.02h.09c.07-.03.13-.07.18-.12-.06-.03-.1-.09-.12-.16-.03-.12.03-.27.16-.32,0,0,.02,0,.02,0,.04-.02.08-.02.12,0,.02-.05.05-.1.09-.14.05-.07.1-.08.18-.12.04-.02.09-.04.16-.07.27-.12.72-.35.73-.61v-.07s-.02-.1,0-.17c.02-.07.05-.1.08-.14.02-.02.05-.05.07-.09.07-.11.12-.22.12-.26-.02,0-.03.02-.05.03ZM64.13,41.03c-.13.04-.22.11-.27.2-.02.03-.02.07-.02.1,0,.03,0,.07-.03.14-.02.07-.06.11-.26.32-.07.07-.14.15-.21.22,0,0-.02,0-.02,0s-.02,0-.02,0c-.02-.02-.02-.03,0-.05.07-.07.14-.15.21-.22.19-.2.22-.24.24-.3.03-.06.03-.09.03-.12,0-.04,0-.07.03-.12.05-.11.16-.18.32-.23.02,0,.04,0,.04.02,0,.02,0,.04-.02.04Z"/>
      <path class="cls-6" d="M62.77,35.52s.02.07,0,.11h0s0,.02-.02.03c-.03.04-.07.05-.09.05-.09,0-.16-.03-.2-.07h0s-.05-.06-.05-.08c0-.04.06-.09.12-.11.02,0,.04-.02.07-.02s.04,0,.07,0,.08.02.11.07Z"/>
      <path class="cls-6" d="M62.7,42.22h0c0,.26-.15.44-.24.56-.06.08-.1.12-.15.17-.03.02-.07.06-.12.1h0s-.07.08-.11.13c-.02.02-.02.03-.03.05-.04.05-.07.09-.12.15-.05.04-.1.09-.15.13h0c-.24.02-.44.07-.57.12.07-.05.16-.12.22-.21.05-.07.07-.13.1-.19s.05-.13.13-.25c.03-.05.05-.07.07-.1s.05-.06.08-.12c.05-.08.12-.21.16-.38l.02-.03s.05-.05.07-.07c.16-.13.27-.21.27-.22.02,0,.04-.02.06-.04.09-.06.14-.09.17-.17.02-.02.02-.05.02-.07.02.03.04.09.07.17.02.05.03.11.04.18,0,.03,0,.07,0,.1ZM62.55,42.09s0-.04-.02-.05-.03,0-.04.02c-.07.14-.16.27-.26.36-.02.02-.05.05-.07.07-.06.05-.11.09-.17.17-.02.05-.03.07-.05.1,0,.03-.02.07-.06.14-.03.06-.05.09-.07.12-.02.03-.04.07-.07.12-.02.04-.03.07-.04.09,0,.03-.02.06-.04.08-.03.05-.08.09-.14.12-.02,0-.02.03-.02.05,0,0,.02.02.03.02,0,0,0,0,.02,0,.07-.03.12-.08.17-.14.02-.03.04-.07.05-.1,0-.02.02-.05.03-.08.03-.06.05-.08.07-.12.02-.03.05-.07.08-.12.03-.07.05-.12.07-.15,0-.02.02-.05.03-.08.05-.07.09-.11.15-.16.02-.02.05-.04.08-.07.11-.1.2-.23.27-.38Z"/>
      <path class="cls-6" d="M62.67,43.73h.03s-.06.04-.12.07c-.18.1-.27.15-.33.17-.1.03-.2.03-.4.04h-.06s-.1,0-.17.02-.1.02-.13.02c-.02,0-.04,0-.08.02-.04,0-.06,0-.12-.02-.03-.02-.08-.02-.16-.05-.14-.03-.21-.05-.27-.05-.12,0-.22.02-.3.04h0s-.06.02-.09.02c-.1-.05-.18-.09-.27-.12.07-.02.15-.06.23-.08.27-.11.31-.14.34-.19.07-.08.08-.16.08-.23,0-.08,0-.16.07-.26.02-.06.05-.08.08-.11.03-.03.07-.07.14-.17.05-.07.07-.12.09-.17.02-.05.04-.09.09-.17.07-.11.12-.19.21-.27.14-.12.36-.2.41-.15.03.02,0,.11-.02.23l-.02.05c-.04.17-.11.28-.15.36-.03.06-.06.08-.08.11-.02.02-.04.06-.07.11-.08.12-.12.2-.14.27-.02.06-.04.11-.09.17-.1.15-.24.22-.32.26-.05.02-.09.05-.07.08.02.05.06.03.2,0,.14-.04.35-.1.62-.13h0c.09,0,.15-.02.2-.02.09,0,.15,0,.2,0,.06.02.12.05.17.07.02,0,.04.02.07.03.07.02.14.06.25.05ZM62.11,43.87s.03-.02.03-.04c0-.02-.02-.03-.03-.03-.06,0-.11,0-.17,0-.12,0-.2.02-.27.02-.03,0-.07,0-.1,0-.12.02-.26.02-.4,0-.02,0-.03.02-.03.03,0,.02,0,.04.02.04.07,0,.14,0,.22,0,.07,0,.13,0,.2,0,.03,0,.07,0,.1,0,.08,0,.16-.02.27-.02.05,0,.11,0,.16,0ZM61.62,42.44s.02-.03,0-.05c0-.02-.03-.02-.05,0-.13.1-.22.22-.26.35,0,.03,0,.06-.02.08,0,.05-.02.1-.06.16l-.06.06s-.05.04-.08.08c-.03.05-.04.08-.05.13,0,.02-.02.05-.02.08-.02.07-.06.15-.11.22,0,.02,0,.04.02.05,0,0,0,0,.02,0s.02,0,.03-.02c.04-.07.08-.16.11-.23,0-.04.02-.07.02-.09,0-.04.02-.07.04-.11.02-.03.04-.05.07-.07.03-.02.04-.04.07-.07.05-.07.06-.13.07-.19,0-.02.02-.04.02-.07.03-.11.12-.22.23-.32Z"/>
      <path class="cls-1" d="M62.54,42.04s.02.03.02.05c-.07.15-.16.28-.27.38-.03.02-.06.05-.08.07-.06.05-.1.08-.15.16-.02.03-.02.06-.03.08-.02.03-.03.07-.07.15-.03.06-.06.09-.08.12-.02.03-.03.06-.07.12,0,.03-.02.06-.03.08,0,.03-.02.07-.05.1-.04.06-.1.11-.17.14,0,0-.02,0-.02,0-.02,0-.02,0-.03-.02,0-.02,0-.04.02-.05.06-.03.11-.07.14-.12.02-.02.03-.05.04-.08,0-.02.02-.05.04-.09.02-.06.05-.09.07-.12.03-.02.04-.06.07-.12.04-.07.05-.11.06-.14.02-.02.02-.05.05-.1.06-.08.11-.12.17-.17.02-.02.05-.04.07-.07.1-.09.19-.22.26-.36,0-.02.02-.02.04-.02Z"/>
      <path class="cls-6" d="M62.44,35.76s.02.09,0,.13c-.02.05-.09.06-.1.06-.06,0-.13,0-.16-.07-.02-.05-.02-.11.02-.16,0-.02.03-.03.05-.04s.04-.02.07-.02c0,0,.02,0,.03,0,.04,0,.07.04.1.09Z"/>
      <path class="cls-6" d="M62.22,36.09s.05.14,0,.2c-.02.03-.07.06-.12.07-.06,0-.12-.02-.16-.06-.03-.04-.06-.09-.05-.14,0-.05.02-.09.04-.12.03-.02.07-.04.11-.04.03,0,.07,0,.1.02.02,0,.05.03.07.07Z"/>
      <path class="cls-1" d="M62.15,43.83s-.02.04-.03.04c-.05,0-.11,0-.16,0-.12,0-.2.02-.27.02-.03,0-.07,0-.1,0-.07,0-.13,0-.2,0-.07,0-.14,0-.22,0-.02,0-.03-.02-.02-.04,0-.02.02-.03.03-.03.14.02.27.02.4,0,.03,0,.07,0,.1,0,.07,0,.16-.02.27-.02.06,0,.11,0,.17,0,.02,0,.03.02.03.03Z"/>
      <path class="cls-6" d="M61.79,35.2h0s-.03-.02-.05-.02c-.09-.05-.17-.07-.27-.1-.08,0-.14,0-.2,0-.05,0-.09,0-.13,0-.03,0-.07-.02-.11-.03-.07-.04-.13-.08-.17-.12.02.07.08.21.17.34.06.1.11.19.17.27h0c.05.05.1.1.16.14.21.14.42.16.51.17.07,0,.15,0,.22,0,0-.02,0-.02,0-.04-.05-.02-.1-.05-.15-.07-.06-.02-.08-.04-.12-.06-.02,0-.04-.02-.07-.04-.13-.06-.2-.09-.27-.12-.07-.03-.12-.05-.18-.1-.08-.06-.15-.14-.22-.23,0-.02,0-.03.02-.05h.02s.02,0,.02.02c.05.08.12.15.19.21.06.04.1.06.17.09.06.02.14.06.27.12.03.02.06.03.07.04.03.02.06.03.11.06l.15.07s0-.02.02-.02c.02-.03.06-.06.1-.07-.13-.18-.28-.32-.45-.4Z"/>
      <path class="cls-6" d="M62.11,35.91s0-.02,0-.02c-.05,0-.1,0-.15,0h-.09c-.08,0-.32-.02-.54-.18-.06-.04-.11-.08-.15-.14-.08.02-.15.02-.23.02h-.06c-.12,0-.19-.02-.23-.02,0,0-.02,0-.02,0,.05.07.23.21.48.33.18.09.42.21.72.22,0-.02,0-.05.02-.07-.04,0-.07-.02-.11-.02-.19-.03-.31-.06-.44-.11-.13-.06-.27-.13-.38-.24-.02,0-.02-.03,0-.05,0,0,.02,0,.02,0s.02,0,.02,0c.11.09.23.17.36.22.12.05.24.07.42.11.05,0,.09.02.14.02h0c.07-.07.17-.07.24-.05,0,0,0-.02-.02-.02Z"/>
      <path class="cls-1" d="M61.63,42.39s0,.04,0,.05c-.12.1-.2.21-.23.32,0,.03,0,.05-.02.07,0,.06-.02.12-.07.19-.03.03-.05.06-.07.07-.02.02-.04.03-.07.07-.02.04-.03.07-.04.11,0,.02-.02.05-.02.09-.02.07-.07.16-.11.23,0,0-.02.02-.03.02s-.02,0-.02,0c-.02,0-.02-.03-.02-.05.05-.07.08-.14.11-.22,0-.03.02-.06.02-.08,0-.05.02-.08.05-.13.03-.04.06-.07.08-.08l.06-.06c.04-.06.05-.11.06-.16,0-.02,0-.05.02-.08.03-.12.12-.25.26-.35.02-.02.04-.02.05,0Z"/>
      <path class="cls-6" d="M61.14,44.48s0,.04,0,.07c-.03.08-.13.09-.19.09-.11,0-.22-.03-.35-.09.02-.02.04-.04.07-.06.12-.06.24-.05.3-.04.06,0,.12.02.17.03Z"/>
      <path class="cls-6" d="M61.04,44.38s-.04,0-.06,0c-.07,0-.21-.02-.34.06-.04.02-.07.05-.11.08-.08-.04-.17-.09-.25-.14-.11-.06-.22-.12-.33-.17h-.02s-.09-.05-.13-.07h0s0-.07-.03-.09c-.03-.02-.07-.04-.12-.06,0,0-.02,0-.03-.02-.02,0-.04-.02-.07-.02-.05-.02-.09-.04-.13-.06-.04-.02-.08-.04-.12-.07.12-.04.23-.07.36-.06.12,0,.24.07.35.12.03,0,.06.02.08.03,0,0,0,0,.02,0,.11.05.22.1.35.17h0c.12.06.24.12.36.17.07.03.15.07.23.12Z"/>
      <path class="cls-6" d="M59.72,44.1s.02.02.02.02,0,0,0,.02c0,0-.02.02-.05.03-.14.04-.29-.02-.43-.08-.03-.02-.07-.04-.11-.06-.03-.02-.06-.03-.09-.05-.05-.02-.1-.05-.15-.07h0c-.08-.03-.17-.07-.26-.1h-.02c-.06-.03-.26-.11-.37-.14-.15-.05-.3-.07-.45-.07-.1,0-.2,0-.3.02-.13,0-.28.02-.42,0-.37-.02-.7-.12-.98-.27-.08-.04-.15-.08-.22-.13-.24-.17-.42-.38-.47-.47.02,0,.05.02.07.04.04.02.08.05.13.07.48.24,1.05.27,1.2.21.03,0,.04-.02.05-.05,0-.04-.02-.07-.07-.1-.07-.04-.2-.11-.39-.21-.37-.19-.54-.27-.67-.32-.11-.04-.17-.07-.27-.13-.24-.16-.58-.46-.82-1-.07-.16-.12-.33-.14-.43,0,0,0,.02,0,.02,0,0,0,.02.02.02.21.32.47.52.6.62.13.11.22.15.31.19.1.05.22.1.42.26.04.02.08.06.12.08.12.09.14.11.17.07.02-.02,0-.06-.02-.07-.02-.02-.04-.04-.07-.07-.08-.08-.21-.2-.34-.35-.08-.09-.15-.19-.22-.3-.06-.09-.12-.18-.2-.27-.16-.18-.32-.32-.5-.49-.12-.1-.25-.23-.33-.39-.02-.07-.05-.14-.07-.21-.03-.11-.07-.22-.14-.32,0,0,0,0,0-.02.04.02.08.05.12.07.23.14.37.22.45.27s.1.06.1.06c.25.21.38.44.45.56.06.11.09.2.12.28.05.12.09.22.2.38.07.1.15.2.24.28.02.05.04.09.08.14.21.35.49.56.52.56,0,0,.02,0,.03,0s0-.02,0-.02c0-.02,0-.02-.03-.05-.07-.06-.25-.22-.34-.47-.06-.16-.05-.27-.03-.44,0-.07,0-.17.02-.27,0-.17,0-.33-.02-.51h0c-.02-.15-.05-.27-.07-.37,0-.07-.03-.14-.03-.17.06.04.18.24.28.49.1.24.11.4.12.61,0,.14.02.3.06.52.06.35.11.65.32.97.23.37.62.64.76.66.03,0,.05,0,.07-.02.06-.05-.02-.18-.21-.51-.05-.07-.09-.14-.13-.21-.07-.12-.14-.22-.23-.38-.03-.07-.09-.17-.11-.22.05.02.16.12.28.23.18.19.27.34.36.5.07.11.13.22.23.35.17.21.33.32.58.49.19.13.38.25.54.34.07.05.15.09.22.12.07.04.12.07.19.11.04.02.09.03.13.06.02,0,.05.02.08.02,0,0,.02.02.03.02.03.02.07.02.09.05Z"/>
      <path class="cls-6" d="M59.11,44.09s.02.02.02.02c-.17.05-.32.13-.47.21-.12.07-.23.12-.35.17-.02,0-.02,0-.04,0-.02-.02-.05-.04-.08-.07-.07-.03-.14-.05-.33-.05h-.06s.04,0,.06-.02c.02,0,.05,0,.07-.02.12-.04.26-.09.41-.14.17-.07.35-.13.56-.22.05.02.09.04.13.07.03.02.06.02.09.04Z"/>
      <path class="cls-6" d="M58.15,44.5s.03.02.04.03c-.14.04-.24.05-.34.03h0c-.06-.02-.16-.03-.19-.08t0-.02c.07,0,.14,0,.21,0,.2,0,.26.02.3.04Z"/>
      <path class="cls-6" d="M57.33,35.29c-.37.22-.6.47-.71.57-.06.07-.12.13-.17.2-.14.17-.27.36-.38.56,0,.02-.03.02-.05.02-.02-.02-.02-.03,0-.05.11-.2.23-.38.37-.56,0-.08,0-.16.02-.24,0-.07.02-.09.05-.17.02-.06.06-.14.12-.32.02-.02.02-.06.03-.08.06-.16.09-.25.17-.37,0-.02.02-.03.02-.04-.23.15-.69.51-.72.96v.12c0,.12,0,.26-.06.43-.03.08-.07.13-.1.19-.03.04-.06.09-.1.17-.11.2-.16.37-.22.55-.1.31-.14.57-.16.7-.02.09-.02.11-.05.11h0s-.03-.03-.02-.14c0-.07,0-.17.02-.27.02-.25.06-.39.07-.52.02-.12.04-.22.06-.37.02-.22,0-.32,0-.39,0-.07,0-.12.02-.23.05-.15.11-.22.18-.32.06-.07.12-.17.2-.32.06-.11.09-.21.12-.3-.09.15-.23.28-.23.28-.17.16-.38.49-.49.75-.06.14-.07.22-.07.36,0,.1-.02.23-.05.42-.02.14-.05.27-.08.41,0,.17-.02.29-.03.4-.02.18-.03.32,0,.54.02.15.06.3.11.44,0,.02,0,.04-.02.05s-.04,0-.05-.02c-.05-.15-.08-.3-.11-.46-.03-.23-.02-.37,0-.55.02-.13.03-.29.04-.52,0-.6-.09-.84-.17-.96,0-.02-.02-.04-.03-.06.02.16.05.43,0,.77-.02.25-.07.37-.11.47-.03.1-.07.18-.07.37-.02.26.02.45.07.67.07.34.18.67.32.98.02.02,0,.04-.02.05h0s-.03,0-.03-.02c-.07-.12-.12-.26-.17-.38-.06-.1-.09-.19-.12-.27,0-.03-.02-.07-.03-.09-.07-.15-.12-.27-.15-.36-.08-.21-.12-.29-.22-.38-.04-.03-.15-.1-.36-.22h0s-.09-.07-.13-.08c.02.04.07.12.13.21.12.18.28.43.45.76.12.23.22.47.31.69.06.16.11.32.15.49q.09.05.09.06c.27.21.4.45.47.57.07.12.1.22.13.3.05.12.08.22.19.37.03.05.07.09.11.14-.07-.2-.09-.37-.11-.5-.02-.09-.02-.19-.02-.29,0-.09,0-.18,0-.28.02-.36.09-.63.12-.71.02-.06.03-.12.05-.17.07-.18.12-.34.11-.58,0-.13-.03-.25-.05-.33,0,.06-.02.14-.04.22-.03.14-.09.22-.14.31-.02.04-.06.08-.08.13-.22.4-.15.83-.13.97.02.17.07.3.1.37,0,.02.02.04.02.07,0,0,0,.02-.03.03,0,0-.02,0-.03,0-.06-.03-.33-.46-.37-.97-.03-.44.12-.77.19-.94.21-.47.53-.77.82-1.02.12-.12.27-.23.37-.32.08-.07.18-.15.22-.19-.04,0-.12.02-.27.09-.34.14-.57.35-.67.46-.12.12-.3.33-.42.61,0,.02-.02.03-.04.03,0,0-.02,0-.02,0-.02,0-.02-.02-.02-.02,0-.04.27-.78.87-1.17.23-.16.43-.27.43-.27.13-.07.21-.11.27-.14.11-.04.17-.07.24-.14.12-.11.21-.23.26-.33-.1.12-.25.27-.47.32-.06.02-.08.02-.12.02-.02,0-.07,0-.14,0-.02,0-.03,0-.04,0-.15.02-.35.05-.49.19-.06.06-.09.12-.13.19-.05.09-.11.2-.23.36-.03.05-.08.11-.12.14-.06.07-.09.11-.12.08s0-.07.04-.17c.04-.07.09-.16.17-.27.17-.29.27-.45.35-.54.1-.1.17-.13.29-.19.06-.02.13-.06.21-.11.36-.21.59-.43.85-.68.14-.13.2-.21.25-.27.06-.07.12-.15.27-.28l.02-.02s.02-.02.04-.04c-.12.02-.45.14-.77.32Z"/>
    </g>
  </g>
</svg>