<?xml version="1.0" encoding="UTF-8"?>
<svg id="Layer_1" data-name="Layer 1" xmlns="http://www.w3.org/2000/svg" viewBox="0 0 118.61 79.08">
  <defs>
    <style>
      .cls-1 {
        fill: #26336b;
      }

      .cls-1, .cls-2, .cls-3 {
        stroke-width: 0px;
      }

      .cls-2 {
        fill: #cd152b;
      }

      .cls-3 {
        fill: #fff;
      }
    </style>
  </defs>
  <polygon class="cls-1" points="0 52.7 0 70.27 26.34 52.7 0 52.7"/>
  <polygon class="cls-1" points="49.44 0 13.31 0 49.44 24.11 49.44 0"/>
  <polygon class="cls-1" points="0 8.8 0 26.38 26.34 26.38 0 8.8"/>
  <polygon class="cls-1" points="118.61 26.38 118.61 8.8 92.27 26.38 118.61 26.38"/>
  <polygon class="cls-1" points="105.3 0 69.18 0 69.18 24.11 105.3 0"/>
  <polygon class="cls-1" points="118.61 70.27 118.61 52.7 92.27 52.7 118.61 70.27"/>
  <polygon class="cls-1" points="13.31 79.07 49.44 79.07 49.44 54.97 13.31 79.07"/>
  <polygon class="cls-1" points="69.18 79.07 105.3 79.07 69.18 54.97 69.18 79.07"/>
  <polygon class="cls-3" points="78.97 52.7 87.83 52.7 118.61 73.25 118.61 70.27 92.27 52.7 118.61 52.7 118.61 26.38 92.27 26.38 118.61 8.8 118.61 0 118.56 0 79.02 26.38 70.17 26.38 109.7 0 105.3 0 69.18 24.11 69.18 0 49.44 0 49.44 24.11 13.31 0 .07 0 39.59 26.38 30.73 26.38 0 5.87 0 8.8 26.34 26.38 0 26.38 0 52.7 26.34 52.7 0 70.27 0 79.07 0 79.07 39.54 52.7 48.4 52.7 8.87 79.07 13.31 79.07 49.44 54.97 49.44 79.07 69.18 79.07 69.18 54.97 105.3 79.07 118.5 79.07 78.97 52.7"/>
  <polygon class="cls-2" points="0 5.87 30.73 26.38 39.59 26.38 .07 0 0 0 0 5.87"/>
  <polygon class="cls-2" points="78.97 52.7 118.5 79.07 118.61 79.07 118.61 73.25 87.83 52.7 78.97 52.7"/>
  <polygon class="cls-2" points="70.17 26.38 79.02 26.38 118.56 0 109.7 0 70.17 26.38"/>
  <polygon class="cls-2" points="48.4 52.7 39.54 52.7 0 79.07 8.87 79.07 48.4 52.7"/>
  <polygon class="cls-2" points="118.61 31.63 65.24 31.63 65.24 0 53.38 0 53.38 31.63 0 31.63 0 47.44 53.38 47.44 53.38 79.07 65.24 79.07 65.24 47.44 118.61 47.44 118.61 31.63"/>
</svg>