<?xml version="1.0" encoding="UTF-8"?>
<svg id="Layer_1" data-name="Layer 1" xmlns="http://www.w3.org/2000/svg" viewBox="0 0 118.61 79.07">
  <defs>
    <style>
      .cls-1 {
        fill: #e20919;
      }

      .cls-1, .cls-2 {
        stroke-width: 0px;
      }

      .cls-2 {
        fill: #fff;
      }
    </style>
  </defs>
  <rect class="cls-1" width="118.61" height="79.07"/>
  <g>
    <path class="cls-2" d="M79.14,39.53c0,10.96-8.88,19.83-19.83,19.83s-19.83-8.88-19.83-19.83,8.88-19.83,19.83-19.83,19.83,8.88,19.83,19.83Z"/>
    <g>
      <path class="cls-1" d="M63.6,51.46c-6.59,0-11.92-5.34-11.92-11.92s5.34-11.92,11.92-11.92c3.06,0,5.85,1.16,7.97,3.06-2.71-3.62-7.03-5.97-11.9-5.97-8.19,0-14.84,6.64-14.84,14.84s6.64,14.84,14.84,14.84c4.87,0,9.19-2.34,11.9-5.97-2.11,1.9-4.9,3.06-7.97,3.06Z"/>
      <polygon class="cls-1" points="60.86 31.16 64.64 36.32 70.71 34.32 66.98 39.51 70.75 44.67 64.66 42.71 60.92 47.9 60.9 41.51 54.81 39.55 60.88 37.55 60.86 31.16"/>
    </g>
  </g>
</svg>