<?xml version="1.0" encoding="UTF-8"?>
<svg id="Layer_1" data-name="Layer 1" xmlns="http://www.w3.org/2000/svg" viewBox="0 0 118.61 79.07">
  <defs>
    <style>
      .cls-1 {
        fill: #e00e1a;
      }

      .cls-1, .cls-2 {
        stroke-width: 0px;
      }

      .cls-2 {
        fill: #fff;
      }
    </style>
  </defs>
  <rect class="cls-1" x="0" y="0" width="118.61" height="79.07"/>
  <g>
    <path class="cls-2" d="M47.02,55.39c-8.76,0-15.86-7.09-15.86-15.85s7.1-15.86,15.86-15.86c4.44,0,8.46,1.83,11.33,4.78-3.55-5.25-9.57-8.7-16.39-8.7-10.93,0-19.78,8.86-19.78,19.78s8.85,19.78,19.78,19.78c6.82,0,12.83-3.46,16.39-8.7-2.87,2.94-6.89,4.77-11.33,4.77Z"/>
    <polygon class="cls-2" points="75.53 45.31 68.74 43.1 64.54 48.89 64.54 41.75 57.74 39.55 64.54 37.33 64.53 30.18 68.73 35.96 75.53 33.75 71.33 39.53 75.53 45.31"/>
  </g>
</svg>
