<?xml version="1.0" encoding="UTF-8"?>
<svg id="Layer_1" data-name="Layer 1" xmlns="http://www.w3.org/2000/svg" viewBox="0 0 118.61 79.08">
  <defs>
    <style>
      .cls-1, .cls-2, .cls-3, .cls-4 {
        stroke-width: 0px;
      }

      .cls-2 {
        fill: #204193;
      }

      .cls-3 {
        fill: #fbcf24;
      }

      .cls-4 {
        fill: #fff;
      }
    </style>
  </defs>
  <g>
    <g>
      <rect class="cls-4" y="52.73" width="118.61" height="8.78"/>
      <rect class="cls-2" y="43.93" width="118.61" height="8.79"/>
      <rect class="cls-2" y="61.51" width="118.61" height="8.78"/>
      <rect class="cls-4" y="70.29" width="118.61" height="8.78"/>
      <rect class="cls-4" y="17.58" width="118.61" height="8.78"/>
      <rect class="cls-4" y="35.15" width="118.61" height="8.78"/>
      <rect class="cls-2" y="8.78" width="118.61" height="8.79"/>
      <rect class="cls-4" width="118.61" height="8.78"/>
      <rect class="cls-2" y="26.36" width="118.61" height="8.78"/>
    </g>
    <rect class="cls-4" width="43.93" height="43.93"/>
  </g>
  <g>
    <g>
      <path class="cls-3" d="M16.03,10.82c.16.27.36.65.63,1.17.63,1.2.73,2.27.73,2.84,0,.15,0,.27-.02.33l2.39,1.66h0c-.26-.82-.49-1.55-1.02-2.71-.57-1.26-.8-1.57-2.21-3.46-.02-.03-.05-.06-.07-.09-.6-.79-.83-1.49-.9-2.06,0,.02-.02.06-.02.09-.06.35-.07.7-.02.98.07.43.15.59.51,1.24Z"/>
      <path class="cls-3" d="M16.75,10.49c1.42,1.92,1.66,2.23,2.25,3.52.48,1.03.71,1.73.94,2.46l.35-1.95c-.32-.96-.91-2.01-1.77-3.11-.46-.59-1.03-1-1.92-1.62-.32-.22-.52-.49-.65-.8,0-.02-.02-.04-.02-.06.12.43.34.92.75,1.47.02.03.05.07.07.09Z"/>
      <path class="cls-3" d="M20.6,16.7c.4-.1.81-.16,1.22-.17V7.63l-1.67,9.2c.15-.05.29-.09.44-.13Z"/>
      <path class="cls-3" d="M23.76,16.83l-1.67-9.2v8.9c.13,0,.26,0,.39.02.43.04.87.14,1.27.28Z"/>
      <path class="cls-3" d="M25.23,14.15c.44-1.17.53-1.6.8-3.41.03-.22.07-.46.1-.72.15-.98.47-1.65.82-2.1-.32.22-.61.47-.79.73-.11.16-.18.27-.25.42-.08.19-.15.42-.27.82-.08.3-.2.72-.38,1.27-.51,1.63-1.47,2.53-1.74,2.76l.52,2.86c.4-.77.75-1.44,1.19-2.63Z"/>
      <path class="cls-3" d="M26.79,8.87c.02-.13.07-.26.12-.38-.22.38-.41.9-.51,1.57-.03.27-.07.51-.1.73-.28,1.83-.37,2.26-.81,3.46-.4,1.07-.72,1.72-1.07,2.4l1.62-1.12h0c.46-.91.77-2.07.95-3.44.09-.75-.02-1.45-.22-2.51-.05-.25-.04-.48,0-.7Z"/>
      <path class="cls-3" d="M24.32,17.06c.51.24.97.57,1.39.96l6.3-6.3-5.8,4.03-1.88,1.31Z"/>
      <path class="cls-3" d="M29.41,20.3c.91-.31,1.89-.85,2.92-1.63.06-.04.12-.09.18-.13.59-.47,1-1.03,1.62-1.93.23-.34.53-.55.86-.67-.43.12-.92.35-1.47.76-2,1.49-2.31,1.72-3.61,2.31-.52.24-.96.42-1.35.57l-.47.17c-.22.07-.42.14-.64.22l1.95.35h0Z"/>
      <path class="cls-3" d="M28.76,17.39h0l-1.66,2.38c.31-.09.6-.19.91-.29.52-.18,1.07-.4,1.8-.72,1.27-.59,1.58-.82,3.56-2.29.79-.59,1.49-.83,2.06-.9-.02,0-.06,0-.09-.02-.35-.06-.69-.07-.98-.02-.43.07-.59.16-1.24.52-.27.15-.65.36-1.17.63-1.52.79-2.83.74-3.17.72Z"/>
      <path class="cls-3" d="M26.87,19.61h0l5.34-7.69-6.3,6.3c.39.42.72.88.96,1.39Z"/>
      <path class="cls-3" d="M27.4,21.83h8.9l-9.2-1.67c.18.53.29,1.09.3,1.67Z"/>
      <path class="cls-3" d="M27.1,23.77l9.2-1.67h-8.9c0,.57-.12,1.13-.3,1.67Z"/>
      <path class="cls-3" d="M35.28,26.17c-.36-.26-.53-.31-1.24-.52-.3-.09-.72-.21-1.27-.38-1.63-.52-2.53-1.47-2.76-1.74l-2.86.52c.77.4,1.44.75,2.63,1.19,1.23.46,1.64.53,3.7.83.14.02.28.04.43.07.98.14,1.65.47,2.1.82-.06-.08-.12-.17-.17-.24-.17-.22-.37-.42-.56-.55Z"/>
      <path class="cls-3" d="M33.44,26.35c-2.08-.3-2.49-.37-3.76-.85-1.07-.4-1.72-.72-2.41-1.07h0l1.13,1.62c.91.45,2.07.77,3.44.94.75.1,1.45-.02,2.51-.22.25-.04.48-.03.7,0,.13.03.26.07.38.12-.38-.22-.9-.4-1.56-.5-.16-.02-.3-.04-.44-.07Z"/>
      <path class="cls-3" d="M26.87,24.32s-.04.08-.06.12c-.24.47-.54.89-.9,1.27l6.3,6.3-4.03-5.8-1.31-1.89Z"/>
      <path class="cls-3" d="M24.32,26.88l7.69,5.33-6.3-6.3c-.42.39-.88.72-1.39.97Z"/>
      <path class="cls-3" d="M27.89,33.12c-.15-.27-.36-.66-.62-1.17-.8-1.52-.75-2.83-.72-3.18l-2.39-1.66c.25.8.48,1.51.97,2.6.02.04.03.07.05.11.59,1.28.82,1.58,2.29,3.56.59.8.83,1.5.9,2.07,0-.03,0-.07.02-.09.06-.36.07-.7.02-.98-.07-.44-.16-.6-.52-1.24Z"/>
      <path class="cls-3" d="M24.93,29.93s-.02-.07-.04-.1c-.22-.47-.38-.87-.53-1.25-.15-.39-.27-.75-.37-1.11l-.36,1.94h0c.32.97.92,2.01,1.77,3.11.47.6,1.03,1.01,1.93,1.62.32.22.52.5.65.8,0,.02.02.04.02.07-.12-.43-.35-.92-.76-1.47-1.49-1.99-1.72-2.3-2.31-3.61Z"/>
      <path class="cls-3" d="M22.1,27.41v8.9l1.67-9.21c-.53.19-1.09.29-1.67.31Z"/>
      <path class="cls-3" d="M21.82,36.31v-8.9c-.57-.02-1.13-.12-1.67-.31l1.67,9.21Z"/>
      <path class="cls-3" d="M18.69,29.79c-.35.94-.47,1.4-.65,2.48-.07.42-.15.96-.25,1.65-.14.98-.47,1.64-.82,2.09.08-.05.17-.11.24-.17.22-.18.42-.37.55-.56.27-.37.32-.53.52-1.25.09-.3.21-.71.38-1.27.26-.82.62-1.45.97-1.91.33-.45.64-.73.77-.84l-.52-2.86c-.4.77-.75,1.45-1.19,2.64Z"/>
      <path class="cls-3" d="M17.15,35.07c-.03.13-.08.26-.13.38.22-.39.4-.9.5-1.57.1-.69.17-1.22.25-1.65.17-1.11.31-1.57.67-2.54.4-1.07.72-1.73,1.07-2.41l-1.62,1.12c-.45.91-.77,2.07-.94,3.45-.1.75.02,1.44.22,2.51.04.24.03.47,0,.7Z"/>
      <path class="cls-3" d="M18.21,25.91l-6.29,6.3,7.69-5.33c-.52-.25-.98-.57-1.4-.97Z"/>
      <path class="cls-3" d="M17.05,24.32l-1.84,2.66-3.49,5.03,6.3-6.29c-.39-.42-.72-.88-.97-1.4Z"/>
      <path class="cls-3" d="M14.84,26.54c.15,0,.26,0,.33.02l1.66-2.39c-.31.1-.61.19-.92.3-.52.17-1.07.39-1.79.72-1.28.58-1.58.81-3.55,2.28-.8.6-1.5.84-2.07.9.39.07.77.09,1.07.04.44-.07.6-.15,1.25-.51.27-.15.65-.36,1.17-.63,1.21-.62,2.28-.73,2.85-.73Z"/>
      <path class="cls-3" d="M11.42,25.4c-.54.42-.92.92-1.46,1.68-.05.08-.11.16-.17.25-.23.33-.53.54-.87.67.43-.12.92-.34,1.47-.75,1.99-1.49,2.3-1.72,3.6-2.31.73-.34,1.3-.56,1.82-.74.22-.07.43-.14.64-.21l-1.94-.35h0c-.96.32-2,.92-3.1,1.77Z"/>
      <path class="cls-3" d="M16.54,21.58c.03-.48.12-.96.29-1.42l-9.21,1.67h8.9c0-.08,0-.17.02-.25Z"/>
      <path class="cls-3" d="M16.83,23.77c-.19-.53-.29-1.09-.31-1.67H7.62l6.41,1.16,2.8.51Z"/>
      <path class="cls-3" d="M14.24,18.44h0c1.07.4,1.73.72,2.41,1.07h0l-1.12-1.62c-.91-.46-2.07-.77-3.45-.95-.75-.09-1.44.02-2.51.22-.24.05-.47.04-.7,0-.13-.02-.26-.07-.38-.12.39.22.9.41,1.57.51,2.46.36,2.85.41,4.19.91Z"/>
      <path class="cls-3" d="M8.65,17.77c.36.26.52.31,1.24.52.3.08.71.2,1.27.38,1.63.51,2.53,1.47,2.75,1.74l2.86-.52c-.77-.4-1.45-.75-2.64-1.19-1.32-.49-1.69-.55-4.13-.9-.98-.14-1.64-.47-2.09-.82.02.04.06.08.08.12.2.27.42.52.65.67Z"/>
      <path class="cls-3" d="M17.05,19.61s.04-.08.07-.12c.23-.47.53-.88.9-1.27l-6.3-6.3,5.15,7.43.18.26Z"/>
      <path class="cls-3" d="M19.61,17.06l-7.69-5.34,6.29,6.3c.42-.39.88-.72,1.4-.96Z"/>
      <path class="cls-3" d="M24.57,20.29s-.03,0-.04-.02c.04.17.16.68-.16.87,0,0-.02,0-.02,0,.23-.06.44-.17.57-.24,0-.09.02-.33-.03-.48-.13-.07-.24-.12-.32-.14Z"/>
      <path class="cls-3" d="M19.56,21.15c-.33-.19-.21-.71-.16-.87-.02,0-.03,0-.04.02-.08.02-.2.07-.32.14-.05.15-.03.39-.02.48.13.07.33.18.57.24,0,0-.02,0-.02,0Z"/>
      <path class="cls-3" d="M23.75,26.82s.04-.02.07-.02h0s.07-.03.07-.03c.03-.02.06-.02.08-.03.02-.02.05-.02.08-.03.02-.02.05-.02.07-.03.51-.24.97-.56,1.39-.94.03-.03.07-.07.09-.1l.1-.1c.34-.36.62-.76.85-1.2.03-.06.06-.12.09-.18,0-.02.02-.06.03-.08,0-.02.02-.04.03-.07,0-.02.02-.06.03-.08l.02-.07s.03-.05.03-.08c.19-.52.3-1.07.32-1.64v-.27c-.02-.57-.12-1.12-.32-1.65,0-.02-.02-.04-.02-.06h0v-.02l-.03-.07s-.02-.06-.03-.08c0-.02-.02-.05-.03-.07,0-.02-.02-.05-.03-.07-.23-.51-.55-.97-.94-1.39-.03-.03-.07-.07-.1-.09-.02-.03-.06-.07-.09-.1-.44-.42-.95-.76-1.51-1h-.03s-.05-.03-.08-.04c-.46-.19-.94-.31-1.44-.35-.16-.02-.32-.02-.49-.02-.44,0-.87.05-1.3.17-.19.04-.38.11-.57.17,0,0-.02,0-.02.02h-.02l-.03.02s-.06.02-.08.03c-.02,0-.03.02-.05.02,0,0-.02,0-.02,0-.59.26-1.12.62-1.56,1.07-.38.38-.7.82-.94,1.29-.06.11-.12.22-.16.34-.02.02-.02.04-.03.06,0,0,0,.02,0,.02,0,.02-.02.05-.02.07-.18.47-.3.98-.33,1.5,0,.07,0,.15-.02.22v.27c.02.57.12,1.12.32,1.65,0,.02.02.04.02.06l.03.09s.02.06.03.08c.02.02.03.05.03.07.02.03.02.06.04.08.23.51.55.97.93,1.38.03.03.07.07.1.1.03.03.07.07.1.1.41.38.87.7,1.38.94.02,0,.05.02.08.03.02,0,.04.02.07.02.02.02.06.02.08.04.02,0,.05.02.07.02s.05.02.07.03c.53.19,1.08.3,1.65.32h.27c.57-.02,1.12-.12,1.65-.32ZM24.71,24.6s0,.04,0,.04c0,0,0-.06-.04-.12-.02-.03-.04-.07-.07-.11-.02-.04-.05-.08-.08-.12-.02-.02-.03-.04-.05-.06s-.03-.03-.05-.06c-.02-.02-.02-.03-.04-.05l-.04-.04s-.05-.06-.07-.07l-.02-.02s.02,0,.03,0c.02.02.05.02.09.05.03.02.07.04.11.07.04.03.07.07.12.12.02.02.02.05.04.07.02.02.02.05.04.07.02.05.03.09.04.13,0,.04,0,.07,0,.1ZM25.5,20.73s-.1-.04-.13-.06c-.07-.03-.14-.07-.22-.11-.08-.04-.16-.1-.24-.12.02,0,.03.08.03.1.02.03.02.07.03.11,0,.08.02.15,0,.23.07-.05.12-.08.12-.08.06-.04.12.07-.4.36-.33.18-.68.23-1.05.13-.14-.03-.29-.09-.41-.17-.06-.04-.12-.1-.16-.16-.02-.02-.02-.06,0-.08,0-.02.02-.02.03-.03.02-.02.05-.02.07,0s.05.02.07.04c.07.08.18.14.28.2.17.1.35.14.55.12-.27-.04-.48-.33-.54-.43-.06-.11-.12-.32-.1-.44h0c-.18.07-.52.37-.52.37,0,0-.07-.17.17-.37s.51-.35,1.13-.29c.62.05,1.26.62,1.29.66.02.02.02.03,0,.04ZM22.67,19.92c.29-.3.69-.61,1.1-.72.54-.17,1.03.07,1.51.32.17.08.32.18.49.27.02,0,.06.02.07.05l.02.02c.04.07-.02.12-.09.12-.12,0-.22-.08-.32-.13-.11-.05-.22-.09-.33-.13-.23-.07-.47-.13-.72-.15-.49-.04-.99.05-1.4.32-.09.06-.27.27-.37.26-.12-.02,0-.17.05-.22ZM21.91,23.17h.12c.12,0,.43-.02.42-.29.08.08.82.24.29-.55,0,0,.34.11.43.66.13.05.26.08.37.17.11.07.22.17.3.27,0-.02-.07-.03-.09-.04-.03-.02-.06-.02-.09-.04-.07-.02-.12-.06-.19-.08-.15-.06-.31-.1-.47-.11-.15,0-.29,0-.44.02,0,0-.22.25-.59.25s-.6-.25-.6-.25c-.14-.02-.29-.03-.43-.02-.17,0-.32.05-.47.11-.07.02-.13.06-.2.08-.02.02-.06.02-.08.04-.02,0-.08.02-.1.04.09-.1.19-.19.3-.27.12-.08.24-.12.37-.17.09-.55.43-.66.43-.66-.52.79.21.63.3.55-.02.27.28.29.42.29ZM18.17,19.98c-.07,0-.14-.04-.09-.12,0,0,0,0,0-.02.02-.02.05-.04.07-.05.17-.09.33-.19.5-.27.47-.25.97-.49,1.51-.32.4.12.8.42,1.09.72.05.04.18.19.06.22-.11.02-.29-.2-.37-.26-.42-.27-.92-.36-1.4-.32-.24.02-.48.07-.72.15-.12.04-.22.08-.34.13-.1.05-.2.12-.32.13ZM18.84,20.8s.04.03.12.08c-.02-.08-.02-.15,0-.23,0-.03.02-.07.02-.11,0-.02.02-.09.04-.1-.09.02-.17.08-.24.12-.07.03-.15.07-.22.11-.03.02-.1.06-.14.06-.02,0-.02-.02,0-.04.03-.04.67-.61,1.29-.66.62-.06.89.09,1.13.29.23.2.16.37.16.37,0,0-.33-.29-.52-.37h0c0,.12-.04.33-.1.44-.06.1-.28.39-.55.43.21.02.38-.02.56-.12.09-.06.2-.12.28-.2.02-.02.04-.03.07-.04.02,0,.05,0,.07,0,.02,0,.02.02.03.03.02.02,0,.06,0,.08-.04.06-.11.12-.16.16-.12.08-.27.14-.41.17-.37.1-.72.05-1.05-.13-.52-.29-.46-.4-.4-.36ZM19.67,24s-.04.04-.07.07c-.02,0-.02.02-.04.04-.02.02-.03.03-.05.05-.02.02-.03.04-.05.06-.02.02-.03.04-.04.06-.03.04-.07.08-.09.12-.02.03-.04.07-.06.11-.03.07-.04.12-.04.12,0,0,0-.02,0-.04,0-.02,0-.06,0-.1,0-.04.02-.08.04-.13,0-.02.02-.05.03-.07.02-.02.03-.04.05-.07.03-.04.07-.08.11-.12.04-.03.08-.06.12-.07.03-.02.07-.03.08-.05.02,0,.04,0,.04,0l-.02.02ZM19.69,24.35s.66-.07,1.13-.24c.3-.1.62-.12.92-.06.04,0,.09.02.13.02.05.02.11.02.16,0,.04,0,.08-.02.12-.02.32-.06.64-.04.94.06.47.17,1.12.24,1.12.24-.17.02-.31.04-.43.05-.79.07-.83,0-1.12-.02-.27,0-.55.03-.67.05-.03,0-.07,0-.11,0-.12-.02-.4-.06-.66-.05-.29.02-.32.09-1.12.02-.12,0-.27-.02-.43-.05ZM19.87,24.51s.09,0,.25.02c.23.02.6.09.98.26.27.09.64.1.87.1s.59,0,.86-.1c.38-.17.76-.23.99-.26.15-.02.25-.02.25-.02-.48.09-.69.36-1.11.54-.32.14-.75.15-.92.15h-.15c-.17,0-.6,0-.93-.15-.42-.18-.62-.45-1.1-.54ZM21.97,25.77c-.07,0-.13,0-.2,0-.06,0-.12,0-.17,0-.1,0-.17.02-.17.02,0,0,.07-.03.17-.07.04-.02.11-.02.17-.04.03,0,.07,0,.1,0,.03,0,.07,0,.11,0,.07,0,.14,0,.2.02.03,0,.07,0,.09.02.03,0,.06.02.08.02.05.02.09.03.12.04.02.02.04.02.04.02h-.05s-.07-.02-.12-.02c-.1,0-.23-.02-.37-.02Z"/>
    </g>
    <g>
      <path class="cls-1" d="M36.05,26.55c-.19-.24-.4-.45-.62-.6-.39-.29-.61-.35-1.32-.56-.3-.09-.71-.21-1.27-.38-1.36-.42-2.19-1.19-2.51-1.53l8.3-1.51-8.69-1.57c.82-.32,1.67-.83,2.56-1.5.06-.05.12-.09.17-.14.63-.48,1.05-1.07,1.68-1.99.58-.84,1.69-.76,2.42-.7l.59.05-.51-.31c-.42-.25-.97-.44-1.49-.52-.38-.07-.77-.08-1.07-.03-.48.08-.68.19-1.33.55-.27.15-.65.35-1.17.62-1.26.66-2.39.71-2.86.69l4.81-6.94-7.26,5.04c.37-.86.62-1.9.77-3.1.1-.79-.02-1.5-.22-2.6-.04-.21-.03-.41,0-.59.14-.71.77-1.24,1.21-1.62l.45-.38-.58.14c-.82.2-1.77.82-2.21,1.42-.12.17-.21.31-.27.47-.09.21-.17.45-.28.85-.08.3-.2.71-.37,1.27-.42,1.36-1.19,2.19-1.54,2.51l-1.09-6.02-.41-2.28-.42,2.28-1.16,6.41h0c-.35-.87-.9-1.78-1.64-2.74-.49-.63-1.07-1.05-2-1.68-.26-.18-.43-.42-.55-.68-.24-.56-.18-1.24-.14-1.74l.04-.59-.3.51c-.26.42-.44.97-.53,1.49-.07.39-.07.77-.02,1.07.07.49.18.68.54,1.33.15.27.36.65.63,1.17.65,1.26.7,2.39.69,2.86l-6.94-4.81,5.03,7.26c-.86-.37-1.9-.62-3.09-.77-.79-.1-1.51.02-2.61.22-.21.04-.4.03-.59,0-.71-.15-1.23-.77-1.62-1.22l-.37-.45.14.57c.12.48.38,1.02.7,1.47.22.3.47.57.72.74.4.29.62.35,1.32.56.3.08.72.21,1.27.37,1.35.43,2.19,1.19,2.51,1.54l-6.03,1.09-2.28.41,8.69,1.57c-.87.35-1.78.9-2.74,1.64-.57.44-.97.97-1.51,1.75-.05.07-.11.16-.18.25-.58.84-1.69.75-2.42.69l-.58-.04.51.3c.39.24.89.42,1.39.52.26.05.52.07.76.07.15,0,.28,0,.42-.03.48-.07.68-.18,1.33-.54.27-.15.64-.36,1.17-.62,1.26-.66,2.39-.71,2.86-.7l-4.81,6.94,7.25-5.03c-.36.86-.62,1.9-.77,3.1-.1.78.02,1.5.22,2.6.04.21.03.41,0,.59-.15.71-.77,1.23-1.22,1.62l-.45.37.57-.14c.54-.13,1.14-.44,1.61-.81.24-.19.45-.4.6-.61.29-.4.36-.62.56-1.32.09-.3.21-.72.38-1.27.42-1.35,1.19-2.19,1.53-2.51l1.51,8.31,1.57-8.69c.17.43.4.87.67,1.33.27.46.59.92.97,1.41.48.62,1.07,1.05,1.99,1.68.27.18.44.42.55.67.24.57.19,1.24.15,1.75l-.05.58.31-.5c.25-.42.44-.97.52-1.5.07-.38.08-.76.03-1.07-.08-.48-.19-.68-.55-1.33-.15-.27-.35-.64-.63-1.17-.66-1.26-.71-2.39-.69-2.86l6.94,4.8-5.04-7.25c.86.36,1.9.62,3.1.77.79.1,1.5-.02,2.6-.22.21-.03.41-.03.59,0,.71.15,1.24.77,1.62,1.22l.38.45-.14-.57c-.13-.54-.44-1.13-.81-1.61ZM27.1,23.77c.18-.53.29-1.09.3-1.67h8.9l-9.2,1.67ZM36.3,21.83h-8.9c0-.57-.12-1.13-.3-1.67l9.2,1.67ZM34.14,16.6c-.62.9-1.03,1.47-1.62,1.93-.06.04-.12.09-.18.13-1.03.78-2.02,1.32-2.92,1.63h0l-1.95-.35c.22-.07.43-.14.64-.22l.47-.17c.39-.15.82-.32,1.35-.57,1.3-.6,1.61-.82,3.61-2.31.54-.41,1.03-.63,1.47-.76-.32.12-.62.33-.86.67ZM31.93,16.67c.52-.27.9-.48,1.17-.63.65-.36.81-.44,1.24-.52.29-.04.63-.03.98.02.03,0,.07.02.09.02-.57.07-1.27.31-2.06.9-1.97,1.47-2.28,1.7-3.56,2.29-.72.32-1.28.54-1.8.72-.31.1-.6.2-.91.29l1.66-2.38h0c.34.02,1.66.07,3.17-.72ZM26.87,19.61h0c-.24-.51-.57-.97-.96-1.39l6.3-6.3-5.34,7.69ZM32.01,11.72l-6.3,6.3c-.42-.39-.88-.72-1.39-.96l1.88-1.31,5.8-4.03ZM26.78,9.57c.19,1.07.31,1.77.22,2.51-.17,1.37-.49,2.53-.95,3.44h0l-1.62,1.12c.35-.67.67-1.33,1.07-2.4.44-1.2.53-1.63.81-3.46.03-.22.07-.47.1-.73.1-.67.29-1.18.51-1.57-.06.12-.1.25-.12.38-.05.22-.06.45,0,.7ZM25.26,11.17c.18-.56.3-.97.38-1.27.12-.4.18-.62.27-.82.07-.15.14-.27.25-.42.18-.26.47-.51.79-.73-.36.45-.67,1.12-.82,2.1-.03.27-.07.51-.1.72-.27,1.81-.36,2.23-.8,3.41-.44,1.19-.79,1.87-1.19,2.63l-.52-2.86c.27-.22,1.23-1.12,1.74-2.76ZM22.1,7.63l1.67,9.2c-.41-.14-.84-.24-1.27-.28-.13,0-.26-.02-.39-.02V7.63ZM21.82,7.63v8.9c-.42,0-.82.07-1.22.17-.15.04-.29.08-.44.13l1.67-9.2ZM15.95,8.99c.12.31.32.58.65.8.89.62,1.47,1.03,1.92,1.62.86,1.1,1.45,2.15,1.77,3.11l-.35,1.95c-.23-.72-.47-1.42-.94-2.46-.59-1.29-.82-1.61-2.25-3.52-.02-.02-.05-.06-.07-.09-.41-.54-.63-1.03-.75-1.47,0,.02.02.04.02.06ZM16.66,12c-.27-.52-.47-.9-.63-1.17-.36-.65-.44-.81-.51-1.24-.05-.28-.03-.63.02-.98,0-.03,0-.07.02-.09.07.57.3,1.27.9,2.06.02.03.04.06.07.09,1.42,1.9,1.64,2.21,2.21,3.46.53,1.16.77,1.88,1.02,2.71h0l-2.39-1.66c0-.07.02-.18.02-.33,0-.57-.1-1.64-.73-2.84ZM19.61,17.06c-.52.24-.98.57-1.4.96l-6.29-6.3,7.69,5.34ZM11.72,11.92l6.3,6.3c-.37.38-.67.8-.9,1.27-.02.04-.04.08-.07.12l-.18-.26-5.15-7.43ZM8.86,17.14c.22.05.46.06.7,0,1.07-.19,1.77-.31,2.51-.22,1.38.17,2.54.49,3.45.95l1.12,1.62h0c-.68-.35-1.33-.67-2.41-1.07h0c-1.34-.5-1.72-.55-4.19-.91-.67-.1-1.18-.28-1.57-.51.12.06.25.1.38.12ZM11.17,18.67c-.57-.18-.97-.3-1.27-.38-.72-.21-.88-.26-1.24-.52-.23-.16-.45-.4-.65-.67-.02-.03-.06-.07-.08-.12.45.36,1.11.68,2.09.82,2.44.35,2.81.41,4.13.9,1.19.44,1.87.79,2.64,1.19l-2.86.52c-.22-.27-1.12-1.23-2.75-1.74ZM16.83,20.17c-.17.46-.27.93-.29,1.42,0,.08-.02.17-.02.25H7.62l9.21-1.67ZM7.62,22.11h8.9c.02.57.12,1.13.31,1.67l-2.8-.51-6.41-1.16ZM9.79,27.34c.06-.09.12-.17.17-.25.53-.76.92-1.27,1.46-1.68,1.1-.85,2.14-1.45,3.1-1.77h0l1.94.35c-.21.07-.42.13-.64.21-.52.18-1.08.4-1.82.74-1.31.59-1.62.82-3.6,2.31-.55.41-1.04.63-1.47.75.33-.12.63-.33.87-.67ZM14.84,26.54c-.57,0-1.64.11-2.85.73-.52.27-.9.48-1.17.63-.65.36-.81.44-1.25.51-.31.05-.68.03-1.07-.04.57-.06,1.27-.3,2.07-.9,1.97-1.47,2.27-1.7,3.55-2.28.72-.33,1.27-.55,1.79-.72.31-.11.61-.2.92-.3l-1.66,2.39c-.07,0-.18-.02-.33-.02ZM15.21,26.98l1.84-2.66c.25.52.57.98.97,1.4l-6.3,6.29,3.49-5.03ZM11.92,32.21l6.29-6.3c.42.39.88.72,1.4.97l-7.69,5.33ZM17.15,34.37c-.2-1.07-.32-1.77-.22-2.51.17-1.38.49-2.54.94-3.45l1.62-1.12c-.35.67-.67,1.33-1.07,2.41-.36.97-.49,1.43-.67,2.54-.07.42-.15.96-.25,1.65-.1.67-.28,1.18-.5,1.57.05-.12.09-.25.13-.38.04-.22.05-.46,0-.7ZM19.63,30.86c-.34.46-.71,1.09-.97,1.91-.17.57-.29.97-.38,1.27-.2.72-.25.88-.52,1.25-.13.19-.32.37-.55.56-.07.06-.16.12-.24.17.36-.45.68-1.11.82-2.09.1-.69.17-1.22.25-1.65.17-1.08.3-1.54.65-2.48.44-1.19.79-1.87,1.19-2.64l.52,2.86c-.13.11-.44.39-.77.84ZM21.82,36.31l-1.67-9.21c.53.19,1.09.29,1.67.31v8.9ZM21.82,27.14c-.57-.02-1.12-.12-1.65-.32-.02,0-.05-.02-.07-.03s-.05-.02-.07-.02c-.02-.02-.06-.02-.08-.04-.02,0-.05-.02-.07-.02-.03-.02-.06-.02-.08-.03-.51-.24-.97-.56-1.38-.94-.03-.03-.07-.07-.1-.1-.03-.03-.07-.07-.1-.1-.38-.41-.7-.87-.93-1.38-.02-.02-.02-.05-.04-.08,0-.02-.02-.04-.03-.07,0-.02-.02-.06-.03-.08l-.03-.09s-.02-.04-.02-.06c-.19-.53-.3-1.08-.32-1.65v-.27c0-.07,0-.15.02-.22.03-.52.15-1.02.33-1.5,0-.02.02-.05.02-.07,0,0,0-.02,0-.02,0-.02.02-.04.03-.06.04-.12.1-.23.16-.34.24-.47.56-.91.94-1.29.45-.46.97-.82,1.56-1.07,0,0,0,0,.02,0,.02,0,.03-.02.05-.02.02,0,.06-.02.08-.03l.03-.02h.02s.02,0,.02-.02c.18-.07.38-.13.57-.17.42-.12.86-.17,1.3-.17.17,0,.33,0,.49.02.5.04.98.16,1.44.35.03,0,.06.02.08.03h.03c.56.25,1.07.59,1.51,1.01.03.03.07.07.09.1.03.02.07.06.1.09.39.42.71.88.94,1.39.02.02.02.05.03.07.02.02.02.05.03.07,0,.02.02.06.03.08l.03.07v.02h0s.02.04.02.06c.2.52.3,1.08.32,1.65v.27c-.02.57-.12,1.12-.32,1.64,0,.03-.02.06-.03.08l-.02.07s-.02.06-.03.08c0,.02-.03.05-.03.07,0,.02-.02.06-.03.08-.03.06-.06.12-.09.18-.22.44-.51.84-.85,1.2l-.1.1s-.06.07-.09.1c-.42.38-.88.7-1.39.94-.02,0-.05.02-.07.03-.03,0-.05.02-.08.03-.02,0-.05.02-.08.03l-.07.02h0s-.04.02-.07.03c-.52.19-1.08.3-1.65.32h-.27ZM22.1,36.31v-8.9c.57-.02,1.13-.12,1.67-.31l-1.67,9.21ZM27.98,34.94c-.13-.3-.33-.58-.65-.8-.9-.62-1.47-1.02-1.93-1.62-.85-1.1-1.44-2.14-1.77-3.11h0l.36-1.94c.11.36.22.72.37,1.11.14.37.31.77.53,1.25.02.03.02.07.04.1.6,1.31.82,1.62,2.31,3.61.41.55.64,1.04.76,1.47,0-.02-.02-.04-.02-.07ZM27.27,31.94c.27.52.47.9.62,1.17.36.64.44.8.52,1.24.05.28.03.62-.02.98,0,.02-.02.06-.02.09-.07-.57-.31-1.27-.9-2.07-1.47-1.97-1.7-2.27-2.29-3.56-.02-.03-.03-.07-.05-.11-.49-1.09-.72-1.8-.97-2.6l2.39,1.66c-.03.35-.08,1.67.72,3.18ZM24.32,26.88c.51-.25.97-.57,1.39-.97l6.3,6.3-7.69-5.33ZM32.21,32.02l-6.3-6.3c.36-.38.66-.81.9-1.27.02-.04.04-.08.06-.12l1.31,1.89,4.03,5.8ZM35.06,26.79c-.22-.04-.45-.05-.7,0-1.07.2-1.77.32-2.51.22-1.37-.17-2.53-.49-3.44-.94l-1.13-1.62h0c.68.35,1.34.67,2.41,1.07,1.27.47,1.67.55,3.76.85.14.02.28.04.44.07.67.1,1.18.28,1.56.5-.12-.05-.25-.09-.38-.12ZM33.91,26.14c-.15-.02-.29-.04-.43-.07-2.06-.3-2.46-.37-3.7-.83-1.19-.44-1.87-.79-2.63-1.19l2.86-.52c.22.27,1.12,1.22,2.76,1.74.56.17.97.29,1.27.38.71.21.88.26,1.24.52.19.13.38.32.56.55.06.07.12.16.17.24-.45-.36-1.12-.68-2.1-.82Z"/>
      <path class="cls-1" d="M24.67,24.36s-.02-.05-.04-.07c-.02-.02-.02-.04-.04-.07-.04-.04-.07-.08-.12-.12-.04-.03-.08-.06-.11-.07-.04-.02-.07-.03-.09-.05-.02,0-.03,0-.03,0l.02.02s.03.04.07.07l.04.04s.02.03.04.05c.02.02.03.04.05.06s.03.04.05.06c.03.04.06.08.08.12.02.03.05.07.07.11.03.07.04.12.04.12,0,0,0-.02,0-.04s0-.06,0-.1c0-.04-.02-.08-.04-.13Z"/>
      <path class="cls-1" d="M21.89,25.21h.15c.17,0,.6,0,.92-.15.42-.18.62-.45,1.11-.54,0,0-.1,0-.25.02-.23.02-.61.09-.99.26-.27.09-.64.1-.86.1s-.59,0-.87-.1c-.38-.17-.75-.23-.98-.26-.16-.02-.25-.02-.25-.02.48.09.68.36,1.1.54.32.14.76.15.93.15Z"/>
      <path class="cls-1" d="M24.21,20.03c-.62-.06-.9.09-1.13.29s-.17.37-.17.37c0,0,.33-.29.52-.37h0c-.02.12.04.33.1.44.06.1.27.39.54.43-.2.02-.37-.02-.55-.12-.1-.06-.21-.12-.28-.2-.02-.02-.05-.03-.07-.04s-.05,0-.07,0c0,0-.02.02-.03.03,0,.02,0,.06,0,.08.03.06.1.12.16.16.12.08.27.14.41.17.37.1.72.05,1.05-.13.52-.29.46-.4.4-.36,0,0-.04.03-.12.08.02-.08,0-.15,0-.23,0-.03-.02-.07-.03-.11,0-.02-.02-.09-.03-.1.08.02.16.08.24.12.08.03.14.07.22.11.03.02.09.06.13.06.03,0,.02-.02,0-.04-.03-.04-.67-.61-1.29-.66ZM24.92,20.92c-.13.07-.34.18-.57.24,0,0,.02,0,.02,0,.32-.19.2-.71.16-.87,0,0,.03,0,.04.02.07.02.19.07.32.14.06.15.04.39.03.48Z"/>
      <path class="cls-1" d="M22.62,20.13c.1.02.28-.2.37-.26.41-.27.91-.36,1.4-.32.24.02.48.07.72.15.11.04.22.08.33.13.11.05.2.12.32.13.07,0,.13-.04.09-.12l-.02-.02s-.05-.04-.07-.05c-.17-.09-.32-.19-.49-.27-.47-.25-.97-.49-1.51-.32-.41.12-.81.42-1.1.72-.04.04-.17.19-.05.22Z"/>
      <path class="cls-1" d="M21.25,24.38c.26,0,.54.03.66.05.04,0,.07,0,.11,0,.12-.02.4-.06.67-.05.28.02.32.09,1.12.02.12,0,.27-.02.43-.05,0,0-.65-.07-1.12-.24-.3-.1-.62-.12-.94-.06-.04,0-.08.02-.12.02-.05.02-.11.02-.16,0-.04,0-.09-.02-.13-.02-.31-.06-.62-.04-.92.06-.47.17-1.13.24-1.13.24.17.02.31.04.43.05.8.07.83,0,1.12-.02Z"/>
      <path class="cls-1" d="M22.45,25.8h.05s-.02,0-.04-.02c-.02,0-.07-.02-.12-.04-.02,0-.05-.02-.08-.02-.02,0-.06-.02-.09-.02-.06-.02-.13-.02-.2-.02-.03,0-.07,0-.11,0-.03,0-.07,0-.1,0-.06.02-.12.02-.17.04-.1.03-.17.07-.17.07,0,0,.07,0,.17-.02.05,0,.11,0,.17,0,.07,0,.13,0,.2,0,.13,0,.27,0,.37.02.05,0,.09,0,.12.02Z"/>
      <path class="cls-1" d="M21.19,22.32s-.34.11-.43.66c-.13.05-.26.08-.37.17-.11.07-.21.17-.3.27.02-.02.07-.03.1-.04.02-.02.06-.02.08-.04.07-.02.13-.06.2-.08.15-.06.3-.1.47-.11.14,0,.29,0,.43.02,0,0,.22.25.6.25s.59-.25.59-.25c.15-.02.29-.03.44-.02.16,0,.32.05.47.11.07.02.12.06.19.08.03.02.06.02.09.04.02,0,.08.02.09.04-.08-.1-.19-.19-.3-.27-.12-.08-.24-.12-.37-.17-.09-.55-.43-.66-.43-.66.53.79-.21.63-.29.55.02.27-.29.29-.42.29h-.12c-.13,0-.44-.02-.42-.29-.09.08-.82.24-.3-.55Z"/>
      <path class="cls-1" d="M19.57,24.03s-.07.04-.12.07c-.03.03-.07.07-.11.12-.02.02-.03.05-.05.07-.02.02-.02.05-.03.07-.02.05-.04.09-.04.13,0,.04,0,.07,0,.1,0,.02,0,.04,0,.04,0,0,0-.06.04-.12.02-.03.03-.07.06-.11.02-.04.06-.08.09-.12,0-.02.02-.04.04-.06.02-.02.03-.03.05-.06.02-.02.03-.03.05-.05.02-.02.02-.03.04-.04.02-.03.05-.06.07-.07l.02-.02s-.02,0-.04,0c-.02.02-.05.02-.08.05Z"/>
      <path class="cls-1" d="M20.29,21.29c.14-.03.28-.09.41-.17.05-.04.12-.1.16-.16,0-.02.02-.06,0-.08,0-.02-.02-.02-.03-.03-.02-.02-.04-.02-.07,0-.03,0-.06.02-.07.04-.08.08-.19.14-.28.2-.17.1-.35.14-.56.12.27-.04.49-.33.55-.43.06-.11.11-.32.1-.44h0c.18.07.52.37.52.37,0,0,.07-.17-.16-.37-.24-.2-.52-.35-1.13-.29-.62.05-1.26.62-1.29.66-.02.02-.02.03,0,.04.04,0,.11-.04.14-.06.07-.03.14-.07.22-.11.07-.04.15-.1.24-.12-.02,0-.03.08-.04.1,0,.03-.02.07-.02.11-.02.08-.02.15,0,.23-.07-.05-.12-.08-.12-.08-.06-.04-.12.07.4.36.32.18.68.23,1.05.13ZM19.04,20.43c.12-.07.24-.12.32-.14,0,0,.02,0,.04-.02-.05.17-.17.68.16.87,0,0,.02,0,.02,0-.24-.06-.44-.17-.57-.24,0-.09-.02-.33.02-.48Z"/>
      <path class="cls-1" d="M18.83,19.71c.23-.07.47-.13.72-.15.48-.04.98.05,1.4.32.08.06.27.27.37.26.12-.02,0-.17-.06-.22-.29-.3-.69-.61-1.09-.72-.54-.17-1.04.07-1.51.32-.17.08-.33.18-.5.27-.02,0-.05.02-.07.05,0,0,0,0,0,.02-.05.07.02.12.09.12.12,0,.22-.08.32-.13.12-.05.22-.09.34-.13Z"/>
    </g>
  </g>
</svg>