<?xml version="1.0" encoding="UTF-8"?>
<svg id="Layer_1" data-name="Layer 1" xmlns="http://www.w3.org/2000/svg" viewBox="0 0 118.61 79.08">
  <defs>
    <style>
      .cls-1 {
        fill: #25346c;
      }

      .cls-1, .cls-2, .cls-3, .cls-4 {
        stroke-width: 0px;
      }

      .cls-2 {
        fill: #ce152b;
      }

      .cls-3 {
        fill: #ffcb03;
      }

      .cls-4 {
        fill: #fff;
      }
    </style>
  </defs>
  <g>
    <rect class="cls-1" x="0" y="26.36" width="118.61" height="26.36"/>
    <rect class="cls-2" x="0" y="52.73" width="118.61" height="26.36"/>
    <rect class="cls-3" x="0" y="0" width="118.61" height="26.35"/>
  </g>
  <g>
    <polygon class="cls-4" points="55.42 33.47 53.74 35.19 54 32.8 51.85 31.73 54.2 31.23 54.56 28.86 55.75 30.94 58.12 30.55 56.51 32.33 57.62 34.47 55.42 33.47"/>
    <polygon class="cls-4" points="48.14 36.14 47.12 38.31 46.57 35.97 44.18 35.67 46.24 34.43 45.79 32.07 47.6 33.64 49.71 32.48 48.78 34.7 50.54 36.34 48.14 36.14"/>
    <polygon class="cls-4" points="42.14 41.12 41.92 43.52 40.61 41.49 38.26 42.03 39.78 40.15 38.55 38.09 40.79 38.95 42.38 37.15 42.26 39.54 44.47 40.5 42.14 41.12"/>
    <polygon class="cls-4" points="38.3 47.9 38.9 50.23 36.99 48.79 34.96 50.08 35.75 47.8 33.89 46.28 36.29 46.32 37.16 44.09 37.87 46.39 40.27 46.53 38.3 47.9"/>
    <polygon class="cls-4" points="63.19 33.47 64.87 35.19 64.62 32.8 66.76 31.73 64.42 31.23 64.06 28.86 62.87 30.94 60.49 30.55 62.11 32.33 60.99 34.47 63.19 33.47"/>
    <polygon class="cls-4" points="70.48 36.14 71.49 38.31 72.04 35.97 74.43 35.67 72.38 34.43 72.83 32.07 71.01 33.64 68.9 32.48 69.84 34.7 68.08 36.34 70.48 36.14"/>
    <polygon class="cls-4" points="76.47 41.12 76.7 43.52 78.01 41.49 80.35 42.03 78.84 40.15 80.06 38.09 77.82 38.95 76.23 37.15 76.36 39.54 74.15 40.5 76.47 41.12"/>
    <polygon class="cls-4" points="80.32 47.9 79.71 50.23 81.63 48.79 83.65 50.08 82.87 47.8 84.73 46.28 82.33 46.32 81.45 44.09 80.75 46.39 78.35 46.53 80.32 47.9"/>
  </g>
</svg>